<?xml version="1.0" standalone="no"?>
<!DOCTYPE svg PUBLIC "-//W3C//DTD SVG 1.1//EN" "http://www.w3.org/Graphics/SVG/1.1/DTD/svg11.dtd" >
<svg xmlns="http://www.w3.org/2000/svg">
<metadata>
This is a custom SVG webfont generated by Font Squirrel.
Copyright   : Copyright c 2001 by Steve Deffeyes All rights reserved
Foundry     : Steve Deffeyes
</metadata>
<defs>
<font id="webfontZ8B7mJG8" horiz-adv-x="1234" >
<font-face units-per-em="2048" ascent="1638" descent="-410" />
<missing-glyph horiz-adv-x="1228" />
<glyph unicode=" "  horiz-adv-x="1228" />
<glyph unicode="&#x09;" horiz-adv-x="1228" />
<glyph unicode="&#xa0;" horiz-adv-x="1228" />
<glyph unicode="!" horiz-adv-x="579" d="M0 1933q90 61 156 82l26 -4q18 0 78 35h27q14 -43 14 -139q0 -184 -4 -613l-6 -612q0 -41 23.5 -79t60.5 -42q-68 -31 -199 -100h-49l-10 1397q0 90 -56 90zM88 106q0 82 43 144.5t117 62.5q20 0 67 -16q41 -59 41 -127q0 -72 -49 -135.5t-117 -63.5q-102 0 -102 135z " />
<glyph unicode="&#x22;" horiz-adv-x="731" d="M0 1622q35 61 48 160.5t-7 169.5q41 10 145 119q14 -111 -36 -250q-58 -150 -150 -199zM326 1622q35 61 46 160.5t-7 167.5q43 12 147 121q14 -109 -39 -250q-59 -150 -147 -199z" />
<glyph unicode="#" horiz-adv-x="1601" d="M0 467l164 164q109 53 305 59l74 166l2 2q-57 16 -142 16q-246 0 -403 -79l164 163q125 61 366 62q43 0 78 -4l174 459l121 -60l-205 -418q121 -37 234 -45q72 178 198 523l121 -60l-225 -463q137 10 371 72l-154 -154q-168 -43 -285 -57l-40 -90l-44 -92q53 -6 107 -6 q143 0 416 71l-154 -153q-252 -66 -391 -66h-45l-197 -481l-98 41l213 450q-82 10 -164 39q-33 10 -74 17l-225 -547l-98 41l239 510q-245 0 -403 -80zM553 692q86 -2 137 -18q53 -18 107 -31l71 162h-16q-115 0 -231 31l-52 -113z" />
<glyph unicode="$" horiz-adv-x="1232" d="M0 137q41 37 63 103q18 55 21.5 144t-33.5 224h33q0 -59 38 -117.5t99 -109.5l96 637q-57 39 -106 82t-86 94t-57.5 111.5t-20.5 132.5q0 98 31 171.5t82 128t117.5 90.5t136.5 58l22 260l156 -32l-35 -199q49 6 90 6h17l18 225l156 -32l-37 -205q14 -2 26 -2h29 q59 0 90 6q18 4 31 8q-66 -98 -89.5 -210t-13.5 -198h-18q0 57 -24.5 104.5t-65.5 84.5l-98 -606q70 -43 135 -90.5t115.5 -102.5t80 -119.5t29.5 -144.5q0 -125 -46 -212t-116.5 -143.5t-154.5 -87t-162 -42.5l-25 -230l-127 15l33 204h-8h-64q-29 0 -55 2 q-12 -104 -24 -221l-127 15l34 217q-23 2 -43 3t-39 1q-16 0 -33 -4l-34 -9q-19 -6 -37 -10zM199 1597q0 -92 44 -162.5t113 -129.5q23 174 52 505q-31 -4 -67 -16t-67.5 -37.5t-53 -65t-21.5 -94.5zM322 315q66 -35 129 -53l92 617q-35 23 -71 42t-71 42q-30 -224 -79 -648 zM444 1237q33 -23 68 -44l70 -44q4 37 10 74q23 162 57 549q-53 20 -110 30zM559 242q10 -2 23 -2h24q47 0 96.5 8t90.5 32.5t67.5 70.5t26.5 124q0 57 -20.5 106.5t-55.5 92.5t-82 81t-100 72q-29 -227 -70 -585z" />
<glyph unicode="%" horiz-adv-x="1994" d="M0 1249q0 283 88 512q111 281 315 281q184 0 261 -227q61 -168 61 -431q0 -197 -63 -385q-68 -195 -187 -315q-106 -109 -170 -109q-35 0 -104 48q-106 68 -160 274q-41 162 -41 352zM104 1358q0 -205 78 -385q92 -219 236 -219q193 0 192 495q0 238 -67 412 q-84 233 -254 233q-100 0 -144 -217q-41 -153 -41 -319zM506 51q158 428 375 1079q72 217 237 816l119 -78l-332 -914q-94 -266 -301 -956zM1063 662q0 283 90 512q111 281 315 280q184 0 263 -227q59 -168 59 -430q0 -197 -66 -385q-66 -195 -184 -316q-104 -109 -170 -108 q-35 0 -104 47q-104 68 -160 274q-43 163 -43 353zM1169 770q0 -205 78 -385q92 -219 236 -219q193 0 192 496q0 238 -67 411q-84 233 -254 234q-100 0 -144 -217q-41 -154 -41 -320z" />
<glyph unicode="&#x26;" horiz-adv-x="1964" d="M0 530q0 111 35 195t92 146.5t127 106.5t141 73q109 47 180.5 66.5t118.5 19.5q57 0 106.5 -14.5t87.5 -35t65.5 -43t43.5 -38.5q33 12 69 30l71 37v72q0 514 -9.5 794.5t-37.5 337.5q70 0 141.5 34t147 84t154.5 108.5t163 108.5t173 84t185 34q129 0 216 -38 t139.5 -100.5t74 -144.5t21.5 -170q0 -154 -101.5 -309.5t-266.5 -302.5t-375 -283.5t-427 -253.5q0 -27 2 -103.5t13.5 -176.5t37 -210t72.5 -201t120 -150.5t179 -59.5q-37 -31 -73.5 -69.5t-75.5 -73.5t-82 -59.5t-88 -24.5q-53 0 -102.5 19.5t-89.5 56.5t-63.5 92 t-23.5 127v41l-68 -74q-52 -55 -135.5 -113.5t-189.5 -103.5t-229 -45q-109 0 -206 36t-171 104.5t-118 166.5t-44 223zM270 805q0 -33 1 -64.5t8 -62.5q12 12 56 25.5t107 41.5l228 105q-25 43 -60 78q-29 29 -72.5 53.5t-103.5 24.5q-33 0 -62.5 -17.5t-52 -46.5 t-36 -64.5t-13.5 -72.5zM287 649q18 -94 54 -168.5t95.5 -127t148.5 -81t212 -28.5q57 0 117.5 13t110.5 29.5t87 31t49 18.5l-8 145q-4 70 -7 149t-6 176t-3 226q-29 -20 -59.5 -33.5t-63.5 -25.5h10l-18 -8q-178 -86 -326 -150.5t-246 -103.5zM1343 1178 q141 78 280.5 163.5t266.5 178t236.5 186.5t189.5 190.5t126 192.5t46 188q0 88 -21.5 166t-72.5 135.5t-134 91t-206 33.5q-133 0 -239.5 -51t-184.5 -121.5t-126 -148.5t-64 -129q-16 -45 -29.5 -129t-24 -188.5t-18.5 -217t-13 -217t-8.5 -190.5t-3.5 -133z" />
<glyph unicode="'" horiz-adv-x="403" d="M0 1622q35 59 47 158.5t-6 169.5q39 10 143 118q14 -111 -37 -247q-57 -150 -147 -199z" />
<glyph unicode="(" horiz-adv-x="661" d="M25 993q-25 696 303 1280q-154 -586 -154 -985q0 -72 6 -127q33 -371 277 -934l-199 -227q-66 178 -115 342q-110 393 -118 651z" />
<glyph unicode=")" horiz-adv-x="661" d="M0 1821l199 227q66 -178 114 -342q111 -393 119 -651q25 -696 -303 -1280q154 586 154 985q0 72 -7 127q-32 371 -276 934z" />
<glyph unicode="*" horiz-adv-x="897" d="M0 1608l170 118l-98 181l198 -60l80 191l78 -193l199 56l-103 -181l168 -121l-205 -30l9 -207l-152 141l-156 -137l17 207z" />
<glyph unicode="+" horiz-adv-x="1339" d="M0 406l133 157q102 59 297 60q51 0 88 -7l-2 140q0 12 -2 30l-4 77q-2 40 -41 69h86q53 0 92 6q35 4 35 6h10q-23 -158 -28 -369v-4q68 -14 133 -14q117 0 338 70l-125 -148q-205 -63 -318 -63h-30v-217q2 -18 6 -39q2 -23 16 -35l39 -12q0 -4 -6 -11h-232l27 199l4 139 q-31 10 -59 23q-49 20 -129 20q-199 1 -328 -77z" />
<glyph unicode="," horiz-adv-x="501" d="M0 82q27 20 51 43q23 20 47.5 47t44.5 57q23 -35 49.5 -62.5t49.5 -45.5q27 -23 55 -39q-57 -43 -109 -94q-43 -43 -85 -97.5t-60 -111.5q14 41 29 78l25 62q13 32 26 48q-41 55 -82 86z" />
<glyph unicode="-" horiz-adv-x="1105" d="M51 489l94 164q72 61 209 62q59 0 92 -19q86 -49 166 -49q82 0 238 72l-88 -154q-143 -66 -223 -65q-82 0 -166 49q-35 20 -90 20q-142 0 -232 -80z" />
<glyph unicode="." horiz-adv-x="501" d="M0 84q27 20 51 43q23 20 47.5 47t44.5 57q23 -35 49.5 -62.5t49.5 -45.5q27 -23 55 -39l-53 -43l-50 -47q-28 -27 -51 -55q-23 37 -47 63.5t-47 44.5q-24 23 -49 37z" />
<glyph unicode="/" horiz-adv-x="1107" d="M0 51q195 428 463 1079q88 217 293 816l147 -78l-409 -914q-117 -266 -373 -956z" />
<glyph unicode="0" horiz-adv-x="1400" d="M0 887q0 377 147 684q184 375 521 375q301 0 430 -304q98 -225 98 -575q0 -262 -106 -512q-109 -260 -306 -420q-172 -145 -278 -145q-57 0 -172 63q-176 90 -262 365q-72 215 -72 469zM176 1032q0 -272 127 -514q152 -291 389 -291q315 0 316 660q0 317 -111 551 q-139 309 -418 309q-164 0 -239 -289q-64 -205 -64 -426z" />
<glyph unicode="1" horiz-adv-x="753" d="M0 1647q96 111 549 360v-1896q-55 -84 -115 -117q-27 -12 -155 -76q41 393 40 569v955q0 311 -86 311q-6 0 -106 -50t-127 -56z" />
<glyph unicode="2" horiz-adv-x="1347" d="M0 -6q352 416 479 606q299 438 299 766q0 180 -88 293t-219 113q-113 0 -174 -68q-90 -94 -129 -117q66 160 215 288t272 128q139 0 223.5 -123t84.5 -321q0 -289 -144 -566q-66 -123 -284 -415q-166 -215 -191 -357l799 15q-18 -57 -103 -146q-84 -102 -120 -102z" />
<glyph unicode="3" horiz-adv-x="1118" d="M0 94q78 94 162 113q238 -100 323 -101q74 0 162 113t88 209q0 381 -274 516q-12 4 -244 98l285 195q47 35 73 133q29 84 29 158q0 324 -278 323q-92 0 -144 -41q-115 -80 -123 -86q70 125 224 218q145 76 268 75q98 0 177 -112.5t79 -251.5q0 -133 -74 -234 q-43 -59 -141 -143q-80 -66 -84 -105q27 -23 121 -57q129 -59 206.5 -189t77.5 -321q0 -397 -440 -586q-166 -76 -213 -75q-33 0 -135 59t-125 92z" />
<glyph unicode="4" horiz-adv-x="1554" d="M0 457v65q25 111 131 283l152 254l278 565q172 328 377 408v-1344q0 -55 27 -65q14 -6 67 -7q109 0 318 23q-96 -117 -199 -152q-68 -27 -227 -26v-148l2 -149q0 -117 -29 -150l-104 -77h-58v524q-309 0 -682 35q-20 0 -53 -39zM211 694h14v-39q27 27 45 27q27 0 92 -10 q55 -12 95 -13l278 -6v989z" />
<glyph unicode="5" horiz-adv-x="1284" d="M0 80q74 37 178 117q141 -113 191 -107l239 39q119 33 170 131q41 90 41 277q0 248 -135 385q-92 104 -289 161q-102 33 -227 86q61 125 82 334q2 106 18 365q135 131 267 131q76 0 220 -20.5t216 -20.5q57 0 108 47v-63q-35 -53 -97 -99.5t-112 -46.5h-321 q-41 41 -72 41q-10 0 -26 -6q-23 -74 -56 -252q-35 -193 -35 -246q0 -35 164 -80q199 -55 326 -188q158 -166 158 -416q0 -299 -324 -569q-141 -135 -233 -135h-265q-69 0 -186 135z" />
<glyph unicode="6" horiz-adv-x="1296" d="M0 643q0 68 51 324q55 309 264 595.5t482 403.5l-205 -186q-397 -350 -397 -983q0 -260 114 -447q135 -215 371 -215q113 0 170 131q43 100 43 230q0 203 -115 348q-121 160 -305 160q-23 0 -242 -134q260 256 449 256q190 0 307 -153q104 -139 105 -346 q0 -231 -188.5 -439t-407.5 -208q-225 0 -369 221q-127 194 -127 442z" />
<glyph unicode="7" horiz-adv-x="1445" d="M0 -10l524 897q287 496 480 917q-72 14 -429 15q-381 0 -456 -47v69q172 137 209 137h635q49 0 140 -5t138 -5q-215 -422 -530 -975q-420 -754 -549 -889q-45 -51 -162 -114z" />
<glyph unicode="8" horiz-adv-x="1232" d="M0 467q0 166 135 309q127 135 281 185q-145 -127 -166 -156q-66 -86 -66 -211q0 -193 125 -326t305 -133q197 0 197 305q0 242 -188 402q-51 51 -170 139t-177 139q-182 160 -182 396q0 170 173 320.5t333 150.5q143 0 260 -120t117 -274q0 -125 -115 -250 q-98 -106 -223 -161q150 244 149 319q0 131 -111.5 239.5t-238.5 108.5q-147 0 -147 -239q0 -70 37 -154q35 -72 217 -229q233 -190 321 -287q162 -190 162 -365q0 -203 -191.5 -394t-387.5 -191q-199 0 -324 135t-125 342z" />
<glyph unicode="9" horiz-adv-x="1251" d="M0 1262q0 264 166 485q180 233 426 233q225 0 344 -182q111 -156 111 -399q0 -373 -314 -828q-274 -403 -612 -637v60q383 307 645 840v38l-184 -102q-123 -63 -193 -63q-162 0 -283 202q-106 175 -106 353zM178 1430q0 -193 131 -365q139 -188 305 -188q152 0 199 129 q25 78 25 270q0 201 -97 366q-123 182 -303 183q-123 0 -196 -139q-64 -115 -64 -256z" />
<glyph unicode=":" horiz-adv-x="569" d="M0 233q0 16 72 58q25 14 90 45q16 12 47 12q33 0 57 -86q18 -86 37 -86q16 0 25 4l16 4q18 0 21 -18q0 -12 -11 -19l-94 -65q-68 -41 -98 -43q-45 -2 -75 91t-40 95q-6 0 -14 -3t-15 -5q-18 0 -18 16zM0 834q0 16 72 55q29 16 90 45q14 6 39 10q43 0 64.5 -84t45.5 -86 q8 0 17 4l16 4q18 0 21 -18q0 -12 -56 -49l-47 -35q-63 -43 -106 -43q-39 0 -69 92t-40 94q-6 0 -14 -3t-15 -5q-18 1 -18 19z" />
<glyph unicode=";" horiz-adv-x="579" d="M0 236q0 18 92 71q86 49 129 51q111 4 141 -196l-260 -316q49 129 50 197q0 66 -23 121q-29 68 -53 67q-27 0 -39 -6l-19 -4q-18 1 -18 15zM10 829q0 18 72 58q29 16 90 45q14 6 39 10q43 0 64.5 -84t46.5 -86q8 0 16 4l16 4q18 0 21 -20q0 -10 -56 -47l-47 -35 q-59 -41 -100 -45q-49 0 -75.5 93t-33.5 93q-10 2 -19 -2t-15 -6q-19 0 -19 18z" />
<glyph unicode="&#x3c;" horiz-adv-x="811" d="M0 637q61 41 168 188l180 258l258 138q-12 -12 -190 -265q-117 -166 -230 -223q147 -84 240 -246l137 -313l-164 -102q-150 307 -157 319z" />
<glyph unicode="=" horiz-adv-x="1105" d="M51 367l94 163q72 61 209 62q59 0 92 -19q86 -49 166 -49q82 0 238 72l-88 -154q-143 -66 -223 -65q-82 0 -166 49q-35 20 -90 20q-142 1 -232 -79zM51 633l94 164q72 61 209 61q59 0 92 -18q86 -49 166 -49q82 0 238 71l-88 -153q-143 -66 -223 -66q-82 0 -166 49 q-35 20 -90 21q-142 0 -232 -80z" />
<glyph unicode="&#x3e;" horiz-adv-x="827" d="M0 51q12 12 190 264q117 166 230 224q-147 84 -240 245l-137 314l180 102q133 -307 142 -319q90 -160 258 -246q-78 -41 -185 -189l-180 -258z" />
<glyph unicode="?" horiz-adv-x="1056" d="M0 1569q0 215 101.5 348t271.5 133q164 0 321.5 -191.5t157.5 -398.5q0 -170 -87 -380t-200 -306l-57 -47q-35 -35 -43 -61q-18 -59 -19 -121v-35q0 -68 -167 -143q-4 18 -33 32l-4 156q0 219 116 373q25 35 211 258q111 172 111 413q0 150 -25 218q-39 100 -143 100 q-156 0 -262.5 -137.5t-106.5 -333.5q0 -125 47 -211q29 -49 129 -152q-117 41 -215 187q-104 154 -104 299zM233 104q0 80 29 140q35 70 94 69q12 0 50 -16q35 -59 34 -127q0 -68 -39 -132.5t-90 -64.5q-78 0 -78 131z" />
<glyph unicode="@" horiz-adv-x="1726" d="M0 993q0 432 217 686l98 123q100 115 241.5 179.5t295.5 64.5q291 0 467 -211q94 -113 148.5 -287t54.5 -358q0 -362 -189 -510l-8 -8q25 -53 41 -58q-53 -35 -108.5 -83t-96.5 -101q-4 23 -24.5 80l-47.5 127l-57 140l-47 118q-33 -39 -82 -91t-106.5 -99.5t-118 -80 t-115.5 -32.5q-41 0 -82 13t-75.5 39t-56 62.5t-21.5 84.5q0 57 49 122.5t122.5 130t159.5 125.5l160 115q-53 80 -100 116t-105 36q-23 0 -58.5 -15.5t-71 -34t-62.5 -35t-33 -20.5q4 4 32 26l68 53q41 32 93 67l100 65q49 31 94 50.5t74 19.5q43 0 80 -44t65.5 -103.5 t51 -121t36.5 -96.5q10 -29 35 -91l54 -138l63 -155q33 -79 61 -138l9 8q113 178 112 412q0 334 -203 571q-174 203 -456 203q-281 0 -486 -190q-166 -250 -166 -621q0 -209 58 -397q59 -195 168 -326q86 -100 241 -172q168 -76 334 -76q197 0 334 111l-131 -154 q-113 -92 -283 -92q-168 0 -342 82q-166 74 -256 180q-111 131 -170 328q-59 192 -59 401zM522 934q0 -29 17.5 -54.5t48 -45t71.5 -31.5t89 -12q43 0 80.5 14t66.5 40.5t45 63.5t16 80q-16 27 -31.5 58.5t-27.5 60.5l-28 71q-13 34 -29 56q-37 -16 -91.5 -46t-104.5 -70 t-86 -87t-36 -98z" />
<glyph unicode="A" horiz-adv-x="1589" d="M0 0v23l100 22q168 547 285 977l93 360q44 176 69.5 315.5t30.5 226.5v19q0 68 -27 72q-59 4 -92 8.5t-49 8.5q-20 4 -25 6v12q37 -4 82 -6q39 -4 92 -5t119 -1t128 1t112 5q57 2 108 6v-12l-135 -23q96 -545 188 -973q39 -184 82 -360t84 -315.5t80 -227.5t72 -94l37 -7 q16 -3 28 -7q14 -4 25 -8v-23q-35 4 -74 10q-35 4 -80 8.5t-96 4.5q-63 0 -107.5 -4.5t-72.5 -8.5l-53 -10v23l65 22l-178 832h-461q0 4 -8 -55.5t-17.5 -149.5t-16.5 -198q-6 -84 -5 -159v-43q2 -94 14.5 -158.5t44.5 -70.5q41 -8 59.5 -12t24.5 -6q8 -2 2 -2v-23 q-37 4 -79 10q-37 4 -85.5 8.5t-103.5 4.5q-51 0 -98 -4.5t-82 -8.5q-43 -6 -80 -10zM453 1036h401l-219 811z" />
<glyph unicode="B" horiz-adv-x="1419" d="M0 2038v10q51 -4 102 -6q43 -2 89.5 -3t80.5 -1q37 0 82 2t92.5 3t95.5 3t89 2q78 0 148.5 -31.5t124.5 -90t86 -139.5t32 -179q0 -59 -17.5 -108.5t-46 -90.5t-65.5 -73.5t-74 -57.5q-88 -59 -201 -94q166 -23 297 -94q55 -31 109.5 -76t96.5 -107.5t67.5 -144.5 t25.5 -189q0 -123 -48 -228t-128 -182t-181 -120t-208 -43q-88 0 -150.5 4t-108.5 8t-80 8.5t-64 4.5q-51 0 -85 -4.5t-55 -8.5q-25 -6 -38 -12v25l67 18q12 96 23 238q8 121 15 303t7 438q0 82 -3 186.5t-8 213t-12 214t-17.5 188.5t-23 134t-26.5 53q-25 4 -42 9t-28 10 q-12 4 -20 8zM371 1223q0 -117 2 -245t6 -258t10 -257t14 -242q29 -92 94.5 -135t143.5 -43q76 0 130 49t87 128t48.5 180.5t15.5 205.5q0 195 -50.5 307.5t-125 170t-160.5 72.5t-158 15q100 8 162.5 42t95.5 92.5t44 141.5t11 191q0 74 -24.5 149t-68.5 130t-106 84 q-38 17 -81 17q-28 0 -58 -7q-16 -160 -24 -353t-8 -435z" />
<glyph unicode="C" horiz-adv-x="1236" d="M0 958q0 264 60.5 468t163 342.5t236.5 209t281 70.5l191 -12q55 0 74 6q10 2 16 6h10q-16 -43 -30.5 -87t-26.5 -93t-20.5 -106.5t-12.5 -129.5h-22q0 39 -18.5 94.5t-59.5 106.5t-110.5 87t-170.5 36q-170 0 -247.5 -203t-77.5 -592q0 -104 13 -220t40.5 -229.5 t69.5 -217t99.5 -182.5t130.5 -126t163 -47q76 0 124 21.5t76 50.5q33 33 47 74l23 -23q-35 -74 -96 -129q-53 -49 -136 -89t-206 -40q-55 0 -121 16.5t-130.5 58.5t-125 111.5t-106.5 176t-73.5 251.5t-27.5 340z" />
<glyph unicode="D" horiz-adv-x="1619" d="M0 -4v24l106 15q16 133 29 317q10 158 20.5 385.5t10.5 526.5q0 137 -6 271t-15.5 239.5t-20.5 172t-24 68.5l-94 21v20q35 -6 74 -10q35 -4 77 -7t89 -3q37 0 74.5 3t79.5 7t90.5 7t109.5 3q176 0 325.5 -70.5t258 -199.5t170 -310.5t61.5 -402.5q0 -213 -37 -374.5 t-98 -281.5t-142 -199t-166 -127t-170 -68.5t-157 -20.5q-100 0 -206.5 9t-198.5 9q-53 0 -96.5 -4t-75.5 -8q-37 -6 -68 -12zM360 1145q0 -104 3.5 -227t7.5 -249t10 -248t10 -226q51 -160 240 -160q94 0 166.5 46t128 125t94.5 182.5t63.5 218t35.5 232t11 226.5 q0 164 -45 333t-122.5 306t-183 224t-228.5 87q-53 0 -93 -11t-67 -40q-10 -68 -15 -149.5t-9.5 -181t-5.5 -220.5t-1 -268z" />
<glyph unicode="E" horiz-adv-x="1298" d="M0 2017v29q49 -6 121 -10q59 -4 151.5 -7.5t214.5 -3.5q129 0 254 5.5t275 15.5q-35 -66 -61.5 -168t-30.5 -201q-20 82 -68.5 143.5t-116 100.5t-148.5 58.5t-165 19.5q-12 -127 -15 -274.5t-3 -276.5q0 -150 6 -299q90 2 182 14q78 10 169 33t171 64 q-10 -68 -13 -131.5t-3 -112.5q0 -57 4 -111l-21 8q2 63 -43 100.5t-116.5 57t-159.5 23.5q-59 3 -115 2h-55q-4 -61 -5 -134q-1 -36 -1 -73.5t1 -74.5q1 -75 3 -150.5t6 -145.5l16 -332q112 -11 210 -11q49 0 95 3q57 2 115.5 10.5t107 23.5t82 38.5t43.5 60.5l7 -12 l-45 -121l-35 -99l-25 -77q-188 0 -354 12.5t-338 12.5q-63 0 -109.5 -4.5t-76.5 -8.5q-37 -6 -64 -12v25l119 16l27 430q4 88 9 184.5t9 188.5t6 177t2 153q0 168 -14.5 318.5t-30.5 264.5q-20 133 -43 246z" />
<glyph unicode="F" horiz-adv-x="1220" d="M0 2025v21q49 -4 121 -8q119 -6 368 -6q125 0 252 6t275 16q-31 -72 -57.5 -171t-30.5 -202q-18 86 -67.5 147.5t-116 101.5t-147.5 58.5t-165 18.5q-16 -129 -20 -277q-3 -99 -3 -191q0 -46 1 -89q2 -154 8 -305q90 2 182 14q78 10 170 35t172 70q-10 -68 -13 -131.5 t-3 -114.5q0 -59 2 -111l-19 6q2 63 -44 101.5t-117.5 58t-159.5 23.5q-59 3 -115 2h-55q-4 -61 -5 -141q0 -26 -1 -53q0 -54 2 -111l4 -176q2 -89 6 -173q8 -197 20 -407l140 -19v-14q-31 2 -72 6q-37 4 -91 6t-128 2q-59 0 -106.5 -3t-77.5 -7l-64 -10v27l121 12 q14 221 24 432q4 90 9.5 185.5t9.5 187.5t6 177t2 152q0 172 -13.5 324t-29.5 266q-18 133 -41 246z" />
<glyph unicode="G" horiz-adv-x="1538" d="M0 956q0 246 55.5 448t156.5 345t243.5 222t316.5 79q117 0 203 -13.5t145 -29.5q68 -18 115 -41l53 84l12 -6q-78 -119 -112.5 -259t-38.5 -319h-21q1 19 1 37q0 127 -37 230q-18 49 -50 97t-81.5 86t-119 60.5t-163.5 22.5q-88 0 -153.5 -47t-111.5 -124t-76 -178.5 t-47.5 -209t-23.5 -216t-6 -200.5q0 -193 37 -370t104.5 -312t161.5 -216t209 -81q98 0 160.5 54.5t97.5 130t47.5 153.5t12.5 127q0 104 -24 185t-62.5 136.5t-90 83t-108.5 27.5q-55 0 -97 -16.5t-71 -36.5q-35 -23 -57 -53q25 43 73 79q41 29 109.5 54.5t173.5 25.5 q123 0 199.5 -41t120.5 -104.5t60.5 -140t16.5 -146.5q0 -158 -52 -265.5t-136 -173t-188.5 -95t-206.5 -29.5q-227 0 -373 83t-230 218t-115.5 307t-31.5 348z" />
<glyph unicode="H" horiz-adv-x="1669" d="M0 12l127 21q16 125 29 289q10 141 19 340.5t9 455.5q0 162 -11 320.5t-26 285.5q-16 147 -34 283l-101 18v21q25 -6 60 -10q29 -4 69.5 -7.5t89.5 -3.5q68 0 123.5 3.5t96.5 7.5q47 4 86 10v-21l-125 -18q-8 -45 -15 -154q-4 -92 -8 -259t-4 -441h709q0 217 -6.5 377 t-14.5 266q-8 125 -20 211l-113 18v21q33 -6 72 -10q35 -4 82 -7.5t106 -3.5q53 0 100.5 3.5t83.5 7.5q43 4 80 10v-21l-133 -18q-12 -117 -20 -262q-8 -125 -14.5 -297t-6.5 -381q0 -287 8.5 -482.5t18.5 -318.5q12 -143 29 -233l98 -13v-20q-29 4 -66 10q-33 4 -77 7 t-101 3q-63 0 -110.5 -3t-81.5 -7q-39 -6 -68 -10v20l94 13q16 123 29 274q10 129 20.5 308.5t10.5 396.5h-709q0 -211 4 -390.5t8 -310.5q6 -154 15 -278l131 -13v-20q-35 4 -78 10q-37 4 -87 7t-108 3q-59 0 -107 -3t-83 -7q-41 -6 -74 -10z" />
<glyph unicode="I" horiz-adv-x="753" d="M0 2028v20q33 -6 74 -10q35 -4 83 -7t107 -3q66 0 114 3t81 7q37 4 63 10v-20l-104 -19q-12 -111 -21 -240q-8 -111 -13 -256t-5 -307q0 -207 9 -413.5t20 -374.5q12 -197 30 -377l111 -21v-18q-33 4 -76 8q-37 4 -89 7t-120 3t-116 -3t-78 -7q-37 -4 -58 -8v21l88 12 q20 137 37 313q14 152 25.5 362t11.5 470q0 158 -10 306t-21 265q-14 137 -30 258z" />
<glyph unicode="J" horiz-adv-x="876" d="M-516 -379l12 17q35 -27 72 -48q33 -16 70.5 -30.5t78.5 -14.5q63 0 131 14.5t129.5 43t112.5 70.5t84 96q37 66 61.5 165t40 216.5t23.5 245.5t12 252t4 235v192q0 242 -11 416t-25 291q-16 135 -37 225l-129 18v21q37 -6 80 -10q37 -4 85 -7.5t105 -3.5q78 0 132 3.5 t89 7.5q41 4 68 10v-21l-76 -26q-20 -102 -35 -246q-14 -123 -24.5 -299t-10.5 -407q0 -55 -1 -139.5t-3 -181.5t-3 -201.5t-1 -200t2 -176t6 -130.5q-41 -12 -96 -38.5t-111 -98.5l-106 -117q-57 -63 -128 -116.5t-158 -89t-195 -35.5q-47 0 -91 15.5t-79 33.5 q-41 22 -78 49z" />
<glyph unicode="K" horiz-adv-x="1607" d="M0 0v14l127 19q18 139 35 313q14 150 25.5 353.5t11.5 451.5q0 201 -8.5 360.5t-18.5 270.5q-10 129 -25 229l-127 19v20q35 -6 76 -10q35 -4 83 -7t106 -3q66 0 117 3t90 7q43 4 79 10v-20l-120 -19q-12 -121 -23 -264q-10 -123 -18.5 -288t-10.5 -351q45 35 99.5 95.5 t113 135t117.5 161.5t112.5 176t98.5 174t76 159l-82 21v18q23 -6 53 -10q27 -4 67 -6t93 -2q66 0 112 2t76 6q37 4 62 10v-18l-101 -21q-78 -57 -159.5 -143t-167.5 -188l-174 -208q-88 -106 -179 -204q86 -133 180.5 -295t184.5 -334l162 -277q80 -135 156.5 -239.5 t151.5 -169t146 -64.5l-6 -14q-5 -1 -11 -1q-15 0 -37 7q-30 10 -62.5 28.5t-66.5 41.5l-60 39q-29 23 -73 42l-93 41q-49 22 -96.5 48t-81.5 61q-31 31 -77 96l-102 149l-114 176l-115 182l-103 164l-81 122q-4 -4 -10 -9l-17 -13v-58q0 -227 6 -404t15 -300 q8 -143 20 -252l127 -13v-20q-33 4 -76 10q-37 4 -88 7t-116 3q-68 0 -120.5 -3t-86.5 -7q-41 -6 -72 -10z" />
<glyph unicode="L" horiz-adv-x="1271" d="M0 2025v21q31 -6 68 -10q33 -4 80 -7.5t108 -3.5q76 0 135.5 3.5t100.5 7.5q49 4 83 10v-21l-110 -20q-25 -125 -43 -270q-16 -125 -29.5 -291t-13.5 -352q0 -266 4 -444.5t8 -289.5q6 -129 15 -204q131 0 247 8q49 2 101.5 6t99.5 10t87 12.5t67 16.5l39 149l20 -6 l-33 -127q-14 -53 -28.5 -114.5t-24.5 -110.5q-76 12 -157 15t-161.5 3t-159.5 -3t-151 -3q-96 0 -159.5 -2t-104.5 -4q-47 -4 -76 -6v12l88 21q16 66 29 196q10 113 20.5 308.5t10.5 502.5q0 291 -6.5 478.5t-12.5 295.5q-8 127 -16 193z" />
<glyph unicode="M" horiz-adv-x="1898" d="M0 4v21l98 12q23 80 49 287q12 88 24.5 213t27 293.5t29 385t30.5 490.5q-47 135 -79 217t-52 88q-45 8 -55 14q-8 2 -11 5v18q29 -6 60 -10q27 -4 57.5 -6t59.5 -2t67.5 2t73.5 6q39 4 80 10q12 -86 35.5 -204t55.5 -250l67 -272l71 -273q82 -313 180 -654l125 467 l123 473l133 535q-4 47 -6 91t-8 87q12 -6 35 -10q18 -4 48 -6t71 -2q49 0 91 2t70 6q35 4 64 10v-18l-98 -19q-12 -100 -15 -238q-1 -46 0 -95q0 -96 2 -201q4 -158 13.5 -326t19.5 -328q25 -375 66 -786l92 -19v-14l-62 10q-31 4 -76 7.5t-102 3.5q-59 0 -104 -3.5 t-74 -7.5l-59 -10v21l79 12q0 227 -4 489q-4 225 -12 518t-23 621l-60.5 -275.5t-96 -378.5t-137 -459t-181.5 -515q-37 78 -77.5 192.5l-84.5 250.5l-89 287l-86 300l-83 292l-75 261q-6 -119 -7 -251q0 -44 -1 -88q0 -88 2 -177q2 -133 6 -264l8 -250q10 -279 29 -553 l127 -12v-27q-33 6 -70 12l-72 9q-41 5 -84 6q-55 0 -97 -3.5t-71 -7.5z" />
<glyph unicode="N" horiz-adv-x="1810" d="M0 2011q72 2 143 8q61 4 131 11.5t125 21.5q33 -84 91 -193l130 -232l150 -250l158 -249l393 -589q-2 334 -14 626q-6 125 -14.5 252t-19.5 241t-27.5 206t-37.5 147l-157 21l-7 20q39 -6 82 -10q37 -4 84 -7t99 -3q57 0 109 3t93 7q47 4 88 10l7 -20l-138 -21 q-16 -86 -26 -216t-18.5 -285.5t-12.5 -324.5t-6 -333q-5 -287 -5 -603q0 -105 1 -214l-315 437l-289 432l-257 398l-214 330q4 -125 14 -286l21 -331q11 -169 25.5 -335t30 -302t32 -228.5t30.5 -114.5l133 -21l6 -14q-37 4 -79 10q-37 4 -86.5 7t-106.5 3q-66 0 -115 -3 t-84 -7l-67 -10v20l106 15q18 29 31.5 131t23 249.5t14.5 327t6 360.5v90q0 134 -2 261q-3 170 -7 299q-78 111 -128 175.5t-71 64.5h-45z" />
<glyph unicode="O" horiz-adv-x="1622" d="M0 975q0 227 59.5 423.5t157.5 341t225 226.5t263 82q162 0 293.5 -78t225 -211t143.5 -311t50 -381q0 -268 -56 -468t-153.5 -333t-225.5 -199.5t-271 -66.5q-152 0 -263.5 44t-190.5 119t-129 173t-79 205.5t-39 219.5t-10 214zM279 1014q0 -74 9 -174.5t30.5 -207 t56.5 -211t86 -186t120.5 -132t159.5 -50.5q117 0 193 74t120 205t61.5 308t17.5 386q0 80 -11.5 183.5t-34 211t-59.5 211t-89 184t-119.5 131t-153.5 50.5q-100 0 -173 -82t-121 -218t-70.5 -314.5t-22.5 -368.5z" />
<glyph unicode="P" horiz-adv-x="1271" d="M0 2023v19q25 -6 57 -10q29 -4 69 -6.5t93 -2.5q115 0 222.5 9.5t226.5 9.5q82 0 170 -25.5t161.5 -88t121.5 -165t48 -256.5q0 -123 -28.5 -216t-74.5 -161.5t-104.5 -114.5t-119.5 -77q-143 -70 -326 -78q17 -2 33 -2q84 0 153 53q35 27 69 72t60.5 115.5t43 171 t16.5 237.5q0 111 -28.5 203t-75 156.5t-106.5 100.5t-124 36q-41 0 -66.5 -9t-41.5 -32q-23 -133 -27 -357.5t-4 -568.5q0 -274 10 -462.5t25 -307.5q16 -139 36 -225l152 -29v-12q-39 2 -84 6q-39 2 -92 4t-115 2q-76 0 -131 -2t-94 -4q-45 -4 -78 -6v12q14 2 33 8l36 10 l42 11q20 2 28.5 92t11.5 238q2 111 2 244v92q-1 188 -1 389q0 162 -10.5 322.5t-24.5 289.5t-32.5 211t-33.5 84l-37 7q-16 3 -30 7q-17 4 -31 6z" />
<glyph unicode="Q" horiz-adv-x="1619" d="M0 969q0 227 58.5 424.5t155.5 344t222 229.5t260 83q164 0 297 -79t226.5 -213t143.5 -312t50 -377q0 -182 -25.5 -331.5t-72.5 -270.5t-112.5 -212t-145.5 -153q51 0 131 -30q27 -8 76 -30l111 -50l132 -60l137 -59q67 -29 126 -49.5t100 -26.5q49 -10 96 -13 q28 -2 54 -2q17 0 32 1q45 2 86 6q-55 -25 -121 -45q-55 -16 -125.5 -29.5t-148.5 -13.5q-70 0 -167 14.5t-217 50t-259 93t-291 143.5q-25 0 -51.5 -4t-55.5 -4q-150 0 -260 44t-189 118.5t-128 173t-77 207t-38 220.5t-10 212zM270 1018q0 -76 9.5 -178.5t31 -209t56 -211 t87 -186t122 -132t159.5 -50.5q117 0 194 75t121 205t61 308t17 385q0 78 -10 180.5t-33.5 210t-60.5 211t-89 184t-121 130t-157 49.5q-98 0 -170.5 -81t-121 -216.5t-72 -310.5t-23.5 -363z" />
<glyph unicode="R" horiz-adv-x="1544" d="M0 2028v18q37 -6 80 -10q37 -4 85 -6t101 -2q51 0 93 3l87 6q45 3 101.5 6t136.5 3q125 0 225.5 -48t171 -125t107.5 -170t37 -185q0 -86 -20.5 -157t-53.5 -127t-76 -100t-86 -77q-104 -78 -235 -117q109 0 189.5 -67.5t144 -169t118 -221.5t108.5 -224t116.5 -177 t146.5 -81q-133 0 -226.5 19.5t-158 55.5t-108.5 86t-78.5 110.5t-67.5 129t-78 142.5l-112 190q-41 72 -81 109t-95.5 48t-155.5 11q0 -129 10 -280.5t23 -280.5q14 -152 34 -301l140 -19v-20l-82 10q-37 4 -87.5 7t-105.5 3q-74 0 -129 -3t-92 -7l-72 -10v14l39 9 q16 4 37 8l43 8q33 4 38 258t5 790q0 90 -4 191.5t-10 203t-14.5 196t-18.5 166t-20.5 115.5t-18.5 46q-20 4 -41.5 7t-42.5 7zM416 946q-2 -6 10 -12q10 -4 35.5 -8t79.5 -4q131 0 207.5 51t117.5 129t53.5 173t12.5 181q0 143 -35 247.5t-89 171.5t-117.5 98.5 t-119.5 31.5q-49 0 -75.5 -8t-40.5 -19q-16 -10 -19 -24q-8 -121 -12 -252t-6 -261t-2 -256v-239z" />
<glyph unicode="S" horiz-adv-x="1263" d="M0 -4q43 43 66 117q20 63 23 167v15q0 99 -36 242h33q0 -74 47 -149t124 -136.5t173 -99t193 -37.5q49 0 100 9t93 36.5t68.5 81t26.5 143.5t-36.5 163t-98 133t-138.5 114l-159 106q-82 53 -158.5 110.5t-138 127t-98.5 155.5t-37 195q0 162 64.5 269.5t159 171t203 90 t194.5 26.5q70 0 113.5 -9t99.5 -9q31 0 54 2t40 6q18 4 31 10q-66 -115 -92 -242q-18 -91 -18 -168q0 -31 3 -59h-18q0 80 -36 143.5t-96.5 107.5t-139.5 68.5t-167 24.5q-29 0 -69.5 -12.5t-77.5 -41t-63.5 -75.5t-26.5 -117q0 -92 37 -166.5t96 -139t136 -120.5l158 -110 q81 -55 157.5 -113.5t136 -126.5t96.5 -147.5t37 -180.5q0 -117 -33 -204.5t-85 -151t-118.5 -104.5t-136.5 -66t-135.5 -34t-114.5 -9q-61 0 -109 3t-87 7l-71 7q-32 3 -63 4q-16 0 -34.5 -5.5t-34.5 -9.5q-21 -6 -37 -12z" />
<glyph unicode="T" horiz-adv-x="1300" d="M0 1642q35 57 61.5 129t42.5 136q20 74 35 149l23 -6l-6 -33q283 0 488.5 -10t342.5 -13q29 -1 56 -1q97 0 154 9q73 11 91 54l12 -6q-25 -39 -47 -94q-20 -47 -42.5 -120t-43.5 -173h-14q4 24 4 44q0 18 -3 33q-7 32 -47 50t-121 26q-44 4 -105 3q-52 0 -117 -2 q-4 -92 -8 -201q-4 -92 -5 -211t-1 -248q0 -225 10 -428t22 -356q14 -180 35 -336l133 -19l6 -20q-33 2 -73 6q-35 2 -84 4t-109 2q-78 0 -137 -2t-100 -4q-47 -4 -82 -6v12l141 27q8 129 16 301q6 147 11.5 360t5.5 490q0 152 -5 268.5t-12 196.5q-8 94 -16 164 q-129 0 -211 -3.5t-135 -19.5t-87 -52t-67 -104z" />
<glyph unicode="U" horiz-adv-x="1708" d="M0 2046q35 -6 78 -12q37 -4 89 -7.5t118 -3.5q68 0 117 3.5t81 7.5q37 6 66 12v-23l-111 -18q-20 -162 -35 -330l-12 -150q-6 -79 -10 -160t-7 -161t-3 -153q0 -113 -1 -221v-21q0 -96 8 -182q9 -96 33.5 -177t74 -140.5t129 -92.5t200.5 -33q82 0 135.5 21.5t88 57.5 t56 81t38.5 92q10 180 17 396.5t7 424.5q0 217 -10 360.5t-23 229.5q-14 100 -30 158l-154 18v23q35 -6 74 -12q35 -4 81 -7.5t99 -3.5q72 0 120 3.5t77 7.5q35 6 53 12v-23l-60 -18q-18 -123 -30 -285q-12 -139 -21.5 -338.5t-9.5 -455.5q0 -154 -1 -294v-55q0 -108 3 -200 q4 -115 16.5 -197t36.5 -117l125 -24v-21q-53 12 -110 15q-19 1 -38 0q-37 0 -73 -2q-53 -4 -99 -12.5t-77 -18.5q4 37 8 86q4 41 6 100.5t4 130.5q-25 -43 -67.5 -97t-108 -103t-152.5 -83t-200 -34q-182 0 -269 70.5t-119 211.5q-28 124 -28 304v47q4 211 4 491 q0 190 -8 350t-18 279q-10 139 -25 252l-127 18z" />
<glyph unicode="V" horiz-adv-x="1484" d="M0 2030v18q25 -6 59 -10q29 -4 74 -6t105 -2q70 0 122 2t86 6q41 4 72 10v-18l-96 -21q-1 -9 -1 -23q0 -30 6 -80q9 -73 28.5 -173.5t47.5 -223.5l59 -253q32 -130 68 -262l70 -253q35 -121 68 -223t61 -172q35 102 74 246.5t75 305.5t68.5 329t56 317.5t37.5 271.5 q12 106 11 173v20l-107 21v18q31 -6 68 -10q31 -4 70 -6t80 -2q59 0 100 2t70 6q33 4 53 10v-18l-66 -21l-272 -852l-113 -344l-111 -330l-101 -282q-46 -127 -79 -203q-33 68 -73.5 186.5t-86.5 268.5l-96 319l-98 338l-95 324l-86 278q-40 123 -71 203t-51 94z" />
<glyph unicode="W" horiz-adv-x="2107" d="M0 2025v21q29 -6 66 -10q33 -4 78.5 -7.5t105.5 -3.5q68 0 123 3.5t96 7.5q47 4 86 10v-21l-131 -20q0 -29 10 -97.5t28.5 -163.5t43.5 -211l52 -238l57 -244l58 -232q28 -109 53.5 -196.5t45.5 -143.5q16 23 40 96.5t50.5 176t52.5 222.5l52 235l44 214l31 160 q-39 170 -69.5 283.5t-54.5 138.5l-78 20v21q23 -6 55 -10q29 -4 70 -7.5t98 -3.5q59 0 105 3.5t79 7.5q37 4 68 10v-21l-94 -20q0 -9 -1 -20q0 -56 10 -137q11 -95 29.5 -208.5t44 -241.5t54.5 -255l58 -247q30 -120 57.5 -219t51 -171t40.5 -105q18 78 41.5 214.5t48 297 t46 332.5t36 323.5t16.5 268.5v32q0 92 -10 136l-131 20v21q37 -6 76 -10q35 -4 74.5 -7.5t80.5 -3.5q70 0 119 3.5t82 7.5q37 4 63 10v-21l-79 -20q-23 -49 -50.5 -143.5t-59.5 -217.5l-67 -272l-71 -302l-75 -310l-76 -297q-38 -141 -75.5 -261t-74.5 -204 q-55 125 -110.5 299t-108 369.5t-99.5 395.5l-86 376l-51 -216l-67 -274l-73 -295l-73 -279q-35 -130 -66.5 -228.5t-52.5 -141.5q-20 33 -50 126t-67 226l-78 296l-86 332l-88 334l-85 304q-41 139 -77 242.5t-63 148.5z" />
<glyph unicode="X" horiz-adv-x="1794" d="M0 0v14l119 25l182 301l183 305l204 350l-19 44q-9 22 -22 42l-301 602l-162 324l-125 23v18q35 -6 74 -10q35 -4 79 -6t93 -2q78 0 133.5 2t93.5 6q43 4 76 10v-18l-98 -23q25 -78 68 -190l96 -238l145 -334q76 143 135.5 279.5t100.5 244.5q49 127 84 238l-154 23v18 q37 -6 78 -10q35 -4 78 -6t84 -2q57 0 101 2t75 6q37 4 61 10v-14l-90 -27l-170 -272l-165 -272l-177 -298q109 -223 220 -427l204 -359l211 -340l94 -16v-23l-69 10q-35 4 -87.5 8.5t-121.5 4.5q-61 0 -114.5 -4.5t-92.5 -8.5q-47 -6 -84 -10v23l119 16l-135 295l-136 287 l-147 307q-80 -156 -147.5 -313.5t-116.5 -286.5l-107 -289l135 -25v-14l-245 14z" />
<glyph unicode="Y" horiz-adv-x="1591" d="M0 2030v18q31 -6 68 -10q33 -4 77.5 -6t100.5 -2q66 0 119 2t94 6q47 4 86 10v-18l-127 -21l157 -332l71 -144l77 -149l78 -144q39 -71 76 -128q31 63 59.5 137t53.5 149l49 149l44 143q47 158 86 319l-139 21v18q39 -6 76 -10q33 -4 69.5 -6t67.5 -2q66 0 111 2t76 6 q35 4 59 10v-18l-80 -21l-145 -280l-152 -303l-182 -367q-13 -215 -13 -382q0 -42 1 -80q4 -194 14 -321q10 -147 31 -247l133 -21v-12q-41 2 -88 6q-41 2 -95.5 4t-115.5 2q-55 0 -105.5 -2t-89.5 -4q-45 -4 -84 -6v18l148 15q14 164 22 331q5 123 5 266v48q-1 170 -21 325 l-71 123l-85 153l-93 166l-93 167l-224 401z" />
<glyph unicode="Z" horiz-adv-x="1228" d="M0 1632l16 164l8 136q1 19 0 37q0 46 -6 79q4 -10 73 -17.5t169 -10.5t221 -4h60q89 0 171 2q110 3 194.5 10.5t117.5 19.5q-29 -55 -75 -163l-103 -246l-121 -296l-127 -313l-315 -797q156 -6 292 -6q57 0 117 2t112 6.5t94 11.5t67 19l12 92h18l-37 -356 q-31 10 -93 15.5t-143 6.5q-40 1 -84 0.5t-90 -0.5q-93 -1 -188.5 -3.5t-184.5 -6.5t-163 -6q94 113 221 387l316 715q57 135 105 263l83 229q41 117 74 221q-49 -4 -124 -4h-159q-84 0 -168 -2t-154.5 -10.5t-117.5 -27t-55 -48.5l-6 -99h-27z" />
<glyph unicode="[" horiz-adv-x="851" d="M0 -268q27 203 27 497q0 190 -13.5 577.5t-13.5 577.5q0 123 2 365l2 367l133 106q88 -47 197 -47q70 0 108 23q20 14 99 79q-8 -14 -9 -24q0 -14 5.5 -11t5.5 -12q0 -4 -2 -4q-115 -102 -160 -127q-68 -41 -152 -41q-37 0 -90 6v-94v-196v-293q0 -190 13.5 -579.5 t13.5 -582.5q0 -244 -23 -423q78 61 111 77q45 23 117 23q47 0 139 -11.5t137 -11.5l-143 -116q-45 0 -132 11t-130 11q-49 0 -90 -12l-13 -27z" />
<glyph unicode="\" horiz-adv-x="1155" d="M0 1966l156 82q215 -629 307 -858q283 -686 487 -1137l-127 -55q-270 727 -393 1008z" />
<glyph unicode="]" horiz-adv-x="851" d="M0 2036l143 116q45 0 132 -11t131 -11q49 0 90 12l12 27l139 108q-27 -203 -26 -497q0 -190 13 -577.5t13 -577.5q0 -123 -2 -365l-2 -366l-133 -107q-88 47 -197 47q-70 0 -108 -22q-20 -14 -99 -80q8 14 9 24q0 14 -5.5 11t-5.5 12q0 4 2 4q115 102 160 127 q68 41 152 41q37 0 90 -6v94v197v292q0 190 -13.5 579.5t-13.5 582.5q0 244 23 424q-78 -61 -111 -78q-45 -23 -117 -23q-47 0 -139 11.5t-137 11.5z" />
<glyph unicode="^" horiz-adv-x="985" d="M0 1182l92 161l172 113q98 66 139 146q57 -104 164 -162q8 -4 213 -88l-82 -144l-209 86q-109 57 -163 150q-39 -70 -150 -144q-168 -110 -176 -118z" />
<glyph unicode="_" horiz-adv-x="2201" d="M0 -250l236 164q180 61 522 61q150 0 231 -18q215 -49 414 -49q205 0 594 72l-219 -154q-358 -66 -559 -66q-205 0 -414 50q-88 20 -225 20q-355 0 -580 -80z" />
<glyph unicode="`" horiz-adv-x="614" d="M0 2040q147 -29 188 -15q25 -68 91.5 -141.5t130.5 -105.5q-100 -10 -236 82q-123 82 -174 180z" />
<glyph unicode="a" horiz-adv-x="1341" d="M0 199q0 57 59.5 122.5t147.5 130t190 126.5l189 114q-63 80 -119.5 116t-124.5 36q-29 0 -75 -16.5t-89 -36.5q-53 -23 -106 -52q115 78 221 142q45 27 92 51l91 44.5t82 33t65 12.5q51 0 95 -44t80 -104.5t61.5 -122t43.5 -96.5l47 -114l65 -154q34 -78 66.5 -137.5 t55.5 -63.5q-61 -35 -128 -84t-116 -102q-10 45 -37 126t-72 177q-39 -39 -98 -91t-126.5 -99t-140.5 -80t-138 -33q-47 0 -97.5 13.5t-91.5 39t-66.5 62.5t-25.5 84zM233 342q0 -29 21.5 -54.5t57.5 -45t85 -31.5t105 -12q49 0 94 14t79 41t54.5 63.5t20.5 79.5l-35 59 l-35 60q-16 37 -33.5 71t-36.5 56q-45 -16 -109.5 -46t-124 -70t-101.5 -87t-42 -98z" />
<glyph unicode="b" horiz-adv-x="1275" d="M-164 1642q403 131 723 334q135 86 265 198t231.5 250t164 303t62.5 359q0 76 -22.5 145.5t-71.5 123t-129 86t-193 32.5q-115 0 -210 -48t-165.5 -114.5t-116.5 -137t-61 -113.5q-25 -68 -37 -175.5t-18 -240.5t-7 -283.5t-1 -304.5q0 -78 1 -190.5t2 -245.5t3 -278.5 t5 -288t5 -273.5t4 -236.5t4 -176t5 -93.5q156 -74 261 -86q29 -3 55 -3q68 0 115 23q65 32 93 99.5t28 153.5q0 100 -31.5 174t-80.5 121t-110.5 69.5t-121.5 22.5q-43 0 -78.5 -9.5t-64.5 -19.5q-33 -12 -59 -26q74 68 149 120q66 45 139.5 83t139.5 38t130 -27.5 t115.5 -80t83 -129t31.5 -172.5q0 -70 -31.5 -143.5t-87 -143.5t-127 -132.5t-151.5 -108.5t-163 -72.5t-159 -26.5q-115 0 -203 29.5t-128 66.5q8 16 13 93t8 195t4 265.5t1 307.5v325q0 164 -1 310.5t-2 268t-1 197.5q0 154 -4 299.5t-10 277.5t-13.5 245.5t-15.5 201.5 q61 0 128 31t137.5 77t143 99t148.5 99t152.5 77t154.5 31q117 0 200 -36t135 -93t77 -130t25 -149q0 -193 -63.5 -356.5t-166 -300.5t-234.5 -249t-270 -200q-323 -205 -733 -338z" />
<glyph unicode="c" horiz-adv-x="1202" d="M0 446q0 78 34 143.5t86 121t116.5 101.5t127.5 85l113 70q51 31 80 57q25 -29 68 -57.5t90 -52t93 -39t81 -15.5q-31 -20 -69 -42l-71 -41l-60 -34q-26 -14 -36 -22q-8 -1 -17 -1q-24 0 -56 7q-45 10 -93.5 28.5t-91.5 39t-65 36.5q-18 -12 -38 -34.5t-36 -53 t-26.5 -67.5t-10.5 -78q0 -92 46 -161.5t112.5 -116t141.5 -70t134 -23.5q80 0 143.5 15.5t108.5 36.5q53 23 92 51q-43 -39 -99 -95.5t-122.5 -108.5t-145.5 -89t-169 -37q-102 0 -187.5 38t-145.5 100.5t-94 142t-34 165.5z" />
<glyph unicode="d" horiz-adv-x="1251" d="M-307 1536q0 61 44 123.5t114.5 119t161.5 105.5t183.5 85t178.5 56.5t149 20.5q170 0 299 -57.5t213 -140.5t122 -176q29 -70 29 -127q0 -18 -3 -36q0 88 -53.5 178.5t-144.5 164t-209 119.5t-247 46q-92 0 -200.5 -29.5t-200.5 -77.5t-153.5 -109.5t-61.5 -125.5 q0 -55 35 -116.5t90 -123t124.5 -120t138.5 -107.5t131.5 -88t103.5 -59q59 -31 145 -65.5t166 -88t136 -135.5t56 -205q0 -68 -20.5 -123t-54 -103t-77.5 -90t-91 -79q-98 -80 -187.5 -127t-183.5 -47q-80 0 -145.5 32.5t-112.5 84t-72.5 115t-25.5 124.5q0 88 20.5 147.5 t53 100.5t74.5 70l85 55q41 31 84 55.5t90 40.5q-74 35 -142.5 72t-119.5 78l-145 100q-88 61 -172 136t-144.5 159t-60.5 168zM283 541q0 -66 24.5 -127.5t70.5 -108.5t113.5 -76.5t155.5 -29.5q70 0 104.5 17t48 49t13.5 77v102q0 61 -25.5 113.5t-67.5 96.5t-98.5 81 t-117.5 68q-37 -6 -76 -27.5t-71.5 -55.5t-53 -80t-20.5 -99z" />
<glyph unicode="e" horiz-adv-x="1210" d="M0 475q0 100 31.5 177t83 134.5t115 95.5t124.5 62q197 80 269 80q76 0 132 -25.5t97 -56.5q45 -37 80 -82l-676 -272q14 -86 41 -153.5t78 -115t133 -73t211 -25.5q59 0 111.5 15.5t91.5 35.5q45 23 84 52q-55 -92 -134 -164q-66 -61 -165 -111.5t-230 -50.5 q-94 0 -180 32.5t-152.5 94t-105.5 150.5t-39 200zM242 733q0 -33 1 -63.5t7 -61.5l344 158q-20 39 -51 70q-27 27 -66 48t-90 21q-29 0 -55.5 -15.5t-48 -40t-32.5 -55t-9 -61.5z" />
<glyph unicode="f" horiz-adv-x="794" d="M-2540 -3391q16 82 46 165q25 72 67.5 161t108.5 177q57 55 163.5 109.5t242.5 97.5t297 69.5t327 26.5q307 0 549.5 -58t422 -137t294 -160t163.5 -124q12 39 18.5 160t8.5 294q1 87 1 183.5t-1 203.5q-2 214 -5 439t-8 448.5t-11 416.5l-9 345l-6 228q-41 0 -86 10 t-84 25q-45 16 -88 37q18 -2 36 -2q28 0 56 4q41 4 85 15t81 38l-21 606q-9 268 -17.5 484l-15.5 386l-13 310l-9 255l-8 224q31 0 62.5 11t70.5 36t89 64l118 94q141 100 292.5 153.5t330.5 53.5q72 0 114.5 -15.5t69.5 -34.5q-35 -59 -60.5 -117.5t-41.5 -115.5 q0 -217 -53.5 -404.5t-141.5 -344t-198.5 -285.5t-227.5 -230q-274 -238 -621 -393q340 162 609 400q113 100 222 229t195.5 285.5t138.5 342t52 400.5q-29 25 -70 47q-37 16 -93 31.5t-140 15.5q-115 0 -192.5 -21.5t-126 -55t-73 -75.5t-34.5 -83q-12 -51 -21.5 -183.5 t-14.5 -315.5t-7 -405l-4 -450q-2 -229 -3 -454.5t-3 -418.5q68 -29 147.5 -38t147.5 -9q80 0 159 9q-76 -31 -153 -54q-68 -20 -148 -38.5t-153 -22.5l-5 -317q-3 -189 -7.5 -412t-10.5 -468t-14 -485.5t-20.5 -465t-30 -404.5t-40 -304t-51.5 -165q-63 70 -164.5 137.5 t-225.5 129t-265 112.5t-285.5 89t-285 59.5t-262.5 21.5q-203 0 -361 -24.5t-277.5 -64.5t-204.5 -92.5t-143 -105.5q-135 -126 -170 -286z" />
<glyph unicode="g" horiz-adv-x="1241" d="M-1673 -2169q0 55 53 137t142 171t206 177.5t244 158t257 113.5t245 44l116 145l101 123q154 182 267.5 360.5t196.5 338t139 292.5l93 226q-8 -4 -18.5 -5t-24.5 -1q-61 0 -122.5 31.5t-111 85t-81 126t-31.5 154.5q0 74 22.5 131t61.5 103t87 84t101 75q80 55 148.5 90 t116.5 35q55 0 117.5 -20.5t132 -39t146.5 -22.5h16q69 0 145 31q-29 -29 -60 -46.5t-61.5 -30.5t-61 -28.5t-59.5 -42.5q-11 -120 -11 -227q0 -97 9 -184q18 -184 61 -336t106.5 -274.5t132.5 -230.5l136 -204q68 -96 122 -192.5t88 -197.5t34 -220q0 -125 -45 -235.5 t-117 -207t-159 -180.5t-171 -152l-154 -124q-71 -55 -110 -94q-51 53 -133 126.5t-186.5 153.5t-228.5 158t-261 141.5t-283.5 104.5t-295.5 47q-111 -129 -239 -259t-256 -235.5t-249 -175.5t-217 -76q-8 -1 -16 0q-32 0 -54 14q-26 17 -26 64zM-1475 -1952 q0 -43 27 -59.5t55 -16.5q15 -2 32 -2q63 0 135 32q91 40 188.5 114t197 174t191.5 209q-166 0 -315.5 -52.5t-263 -125t-180.5 -149.5t-67 -124zM-508 -1368q147 -4 296 -43t291 -98.5t273 -132t245 -145.5t206 -138l155 -109q55 43 121 100.5t123.5 133.5t95 168t37.5 207 q0 125 -47 233.5t-120 219.5l-158 234q-86 122 -164 273.5t-137.5 339.5t-77.5 434q-31 -27 -56 -54l-47 -52q-23 -25 -45 -44.5t-49 -27.5q-20 -55 -64 -150.5t-104 -210.5l-130 -243l-145.5 -248t-148 -226.5t-139.5 -176.5l-78 -96q-55 -66 -133 -148zM197 698 q0 -115 46 -195.5t112.5 -128.5t141.5 -62q28 -5 53 -5q43 0 81 15q-4 43 -5 80.5t-1 80.5v99q0 43 3 79.5t11 70.5t25 71q-25 14 -66 29.5t-91 25.5t-108 12q-8 0 -16 1q-49 0 -96 -11q-49 -25 -69.5 -64t-20.5 -98z" />
<glyph unicode="h" horiz-adv-x="1140" d="M-176 1649q395 129 706 331q131 86 258 197t227.5 247t161 299t60.5 355q0 76 -17.5 145.5t-62.5 123t-119.5 85t-191.5 31.5q-109 0 -202 -48t-164.5 -113.5t-120 -135t-62.5 -112.5q-25 -68 -37 -175.5t-18 -239.5t-7.5 -281.5t-1.5 -301.5v-179q0 -101 -1 -214 t-1 -231v-232v-549q76 104 156 187q33 35 71 68.5t77.5 60t78.5 43t76 16.5t82 -20.5t85 -63.5t67.5 -109.5t27.5 -158.5q0 -133 -39 -255t-93 -226.5t-112 -186.5l-100 -135q-43 -55 -87 -103.5t-86 -88.5l-78 -71l-60 -52q127 113 225 251q43 59 83 129t72 150t51.5 168 t19.5 184q0 90 -26 162t-65 121t-85 74.5t-85 25.5q-80 0 -133 -54t-83.5 -148.5t-44 -221.5t-13.5 -274l-97 -61q-52 -34 -87 -64q4 43 7 137t4 223q1 65 0.5 136t-0.5 148l-2 317l-2 326q-1 163 -3 308.5t-3 265t-1 197.5q0 152 -1 284t-5.5 255t-12.5 239.5t-24 237.5 q61 0 127.5 30.5t136.5 77.5l143 99q74 53 148.5 99t150.5 77t154 31q117 0 195.5 -35t127 -91.5t70 -130t21.5 -151.5q0 -193 -61.5 -355.5t-163 -298.5t-230.5 -247t-264 -197q-316 -202 -717 -331z" />
<glyph unicode="i" horiz-adv-x="739" d="M0 860q49 20 93 35.5t84 33t78 39t75 54.5q15 -49 14 -117v-17q-2 -79 -9 -166t-9 -175q0 -9 -1 -19q0 -77 16 -141q17 -72 61 -120t133 -56q-88 -57 -151 -109l-124 -104l-41 18q-23 10 -43 30t-35.5 49.5t-17.5 76.5q2 139 6 265q1 42 1 81q0 77 -5 140q-8 95 -36 150 q-27 52 -85 52h-4zM33 1282q27 20 51 43q23 20 47.5 47t44.5 58q23 -35 49.5 -63t48.5 -46q27 -23 56 -39l-54 -43l-50 -47q-28 -27 -50 -55q-23 37 -47.5 63.5t-46.5 44.5q-24 23 -49 37z" />
<glyph unicode="j" horiz-adv-x="690" d="M-914 -1818q-12 65 -13 143q0 112 26 250q27 147 85 278t135 245t166 209t179 173q207 180 455 309q-242 -133 -445 -313q-86 -78 -174 -173.5t-162.5 -208t-133 -242.5t-85.5 -275q-27 -139 -27 -250q0 -15 1 -29q4 -121 30.5 -211t70.5 -151.5t97.5 -100.5t109.5 -55 t107 -16q127 0 224.5 60t168 156.5t120 217.5t81 243.5t47 234.5t21.5 189q4 74 6 195q1 81 1 174v96q-1 150 -4 315t-8 326.5t-11.5 310t-13.5 263t-14 184.5t-13 76q-10 10 -28.5 17t-35.5 12q-20 4 -41 6q57 12 119 37q53 20 117.5 56t130.5 91q-10 -45 -14.5 -140.5 t-5.5 -224.5q-1 -65 -0.5 -135t0.5 -147l2 -317q1 -163 3 -324l2 -208q0 -50 -1 -98q-1 -144 -4 -264t-11 -196q-10 -98 -42 -228.5t-83 -266.5t-121.5 -267t-161 -234.5t-198 -167t-232.5 -63.5q-78 0 -168 43t-157 140t-97 256zM84 1282l53 43q23 20 47.5 46t46.5 54 q23 -35 48.5 -61.5t48.5 -44.5q27 -23 53 -37l-53 -45l-48 -45q-26 -25 -49 -53q-23 35 -48 62.5t-48 45.5q-24 23 -51 35z" />
<glyph unicode="k" horiz-adv-x="1093" d="M-164 1636q397 131 711 334q133 86 261 197.5t227.5 248t160.5 300t61 356.5q0 78 -19 148.5t-64.5 125t-119 87t-180.5 32.5q-111 0 -208 -49t-171.5 -115.5t-123.5 -136t-64 -110.5q-27 -72 -41 -180.5t-21 -240.5t-8 -280.5t-1 -302.5q0 -311 -3 -651q-1 -113 0 -231 q0 -234 3 -484q43 45 104 96t132 99.5t146.5 86.5t145.5 54q49 -10 86 -62.5t37 -136.5q0 -37 -25.5 -73.5t-68.5 -72.5t-99.5 -68t-120.5 -56q55 -70 129 -148.5t148 -145.5t137 -109q61 -40 95 -40q2 0 3 1q-35 -8 -71.5 -21.5t-73.5 -29t-71 -32.5l-60 -32 q-43 27 -107.5 88t-135.5 136l-138 151l-115 131q-16 -6 -35.5 -3t-35.5 3q8 -86 9 -184.5t5 -174.5l-56 -28l-70 -35q-36 -18 -68.5 -40t-53.5 -42q2 29 3 115t4 212t5 280l5 322l4 333q2 167 4 317.5t3 273.5t1 201q0 154 -1 310.5t-5 297t-10.5 251t-16.5 171.5 q59 0 126 30t137.5 75t145 98t151.5 98t155 75t155 30q111 0 188 -36t125 -94.5t70.5 -132t22.5 -151.5q0 -193 -62.5 -356.5t-164 -300t-231.5 -248t-265 -197.5q-318 -203 -721 -334zM242 530q32 -2 61 -1q74 0 131 11q80 15 128 44.5t66 68.5q11 25 11 49q0 14 -4 29 q-4 18 -13.5 41t-20.5 42.5t-25.5 32.5t-30.5 17q-8 2 -18 2q-28 0 -59 -19q-42 -26 -84 -68t-80 -95t-62 -100v-54z" />
<glyph unicode="l" horiz-adv-x="647" d="M-184 1642q395 127 706 328q131 86 258 195.5t227.5 245t161 298t60.5 353.5q0 76 -18.5 147.5t-63.5 126.5t-121 88t-188 33q-117 0 -214.5 -47t-168 -113.5t-114.5 -136.5t-54 -113q-25 -68 -38 -175t-19.5 -239t-7.5 -282.5t-1 -304.5q0 -102 -3 -261t-6 -338t-5 -363 q-1 -122 -2 -231q0 -55 1 -107q1 -155 6 -264t17 -138q25 -55 66 -103t119 -55l-138 -104q-59 -47 -108 -96q-39 20 -69.5 52t-52 66.5t-35 68.5t-15.5 60q-2 51 -2 177.5t1 293t4 359t5 377t3 344.5t1 262q0 229 1 396v81q0 117 -2 207q-3 121 -10 202t-22 138 q61 0 127 30.5t134.5 76l141.5 98.5t148.5 98t153.5 76t158 31q113 0 191.5 -36t127.5 -94.5t71.5 -133t22.5 -154.5q0 -193 -61.5 -355.5t-162.5 -298t-230 -245t-265 -195.5q-315 -201 -716 -326z" />
<glyph unicode="m" horiz-adv-x="1949" d="M-102 858l133 82q53 31 109.5 57.5t86.5 26.5q27 0 41.5 -2t20.5 -17.5t7 -48t1 -94.5q80 78 183.5 120t195.5 42q98 0 182 -40t135 -110q88 70 182.5 110t182.5 40q92 0 168 -37t131 -97.5t85 -138t30 -159.5q0 -139 -46.5 -276.5t-136.5 -246t-221 -177t-303 -68.5 q-80 0 -127 7t-88 16.5t-90 16.5t-133 7q-35 0 -85 -20.5t-97.5 -58.5t-81 -95t-33.5 -131q0 -35 16 -62.5t44 -48t62.5 -35t71.5 -24.5q86 -23 197 -29q-117 2 -207 25q-39 8 -76 22.5t-65.5 36t-46 50t-17.5 65.5q0 74 43 145.5t115 128t166 91t196 34.5q74 0 120 -5 t89 -11t95.5 -11.5t140.5 -5.5q119 0 182.5 45.5t92 113t31.5 145t3 141.5q0 92 -37 180t-99.5 155.5t-143 108.5t-168.5 41q-47 0 -75 -8t-44 -16q37 -53 54 -120t17 -126q0 -147 -48 -257t-105 -183q-68 -86 -154 -150q29 51 51 113q20 53 37 119.5t17 142.5q0 92 -35 180 t-94.5 155.5t-137 108.5t-165.5 41q-45 0 -88 -11t-68 -40q0 -39 -3 -110.5t-3 -167t6 -208t25 -233.5q-72 0 -145 -27.5t-128 -62.5q6 37 12.5 112.5t10.5 167t4 188.5t-7.5 180t-23.5 141.5t-43 70.5q-18 4 -35.5 4t-34.5 -2q-18 -2 -34 -6z" />
<glyph unicode="n" horiz-adv-x="1288" d="M-369 -422q0 70 43 141.5t115 129t165 94.5t193 37q76 0 121 -8.5t86 -17.5t92.5 -16.5t139.5 -7.5q92 0 151.5 29t93 85t47 139t13.5 194q0 98 -37 186t-99.5 154.5t-143.5 105.5t-169 39q-53 0 -88 -10t-65 -39q0 -23 -4 -86t-5 -158q0 -13 -1 -27q0 -84 6 -188 q6 -121 28 -258q-70 0 -142.5 -30.5t-127.5 -65.5q6 37 12 112.5t11 167.5q3 73 3 150v39q-1 98 -7.5 181t-21.5 141.5t-42 70.5q-35 6 -61 2q-12 -2 -23 -6l123 84q49 31 100 57.5t84 26.5q23 0 36 -5t20.5 -22.5t9.5 -47t2 -79.5q98 72 194.5 113t184.5 41q92 0 167.5 -37 t130 -97.5t84 -139t29.5 -162.5q0 -145 -49 -283.5t-140 -245t-219 -171t-286 -64.5q-80 0 -126 7t-88 15.5t-92 15.5t-138 7q-37 0 -86.5 -17.5t-93.5 -54.5t-75.5 -92t-31.5 -129q0 -39 16.5 -67.5t44 -51t62.5 -38t71 -25.5q84 -25 195 -31q-117 4 -207 27 q-39 10 -75.5 25.5t-65.5 38t-46.5 52t-17.5 70.5z" />
<glyph unicode="o" d="M0 428q0 117 63.5 224.5t157.5 190.5t204 132t204 49q61 0 131.5 -26.5t131 -80t99.5 -136.5t39 -193q0 -63 -29.5 -131t-78 -133.5t-110.5 -124t-129 -102.5t-133.5 -70.5t-121.5 -26.5q-84 0 -161 35t-136 94t-95 136t-36 163zM178 635q0 -61 23.5 -136t79 -139.5 t144.5 -108.5t218 -44q68 0 106.5 18.5t57 46t24 58t5.5 57.5q0 88 -34 174t-93.5 153.5t-140.5 108.5t-175 41q-61 0 -102 -23.5t-66.5 -59.5t-36 -75.5t-10.5 -70.5z" />
<glyph unicode="p" horiz-adv-x="1179" d="M-2001 -2038q0 80 49 134.5t109.5 97.5t110 83t49.5 89q141 70 290.5 96.5t337.5 26.5q229 0 411.5 -59.5t319 -143.5t225.5 -174t130 -150q14 49 21 156.5t8 248.5q1 70 1 144.5t-1 154.5q-1 159 -1 310v1436q0 123 -10 198.5t-25.5 119.5t-33 65.5t-33.5 35.5 q-18 16 -45 22.5t-49 8.5q-29 2 -58 -2q59 20 115 45q47 23 100.5 52.5t94.5 64.5q47 -6 70.5 -26.5t39.5 -61.5q10 -23 18.5 -64t14.5 -100l69 63l75 67l74 64q36 30 67 50q10 1 20 0q63 0 129 -22q78 -26 142.5 -79t106.5 -129.5t42 -173.5q0 -109 -59.5 -208t-158.5 -180 t-230.5 -140t-272.5 -86v-51q0 -49 -1 -128t-1 -181.5t-1 -214t-1 -225.5v-214q0 -309 -14.5 -516t-18.5 -305q-86 -90 -149.5 -193.5t-134.5 -205.5q-78 104 -188.5 204.5t-242 179t-275.5 126t-290 47.5q-233 0 -407 -28t-290 -76t-173 -113.5t-57 -139.5q0 -43 15 -82 t36 -67q23 -35 53 -64q-35 27 -61 62q-23 29 -42.5 66.5t-19.5 84.5zM258 725q9 -92 9 -217q0 -42 -1 -87q-4 -181 -4 -382q84 12 171 49t158 96.5t115 142.5t44 187q0 78 -41 135.5t-97.5 95t-116 56t-98.5 18.5q-47 0 -79.5 -27.5t-59.5 -66.5z" />
<glyph unicode="q" horiz-adv-x="1212" d="M-1284 -2040q0 80 49 134.5t108.5 97.5t108.5 82.5t49 91.5q143 66 295 94.5t336 28.5q229 0 413.5 -60.5t320.5 -144.5t226.5 -174t131.5 -150q12 39 17 145.5t6 249.5q0 48 1 98q0 100 -2 209q-2 163 -2 314v220q0 120 1 246t1 250v233v197q0 87 -2 138l-181 -155 q-83 -71 -155 -105q-98 12 -179 53t-138.5 102.5t-89 142.5t-31.5 173q0 70 18.5 119t51 89t73.5 75l88 75q104 82 215 137.5t205 55.5q78 0 165 -18.5t192 -65.5q-16 -289 -21.5 -573.5t-7.5 -540.5q-1 -128 -1 -246.5t1 -226.5q2 -217 2 -369q0 -305 -14.5 -515 t-20.5 -308q-43 -43 -80 -92t-70 -101l-69 -101q-35 -50 -76 -97q-74 102 -184.5 201.5t-240.5 176t-275.5 124t-288.5 47.5q-233 0 -407.5 -28t-290 -76t-172 -113.5t-56.5 -139.5q0 -45 15.5 -83t36.5 -66q23 -35 51 -64q-35 25 -62 60q-23 29 -42 67.5t-19 85.5zM199 608 q0 -84 46 -154.5t112.5 -121.5t141 -79t132.5 -28q41 0 80 22.5t63 51.5q0 92 -1 173t-2 143.5t-2 104.5t-1 60q-31 27 -70 45.5t-81 29.5t-83.5 16.5t-80.5 5.5q-10 0 -51.5 -5.5t-86.5 -31t-80.5 -80t-35.5 -152.5z" />
<glyph unicode="r" horiz-adv-x="845" d="M-102 858q55 18 110 43l105 52q57 30 110 69q6 -27 10.5 -73t8.5 -104.5t6 -124t6 -128.5q31 70 72 144.5t88 137t100 102.5t107 40q31 0 65.5 -2t56.5 -13q-23 -31 -43 -77.5t-36 -89.5q-20 -53 -37 -107q-14 8 -37 16q-18 6 -46 12.5t-67 6.5q-61 0 -101 -34t-64.5 -88 t-38 -119.5t-19.5 -127.5q0 -119 3 -184.5t3 -106.5q-27 -6 -58.5 -17t-64.5 -27l-64 -30q-32 -15 -57 -30q10 92 17.5 190.5t10.5 192.5q2 47 2 92t-2 87q-3 85 -12 149.5t-23.5 104.5t-35.5 44q-10 2 -22 2h-25q-14 0 -28 -2z" />
<glyph unicode="s" horiz-adv-x="1060" d="M0 82q23 35 39 98.5t22 147.5q27 -51 72 -93t100.5 -71t118 -45.5t127.5 -16.5q23 0 51.5 6.5t53 20.5t42 39t17.5 63q0 37 -18.5 77t-53 74t-84 55.5t-110.5 21.5q-39 0 -95.5 8t-108.5 33.5t-89 73t-37 124.5q0 61 32 109.5t81 85.5t110.5 61.5t118.5 41t105.5 23.5 t72.5 7q18 0 46 -1t56 -4l53 -6q26 -3 38 -9l-17.5 -61t-17.5 -69.5t-13 -71.5t-5 -67q-14 31 -39 67t-59 67.5t-77 52t-94 20.5q-39 0 -68.5 -12t-51 -32.5t-33 -44.5t-11.5 -46q0 -47 22.5 -83t59.5 -60.5t85 -37t100 -12.5q84 0 144 -16t98 -43t55.5 -60.5t17.5 -66.5 q0 -109 -60.5 -189.5t-147.5 -134t-182 -80t-165 -26.5q-104 0 -186 26.5t-115 55.5z" />
<glyph unicode="t" horiz-adv-x="917" d="M0 1647q393 127 702 329q131 86 258 197t226.5 247t160 299t60.5 355q0 78 -18.5 147.5t-62.5 123t-117.5 84t-184.5 30.5q-121 0 -217 -46t-167 -110.5t-115 -133t-58 -115.5q-23 -70 -35 -150t-18 -193.5t-7 -274.5t-1 -392v-213q0 -113 1 -226l2 -219q1 -104 2 -186 t1 -133v-55q37 -12 78.5 -17.5t82.5 -5.5t78 3l62 5q-25 -29 -65 -48t-84 -33.5t-86 -23.5t-72 -18q2 -30 1 -60q0 -46 -4 -92q-6 -77 -6 -148.5t12.5 -135t50.5 -113t108.5 -81t187.5 -37.5q-31 -27 -65 -61.5t-70.5 -65.5t-75.5 -52.5t-80 -21.5q-43 0 -86 17.5t-77 52.5 t-56.5 84t-24.5 114q-6 166 -10 322t-4 285q-53 4 -89 8t-59 8q-27 6 -45 12q27 10 58 25q27 12 57.5 29.5t60.5 42.5q2 8 3.5 60t2.5 135t2 188.5t1 219.5v227v216q0 467 -8.5 718t-32.5 304q61 0 125.5 29.5t132 75l139.5 98.5t146.5 98t155.5 75t167 30q115 0 192.5 -34 t125 -91.5t66.5 -130t19 -150.5q0 -193 -61 -355.5t-161.5 -298.5t-229.5 -247t-262 -197q-314 -202 -713 -329z" />
<glyph unicode="u" horiz-adv-x="1351" d="M0 862q45 14 96 37q43 18 95.5 48t105.5 71q39 -10 52 -56.5t13 -115t-6 -151.5t-6 -165q0 -66 11.5 -124t39 -102t75.5 -70.5t124 -26.5q61 0 115.5 28.5t89.5 59.5q6 47 7 90t1 90q0 78 2 141q1 25 1 49q0 34 -2 62q-3 47 -12 77t-32 40q-12 6 -30 8l-33 4q-20 2 -39 2 q72 20 139 47q57 23 119.5 53.5t105.5 67.5q0 -25 -2 -84t-3 -137t-2 -165v-43q0 -63 2 -120q3 -76 9 -133t19 -78l25 -42q13 -22 31.5 -37t46.5 -20q7 -1 16 -1q23 0 53 10q-92 -53 -181.5 -95t-158.5 -85q-55 27 -68.5 91.5t-13.5 172.5q-39 -31 -82 -75t-94 -85 t-112.5 -70.5t-137.5 -29.5q-23 0 -54.5 9t-64.5 28.5t-61.5 51.5t-46.5 77q-4 25 -7 59l-4 71q-2 36 -3 70.5t-1 59.5q0 86 2 156q1 23 1 44q0 43 -3 79q-4 53 -18.5 87.5t-46.5 51.5q-25 10 -49 14q-13 2 -23 4z" />
<glyph unicode="v" horiz-adv-x="1271" d="M-557 2091q0 158 20.5 321.5t67.5 318.5t125 290t192.5 236.5t270 161t360.5 59.5q117 0 205 -27t152.5 -71t107.5 -99t72 -113q63 -135 67 -307q-6 166 -71 297q-29 55 -72 108.5t-107.5 95.5t-151.5 67.5t-202 25.5q-201 0 -344 -55.5t-241.5 -147.5t-157 -211 t-90 -245.5t-40.5 -252.5t-9 -231q0 -170 65.5 -356.5t170 -384t234.5 -403.5l259 -414q53 66 115.5 119t124 92t114.5 59t88 20q39 0 82 -12t82 -30.5t72.5 -41t56.5 -45.5q-4 -35 -34 -101t-76 -150t-103 -178l-115 -180l-108 -162l-86 -121q-6 0 -9 -3l-4 -4q-2 -4 -2 -6 q-37 111 -132 266l-215 338l-250 380q-130 198 -237.5 392.5t-177 376t-69.5 328.5zM338 731q72 -113 138.5 -232.5t152.5 -234.5q49 57 92 131t73.5 147.5t44.5 136.5q7 32 7 57q0 23 -6 40q-29 61 -89.5 106.5t-154.5 45.5q-27 0 -60.5 -20.5t-69.5 -51.5t-69 -64z" />
<glyph unicode="w" horiz-adv-x="1628" d="M-553 2087q0 158 20.5 322.5t67.5 319.5t126 292t194.5 238.5t272.5 161t361 59.5q117 0 205 -27t152.5 -72t107.5 -101t72 -116q66 -139 72 -315q-8 166 -76 297q-29 55 -73 109.5t-108.5 96.5t-151.5 67.5t-200 25.5q-205 0 -351 -54.5t-246.5 -145.5t-161 -209 t-92 -244t-42 -251.5t-10.5 -230.5q0 -88 32 -202.5t85 -242.5t119.5 -262.5t138.5 -259.5q164 -295 375 -614q12 18 49 58l82 85q45 45 92 86t82 64l73 -137t91 -156q31 35 83 85t113.5 96t126 79t121.5 33q39 0 84 -13.5t85 -34t73 -45t51 -46.5q-35 -92 -95.5 -198.5 t-133.5 -219.5l-154 -231l-155 -230q-53 78 -104.5 164t-94.5 176l-129 -150q-68 -79 -129 -178q0 -4 -2 -8l-4 -8l-4 -8q-29 45 -64 117.5t-78 152.5l-180 279l-206 310l-207 327q-101 166 -180 326.5t-127 308t-48 274.5zM348 707q72 -117 146.5 -253.5t146.5 -250.5 q74 74 141 174q-10 25 -29.5 66.5t-46.5 92.5l-58 101q-30 51 -59.5 92t-56 67.5t-43.5 26.5q-14 0 -31.5 -11t-36 -28.5t-37 -38t-36.5 -38.5zM815 707l59 -111l78 -136l80 -130q39 -61 66 -92q23 23 60.5 77t73.5 121.5t62.5 140t26.5 130.5q0 51 -28.5 89t-68.5 62.5 t-81 35.5t-68 11t-65.5 -26.5t-77.5 -60.5t-71 -66.5t-46 -44.5z" />
<glyph unicode="x" horiz-adv-x="1421" d="M-981 -1016q29 51 46 120t17 146q35 -10 81 -17t83 -7q217 0 415 99.5t363.5 262t293.5 371.5t208 428q-6 14 -20 31.5t-31 35.5l-33 33q-16 16 -24 29q-53 72 -105.5 132.5t-95.5 103.5t-73.5 67.5t-43.5 24.5h-41q-10 0 -22 2l102 49l97 49q51 27 98 55 q27 -14 62.5 -46.5t77.5 -78.5l89 -99l96 -113l79 149.5t79 114.5t116 72.5t189 25.5q-43 -68 -63.5 -146.5t-28.5 -140.5q-29 20 -66.5 32.5t-80.5 12.5q-49 0 -98.5 -37.5t-106.5 -113.5q4 -10 13 -16.5t14 -16.5l112 -136q53 -65 101.5 -114t92.5 -77.5t85 -28.5t70.5 2 t52.5 16l-70 -59l-85 -71l-86 -70q-42 -34 -71 -60q-61 39 -147 130t-201 226q-74 -186 -166 -349t-222 -316.5t-306 -305t-420 -313.5q-43 -29 -84 -49t-88 -32.5t-108 -14.5h-20q-54 -1 -126 8z" />
<glyph unicode="y" horiz-adv-x="1384" d="M-881 -1327q0 117 68 211t178.5 179t249.5 168l283 175q92 61 172 122.5t157.5 133.5t158.5 158t175 196l-86 170l-97 187l-102 183q-51 89 -96 157.5t-82 109.5t-57 41q-14 0 -26.5 -1t-22.5 -1q-12 -2 -25 -2q20 37 59.5 66.5t82.5 51t82.5 34t60.5 12.5 q45 0 168 -198.5t313 -569.5q78 119 133.5 227.5t81.5 192.5q24 75 24 127v11q-3 54 -42 67q-16 4 -32.5 7t-31.5 5q-16 2 -30 4l170 49l144 41l126 33q-39 -168 -119 -334t-186.5 -322.5t-232.5 -301t-261 -270.5t-270 -230.5t-260 -182.5l-153 -91l-166 -100 q-83 -52 -160.5 -109.5t-137 -121t-95.5 -135t-36 -149.5q0 -70 41 -133.5t109.5 -117.5t162 -98t197 -75t214 -47.5t214.5 -16.5q205 0 357.5 34t263 89.5t182.5 127t117 145.5q101 166 100 378v17v-26q0 -214 -96 -382q-43 -78 -116 -150.5t-183.5 -129.5t-264 -92 t-360.5 -35q-104 0 -220 18.5t-229.5 51t-216 80t-181 104.5t-125 121.5t-46.5 136.5z" />
<glyph unicode="z" horiz-adv-x="919" d="M-348 8q0 27 22.5 47.5t56 34.5t74.5 22.5t76 8.5q76 0 167 -17.5t192 -17.5q55 0 100 19.5t78 50t50 68.5t17 75q0 41 -17 79t-48 66.5t-71 46t-83 17.5q-66 0 -114 -18.5t-80 -28.5l95 88l117 114q58 58 106 111t67 82q-37 2 -83 4t-96.5 2t-100.5 -2t-95 -4l140 131 q62 59 108 123q-16 -35 -7 -54.5t30.5 -28.5t51 -10t52.5 -1q42 6 85 6q16 0 32.5 -1t33.5 -1q46 0 97 6q-43 -47 -99 -102l-105 -106l-89 -91q-39 -41 -47 -61q80 -4 145 -26t110.5 -58.5t70 -87t24.5 -107.5q0 -100 -45 -173t-111.5 -121t-141.5 -71.5t-136 -23.5 q-49 0 -103.5 15.5l-110 32.5t-111.5 32.5t-110 15.5q-27 0 -56.5 -5t-54 -14t-41 -22.5t-16.5 -29.5q0 -14 10.5 -33t31 -34t50 -26.5t68.5 -11.5q51 0 103.5 17.5t98.5 48t82 72.5t58 89q-23 -70 -66.5 -115.5t-94 -72.5t-100.5 -38t-81 -11q-35 0 -68.5 6t-59 18.5 t-42 31.5t-16.5 44z" />
<glyph unicode="{" horiz-adv-x="528" d="M0 969q12 16 31 39l108 116q23 25 43 41q2 4 2 17q0 2 -34 112q-102 322 -103 592q0 197 78 242l131 82q2 -8 2 -17q0 -18 -4 -45q0 -8 -4 -22l-80 -68q-18 -31 -18 -100q0 -258 131 -608q10 -33 10 -64q0 -70 -35 -108q-25 -35 -88 -101q-10 -2 -33 -16q51 -33 174 -92 q-78 -106 -124 -278.5t-46 -340.5q0 -156 39 -280q23 -76 29 -86q20 -49 49 -50q27 0 66 50v-99l-109 -59h-27q-82 0 -122 151q-35 117 -35 267q0 166 42 329.5t113 276.5q-125 51 -186 119z" />
<glyph unicode="|" horiz-adv-x="389" d="M0 -133q29 584 43 1298q6 233 -16 928l157 -14q-29 -502 -51 -1063q-12 -297 -6 -1149h-127z" />
<glyph unicode="}" horiz-adv-x="528" d="M0 2052v98l109 60h26q82 0 123 -152q35 -117 35 -266q0 -166 -42 -330t-114 -276q125 -51 187 -119q-12 -16 -31 -39l-109 -117q-23 -25 -43 -41q-2 -4 -2 -16q0 -2 35 -113q102 -322 102 -591q0 -197 -77 -242l-131 -82q-2 8 -2 16q0 18 4 45q0 8 4 23l80 67 q18 31 18 101q0 258 -131 608q-10 33 -10 64q0 70 35 108q25 35 88 100q10 2 32 17q-51 33 -174 92q78 106 124 278.5t46 340.5q0 156 -39 280q-23 76 -28 86q-20 49 -49 49q-27 0 -66 -49z" />
<glyph unicode="~" horiz-adv-x="1003" d="M0 1821l94 164q72 61 209 61q59 0 92 -18q86 -49 166 -50q82 0 238 72l-88 -154q-143 -66 -224 -65q-82 0 -165 49q-35 20 -91 21q-141 0 -231 -80z" />
<glyph unicode="&#xa1;" horiz-adv-x="579" d="M0 1456q68 31 199 100h49l10 -1396q0 -90 55 -90l62 14q-90 -61 -156 -82l-26 4q-18 0 -78 -35h-27q-14 43 -14 140q0 184 4 612l6 612q0 41 -23.5 79t-60.5 42zM18 1847q0 72 49.5 135.5t116.5 63.5q102 0 103 -135q0 -82 -43 -144.5t-117 -62.5q-20 0 -68 16 q-41 59 -41 127z" />
<glyph unicode="&#xa2;" horiz-adv-x="1198" d="M0 446q0 96 51 175t126 143.5t158 115.5l144 89q6 82 10 180l175 -27l-35 -159q31 -20 65.5 -39t69.5 -33t67.5 -22.5t57.5 -8.5q-31 -20 -69 -42l-71 -41l-60 -34q-26 -14 -36 -22q-14 -4 -32 -1l-41 7l-39 -211q-16 -88 -37 -262q41 -14 79 -20.5t70 -6.5 q72 0 131.5 13.5t103.5 31t70.5 32.5t34.5 22q-43 -37 -96 -91.5t-117.5 -105.5t-140.5 -88t-162 -41q-8 -70 -14 -147l-141 14l28 145q-80 18 -144.5 60.5t-110.5 100.5t-70.5 128.5t-24.5 144.5zM219 598q0 -102 53.5 -175t128.5 -120q25 147 48 309q10 53 18 150 q-43 16 -80 35.5t-57 33.5q-18 -12 -38 -34.5t-36 -53t-26.5 -67.5t-10.5 -78z" />
<glyph unicode="&#xa3;" horiz-adv-x="1497" d="M0 1165l94 164q72 61 209 62q49 0 80 -13q-4 184 -10 305t-11 193l-12 129l-125 20v21q31 -6 68 -10q33 -4 80 -7.5t108 -3.5q76 0 135.5 3.5t100.5 7.5q49 4 84 10v-21l-111 -20q-16 -88 -33 -195q-14 -92 -27.5 -214.5t-19.5 -268.5q74 14 189 68l-88 -154 q-59 -27 -107 -43v-106q0 -266 4 -444.5t8 -289.5q6 -129 15 -204q131 0 248 8q49 2 101 6t99 10t87 12.5t67 16.5l39 149l20 -6l-32 -127q-14 -53 -28.5 -114.5l-25.5 -110.5q-76 12 -156.5 15t-161.5 3t-160 -3t-150 -3q-96 0 -160 -2t-105 -4q-47 -4 -75 -6v12l88 21 q16 66 28 196q10 113 20.5 308.5t10.5 502.5v156q-33 12 -63 31q-35 20 -91 20q-141 0 -231 -80z" />
<glyph unicode="&#xa4;" d="M0 899q0 117 63.5 224.5t157.5 190.5t204 132t204 49q61 0 131.5 -26.5t131 -80t99.5 -136.5t39 -193q0 -63 -29.5 -131t-78 -133.5t-110.5 -124t-129 -102.5t-133.5 -70.5t-121.5 -26.5q-84 0 -161 35t-136 94t-95 136t-36 163zM178 1106q0 -61 23.5 -136t79 -139.5 t144.5 -108.5t218 -44q68 0 106.5 18.5t57 46t24 58t5.5 57.5q0 88 -34 174t-93.5 153.5t-140.5 108.5t-175 41q-61 0 -102 -23.5t-66.5 -59t-36 -75.5t-10.5 -71z" />
<glyph unicode="&#xa5;" horiz-adv-x="1693" d="M0 2030v18q31 -6 68 -10q33 -4 77.5 -6t100.5 -2q66 0 119 2t94 6q47 4 86 10v-18l-127 -21l157 -332l71 -144l77 -149l78 -144q39 -71 76 -128q31 63 59.5 137t53.5 149l49 149l44 143q47 158 86 319l-139 21v18q39 -6 76 -10q33 -4 69.5 -6t67.5 -2q66 0 111 2t76 6 q35 4 59 10v-18l-80 -21l-145 -280l-152 -303l-182 -367q-4 -47 -5 -93t-3 -89q47 -8 92 -9q104 0 301 70l-111 -150q-182 -63 -282 -63h-4v-174q49 -10 96 -10q104 0 301 69l-111 -149q-180 -63 -280 -64q4 -96 11 -163.5t13 -114.5l15 -90l133 -21v-12q-41 2 -88 6 q-41 2 -95.5 4t-115.5 2q-55 0 -105.5 -2t-89.5 -4q-45 -4 -84 -6v18l148 15q4 55 10 123q4 57 8 133.5t8 167.5q-39 12 -94 12q-178 0 -291 -78l119 160q90 59 264 59h4q0 43 -1 87t-3 87q-39 12 -92 13q-178 0 -291 -78l119 159q86 57 252 60q-2 16 -3 32.5t-3 32.5 l-71 123l-85 153l-93 166l-93 167l-224 401z" />
<glyph unicode="&#xa6;" horiz-adv-x="409" d="M0 -6q29 225 39 565q4 109 -12 363l143 -9q-25 -160 -47 -426q-12 -139 -6 -493h-117zM35 1120q27 174 39 514q6 109 -17 414l148 -8q-29 -213 -45 -477q-12 -141 -8 -443h-117z" />
<glyph unicode="&#xa7;" horiz-adv-x="1271" d="M0 -4q43 35 66 94q20 51 24 133t-37 205h33q0 -59 48 -119.5t125 -108.5t173 -79t195 -31q49 0 101 7t94 30t69 66t27 114q0 74 -38 131.5t-98.5 105.5t-139.5 91l-160 85q-81 42 -159.5 88t-139 102.5t-98.5 124t-38 155.5q0 74 17.5 124t46.5 85q-29 43 -46.5 93 t-17.5 110q0 129 65.5 215t161 136t204 71.5t196.5 21.5q70 0 113.5 -7t99.5 -7q66 0 96 6q18 4 31 8q-68 -92 -93.5 -193.5t-15.5 -181.5h-18q0 63 -36 113.5t-96.5 86.5t-140 55.5t-168.5 19.5q-31 0 -71.5 -10.5t-77.5 -33t-63.5 -60.5t-26.5 -93q0 -82 43 -146.5 t115 -117.5l176 -115q8 -4 15 -9t17 -9l177 -99q88 -49 158.5 -105t114.5 -125t44 -157q0 -98 -14.5 -154.5t-38.5 -84.5q25 -39 39 -81t14 -89q0 -94 -33 -164t-86 -121t-120.5 -84t-137 -52.5t-135.5 -27.5t-115 -8q-63 0 -111 2t-87 5t-72 6t-64 3q-16 0 -34.5 -3 t-34.5 -7q-21 -6 -37 -10zM211 1296q10 -66 50 -119t99.5 -99t131.5 -88l147 -83q76 -41 147.5 -84t128.5 -92q-4 68 -39.5 122t-94 100t-131.5 86l-149 80l-153 83q-76 43 -137 94z" />
<glyph unicode="&#xa8;" horiz-adv-x="1017" d="M0 1896q27 20 51 43q23 20 47.5 47t44.5 58q23 -35 49.5 -62.5t49.5 -46.5q27 -23 55 -39l-53 -43l-50 -47q-28 -27 -51 -55q-23 37 -47 63.5t-47 45.5q-24 22 -49 36zM516 1894q27 20 51 43q23 20 47.5 47t44.5 58q23 -35 49.5 -62.5t49.5 -46.5q27 -23 55 -39l-53 -43 l-50 -47q-28 -27 -51 -55q-23 37 -47 63.5t-47 45.5q-24 22 -49 36z" />
<glyph unicode="&#xa9;" horiz-adv-x="1255" d="M0 1505q0 115 44 214.5t116.5 172t167 113.5t194.5 41q121 0 218.5 -39t167 -106.5t106.5 -157.5t37 -193q0 -135 -42 -236.5t-114 -168t-167 -100t-202 -33.5q-168 0 -271 48t-159.5 120.5t-76 159.5t-19.5 165zM207 1524q0 -55 16.5 -138t55 -160t104.5 -131.5 t166 -54.5q88 0 144.5 37t89 102.5t45 155.5t12.5 195q0 61 -18.5 145t-59.5 161t-107.5 130t-160.5 53q-74 0 -128.5 -41t-90 -109.5t-52 -158.5t-16.5 -186zM231 1470q0 74 43 132.5t98.5 103.5t111 78t79.5 57q14 -18 40 -37.5t53.5 -35t55 -24.5t48.5 -9l-41 -27 l-42 -27l-35 -21q-15 -9 -21 -13q-16 -4 -44 3t-56 19l-53 25q-26 12 -40 22q-23 -16 -44.5 -55t-21.5 -92q0 -59 27 -104.5t67 -75t84 -44t81 -14.5q47 0 83.5 10.5t63.5 22.5q31 14 55 33l-58 -61q-34 -36 -74 -69.5t-87 -57t-100 -23.5q-61 0 -111.5 23.5t-86.5 63.5 t-55.5 91t-19.5 106z" />
<glyph unicode="&#xaa;" horiz-adv-x="1341" d="M0 1225q0 57 59.5 122.5t147.5 130t190 126.5l189 114q-63 80 -119.5 116t-124.5 36q-29 0 -75 -16.5t-89 -36.5q-53 -23 -106 -52q115 78 221 142q45 27 92 51l91 44.5t82 33t65 12.5q51 0 95 -44t80 -104.5t61.5 -122t43.5 -96.5l47 -114l65 -154q34 -78 66.5 -137 t55.5 -64q-61 -35 -128 -84t-116 -102q-10 45 -37 126t-72 177q-39 -39 -98 -91t-126.5 -99t-140.5 -80t-138 -33q-47 0 -97.5 13.5t-91.5 39t-66.5 62.5t-25.5 84zM233 1368q0 -29 21.5 -54.5t57.5 -45t85 -31.5t105 -12q49 0 94 14t79 41t54.5 63.5t20.5 79.5l-35 59 l-35 60q-16 37 -33.5 71t-36.5 56q-45 -16 -109.5 -46t-124 -70t-101.5 -87t-42 -98z" />
<glyph unicode="&#xab;" horiz-adv-x="1466" d="M0 637q61 41 168 188l180 258l258 138q-12 -12 -190 -265q-117 -166 -230 -223q147 -84 240 -246l137 -313l-164 -102q-150 307 -157 319zM655 637q61 41 168 188l181 258l258 138q-12 -12 -191 -265q-117 -166 -229 -223q147 -84 239 -246l138 -313l-164 -102 q-150 307 -158 319z" />
<glyph unicode="&#xac;" horiz-adv-x="2326" d="M51 487l236 164q180 61 522 62q150 0 231 -19q215 -49 414 -49q205 0 594 72l-219 -154q-358 -66 -559 -65q-205 0 -414 49q-88 20 -225 20q-355 0 -580 -80zM1847 252q2 59 21 92q53 84 55 164q2 82 -63 240l149 -93q61 -145 59 -225q-2 -82 -55 -166q-20 -33 -22 -88 q-4 -141 71 -233l-159 98q-60 74 -56 211z" />
<glyph unicode="&#xad;" horiz-adv-x="1105" d="M51 489l94 164q72 61 209 62q59 0 92 -19q86 -49 166 -49q82 0 238 72l-88 -154q-143 -66 -223 -65q-82 0 -166 49q-35 20 -90 20q-142 0 -232 -80z" />
<glyph unicode="&#xae;" horiz-adv-x="1173" d="M0 1507q0 113 41 210.5t107.5 169t153.5 112.5t179 41q111 0 201 -39t153.5 -105.5t98.5 -154.5t35 -189q0 -133 -39 -233t-104.5 -166t-152.5 -98.5t-186 -32.5q-156 0 -251 47t-147 120t-70.5 157.5t-18.5 160.5zM190 1526q0 -35 5.5 -81t18.5 -95.5t33.5 -99.5 t51.5 -91q8 90 10 184.5t-1 172t-12 129t-26 55.5q-10 4 -23.5 2t-17.5 -2q2 0 20 8l44 22q27 13 57.5 33.5t59.5 44.5q2 -18 5 -48.5t5 -69.5t3 -82t3 -86q16 45 39.5 95t49.5 92t55.5 68.5t58.5 26.5q16 0 36.5 -1t32.5 -9q-14 -20 -24 -51l-21 -60l-20 -71l-21 10 q-10 4 -25.5 8t-35.5 4q-35 0 -56.5 -22.5t-36 -58t-21.5 -79.5t-11 -85q0 -80 2 -124t2 -71q-25 -6 -55.5 -22.5t-59.5 -34.5q35 -39 83 -63.5t110 -24.5q80 0 132 36.5t83 101t42 154t11 191.5q0 59 -17.5 142t-55 158t-98 128t-148.5 53q-70 0 -120 -41t-83 -108.5 t-48.5 -155.5t-15.5 -182z" />
<glyph unicode="&#xaf;" horiz-adv-x="1003" d="M0 1821l94 164q72 61 209 61q59 0 92 -18q86 -49 166 -50q82 0 238 72l-88 -154q-143 -66 -224 -65q-82 0 -165 49q-35 20 -91 21q-141 0 -231 -80z" />
<glyph unicode="&#xb0;" d="M0 1452q0 117 63.5 224.5t157.5 190.5t204 132t204 49q61 0 131.5 -26.5t131 -80t99.5 -136.5t39 -193q0 -63 -29.5 -131t-78 -133.5t-110.5 -124t-129 -102.5t-133.5 -70.5t-121.5 -26.5q-84 0 -161 35t-136 94t-95 136t-36 163zM178 1659q0 -61 23.5 -136t79 -139.5 t144.5 -108.5t218 -44q68 0 106.5 18.5t57 46t24 58t5.5 57.5q0 88 -34 174t-93.5 153.5t-140.5 108.5t-175 41q-61 0 -102 -23.5t-66.5 -59.5t-36 -75.5t-10.5 -70.5z" />
<glyph unicode="&#xb1;" horiz-adv-x="1447" d="M51 733l133 158q102 59 297 59q51 0 88 -6l-2 139q0 12 -2 31l-4 77q-2 40 -41 69h86q53 0 92 6q35 4 35 6h10q-23 -158 -28 -369v-4q68 -14 133 -14q117 0 338 69l-125 -147q-205 -63 -318 -64h-30v-217q2 -18 6 -39q2 -23 16 -34l39 -13q0 -4 -6 -10h-231l26 199l4 139 q-31 10 -59 23q-49 20 -129 20q-199 0 -328 -78zM70 141l131 146q100 53 295 53q82 0 127 -16q123 -43 235 -43q115 0 334 63l-125 -137q-201 -57 -313 -57q-115 0 -234 43q-47 18 -127 18q-196 0 -323 -70z" />
<glyph unicode="&#xb2;" horiz-adv-x="913" d="M0 1024l181 181q75 77 112 130q96 115 140 211t44 176q0 92 -51 147.5t-135 55.5q-66 0 -98 -33q-31 -25 -54 -40l-37 -25q45 96 138 155q43 35 86 51.5t80 16.5q86 0 138 -61.5t52 -165.5q0 -74 -22.5 -146.5t-63.5 -142.5q-39 -61 -176 -211q-47 -53 -75 -96t-38 -80 l488 8q-8 -14 -25.5 -36.5t-42.5 -45.5q-49 -53 -74 -53z" />
<glyph unicode="&#xb3;" horiz-adv-x="745" d="M0 1104q47 49 102 59q68 -25 114 -38t73 -13q39 0 92 53q49 55 49 103q0 182 -160 248l-4 2l-51 17q-39 13 -96 36l174 98q14 8 23.5 23.5t19.5 38.5q8 18 13 37.5t5 39.5q0 154 -159 154q-49 0 -84 -20q-37 -25 -52 -31q-10 -6 -18 -10l-8 2q41 61 135 108 q43 20 81 30.5t77 10.5q63 0 106 -59h-2q27 -29 37 -59.5t10 -63.5q0 -70 -43 -119h2q-25 -31 -84 -72q-39 -27 -51 -45q18 -10 74 -26q74 -29 120 -95.5t46 -158.5q0 -195 -262 -293q-94 -35 -121 -35q-29 0 -84 29q-29 12 -46.5 25.5t-27.5 23.5z" />
<glyph unicode="&#xb4;" horiz-adv-x="614" d="M0 1784q63 31 130 105.5t91 140.5q41 -12 189 16q-51 -98 -174 -182q-136 -90 -236 -80z" />
<glyph unicode="&#xb5;" horiz-adv-x="1431" d="M0 862q8 2 37 12.5t69.5 29t91 47t99.5 67.5q39 -10 52 -56.5t13 -115t-6 -151.5t-6 -165q0 -66 11.5 -124t39 -102t75.5 -70.5t124 -26.5q61 0 115.5 28.5t89.5 59.5q6 47 7 90t1 90q0 78 2 141.5t-1 110.5t-12 77t-32 40q-12 6 -30 8l-33 4q-20 2 -39 2q72 20 139 47 q57 23 119.5 53.5t105.5 67.5q0 -25 -2 -84t-3 -137t-2 -165t2 -163t9 -133t19 -78l25 -42q13 -22 31.5 -37t46.5 -20t69 9q-92 -53 -181.5 -95t-158.5 -85q-55 27 -68.5 91.5t-13.5 172.5q-39 -31 -82 -75t-94 -85t-112.5 -70.5t-137.5 -29.5q-18 0 -43 6q-4 -98 -10 -230 l-14 -281l-15 -305q-8 -157 -14 -304l-33 -725l-49 823q-10 166 -19 337l-15 329q-7 158 -11 292t-4 224q-4 25 -7 59l-4 71q-2 36 -3 70.5t-1 59.5q0 86 2 155.5t-2 123t-18.5 88t-46.5 51.5q-25 10 -45.5 14t-26.5 4z" />
<glyph unicode="&#xb6;" horiz-adv-x="1781" d="M0 1507q0 154 48 256.5t122 165t162 88t170 25.5q119 0 226.5 -9.5t221.5 -9.5h42q19 0 38 2h-2l92 9l49 -4q27 -2 57.5 -3.5t65.5 -1.5q66 0 114 3.5t81 7.5q37 4 63 10v-21l-104 -18q-12 -111 -21 -240q-8 -111 -13 -256t-5 -307q0 -207 9 -413.5t20 -374.5 q12 -197 30 -377l111 -21v-18q-33 4 -76 8q-37 4 -89 7t-120 3q-113 0 -170 -6l-57 -8q-12 -2 -13 -1t-12 3q-78 6 -221 6q-63 0 -115.5 -2t-91.5 -4q-45 -4 -84 -6v12l152 29q18 86 35 225q14 119 25.5 307.5t11.5 462.5q0 344 -4.5 568.5t-26.5 357.5q-16 23 -42 32t-67 9 q-63 0 -123.5 -36t-106.5 -100.5t-74.5 -156.5t-28.5 -203q0 -174 25.5 -289.5t64.5 -187.5t85 -108.5t87 -51.5q-70 12 -163 45t-177 105t-142.5 188.5t-58.5 298.5zM541 870q25 -4 44 -5t36 -3q18 -2 32 -2q-14 -2 -32 -2q-16 0 -36.5 2t-43.5 10zM970 706.5 q-1 -188.5 2 -336t11 -237.5t29 -92q16 -4 30 -8l29 -8l57 8q20 137 37 313q14 152 25.5 362t11.5 470q0 158 -10 306t-21 265q-14 137 -30 258l-31 4l-19.5 -4l-19.5 -4q-16 -2 -33.5 -84t-32 -211t-24.5 -290t-10 -322q0 -201 -1 -389.5z" />
<glyph unicode="&#xb7;" horiz-adv-x="569" d="M0 657q0 18 125 76l53 23q6 2 23 4q43 0 64.5 -75t45.5 -79q8 0 17 2l16 4q18 0 21 -16q0 -8 -11 -16q-59 -41 -92 -62q-63 -37 -100 -39q-49 -2 -76 84t-35 86q-10 0 -18 -3t-15 -5q-18 0 -18 16z" />
<glyph unicode="&#xb8;" horiz-adv-x="577" d="M8 -313q6 14 23 8q10 -6 18 -13.5t33 -15.5q25 -10 69 39t68 113q16 47 14 180l140 -371q-16 -31 -35 -55q-80 -98 -152 -72q-33 12 -109.5 88t-68.5 99z" />
<glyph unicode="&#xb9;" horiz-adv-x="571" d="M0 1858q80 68 367 186v-944q-18 -20 -37 -34.5t-37 -25.5q-2 0 -11.5 -3t-13.5 -5l-35 -11q-23 -7 -45 -17q12 98 19.5 167.5t7.5 116.5v473q0 150 -53 150q2 0 -68 -27q-69 -26 -94 -26z" />
<glyph unicode="&#xba;" horiz-adv-x="890" d="M0 1493q0 98 21.5 189.5t62.5 168.5q53 86 131 142.5t168 56.5q86 0 148.5 -42t97.5 -120q27 -57 42 -132t15 -167q0 -72 -15.5 -138.5t-43.5 -129.5q-68 -137 -178 -223q-94 -76 -160 -76q-31 0 -96 33q-104 47 -152 192q-14 47 -27.5 117t-13.5 129zM109 1569 q0 -137 69 -266q94 -150 221 -150q170 0 170 340q0 82 -16 153.5t-43 133.5q-86 158 -236 157q-86 0 -133 -147q-16 -53 -24 -109.5t-8 -111.5z" />
<glyph unicode="&#xbb;" horiz-adv-x="1482" d="M0 51q12 12 190 264q117 166 230 224q-147 84 -240 245l-137 314l180 102q133 -307 142 -319q90 -160 258 -246q-78 -41 -185 -189l-180 -258zM655 51q12 12 191 264q117 166 229 224q-147 84 -239 245l-138 314l181 102q133 -307 141 -319q90 -160 258 -246 q-78 -41 -184 -189l-181 -258z" />
<glyph unicode="&#xbc;" horiz-adv-x="1957" d="M0 1749q82 94 422 283v-1409q-49 -72 -84 -93q-12 -2 -44 -16l-79 -37q31 283 31 424v707q0 221 -60 221l-75 -37l-61 -28q-25 -11 -50 -15zM358 59l174 507l205 628l97 333l143 523l131 -84l-162 -454l-176 -508q-47 -139 -124 -392l-183 -616zM752 383v63 q12 41 37.5 93.5t60.5 115.5l47 81l64 108l86 175l118 241q127 244 287 307v-1000q0 -39 21 -43q8 -4 45 -4q39 0 97 3t136 12l2 -13q-68 -86 -151 -110q-25 -10 -65 -13.5t-95 -3.5v-215q0 -90 -25 -117q-39 -27 -78 -59h-45v391q-225 0 -501 25q-4 -2 -14.5 -11.5 t-26.5 -25.5zM920 578h6v-27q18 14 30 14q27 0 68 -8q39 -8 70 -8l200 -4v712l-187 -339z" />
<glyph unicode="&#xbd;" horiz-adv-x="1857" d="M0 1749q82 94 422 283v-1409q-49 -72 -84 -93q-12 -2 -44 -16l-79 -37q31 283 31 424v707q0 221 -60 221l-75 -37l-61 -28q-25 -11 -50 -15zM360 59q82 223 177 507l204 628q37 115 98 333l144 523l131 -84l-163 -454l-173 -508l-126 -392q-79 -252 -183 -616zM793 -2 l230 282q91 116 134 175q102 156 159.5 300t57.5 263q0 135 -62.5 214t-160.5 79q-35 0 -68.5 -13.5t-56.5 -35.5l-60 -59q-26 -24 -44 -34q27 63 68.5 122t92.5 106q55 47 105.5 71.5t99.5 24.5q104 0 166 -91t62 -239q0 -111 -26 -216t-79 -206q-23 -41 -79 -123.5 t-132 -183.5l-88 -140.5t-49 -115.5l590 12q-10 -23 -28.5 -52t-53.5 -68q-31 -35 -51.5 -54.5t-36.5 -19.5z" />
<glyph unicode="&#xbe;" horiz-adv-x="2181" d="M0 608q59 66 133 84q92 -35 153.5 -54.5t94.5 -19.5q57 0 125 78q35 39 50 78t15 76q0 135 -54 229.5t-157 143.5q-8 4 -59 25l-137 57l229 151q18 10 30.5 32.5t25.5 57.5q20 59 20 117q0 231 -211 231q-70 0 -111 -28q-43 -33 -67.5 -48.5t-28.5 -17.5l-6 6 q57 102 178 164q111 61 211 62q37 0 73 -23.5t64 -64.5q63 -86 64 -189q0 -98 -60 -176q-16 -25 -43.5 -52.5t-62.5 -56.5q-29 -23 -45 -41t-23 -30q12 -6 36 -15.5t59 -21.5q104 -43 162.5 -142.5t58.5 -238.5q0 -295 -344 -442q-66 -25 -105 -38.5t-59 -13.5 q-29 0 -109 43q-73 41 -100 78zM541 59q86 223 185 507l216 628q37 115 100 333l154 523l135 -84l-170 -454l-184 -508q-49 -139 -131 -392l-193 -616zM920 383v63q23 80 102 209l49 80l66 109l83 155l113 218q6 10 10.5 21t12.5 22q66 117 142.5 195.5t158.5 111.5v-1000 q0 -37 22 -43q4 -4 43 -4q43 0 106.5 3t145.5 12l2 -13q-78 -86 -155 -110q-29 -10 -73 -13.5t-101 -3.5v-106l2 -109q0 -88 -29 -117q-23 -14 -41 -28l-39 -31h-51v391q-236 0 -526 25q-10 -4 -43 -37zM1098 578h6v-25q10 8 16 10t10 2q12 0 31 -2t41 -6q23 -4 42.5 -6 t33.5 -2l211 -4v712l-195 -339z" />
<glyph unicode="&#xbf;" horiz-adv-x="1056" d="M0 563q0 170 87 380t200 306l57 47q35 35 43 62q18 59 19 121v34q0 68 167 144q4 -18 33 -33l4 -156q0 -219 -116 -372q-25 -35 -211 -258q-111 -172 -111 -414q0 -150 25 -217q39 -100 143 -101q156 0 262.5 137.5t106.5 334.5q0 125 -47 210q-29 49 -130 152 q117 -41 216 -186q104 -154 104 -299q0 -215 -101.5 -348.5t-271.5 -133.5q-164 0 -321.5 191.5t-157.5 398.5zM412 1853q0 68 38.5 132.5t90.5 64.5q78 0 77 -131q0 -80 -28 -139q-35 -70 -94 -70q-12 0 -50 16q-34 59 -34 127z" />
<glyph unicode="&#xc0;" horiz-adv-x="1589" d="M0 0q37 4 80 10q35 4 82 8.5t98 4.5q55 0 103.5 -4.5t85.5 -8.5q43 -6 79 -10v23q6 0 -2 2q-6 2 -24.5 6t-59.5 12q-33 6 -45 70.5t-14 159t5 202t16.5 197.5t17.5 149.5t8 55.5h461l178 -832l-65 -22v-23l53 10q29 4 73 8.5t107 4.5q51 0 96 -4.5t80 -8.5q39 -6 74 -10 v23q-10 4 -25 8q-12 4 -28 7l-37 7q-33 6 -72 94t-80 227.5t-84 315.5t-82 360q-92 428 -188 973l135 23v12q-51 -4 -108 -6q-49 -4 -112 -5t-128 -1q-66 0 -119 1t-92 5q-45 2 -82 6v-12q4 -2 25 -6q16 -4 49 -8.5t92 -8.5q31 -4 26.5 -91t-30 -226t-69.5 -316l-93 -360 q-117 -430 -285 -977l-100 -22v-23zM453 1036l182 811l219 -811h-401zM483 2734q147 -29 189 -14q25 -68 91 -141.5t130 -106.5q-100 -10 -236 82q-123 82 -174 180z" />
<glyph unicode="&#xc1;" horiz-adv-x="1589" d="M0 0v23l100 22q168 547 285 977l93 360q44 176 69.5 315.5t30 226.5t-26.5 91q-59 4 -92 8.5t-49 8.5q-20 4 -25 6v12q37 -4 82 -6q39 -4 92 -5t119 -1t128 1t112 5q57 2 108 6v-12l-135 -23q96 -545 188 -973q39 -184 82 -360t84 -315.5t80 -227.5t72 -94l37 -7 q16 -3 28 -7q14 -4 25 -8v-23q-35 4 -74 10q-35 4 -80 8.5t-96 4.5q-63 0 -107.5 -4.5t-72.5 -8.5l-53 -10v23l65 22l-178 832h-461q0 4 -8 -55.5t-17.5 -149.5t-16.5 -197.5t-5 -202t14.5 -159t44.5 -70.5q41 -8 59.5 -12t24.5 -6q8 -2 2 -2v-23q-37 4 -79 10 q-37 4 -85.5 8.5t-103.5 4.5q-51 0 -98 -4.5t-82 -8.5q-43 -6 -80 -10zM453 1036h401l-219 811zM481 2470q63 31 130 105.5t91 140.5q41 -12 189 16q-51 -98 -174 -182q-136 -90 -236 -80z" />
<glyph unicode="&#xc2;" horiz-adv-x="1589" d="M0 0q37 4 80 10q35 4 82 8.5t98 4.5q55 0 103.5 -4.5t85.5 -8.5q43 -6 79 -10v23q6 0 -2 2q-6 2 -24.5 6t-59.5 12q-33 6 -45 70.5t-14 159t5 202t16.5 197.5t17.5 149.5t8 55.5h461l178 -832l-65 -22v-23l53 10q29 4 73 8.5t107 4.5q51 0 96 -4.5t80 -8.5q39 -6 74 -10 v23q-10 4 -25 8q-12 4 -28 7l-37 7q-33 6 -72 94t-80 227.5t-84 315.5t-82 360q-92 428 -188 973l135 23v12q-51 -4 -108 -6q-49 -4 -112 -5t-128 -1q-66 0 -119 1t-92 5q-45 2 -82 6v-12q4 -2 25 -6q16 -4 49 -8.5t92 -8.5q31 -4 26.5 -91t-30 -226t-69.5 -316l-93 -360 q-117 -430 -285 -977l-100 -22v-23zM334 2451l92 162l172 113q98 66 139 145q57 -104 164 -161q8 -4 213 -89l-82 -143l-209 86q-109 57 -164 150q-39 -70 -149 -144q-168 -111 -176 -119zM453 1036l182 811l219 -811h-401z" />
<glyph unicode="&#xc3;" horiz-adv-x="1589" d="M0 0q37 4 80 10q35 4 82 8.5t98 4.5q55 0 103.5 -4.5t85.5 -8.5q43 -6 79 -10v23q6 0 -2 2q-6 2 -24.5 6t-59.5 12q-33 6 -45 70.5t-14 159t5 202t16.5 197.5t17.5 149.5t8 55.5h461l178 -832l-65 -22v-23l53 10q29 4 73 8.5t107 4.5q51 0 96 -4.5t80 -8.5q39 -6 74 -10 v23q-10 4 -25 8q-12 4 -28 7l-37 7q-33 6 -72 94t-80 227.5t-84 315.5t-82 360q-92 428 -188 973l135 23v12q-51 -4 -108 -6q-49 -4 -112 -5t-128 -1q-66 0 -119 1t-92 5q-45 2 -82 6v-12q4 -2 25 -6q16 -4 49 -8.5t92 -8.5q31 -4 26.5 -91t-30 -226t-69.5 -316l-93 -360 q-117 -430 -285 -977l-100 -22v-23zM322 2447l94 164q72 61 209 62q59 0 92 -19q86 -49 166 -49q82 0 237 72l-88 -154q-143 -66 -223 -65q-82 0 -166 49q-35 20 -90 20q-141 0 -231 -80zM453 1036l182 811l219 -811h-401z" />
<glyph unicode="&#xc4;" horiz-adv-x="1589" d="M0 0v23l100 22q168 547 285 977l93 360q44 176 69.5 315.5t30 226.5t-26.5 91q-59 4 -92 8.5t-49 8.5q-20 4 -25 6v12q37 -4 82 -6q39 -4 92 -5t119 -1t128 1t112 5q57 2 108 6v-12l-135 -23q96 -545 188 -973q39 -184 82 -360t84 -315.5t80 -227.5t72 -94l37 -7 q16 -3 28 -7q14 -4 25 -8v-23q-35 4 -74 10q-35 4 -80 8.5t-96 4.5q-63 0 -107.5 -4.5t-72.5 -8.5l-53 -10v23l65 22l-178 832h-461q0 4 -8 -55.5t-17.5 -149.5t-16.5 -197.5t-5 -202t14.5 -159t44.5 -70.5q41 -8 59.5 -12t24.5 -6q8 -2 2 -2v-23q-37 4 -79 10 q-37 4 -85.5 8.5t-103.5 4.5q-51 0 -98 -4.5t-82 -8.5q-43 -6 -80 -10zM301 2609q27 20 51 43q23 20 47.5 47t44.5 58q23 -35 49.5 -63t49.5 -46q27 -23 55 -39l-53 -43l-50 -47q-28 -27 -51 -55q-23 37 -47 63.5t-47 44.5q-24 23 -49 37zM453 1036h401l-219 811zM817 2607 q27 20 51 43q23 20 47.5 47t45.5 58q23 -35 49 -63t49 -46q27 -23 55 -39l-53 -43l-50 -47q-28 -27 -50 -55q-23 37 -47.5 63.5t-47.5 44.5q-24 23 -49 37z" />
<glyph unicode="&#xc5;" horiz-adv-x="1589" d="M0 0v23l100 22q168 547 285 977l93 360q44 176 69.5 315.5t30 226.5t-26.5 91q-59 4 -92 8.5t-49 8.5q-20 4 -25 6v12q37 -4 82 -6q39 -4 92 -5t119 -1t128 1t112 5q57 2 108 6v-12l-135 -23q96 -545 188 -973q39 -184 82 -360t84 -315.5t80 -227.5t72 -94l37 -7 q16 -3 28 -7q14 -4 25 -8v-23q-35 4 -74 10q-35 4 -80 8.5t-96 4.5q-63 0 -107.5 -4.5t-72.5 -8.5l-53 -10v23l65 22l-178 832h-461q0 4 -8 -55.5t-17.5 -149.5t-16.5 -197.5t-5 -202t14.5 -159t44.5 -70.5q41 -8 59.5 -12t24.5 -6q8 -2 2 -2v-23q-37 4 -79 10 q-37 4 -85.5 8.5t-103.5 4.5q-51 0 -98 -4.5t-82 -8.5q-43 -6 -80 -10zM328 2777q0 88 47 169t117.5 142.5t153.5 98.5t153 37q47 0 100 -19.5t97 -60.5t74 -102.5t30 -145.5q0 -70 -47 -147.5t-116 -142t-147.5 -107.5t-140.5 -43q-61 0 -119.5 25.5t-103.5 70.5t-71.5 102 t-26.5 123zM453 1036h401l-219 811zM461 2931q0 -47 18.5 -102.5t59.5 -103.5t107.5 -81t162.5 -33q51 0 80 13.5t43 34t18 44t4 43.5q0 66 -25.5 130.5t-70.5 114.5t-105.5 81t-129.5 31q-47 0 -78 -18.5t-49.5 -44t-26.5 -55t-8 -54.5z" />
<glyph unicode="&#xc6;" horiz-adv-x="2215" d="M0 0l6 23l105 22l464 864l173 337l151 316q68 146 110 255.5t46 160.5q-4 16 -4 19q-2 4 -2 8l-131 12v29q49 -6 120 -10q59 -4 151.5 -7.5t215.5 -3.5q129 0 254 5.5t274 15.5q-35 -66 -61.5 -168t-30.5 -201q-20 82 -68.5 143.5t-116 100.5t-148.5 58.5t-165 19.5 q-12 -127 -15 -274.5t-3 -276.5q0 -150 6 -299q90 2 182 14q78 10 169.5 33t170.5 64q-10 -68 -13 -131.5t-3 -112.5q0 -57 4 -111l-20 8q2 63 -43 100.5t-117 57t-160 23.5t-170 2q-4 -61 -5 -134t0 -148t3 -150.5t6 -145.5l17 -332q168 -16 305 -8q57 2 115.5 10.5 t106.5 23.5t82 38.5t44 60.5l6 -12l-45 -121l-35 -99l-24 -77q-188 0 -354.5 12.5t-338.5 12.5q-63 0 -109 -4.5t-77 -8.5q-37 -6 -63 -12v25l118 16l17 274q8 123 15 270.5t13 289.5h-485q2 4 -20 -56l-55 -149q-32 -90 -64.5 -197.5t-54 -202t-24.5 -159t28 -70.5 q39 -8 56 -12t23 -6q8 -2 3 -2l-7 -23q-35 4 -75 10q-35 4 -83 8.5t-104 4.5q-51 0 -99 -4.5t-85 -8.5zM705 1036h401l-23 776q0 8 -2 14.5t-2 12.5z" />
<glyph unicode="&#xc7;" horiz-adv-x="1236" d="M0 958q0 264 60.5 468t163 342.5t236.5 209t281 70.5l191 -12q55 0 74 6q10 2 16 6h10q-16 -43 -30.5 -87t-26.5 -93t-20.5 -106.5t-12.5 -129.5h-22q0 39 -18.5 94.5t-59.5 106.5t-110.5 87t-170.5 36q-170 0 -247.5 -203t-77.5 -592q0 -104 13 -220t40.5 -229.5 t69.5 -217t99.5 -182.5t130.5 -126t163 -47q76 0 124 21.5t76 50.5q33 33 47 74l23 -23q-35 -74 -96 -129q-53 -49 -136 -89t-206 -40q-55 0 -121 16.5t-130.5 58.5t-125 111.5t-106.5 176t-73.5 251.5t-27.5 340zM551 -276q6 14 22 8q10 -6 18.5 -13.5t33.5 -15.5 q25 -10 68.5 39t68.5 113q16 47 14 180l139 -371q-16 -31 -34 -55q-80 -98 -152 -72q-33 12 -109.5 88t-68.5 99z" />
<glyph unicode="&#xc8;" horiz-adv-x="1298" d="M0 2017l131 -12q23 -113 43 -246q16 -115 30.5 -265.5t14.5 -317.5q0 -68 -2 -153t-6 -177t-9 -188.5t-9 -184.5q-12 -209 -27 -430l-119 -16v-25q27 6 64 12q31 4 76.5 8.5t109.5 4.5q172 0 338 -12.5t354 -12.5l25 77q16 50 35 99l45 121l-7 12q-10 -37 -43.5 -60.5 t-82 -38.5t-106.5 -23.5t-116 -10.5q-137 -8 -305 8l-16 332q-4 70 -6 145.5t-3 150.5t0 147.5t5 134.5q82 2 170 -2t159.5 -23.5t116.5 -56.5t43 -101l21 -8q-4 53 -4 111q0 49 3 112.5t13 131.5q-80 -41 -171 -63.5t-169 -33.5q-92 -12 -182 -14q-6 150 -6 299 q0 129 3 276.5t15 274.5q84 0 165 -19.5t148.5 -58.5t115.5 -100.5t69 -143.5q4 98 30.5 200.5t61.5 168.5q-150 -10 -275 -15.5t-254 -5.5q-123 0 -215 3.5t-151 7.5q-72 4 -121 10v-29zM307 2726q147 -29 189 -14q25 -68 91 -141.5t130 -106.5q-100 -10 -236 82 q-123 82 -174 180z" />
<glyph unicode="&#xc9;" horiz-adv-x="1298" d="M0 2017v29q49 -6 121 -10q59 -4 151.5 -7.5t214.5 -3.5q129 0 254 5.5t275 15.5q-35 -66 -61.5 -168t-30.5 -201q-20 82 -68.5 143.5t-116 100.5t-148.5 58.5t-165 19.5q-12 -127 -15 -274.5t-3 -276.5q0 -150 6 -299q90 2 182 14q78 10 169 33t171 64 q-10 -68 -13 -131.5t-3 -112.5q0 -57 4 -111l-21 8q2 63 -43 100.5t-116.5 57t-159.5 23.5t-170 2q-4 -61 -5 -134t0 -148t3 -150.5t6 -145.5l16 -332q168 -16 305 -8q57 2 115.5 10.5t107 23.5t82 38.5t43.5 60.5l7 -12l-45 -121l-35 -99l-25 -77q-188 0 -354 12.5 t-338 12.5q-63 0 -109.5 -4.5t-76.5 -8.5q-37 -6 -64 -12v25l119 16l27 430q4 88 9 184.5t9 188.5t6 177t2 153q0 168 -14.5 318.5t-30.5 264.5q-20 133 -43 246zM309 2470q63 31 130 105.5t91 140.5q41 -12 189 16q-51 -98 -174 -182q-136 -90 -236 -80z" />
<glyph unicode="&#xca;" horiz-adv-x="1298" d="M0 2017l131 -12q23 -113 43 -246q16 -115 30.5 -265.5t14.5 -317.5q0 -68 -2 -153t-6 -177t-9 -188.5t-9 -184.5q-12 -209 -27 -430l-119 -16v-25q27 6 64 12q31 4 76.5 8.5t109.5 4.5q172 0 338 -12.5t354 -12.5l25 77q16 50 35 99l45 121l-7 12q-10 -37 -43.5 -60.5 t-82 -38.5t-106.5 -23.5t-116 -10.5q-137 -8 -305 8l-16 332q-4 70 -6 145.5t-3 150.5t0 147.5t5 134.5q82 2 170 -2t159.5 -23.5t116.5 -56.5t43 -101l21 -8q-4 53 -4 111q0 49 3 112.5t13 131.5q-80 -41 -171 -63.5t-169 -33.5q-92 -12 -182 -14q-6 150 -6 299 q0 129 3 276.5t15 274.5q84 0 165 -19.5t148.5 -58.5t115.5 -100.5t69 -143.5q4 98 30.5 200.5t61.5 168.5q-150 -10 -275 -15.5t-254 -5.5q-123 0 -215 3.5t-151 7.5q-72 4 -121 10v-29zM111 2462l92 161l172 113q98 66 139 146q57 -104 164 -162q8 -4 213 -88l-82 -144 l-209 86q-109 57 -164 150q-39 -70 -149 -144q-168 -110 -176 -118z" />
<glyph unicode="&#xcb;" horiz-adv-x="1298" d="M0 2017v29q49 -6 121 -10q59 -4 151.5 -7.5t214.5 -3.5q129 0 254 5.5t275 15.5q-35 -66 -61.5 -168t-30.5 -201q-20 82 -68.5 143.5t-116 100.5t-148.5 58.5t-165 19.5q-12 -127 -15 -274.5t-3 -276.5q0 -150 6 -299q90 2 182 14q78 10 169 33t171 64 q-10 -68 -13 -131.5t-3 -112.5q0 -57 4 -111l-21 8q2 63 -43 100.5t-116.5 57t-159.5 23.5t-170 2q-4 -61 -5 -134t0 -148t3 -150.5t6 -145.5l16 -332q168 -16 305 -8q57 2 115.5 10.5t107 23.5t82 38.5t43.5 60.5l7 -12l-45 -121l-35 -99l-25 -77q-188 0 -354 12.5 t-338 12.5q-63 0 -109.5 -4.5t-76.5 -8.5q-37 -6 -64 -12v25l119 16l27 430q4 88 9 184.5t9 188.5t6 177t2 153q0 168 -14.5 318.5t-30.5 264.5q-20 133 -43 246zM80 2605q27 20 51 43q23 20 47.5 47t44.5 58q23 -35 49.5 -63t49.5 -46q27 -23 55 -39l-53 -43l-51 -47 q-28 -27 -50 -55q-23 37 -47 63.5t-47 44.5q-24 23 -49 37zM596 2603q27 20 51 43q23 20 47.5 47t44.5 57q23 -35 49.5 -62.5t49.5 -45.5q27 -23 55 -39l-53 -43l-50 -47q-28 -27 -51 -55q-23 37 -47 63.5t-47 44.5q-24 23 -49 37z" />
<glyph unicode="&#xcc;" horiz-adv-x="741" d="M0 2028l113 -19q16 -121 30 -258q10 -117 20.5 -265.5t10.5 -305.5q0 -260 -11 -470t-26 -362q-16 -176 -37 -313l-88 -12v-21q20 4 58 8q31 4 79 7t115 3q68 0 120 -3t89 -7q43 -4 76 -8v18l-111 21q-18 180 -30 377q-10 168 -19.5 374.5t-9.5 413.5q0 162 5 307.5 t13 255.5q8 129 21 240l104 19v20q-27 -6 -63 -10q-33 -4 -81 -7t-114 -3q-59 0 -107 3t-83 7q-41 4 -74 10v-20zM51 2734q147 -29 189 -14q25 -68 91 -141.5t130 -106.5q-100 -10 -236 82q-123 82 -174 180z" />
<glyph unicode="&#xcd;" horiz-adv-x="741" d="M0 2028v20q33 -6 74 -10q35 -4 83 -7t107 -3q66 0 114 3t81 7q37 4 63 10v-20l-104 -19q-12 -111 -21 -240q-8 -111 -13 -256t-5 -307q0 -207 9 -413.5t20 -374.5q12 -197 30 -377l111 -21v-18q-33 4 -76 8q-37 4 -89 7t-120 3t-116 -3t-78 -7q-37 -4 -58 -8v21l88 12 q20 137 37 313q14 152 25.5 362t11.5 470q0 158 -10 306t-21 265q-14 137 -30 258zM53 2466q63 31 130 105.5t91 140.5q41 -12 189 16q-51 -98 -174 -182q-136 -90 -236 -80z" />
<glyph unicode="&#xce;" horiz-adv-x="741" d="M-94 2454l92 161l172 113q98 66 139 145q57 -104 164 -161q8 -4 213 -89l-82 -143l-209 86q-109 57 -164 150q-39 -70 -149 -144q-168 -110 -176 -118zM16 2028l113 -19q16 -121 31 -258q10 -117 20 -265.5t10 -305.5q0 -260 -11 -470t-25 -362q-16 -176 -37 -313 l-88 -12v-21q20 4 57 8q31 4 79 7t116 3t120 -3t88 -7q43 -4 76 -8v18l-110 21q-18 180 -31 377q-10 168 -19.5 374.5t-9.5 413.5q0 162 5.5 307.5t13.5 255.5q8 129 20 240l105 19v20q-27 -6 -64 -10q-33 -4 -81 -7t-113 -3q-59 0 -107.5 3t-83.5 7q-41 4 -74 10v-20z" />
<glyph unicode="&#xcf;" horiz-adv-x="735" d="M-133 2611q27 20 51 43q23 20 47.5 47t44.5 58q23 -35 49.5 -62.5t49.5 -46.5q27 -23 55 -39l-53 -43l-51 -47q-28 -27 -50 -55q-23 37 -47 63.5t-47 44.5q-24 23 -49 37zM10 2028v20q33 -6 74 -10q35 -4 83 -7t107 -3q66 0 114 3t81 7q37 4 63 10v-20l-104 -19 q-12 -111 -20 -240q-8 -111 -13.5 -256t-5.5 -307q0 -207 9.5 -413.5t19.5 -374.5q12 -197 31 -377l110 -21v-18q-33 4 -76 8q-37 4 -89 7t-120 3t-115.5 -3t-78.5 -7q-37 -4 -57 -8v21l88 12q20 137 36 313q14 152 25.5 362t11.5 470q0 158 -10 306t-20 265 q-14 137 -31 258zM383 2609q27 20 51 43q23 20 47.5 47t44.5 58q23 -35 49.5 -63t49.5 -46q27 -23 55 -39l-53 -43l-50 -47q-28 -27 -51 -55q-23 37 -47 63.5t-47 44.5q-24 23 -49 37z" />
<glyph unicode="&#xd0;" horiz-adv-x="1632" d="M-193 920l95 163q72 61 209 62q39 0 67 -8v127q0 137 -6 271t-15.5 239.5t-20.5 172t-23 68.5l-95 21v20q35 -6 74 -10q35 -4 77 -7t89 -3q37 0 75 3t80 7t90 7t109 3q176 0 325.5 -70.5t258.5 -199.5t170 -310.5t61 -402.5q0 -213 -36.5 -374.5t-98 -281.5t-142.5 -199 t-166 -127t-170 -68.5t-157 -20.5q-100 0 -206.5 9t-198.5 9q-53 0 -96 -4t-76 -8q-37 -6 -68 -12v24l107 15q12 100 22 237q10 117 19.5 288t13.5 394q-23 10 -45 25q-35 20 -90 20q-142 1 -232 -79zM373 1077q82 2 233 72l-88 -154q-82 -39 -143 -55q2 -92 5 -189.5 t7 -194.5l8 -189q4 -92 8 -172q51 -160 240 -160q92 0 166 46t129 125t94 182.5t63.5 218t36 232t11.5 226.5q0 164 -45 333t-123 306t-183.5 224t-228.5 87q-53 0 -93 -11t-67 -40q-10 -68 -15 -149.5t-9 -181t-5 -220.5t-1 -268v-68z" />
<glyph unicode="&#xd1;" horiz-adv-x="1810" d="M0 2011l8 -18h45q20 0 70.5 -64.5t128.5 -175.5q4 -129 7 -299t2 -351t-6 -360.5t-14.5 -327t-22.5 -250t-32 -130.5l-106 -15v-20q29 4 67 10q35 4 84.5 7t114.5 3q57 0 106.5 -3t86.5 -7q43 -6 79 -10l-6 14l-133 21q-14 23 -30.5 115t-32 228t-29.5 302t-26 335 l-21 331q-10 162 -14 286l214 -330l257 -398l289 -432l315 -437q-2 434 4 817q2 164 6 333t12.5 324.5t18.5 285.5t26 216l138 21l-7 20q-41 -6 -88 -10q-41 -4 -93 -7t-109 -3q-51 0 -98.5 3t-84.5 7q-43 4 -82 10l7 -20l157 -21q20 -55 37 -147t28 -206t19 -241t15 -252 q12 -293 14 -626l-393 589l-158 249l-150 250l-130 232q-58 110 -91 193q-55 -14 -124.5 -21.5t-131.5 -11.5q-71 -6 -143 -8zM354 2460l95 163q72 61 208 62q59 0 93 -19q86 -49 165 -49q82 0 238 72l-88 -154q-143 -66 -223 -65q-82 0 -166 49q-35 20 -90 21 q-142 0 -232 -80z" />
<glyph unicode="&#xd2;" horiz-adv-x="1622" d="M0 975q0 -102 10 -214t39 -219.5t79 -205.5t129 -173t190.5 -119t263.5 -44q143 0 271 66.5t225.5 199.5t153.5 333t56 468q0 203 -50 381t-143.5 311t-225.5 211t-293 78q-135 0 -262.5 -82t-225.5 -226.5t-157.5 -341t-59.5 -423.5zM279 1014q0 190 22.5 368.5 t70.5 314.5t120.5 218t173.5 82q86 0 153.5 -50.5t119.5 -131t89 -184t59.5 -211t34 -211t11.5 -183.5q0 -209 -17.5 -386t-61.5 -308t-120 -205t-193 -74q-90 0 -159.5 50.5t-120.5 132t-86 186t-56.5 211t-30.5 207t-9 174.5zM430 2730q147 -29 188 -14 q25 -68 91.5 -141.5t130.5 -106.5q-100 -10 -236 82q-123 82 -174 180z" />
<glyph unicode="&#xd3;" horiz-adv-x="1622" d="M0 975q0 227 59.5 423.5t157.5 341t225 226.5t263 82q162 0 293.5 -78t225 -211t143.5 -311t50 -381q0 -268 -56 -468t-153.5 -333t-225.5 -199.5t-271 -66.5q-152 0 -263.5 44t-190.5 119t-129 173t-79 205.5t-39 219.5t-10 214zM279 1014q0 -74 9 -174.5t30.5 -207 t56.5 -211t86 -186t120.5 -132t159.5 -50.5q117 0 193 74t120 205t61.5 308t17.5 386q0 80 -11.5 183.5t-34 211t-59.5 211t-89 184t-119.5 131t-153.5 50.5q-100 0 -173 -82t-121 -218t-70.5 -314.5t-22.5 -368.5zM428 2468q63 31 130 105.5t91 140.5q41 -12 189 16 q-51 -98 -174 -182q-136 -90 -236 -80z" />
<glyph unicode="&#xd4;" horiz-adv-x="1622" d="M0 975q0 -102 10 -214t39 -219.5t79 -205.5t129 -173t190.5 -119t263.5 -44q143 0 271 66.5t225.5 199.5t153.5 333t56 468q0 203 -50 381t-143.5 311t-225.5 211t-293 78q-135 0 -262.5 -82t-225.5 -226.5t-157.5 -341t-59.5 -423.5zM279 1014q0 190 22.5 368.5 t70.5 314.5t120.5 218t173.5 82q86 0 153.5 -50.5t119.5 -131t89 -184t59.5 -211t34 -211t11.5 -183.5q0 -209 -17.5 -386t-61.5 -308t-120 -205t-193 -74q-90 0 -159.5 50.5t-120.5 132t-86 186t-56.5 211t-30.5 207t-9 174.5zM279 2462l92 161l172 113q98 66 139 146 q57 -104 164 -162q8 -4 213 -88l-82 -144l-209 86q-109 57 -164 150q-39 -70 -149 -144q-168 -110 -176 -118z" />
<glyph unicode="&#xd5;" horiz-adv-x="1622" d="M0 975q0 -102 10 -214t39 -219.5t79 -205.5t129 -173t190.5 -119t263.5 -44q143 0 271 66.5t225.5 199.5t153.5 333t56 468q0 203 -50 381t-143.5 311t-225.5 211t-293 78q-135 0 -262.5 -82t-225.5 -226.5t-157.5 -341t-59.5 -423.5zM268 2456l94 163q72 61 209 62 q59 0 93 -19q86 -49 165 -49q82 0 238 72l-88 -154q-143 -66 -223 -65q-82 0 -166 49q-35 20 -90 20q-142 1 -232 -79zM279 1014q0 190 22.5 368.5t70.5 314.5t120.5 218t173.5 82q86 0 153.5 -50.5t119.5 -131t89 -184t59.5 -211t34 -211t11.5 -183.5q0 -209 -17.5 -386 t-61.5 -308t-120 -205t-193 -74q-90 0 -159.5 50.5t-120.5 132t-86 186t-56.5 211t-30.5 207t-9 174.5z" />
<glyph unicode="&#xd6;" horiz-adv-x="1622" d="M0 975q0 227 59.5 423.5t157.5 341t225 226.5t263 82q162 0 293.5 -78t225 -211t143.5 -311t50 -381q0 -268 -56 -468t-153.5 -333t-225.5 -199.5t-271 -66.5q-152 0 -263.5 44t-190.5 119t-129 173t-79 205.5t-39 219.5t-10 214zM258 2613q27 20 51 43q23 20 47.5 47 t44.5 58q23 -35 49.5 -62.5t49.5 -46.5q27 -23 55 -39l-53 -43l-50 -47q-28 -27 -51 -55q-23 37 -47 63.5t-47 44.5q-24 23 -49 37zM279 1014q0 -74 9 -174.5t30.5 -207t56.5 -211t86 -186t120.5 -132t159.5 -50.5q117 0 193 74t120 205t61.5 308t17.5 386q0 80 -11.5 183.5 t-34 211t-59.5 211t-89 184t-119.5 131t-153.5 50.5q-100 0 -173 -82t-121 -218t-70.5 -314.5t-22.5 -368.5zM774 2611q27 20 51 43q23 20 47.5 47t45.5 58q23 -35 49 -62.5t49 -46.5q27 -23 55 -39l-53 -43l-50 -47q-28 -27 -50 -55q-23 37 -47.5 63.5t-47.5 44.5 q-24 23 -49 37z" />
<glyph unicode="&#xd7;" horiz-adv-x="1232" d="M51 217l186 216l214 259l-213 259l-187 218l131 29l189 -253l139 -183q4 2 2 2t2 2l6 10q47 57 122 163l177 259l158 -39l-197 -220l-211 -245l210 -243l198 -224l-158 -43q-102 158 -177 262.5t-122 161.5h2q-4 4 -7 5t-7 8l-139 -182l-187 -255z" />
<glyph unicode="&#xd8;" horiz-adv-x="1400" d="M0 887q0 377 147 684q184 375 521 375q111 0 198 -41l82 217l176 -84l-123 -240q57 -63 97 -156q98 -225 98 -575q0 -262 -106 -512q-109 -260 -306 -420q-172 -145 -278 -145q-57 0 -172 63q-53 27 -96 70l-52 -125l-145 57l98 199q-39 72 -67 164q-72 215 -72 469z M176 1032q0 -252 107 -477l313 678q59 135 166 403q-117 111 -283 111q-164 0 -239 -289q-64 -205 -64 -426zM360 420q137 -193 332 -193q315 0 316 660q0 317 -111 551q-18 39 -37 71l-227 -469q-97 -200 -273 -620z" />
<glyph unicode="&#xd9;" horiz-adv-x="1708" d="M0 2046l6 -23l127 -18q14 -113 25 -252q10 -119 18 -278.5t8 -350.5q0 -281 -4 -491.5t28 -351t119 -211t269 -70.5q113 0 200 34t152.5 83t108.5 103t67 97q-2 -72 -4 -131t-6 -100q-4 -49 -8 -86q31 10 77 18.5t99 12.5t110.5 2t110.5 -15v21l-125 24q-25 35 -37 117 t-16 197t-3 255t1 294q0 256 9 455.5t22 338.5q12 162 30 285l60 18v23q-18 -6 -53 -12q-29 -4 -77 -7.5t-120 -3.5q-53 0 -99 3.5t-81 7.5q-39 6 -74 12v-23l154 -18q16 -57 30 -158q12 -86 22.5 -229t10.5 -361q0 -209 -7 -425t-17 -396q-16 -47 -38 -92t-56.5 -81 t-88 -57.5t-135.5 -21.5q-121 0 -200.5 33t-129 92.5t-74 140t-33.5 177t-8 204t1 220.5q0 74 3 153.5t7 160.5t10 160l12 150q14 168 35 330l111 18v23q-29 -6 -66 -12q-33 -4 -82 -7.5t-116 -3.5q-66 0 -118 3.5t-89 7.5q-43 6 -78 12zM524 2730q147 -29 189 -14 q25 -68 91 -141.5t130 -106.5q-100 -10 -236 82q-123 82 -174 180z" />
<glyph unicode="&#xda;" horiz-adv-x="1708" d="M0 2046q35 -6 78 -12q37 -4 89 -7.5t118 -3.5q68 0 117 3.5t81 7.5q37 6 66 12v-23l-111 -18q-20 -162 -35 -330l-12 -150q-6 -79 -10 -160t-7 -161t-3 -153q0 -113 -1 -220.5t8 -204t33.5 -177t74 -140t129 -92.5t200.5 -33q82 0 135.5 21.5t88 57.5t56 81t38.5 92 q10 180 17 396.5t7 424.5q0 217 -10 360.5t-23 229.5q-14 100 -30 158l-154 18v23q35 -6 74 -12q35 -4 81 -7.5t99 -3.5q72 0 120 3.5t77 7.5q35 6 53 12v-23l-60 -18q-18 -123 -30 -285q-12 -139 -21.5 -338.5t-9.5 -455.5q0 -154 -1 -294t3 -255t16.5 -197t36.5 -117 l125 -24v-21q-53 12 -110.5 14.5t-110.5 -1.5t-99 -12.5t-77 -18.5q4 37 8 86q4 41 6 100.5t4 130.5q-25 -43 -67.5 -97t-108 -103t-152.5 -83t-200 -34q-182 0 -269 70.5t-119 211t-28 351.5t4 491q0 190 -8 350t-18 279q-10 139 -25 252l-127 18zM549 2464 q63 31 129.5 105.5t91.5 140.5q41 -12 188 16q-51 -98 -174 -182q-135 -90 -235 -80z" />
<glyph unicode="&#xdb;" horiz-adv-x="1708" d="M0 2046l6 -23l127 -18q14 -113 25 -252q10 -119 18 -278.5t8 -350.5q0 -281 -4 -491.5t28 -351t119 -211t269 -70.5q113 0 200 34t152.5 83t108.5 103t67 97q-2 -72 -4 -131t-6 -100q-4 -49 -8 -86q31 10 77 18.5t99 12.5t110.5 2t110.5 -15v21l-125 24q-25 35 -37 117 t-16 197t-3 255t1 294q0 256 9 455.5t22 338.5q12 162 30 285l60 18v23q-18 -6 -53 -12q-29 -4 -77 -7.5t-120 -3.5q-53 0 -99 3.5t-81 7.5q-39 6 -74 12v-23l154 -18q16 -57 30 -158q12 -86 22.5 -229t10.5 -361q0 -209 -7 -425t-17 -396q-16 -47 -38 -92t-56.5 -81 t-88 -57.5t-135.5 -21.5q-121 0 -200.5 33t-129 92.5t-74 140t-33.5 177t-8 204t1 220.5q0 74 3 153.5t7 160.5t10 160l12 150q14 168 35 330l111 18v23q-29 -6 -66 -12q-33 -4 -82 -7.5t-116 -3.5q-66 0 -118 3.5t-89 7.5q-43 6 -78 12zM340 2462l92 161l172 113 q98 66 139 146q57 -104 164 -162q8 -4 213 -88l-82 -144l-209 86q-109 57 -163 150q-39 -70 -150 -144q-168 -110 -176 -118z" />
<glyph unicode="&#xdc;" horiz-adv-x="1708" d="M0 2046q35 -6 78 -12q37 -4 89 -7.5t118 -3.5q68 0 117 3.5t81 7.5q37 6 66 12v-23l-111 -18q-20 -162 -35 -330l-12 -150q-6 -79 -10 -160t-7 -161t-3 -153q0 -113 -1 -220.5t8 -204t33.5 -177t74 -140t129 -92.5t200.5 -33q82 0 135.5 21.5t88 57.5t56 81t38.5 92 q10 180 17 396.5t7 424.5q0 217 -10 360.5t-23 229.5q-14 100 -30 158l-154 18v23q35 -6 74 -12q35 -4 81 -7.5t99 -3.5q72 0 120 3.5t77 7.5q35 6 53 12v-23l-60 -18q-18 -123 -30 -285q-12 -139 -21.5 -338.5t-9.5 -455.5q0 -154 -1 -294t3 -255t16.5 -197t36.5 -117 l125 -24v-21q-53 12 -110.5 14.5t-110.5 -1.5t-99 -12.5t-77 -18.5q4 37 8 86q4 41 6 100.5t4 130.5q-25 -43 -67.5 -97t-108 -103t-152.5 -83t-200 -34q-182 0 -269 70.5t-119 211t-28 351.5t4 491q0 190 -8 350t-18 279q-10 139 -25 252l-127 18zM319 2609q27 20 52 43 q23 20 47 47t45 58q23 -35 49.5 -63t48.5 -46q27 -23 55 -39l-53 -43l-50 -47q-28 -27 -50 -55q-23 37 -47.5 63.5t-46.5 44.5q-25 23 -50 37zM836 2607q27 20 51 43q23 20 47 47t45 58q23 -35 49.5 -63t48.5 -46q27 -23 56 -39l-54 -43l-50 -47q-28 -27 -50 -55 q-23 37 -47.5 63.5t-46.5 44.5q-24 23 -49 37z" />
<glyph unicode="&#xdd;" horiz-adv-x="1693" d="M0 2030v18q31 -6 68 -10q33 -4 77.5 -6t100.5 -2q66 0 119 2t94 6q47 4 86 10v-18l-127 -21l157 -332l71 -144l77 -149l78 -144q39 -71 76 -128q31 63 59.5 137t53.5 149l49 149l44 143q47 158 86 319l-139 21v18q39 -6 76 -10q33 -4 69.5 -6t67.5 -2q66 0 111 2t76 6 q35 4 59 10v-18l-80 -21l-145 -280l-152 -303l-182 -367q-16 -268 -12 -462t14 -321q10 -147 31 -247l133 -21v-12q-41 2 -88 6q-41 2 -95.5 4t-115.5 2q-55 0 -105.5 -2t-89.5 -4q-45 -4 -84 -6v18l148 15q14 164 22 331q6 143 5 313.5t-21 325.5l-71 123l-85 153l-93 166 l-93 167l-224 401zM592 2470q63 31 129.5 105.5t91.5 140.5q41 -12 188 16q-51 -98 -174 -182q-135 -90 -235 -80z" />
<glyph unicode="&#xde;" horiz-adv-x="1374" d="M0 2028v20q33 -6 74 -10q35 -4 83 -7t107 -3q66 0 114 3t81 7q37 4 63 10v-20l-104 -19q-4 -47 -10 -106l-10 -120q-5 -69 -9 -155q68 4 137 4h142q82 0 170 -25.5t161.5 -88t121.5 -165t48 -255.5q0 -182 -58 -299t-142 -188.5t-177.5 -104.5t-162.5 -45q41 14 87 51 t85 108.5t64.5 187.5t25.5 290q0 111 -28.5 203t-75 156.5t-106.5 100t-124 35.5q-41 0 -66.5 -9t-41.5 -32q-12 -66 -15.5 -154.5t-5.5 -202.5t-3 -255t-7 -313q-4 -109 -3 -193t6 -145.5t11 -104.5t14 -69q18 -66 43 -74l152 -29v-12q-39 2 -84 6q-39 2 -92 4t-115 2 q-76 0 -131 -2t-94 -4q-45 -4 -78 -6v12q14 2 33 8l36 10l42 11q20 2 28.5 27.5t11.5 96.5t2 195.5t-1 325.5q0 129 -10.5 257t-10.5 269l-14 324q-8 100 -16.5 187t-16.5 151q-8 74 -18 135zM516 451q12 0 31 2q16 2 35.5 3t46.5 5q-25 -8 -44.5 -10t-35.5 -2q-19 0 -33 2z " />
<glyph unicode="&#xdf;" horiz-adv-x="1542" d="M0 -2v20l78 13q20 131 37 303q14 145 23 349t5 456q-2 104 -6 202l-8 191q25 0 48.5 14.5t53 45t68.5 79.5l94 119q109 137 226.5 197.5t252.5 60.5q20 0 48 -12.5t54.5 -30.5t51.5 -40.5t43 -45.5q2 -4 6 -4q0 -2 -2 -2q29 -37 45.5 -85t16.5 -116q0 -76 -19.5 -142.5 t-56.5 -107.5l-62 -69q-31 -35 -65 -58q-43 -31 -67.5 -81t-24.5 -101q0 -68 19.5 -119t50 -86t71.5 -52t84 -17q74 0 126 -24t84 -61.5t47 -86t15 -95.5q0 -156 -52 -272.5t-127 -193t-156.5 -114.5t-139.5 -38q-43 0 -84 11t-74.5 28.5t-59.5 38t-40 41.5q18 49 32.5 140 t20.5 212q23 -74 61 -133.5t85 -102.5t101 -65.5t110 -22.5q18 0 43.5 8.5t47 29t37 56t15.5 91.5q0 51 -16.5 109.5t-47 105.5t-73.5 78.5t-94 31.5q-33 0 -81 12.5t-92 49.5t-76 104.5t-32 179.5q0 76 19.5 141.5t56.5 108.5l58 65q28 30 69 60q41 33 66.5 82t25.5 100 q0 80 -25.5 132.5t-66.5 87.5q-29 20 -69 34.5t-97 14.5q-88 0 -147.5 -29t-97.5 -75t-56.5 -104.5t-26.5 -115.5q-6 -47 -15 -159.5t-13 -260.5q-4 -195 4 -381t18 -333q12 -172 29 -328l98 -21v-18q-31 4 -67 8q-33 4 -79 7t-106 3q-59 0 -102 -3t-70 -7q-33 -4 -51 -8z " />
<glyph unicode="&#xe0;" horiz-adv-x="1341" d="M0 199q0 -47 25.5 -84t66.5 -62.5t91 -39t98 -13.5q66 0 138.5 33t140 80t126.5 99t98 91q45 -96 72 -177t37 -126q49 53 115.5 102.5t128.5 83.5q-23 4 -55.5 63.5t-66.5 137.5l-65 154l-47 114q-18 35 -43.5 96.5t-61.5 122t-80 104.5t-95 44q-27 0 -65 -12.5t-82 -33 t-91 -45t-92 -50.5q-106 -63 -221 -142q53 29 106 52q43 20 89 36.5t75 16.5q68 0 124 -36t120 -116l-189 -114q-102 -61 -190 -126t-147.5 -130.5t-59.5 -122.5zM199 1706q147 -29 188 -14q25 -68 91.5 -141.5t129.5 -106.5q-100 -10 -235 82q-123 82 -174 180zM233 342 q0 51 42 98t101.5 87t124 70t109.5 46q18 -23 36 -56.5t34 -70.5l35 -60l35 -59q0 -43 -20.5 -79.5t-54.5 -63.5t-79 -41t-94 -14q-55 0 -104.5 12t-85.5 31.5t-57.5 45t-21.5 54.5z" />
<glyph unicode="&#xe1;" horiz-adv-x="1341" d="M0 199q0 57 59.5 122.5t147.5 130t190 126.5l189 114q-63 80 -119.5 116t-124.5 36q-29 0 -75 -16.5t-89 -36.5q-53 -23 -106 -52q115 78 221 142q45 27 92 51l91 44.5t82 33t65 12.5q51 0 95 -44t80 -104.5t61.5 -122t43.5 -96.5l47 -114l65 -154q34 -78 66.5 -137.5 t55.5 -63.5q-61 -35 -128 -84t-116 -102q-10 45 -37 126t-72 177q-39 -39 -98 -91t-126.5 -99t-140.5 -80t-138 -33q-47 0 -97.5 13.5t-91.5 39t-66.5 62.5t-25.5 84zM233 342q0 -29 21.5 -54.5t57.5 -45t85 -31.5t105 -12q49 0 94 14t79 41t54.5 63.5t20.5 79.5l-35 59 l-35 60q-16 37 -33.5 71t-36.5 56q-45 -16 -109.5 -46t-124 -70t-101.5 -87t-42 -98zM252 1442q63 31 130 105.5t91 140.5q41 -12 189 16q-51 -98 -175 -182q-135 -90 -235 -80z" />
<glyph unicode="&#xe2;" horiz-adv-x="1341" d="M0 199q0 -47 25.5 -84t66.5 -62.5t91 -39t98 -13.5q66 0 138.5 33t140 80t126.5 99t98 91q45 -96 72 -177t37 -126q49 53 115.5 102.5t128.5 83.5q-23 4 -55.5 63.5t-66.5 137.5l-65 154l-47 114q-18 35 -43.5 96.5t-61.5 122t-80 104.5t-95 44q-27 0 -65 -12.5t-82 -33 t-91 -45t-92 -50.5q-106 -63 -221 -142q53 29 106 52q43 20 89 36.5t75 16.5q68 0 124 -36t120 -116l-189 -114q-102 -61 -190 -126t-147.5 -130.5t-59.5 -122.5zM74 1434l92 161l172 113q98 66 139 145q57 -104 164 -161q8 -4 213 -88l-82 -144l-209 86q-109 57 -164 150 q-39 -70 -149 -144q-168 -110 -176 -118zM233 342q0 51 42 98t101.5 87t124 70t109.5 46q18 -23 36 -56.5t34 -70.5l35 -60l35 -59q0 -43 -20.5 -79.5t-54.5 -63.5t-79 -41t-94 -14q-55 0 -104.5 12t-85.5 31.5t-57.5 45t-21.5 54.5z" />
<glyph unicode="&#xe3;" horiz-adv-x="1341" d="M0 199q0 -47 25.5 -84t66.5 -62.5t91 -39t98 -13.5q66 0 138.5 33t140 80t126.5 99t98 91q45 -96 72 -177t37 -126q49 53 115.5 102.5t128.5 83.5q-23 4 -55.5 63.5t-66.5 137.5l-65 154l-47 114q-18 35 -43.5 96.5t-61.5 122t-80 104.5t-95 44q-27 0 -65 -12.5t-82 -33 t-91 -45t-92 -50.5q-106 -63 -221 -142q53 29 106 52q43 20 89 36.5t75 16.5q68 0 124 -36t120 -116l-189 -114q-102 -61 -190 -126t-147.5 -130.5t-59.5 -122.5zM39 1436l94 163q72 61 209 62q59 0 92 -19q86 -49 166 -49q82 0 238 72l-88 -154q-143 -66 -224 -65 q-82 0 -166 49q-35 20 -90 21q-141 0 -231 -80zM233 342q0 51 42 98t101.5 87t124 70t109.5 46q18 -23 36 -56.5t34 -70.5l35 -60l35 -59q0 -43 -20.5 -79.5t-54.5 -63.5t-79 -41t-94 -14q-55 0 -104.5 12t-85.5 31.5t-57.5 45t-21.5 54.5z" />
<glyph unicode="&#xe4;" horiz-adv-x="1341" d="M0 199q0 57 59.5 122.5t147.5 130t190 126.5l189 114q-63 80 -119.5 116t-124.5 36q-29 0 -75 -16.5t-89 -36.5q-53 -23 -106 -52q115 78 221 142q45 27 92 51l91 44.5t82 33t65 12.5q51 0 95 -44t80 -104.5t61.5 -122t43.5 -96.5l47 -114l65 -154q34 -78 66.5 -137.5 t55.5 -63.5q-61 -35 -128 -84t-116 -102q-10 45 -37 126t-72 177q-39 -39 -98 -91t-126.5 -99t-140.5 -80t-138 -33q-47 0 -97.5 13.5t-91.5 39t-66.5 62.5t-25.5 84zM104 1587q27 20 52 43q23 20 47 47t45 58q23 -35 49.5 -62.5t48.5 -46.5q27 -23 55 -39l-53 -43l-50 -47 q-28 -27 -50 -55q-23 37 -47.5 63.5t-46.5 44.5q-25 23 -50 37zM233 342q0 -29 21.5 -54.5t57.5 -45t85 -31.5t105 -12q49 0 94 14t79 41t54.5 63.5t20.5 79.5l-35 59l-35 60q-16 37 -33.5 71t-36.5 56q-45 -16 -109.5 -46t-124 -70t-101.5 -87t-42 -98zM621 1585 q27 20 51 43q23 20 47 47t45 58q23 -35 49.5 -63t48.5 -46q27 -23 56 -39l-54 -43l-50 -47q-28 -27 -50 -55q-23 37 -47.5 63.5t-46.5 44.5q-24 23 -49 37z" />
<glyph unicode="&#xe5;" horiz-adv-x="1341" d="M0 199q0 57 59.5 122.5t147.5 130t190 126.5l189 114q-63 80 -119.5 116t-124.5 36q-29 0 -75 -16.5t-89 -36.5q-53 -23 -106 -52q115 78 221 142q45 27 92 51l91 44.5t82 33t65 12.5q51 0 95 -44t80 -104.5t61.5 -122t43.5 -96.5l47 -114l65 -154q34 -78 66.5 -137.5 t55.5 -63.5q-61 -35 -128 -84t-116 -102q-10 45 -37 126t-72 177q-39 -39 -98 -91t-126.5 -99t-140.5 -80t-138 -33q-47 0 -97.5 13.5t-91.5 39t-66.5 62.5t-25.5 84zM205 1753q0 88 47 169t117.5 142.5t153.5 98.5t153 37q47 0 100 -19.5t97.5 -60.5t74 -102.5t29.5 -145.5 q0 -70 -47 -147.5t-116 -142t-147.5 -107.5t-140.5 -43q-61 0 -119.5 25.5t-103.5 70.5t-71.5 102t-26.5 123zM233 342q0 -29 21.5 -54.5t57.5 -45t85 -31.5t105 -12q49 0 94 14t79 41t54.5 63.5t20.5 79.5l-35 59l-35 60q-16 37 -33.5 71t-36.5 56q-45 -16 -109.5 -46 t-124 -70t-101.5 -87t-42 -98zM338 1907q0 -47 18.5 -102.5t59.5 -103.5t107.5 -81t162.5 -33q51 0 80 13.5t43 34t18 44t4 43.5q0 66 -25.5 130.5t-70.5 114.5t-105.5 81t-129.5 31q-47 0 -78 -18.5t-49.5 -44t-26.5 -55t-8 -54.5z" />
<glyph unicode="&#xe6;" horiz-adv-x="2060" d="M0 199q0 57 59.5 122.5t147.5 130t190 126.5l189 114q-63 80 -119.5 116t-124.5 36q-29 0 -75 -16.5t-89 -36.5q-53 -23 -106 -52q115 78 221 142q45 27 92 51l91 44.5t82 33t65 12.5q51 0 95 -44t80 -104.5t61.5 -122t43.5 -96.5l47 -114l65 -154q34 -78 66.5 -137.5 t55.5 -63.5q-61 -35 -128 -84t-116 -102q-10 45 -37 126t-72 177q-39 -39 -98 -91t-126.5 -99t-140.5 -80t-138 -33q-47 0 -97.5 13.5t-91.5 39t-66.5 62.5t-25.5 84zM233 342q0 -29 21.5 -54.5t57.5 -45t85 -31.5t105 -12q49 0 94 14t79 41t54.5 63.5t20.5 79.5l-35 59 l-35 60q-16 37 -33.5 71t-36.5 56q-45 -16 -109.5 -46t-124 -70t-101.5 -87t-42 -98zM850 475q0 100 31.5 177t83 134.5t115 95.5t124.5 62q197 80 269 80q76 0 132 -25.5t97 -56.5q45 -37 80 -82l-676 -272q14 -86 41 -153.5t78 -115t133 -73t211 -25.5q59 0 111.5 15.5 t91.5 35.5q45 23 83 52q-55 -92 -133 -164q-66 -61 -165 -111.5t-230 -50.5q-94 0 -180 32.5t-152.5 94t-105.5 150.5t-39 200zM1092 733q0 -33 1 -63.5t7 -61.5l344 158q-20 39 -51 70q-27 27 -66 48t-90 21q-29 0 -55.5 -15.5t-48 -40t-32.5 -55t-9 -61.5z" />
<glyph unicode="&#xe7;" horiz-adv-x="1202" d="M0 446q0 78 34 143.5t86 121t116.5 101.5t127.5 85l113 70q51 31 80 57q25 -29 68 -57.5t90 -52t93 -39t81 -15.5q-31 -20 -69 -42l-71 -41l-60 -34q-26 -14 -36 -22q-29 -4 -73.5 6t-93 28.5t-91.5 39t-65 36.5q-18 -12 -38 -34.5t-36 -53t-26.5 -67.5t-10.5 -78 q0 -92 46 -161.5t112.5 -116t141.5 -70t134 -23.5q80 0 143.5 15.5t108.5 36.5q53 23 92 51q-43 -39 -99 -95.5t-122.5 -108.5t-145.5 -89t-169 -37q-102 0 -187.5 38t-145.5 100.5t-94 142t-34 165.5zM518 -195q6 14 23 9q10 -6 18 -13.5t33 -15.5q25 -10 69 39t68 113 q16 47 14 180l140 -371q-16 -31 -35 -55q-80 -98 -152 -72q-33 12 -109.5 87.5t-68.5 98.5z" />
<glyph unicode="&#xe8;" horiz-adv-x="1210" d="M0 475q0 -111 39 -200t105.5 -150.5t152.5 -94t180 -32.5q131 0 230.5 50t164.5 112q78 72 134 164q-39 -29 -84 -52q-39 -20 -91.5 -35.5t-111.5 -15.5q-129 0 -211 25.5t-133 73t-78 115t-41 153.5l676 272q-35 45 -80 82q-41 31 -97.5 56.5t-131.5 25.5 q-72 0 -269 -80q-61 -25 -124.5 -62.5t-115 -95t-83 -134.5t-31.5 -177zM213 1704q147 -29 188 -14q25 -68 91.5 -141.5t130.5 -106.5q-100 -10 -236 82q-123 82 -174 180zM242 733q-2 31 9 61.5t32.5 55t48 40t55.5 15.5q51 0 90 -21.5t66 -47.5q31 -31 51 -70l-344 -158 q-6 31 -7 61.5t-1 63.5z" />
<glyph unicode="&#xe9;" horiz-adv-x="1210" d="M0 475q0 100 31.5 177t83 134.5t115 95.5t124.5 62q197 80 269 80q76 0 132 -25.5t97 -56.5q45 -37 80 -82l-676 -272q14 -86 41 -153.5t78 -115t133 -73t211 -25.5q59 0 111.5 15.5t91.5 35.5q45 23 84 52q-55 -92 -134 -164q-66 -61 -165 -111.5t-230 -50.5 q-94 0 -180 32.5t-152.5 94t-105.5 150.5t-39 200zM242 733q0 -33 1 -63.5t7 -61.5l344 158q-20 39 -51 70q-27 27 -66 48t-90 21q-29 0 -55.5 -15.5t-48 -40t-32.5 -55t-9 -61.5zM254 1446q63 31 130 105.5t91 140.5q41 -12 189 16q-51 -98 -175 -182q-135 -90 -235 -80z " />
<glyph unicode="&#xea;" horiz-adv-x="1210" d="M0 475q0 -111 39 -200t105.5 -150.5t152.5 -94t180 -32.5q131 0 230.5 50t164.5 112q78 72 134 164q-39 -29 -84 -52q-39 -20 -91.5 -35.5t-111.5 -15.5q-129 0 -211 25.5t-133 73t-78 115t-41 153.5l676 272q-35 45 -80 82q-41 31 -97.5 56.5t-131.5 25.5 q-72 0 -269 -80q-61 -25 -124.5 -62.5t-115 -95t-83 -134.5t-31.5 -177zM90 1432l92 161l172 113q98 66 140 145q57 -104 163 -161q8 -4 213 -88l-82 -144l-208 86q-109 57 -164 150q-39 -70 -150 -144q-168 -110 -176 -118zM242 733q-2 31 9 61.5t32.5 55t48 40t55.5 15.5 q51 0 90 -21.5t66 -47.5q31 -31 51 -70l-344 -158q-6 31 -7 61.5t-1 63.5z" />
<glyph unicode="&#xeb;" horiz-adv-x="1210" d="M0 475q0 100 31.5 177t83 134.5t115 95.5t124.5 62q197 80 269 80q76 0 132 -25.5t97 -56.5q45 -37 80 -82l-676 -272q14 -86 41 -153.5t78 -115t133 -73t211 -25.5q59 0 111.5 15.5t91.5 35.5q45 23 84 52q-55 -92 -134 -164q-66 -61 -165 -111.5t-230 -50.5 q-94 0 -180 32.5t-152.5 94t-105.5 150.5t-39 200zM66 1581q27 20 51 43q23 20 47 47t45 58q23 -35 49.5 -63t48.5 -46q27 -23 55 -39l-53 -43l-50 -47q-28 -27 -50 -55q-23 37 -47.5 63.5t-46.5 44.5q-24 23 -49 37zM242 733q0 -33 1 -63.5t7 -61.5l344 158q-20 39 -51 70 q-27 27 -66 48t-90 21q-29 0 -55.5 -15.5t-48 -40t-32.5 -55t-9 -61.5zM582 1579q27 20 51 43q23 20 47.5 47t44.5 57q23 -35 49.5 -62.5t48.5 -45.5q27 -23 56 -39l-54 -43l-50 -47q-28 -27 -50 -55q-23 37 -47.5 63.5t-46.5 44.5q-24 23 -49 37z" />
<glyph unicode="&#xec;" horiz-adv-x="749" d="M-27 1911q147 -29 189 -15q25 -68 91 -141.5t130 -105.5q-100 -10 -236 82q-123 82 -174 180zM10 860q61 2 89 -52t36 -149.5t4 -221.5t-6 -265q2 -47 17.5 -76.5t36 -49t42.5 -30.5l41 -18l124 104q62 51 151 109q-88 8 -132 56t-61.5 120t-15.5 160t9 175t9 166 t-14 134q-37 -33 -75 -54.5t-78 -39t-84 -33t-93 -35.5zM43 1282q25 -14 49 -37q23 -18 47.5 -44.5t46.5 -63.5q23 29 51 55l50 47l53 43q-29 16 -55 39q-23 18 -49.5 46t-49.5 63q-20 -31 -44.5 -57.5t-47.5 -47.5q-24 -23 -51 -43z" />
<glyph unicode="&#xed;" horiz-adv-x="741" d="M0 1651q63 31 130 105.5t91 139.5q41 -12 189 17q-51 -98 -174 -182q-136 -90 -236 -80zM2 860q49 20 93 35.5t84 33t78 39t75 54.5q16 -55 14 -134t-9 -166t-9 -175t15 -160t61.5 -120t132.5 -56q-88 -57 -151 -109l-124 -104l-41 18q-23 10 -43 30t-35.5 49.5 t-17.5 76.5q2 139 6 265t-4 221.5t-36 149.5t-89 52zM35 1282q27 20 51 43q23 20 47.5 47t44.5 58q23 -35 49.5 -63t48.5 -46q27 -23 56 -39l-53 -43l-51 -47q-28 -27 -50 -55q-23 37 -47.5 63.5t-46.5 44.5q-24 23 -49 37z" />
<glyph unicode="&#xee;" horiz-adv-x="774" d="M-211 1540l92 162l172 113q98 66 140 145q57 -104 163 -162q8 -4 213 -88l-82 -143l-208 86q-109 57 -164 149q-39 -70 -150 -143q-168 -111 -176 -119zM8 860q61 2 89 -52t36 -149.5t4 -221.5t-6 -265q2 -47 17.5 -76.5t36 -49t42.5 -30.5l41 -18l124 104q62 51 151 109 q-88 8 -132 56t-61.5 120t-15.5 160t9 175t9 166t-14 134q-37 -33 -75 -54.5t-78 -39t-84 -33t-93 -35.5zM41 1282q25 -14 49 -37q23 -18 47.5 -44.5t46.5 -63.5q23 29 50 55l51 47l53 43q-29 16 -55 39q-23 18 -49.5 46t-49.5 63q-20 -31 -44.5 -57.5t-47.5 -47.5 q-24 -23 -51 -43z" />
<glyph unicode="&#xef;" horiz-adv-x="761" d="M-215 1739q27 20 51 43q23 20 47.5 46.5t44.5 57.5q23 -35 49.5 -62.5t49.5 -45.5q27 -23 55 -39l-53 -43l-51 -47q-28 -27 -50 -56q-23 37 -47 63.5t-47 45.5q-24 23 -49 37zM12 860q49 20 93.5 35.5t84 33t77.5 39t75 54.5q16 -55 14 -134t-9 -166t-9 -175t15.5 -160 t61.5 -120t132 -56q-88 -57 -151 -109l-124 -104l-41 18q-23 10 -43 30t-35.5 49.5t-17.5 76.5q2 139 6 265t-4 221.5t-36 149.5t-89 52zM45 1282q27 20 51 43q23 20 47.5 47t44.5 58q23 -35 49.5 -63t49.5 -46q27 -23 55 -39l-53 -43l-50 -47q-28 -27 -51 -55 q-23 37 -47 63.5t-47 44.5q-24 23 -49 37zM301 1737q27 20 51 43q23 20 47.5 46.5t44.5 57.5q23 -35 49.5 -62.5t49.5 -45.5q27 -23 55 -39l-53 -43l-50 -47q-28 -27 -51 -56q-23 37 -47 63.5t-47 45.5q-24 23 -49 37z" />
<glyph unicode="&#xf0;" horiz-adv-x="1202" d="M-612 903l92 213q88 94 289 178q-61 63 -100.5 131t-39.5 136q0 74 58.5 146.5t149.5 137t202 115.5t213 82q-78 -25 -149.5 -64t-127 -85t-89 -96t-33.5 -97q0 -78 65.5 -167t159.5 -171q88 16 166 47q133 51 360 217l-86 -199q-176 -127 -293 -184q78 -57 146.5 -100 t115.5 -66q41 -20 94.5 -41.5t110 -49.5t111.5 -63.5t98 -85t69.5 -112.5t26.5 -147q0 -68 -20.5 -125.5t-55 -106.5t-78.5 -91t-93 -81q-98 -78 -188.5 -127t-186.5 -49q-80 0 -147.5 32.5t-114.5 85t-74 117t-27 127.5q0 90 20.5 150.5t54.5 101.5t77 70t88 55 q41 33 83 57.5t91 41.5l-143 74q-70 38 -123 79l-111 76q-66 45 -135 98h-25q-63 -2 -155 -39q-227 -88 -346 -221zM229 549q0 -66 25 -128.5t72 -111.5t115.5 -78.5t158.5 -29.5q70 0 105.5 17.5t49 50t13.5 79.5v105q0 63 -25.5 115.5t-68.5 96.5t-100.5 80.5t-120.5 69.5 q-37 -6 -77 -27.5t-72 -56.5t-53.5 -81t-21.5 -101z" />
<glyph unicode="&#xf1;" horiz-adv-x="1390" d="M-266 -422q0 -41 17.5 -70.5t46 -52t65.5 -38t76 -25.5q90 -23 206 -27q-111 6 -194 31q-37 10 -72 25.5t-62.5 38t-44 51t-16.5 67.5q0 74 32 129t76 92t93 54.5t86 17.5q88 0 138 -7t92 -15.5t88.5 -15.5t125.5 -7q158 0 286 64.5t219 171t140.5 244.5t49.5 284 q0 84 -30 162.5t-84 139t-130 97.5t-168 37q-88 0 -184.5 -41t-194.5 -113q0 49 -2 79t-9 47.5t-20.5 22.5t-35.5 5q-33 0 -84.5 -26.5t-100.5 -57.5l-123 -84q10 4 23 6q27 4 61 -2q27 -12 42.5 -70.5t21.5 -141.5t7 -181t-3 -189.5t-10 -167t-13 -112.5q55 35 128 65.5 t143 30.5q-23 137 -29 258t-5 215.5t5 158t4 85.5q31 29 66 39t88 10q88 0 169 -39t143.5 -105.5t99 -154.5t36.5 -186q0 -111 -13 -194t-47 -139t-93.5 -85t-151.5 -29q-88 0 -139 7.5t-92 16.5t-86 17.5t-121 8.5q-100 0 -193.5 -37t-165 -94.5t-114.5 -129t-43 -141.5z M207 1434l94 163q72 61 209 62q59 0 92 -19q86 -49 166 -49q82 0 238 72l-88 -154q-143 -66 -224 -65q-82 0 -166 49q-35 20 -90 20q-141 1 -231 -79z" />
<glyph unicode="&#xf2;" d="M0 428q0 -86 36 -163t95 -136t136 -94t161 -35q55 0 121.5 26.5t133.5 70.5t129 102.5t110.5 124t78 133t29.5 131.5q0 111 -39 193.5t-99.5 136t-131 80t-131.5 26.5q-94 0 -204 -49t-204 -132t-157.5 -190.5t-63.5 -224.5zM178 635q0 31 10.5 70.5t36 75.5t66.5 59.5 t102 23.5q94 0 175 -41t140.5 -108.5t93.5 -153.5t34 -174q0 -27 -5.5 -57.5t-24 -58t-57 -46t-106.5 -18.5q-129 0 -218 44t-144.5 108.5t-79 139.5t-23.5 136zM285 1704q147 -29 188 -14q25 -68 91.5 -141.5t129.5 -106.5q-100 -10 -235 82q-123 82 -174 180z" />
<glyph unicode="&#xf3;" d="M0 428q0 117 63.5 224.5t157.5 190.5t204 132t204 49q61 0 131.5 -26.5t131 -80t99.5 -136.5t39 -193q0 -63 -29.5 -131t-78 -133.5t-110.5 -124t-129 -102.5t-133.5 -70.5t-121.5 -26.5q-84 0 -161 35t-136 94t-95 136t-36 163zM178 635q0 -61 23.5 -136t79 -139.5 t144.5 -108.5t218 -44q68 0 106.5 18.5t57 46t24 58t5.5 57.5q0 88 -34 174t-93.5 153.5t-140.5 108.5t-175 41q-61 0 -102 -23.5t-66.5 -59.5t-36 -75.5t-10.5 -70.5zM291 1446q63 31 129.5 105.5t91.5 140.5q41 -12 188 16q-51 -98 -174 -182q-135 -90 -235 -80z" />
<glyph unicode="&#xf4;" d="M0 428q0 -86 36 -163t95 -136t136 -94t161 -35q55 0 121.5 26.5t133.5 70.5t129 102.5t110.5 124t78 133t29.5 131.5q0 111 -39 193.5t-99.5 136t-131 80t-131.5 26.5q-94 0 -204 -49t-204 -132t-157.5 -190.5t-63.5 -224.5zM90 1434l92 161l172 113q98 66 140 145 q57 -104 163 -161q8 -4 213 -88l-82 -144l-208 86q-109 57 -164 150q-39 -70 -150 -144q-168 -110 -176 -118zM178 635q0 31 10.5 70.5t36 75.5t66.5 59.5t102 23.5q94 0 175 -41t140.5 -108.5t93.5 -153.5t34 -174q0 -27 -5.5 -57.5t-24 -58t-57 -46t-106.5 -18.5 q-129 0 -218 44t-144.5 108.5t-79 139.5t-23.5 136z" />
<glyph unicode="&#xf5;" d="M0 428q0 -86 36 -163t95 -136t136 -94t161 -35q55 0 121.5 26.5t133.5 70.5t129 102.5t110.5 124t78 133t29.5 131.5q0 111 -39 193.5t-99.5 136t-131 80t-131.5 26.5q-94 0 -204 -49t-204 -132t-157.5 -190.5t-63.5 -224.5zM98 1434l95 163q72 61 208 62q59 0 93 -19 q86 -49 165 -49q82 0 238 72l-88 -154q-143 -66 -223 -65q-82 0 -166 49q-35 20 -90 20q-142 1 -232 -79zM178 635q0 31 10.5 70.5t36 75.5t66.5 59.5t102 23.5q94 0 175 -41t140.5 -108.5t93.5 -153.5t34 -174q0 -27 -5.5 -57.5t-24 -58t-57 -46t-106.5 -18.5 q-129 0 -218 44t-144.5 108.5t-79 139.5t-23.5 136z" />
<glyph unicode="&#xf6;" d="M0 428q0 117 63.5 224.5t157.5 190.5t204 132t204 49q61 0 131.5 -26.5t131 -80t99.5 -136.5t39 -193q0 -63 -29.5 -131t-78 -133.5t-110.5 -124t-129 -102.5t-133.5 -70.5t-121.5 -26.5q-84 0 -161 35t-136 94t-95 136t-36 163zM100 1583q27 20 52 43q23 20 47 47t45 58 q23 -35 49 -63t49 -46q27 -23 55 -39l-53 -43l-50 -47q-28 -27 -50 -55q-23 37 -47.5 63.5t-46.5 44.5q-25 23 -50 37zM178 635q0 -61 23.5 -136t79 -139.5t144.5 -108.5t218 -44q68 0 106.5 18.5t57 46t24 58t5.5 57.5q0 88 -34 174t-93.5 153.5t-140.5 108.5t-175 41 q-61 0 -102 -23.5t-66.5 -59.5t-36 -75.5t-10.5 -70.5zM616 1581q27 20 52 43q23 20 47 47t45 58q23 -35 49.5 -63t48.5 -46q27 -23 55 -39l-53 -43l-50 -47q-28 -27 -50 -55q-23 37 -47.5 63.5t-46.5 44.5q-25 23 -50 37z" />
<glyph unicode="&#xf7;" horiz-adv-x="1703" d="M51 489l164 164q125 61 367 62q102 0 159 -19q152 -49 291 -49q143 0 416 72l-154 -154q-252 -66 -391 -65q-143 0 -291 49q-59 20 -157 20q-246 0 -404 -80zM543 309q0 18 125 76l53 23q6 2 22 4q43 0 64.5 -75t46.5 -79q8 0 16 2l17 4q18 0 20 -16q0 -8 -10 -17 q-59 -41 -92 -61q-63 -37 -100 -39q-49 -2 -76 84t-35 86q-10 0 -18.5 -3l-14.5 -5q-18 0 -18 16zM543 1006q0 18 125 75l53 23q6 2 22 4q43 0 64.5 -75t46.5 -79q8 0 16 2l17 5q18 0 20 -17q0 -8 -10 -16q-59 -41 -92 -62q-63 -37 -100 -39q-49 -2 -76 84t-35 86 q-10 0 -18.5 -3l-14.5 -5q-18 1 -18 17z" />
<glyph unicode="&#xf8;" d="M0 428q0 117 63.5 224.5t157.5 190.5t204 132t204 49h2l74 168l124 -53l-79 -138q51 -18 102 -53t90 -86t63.5 -119.5t24.5 -154.5q0 -63 -29.5 -131t-78 -133.5t-110.5 -124t-129 -102.5t-133.5 -70.5t-121.5 -26.5q-94 0 -184 45q-39 -78 -80 -170l-103 37l105 184 q-74 59 -120 146.5t-46 185.5zM178 635q0 -66 27.5 -147.5t91.5 -147.5l158 301q35 68 90 190q-76 33 -152 33q-61 0 -102 -23.5t-66.5 -59.5t-36 -75.5t-10.5 -70.5zM358 287q53 -37 123 -58.5t162 -21.5q68 0 106.5 18.5t57 46t24 58t5.5 57.5q0 117 -56.5 224.5 t-152.5 174.5l-146 -264z" />
<glyph unicode="&#xf9;" horiz-adv-x="1431" d="M0 862q10 -2 23 -4q25 -4 49 -14q33 -16 47 -51t18 -88.5t2 -123t-2 -155.5q0 -25 1 -59.5t3 -70.5l4 -71q2 -35 7 -59q18 -45 46.5 -77t61.5 -51.5t64.5 -28.5t54.5 -9q76 0 137.5 29.5t112.5 70.5t94 85t82 75q0 -109 13 -173t69 -91q70 43 159 85t181 95 q-41 -14 -69 -9t-46 20.5t-32 36.5l-25 42q-12 20 -18.5 77.5t-9.5 133.5t-2 163t2 165t3 137t2 84q-43 -37 -105.5 -67.5t-119.5 -53.5q-68 -27 -139 -47q18 0 39 -2l33 -4q17 -2 30 -8q23 -10 32 -40t12 -77t1 -110.5t-2 -141.5q0 -47 -1 -90t-7 -90q-35 -31 -89 -59.5 t-116 -28.5q-76 0 -124 26.5t-75.5 70.5t-39 102.5t-11.5 123.5q0 82 6 165t6 151.5t-13 115t-52 56.5q-53 -41 -105.5 -70.5t-95.5 -48.5q-51 -23 -96 -37zM330 1708q147 -29 188 -14q25 -68 91.5 -141.5t129.5 -106.5q-100 -10 -235 82q-123 82 -174 180z" />
<glyph unicode="&#xfa;" horiz-adv-x="1431" d="M0 862q45 14 96 37q43 18 95.5 48t105.5 71q39 -10 52 -56.5t13 -115t-6 -151.5t-6 -165q0 -66 11.5 -124t39 -102t75.5 -70.5t124 -26.5q61 0 115.5 28.5t89.5 59.5q6 47 7 90t1 90q0 78 2 141.5t-1 110.5t-12 77t-32 40q-12 6 -30 8l-33 4q-20 2 -39 2q72 20 139 47 q57 23 119.5 53.5t105.5 67.5q0 -25 -2 -84t-3 -137t-2 -165t2 -163t9 -133t19 -78l25 -42q13 -22 31.5 -37t46.5 -20t69 9q-92 -53 -181.5 -95t-158.5 -85q-55 27 -68.5 91.5t-13.5 172.5q-39 -31 -82 -75t-94 -85t-112.5 -70.5t-137.5 -29.5q-23 0 -54.5 9t-64.5 28.5 t-61.5 51.5t-46.5 77q-4 25 -7 59l-4 71q-2 36 -3 70.5t-1 59.5q0 86 2 155.5t-2 123t-18.5 88t-46.5 51.5q-25 10 -49 14q-13 2 -23 4zM354 1442q63 31 130 105.5t91 140.5q41 -12 189 16q-51 -98 -174 -182q-136 -90 -236 -80z" />
<glyph unicode="&#xfb;" horiz-adv-x="1431" d="M0 862q10 -2 23 -4q25 -4 49 -14q33 -16 47 -51t18 -88.5t2 -123t-2 -155.5q0 -25 1 -59.5t3 -70.5l4 -71q2 -35 7 -59q18 -45 46.5 -77t61.5 -51.5t64.5 -28.5t54.5 -9q76 0 137.5 29.5t112.5 70.5t94 85t82 75q0 -109 13 -173t69 -91q70 43 159 85t181 95 q-41 -14 -69 -9t-46 20.5t-32 36.5l-25 42q-12 20 -18.5 77.5t-9.5 133.5t-2 163t2 165t3 137t2 84q-43 -37 -105.5 -67.5t-119.5 -53.5q-68 -27 -139 -47q18 0 39 -2l33 -4q17 -2 30 -8q23 -10 32 -40t12 -77t1 -110.5t-2 -141.5q0 -47 -1 -90t-7 -90q-35 -31 -89 -59.5 t-116 -28.5q-76 0 -124 26.5t-75.5 70.5t-39 102.5t-11.5 123.5q0 82 6 165t6 151.5t-13 115t-52 56.5q-53 -41 -105.5 -70.5t-95.5 -48.5q-51 -23 -96 -37zM164 1438l92 161l172 113q98 66 139 146q57 -104 164 -162q8 -4 213 -88l-82 -144l-209 86q-109 57 -164 150 q-39 -70 -149 -144q-168 -110 -176 -118z" />
<glyph unicode="&#xfc;" horiz-adv-x="1431" d="M0 862q45 14 96 37q43 18 95.5 48t105.5 71q39 -10 52 -56.5t13 -115t-6 -151.5t-6 -165q0 -66 11.5 -124t39 -102t75.5 -70.5t124 -26.5q61 0 115.5 28.5t89.5 59.5q6 47 7 90t1 90q0 78 2 141.5t-1 110.5t-12 77t-32 40q-12 6 -30 8l-33 4q-20 2 -39 2q72 20 139 47 q57 23 119.5 53.5t105.5 67.5q0 -25 -2 -84t-3 -137t-2 -165t2 -163t9 -133t19 -78l25 -42q13 -22 31.5 -37t46.5 -20t69 9q-92 -53 -181.5 -95t-158.5 -85q-55 27 -68.5 91.5t-13.5 172.5q-39 -31 -82 -75t-94 -85t-112.5 -70.5t-137.5 -29.5q-23 0 -54.5 9t-64.5 28.5 t-61.5 51.5t-46.5 77q-4 25 -7 59l-4 71q-2 36 -3 70.5t-1 59.5q0 86 2 155.5t-2 123t-18.5 88t-46.5 51.5q-25 10 -49 14q-13 2 -23 4zM135 1585q27 20 51 43q23 20 47.5 47t45.5 58q23 -35 49 -63t49 -46q27 -23 55 -39l-53 -43l-50 -47q-28 -27 -50 -55 q-23 37 -47.5 63.5t-47.5 44.5q-24 23 -49 37zM651 1583q27 20 51 43q23 20 47.5 47t45.5 58q23 -35 49 -63t49 -46q27 -23 55 -39l-53 -43l-50 -47q-28 -27 -50 -55q-23 37 -47.5 63.5t-47.5 44.5q-24 23 -49 37z" />
<glyph unicode="&#xfd;" horiz-adv-x="1486" d="M-881 -1327q0 117 68 211t178.5 179t249.5 168l283 175q92 61 172 122.5t157.5 133.5t158.5 158t175 196l-86 170l-97 187l-102 183q-51 89 -96 157.5t-82 109.5t-57 41q-14 0 -26.5 -1t-22.5 -1q-12 -2 -25 -2q20 37 59.5 66.5t82.5 51t82.5 34t60.5 12.5 q45 0 168 -198.5t313 -569.5q78 119 133.5 227.5t82 192.5t23.5 138t-42 67q-16 4 -32.5 7t-31.5 5q-16 2 -30 4l170 49l144 41l126 33q-39 -168 -119 -334t-186.5 -322.5t-232.5 -301t-261 -270.5t-270 -230.5t-260 -182.5l-153 -91l-166 -100q-83 -52 -160.5 -109.5 t-137 -121t-95.5 -135t-36 -149.5q0 -70 41 -133.5t109.5 -117.5t162 -98t197 -75t214 -47.5t214.5 -16.5q205 0 357.5 34t263 89.5t182.5 127t117 145.5q104 172 100 395q6 -229 -96 -408q-43 -78 -116 -150.5t-183.5 -129.5t-264 -92t-360.5 -35q-104 0 -220 18.5 t-229.5 51t-216 80t-181 104.5t-125 121.5t-46.5 136.5zM444 1456q63 31 130 105.5t92 140.5q41 -12 188 16q-51 -98 -174 -182q-136 -90 -236 -80z" />
<glyph unicode="&#xfe;" horiz-adv-x="1148" d="M-215 1878q57 20 113 47q47 23 98 53.5t92 67.5q84 0 119 -96q2 -4 3 -53.5t2 -128t1 -178t-1 -205.5l-2 -207q-1 -102 -2 -186.5t-1 -142.5v-73l69 60l80 66l81 66q40 32 77 54q66 4 141.5 -23.5t140 -82t106.5 -132t42 -174.5q0 -111 -60.5 -211t-161.5 -182 t-231.5 -140.5t-271.5 -84.5q0 -2 -4 -83t-12 -210l-18 -294l-19 -337l-51 -913q-27 391 -47 743l-17 307q-8 158 -14 305.5t-10 274.5t-4 217v410q0 82 -4.5 218t-10.5 293.5t-14 320.5t-18.5 296t-20.5 221t-18 97q-18 16 -44 22t-51 6q-28 0 -57 -8zM219 25q88 18 176 58 t159 101.5t115 144.5t44 189q0 80 -42 137.5t-100.5 94t-120 54t-100.5 17.5q-45 0 -78.5 -28.5t-52.5 -63.5q4 -61 5 -139t0 -168t-3 -190.5t-2 -206.5z" />
<glyph unicode="&#xff;" horiz-adv-x="1486" d="M-881 -1327q0 117 68 211t178.5 179t249.5 168l283 175q92 61 172 122.5t157.5 133.5t158.5 158t175 196l-86 170l-97 187l-102 183q-51 89 -96 157.5t-82 109.5t-57 41q-14 0 -26.5 -1t-22.5 -1q-12 -2 -25 -2q20 37 59.5 66.5t82.5 51t82.5 34t60.5 12.5 q45 0 168 -198.5t313 -569.5q78 119 133.5 227.5t82 192.5t23.5 138t-42 67q-16 4 -32.5 7t-31.5 5q-16 2 -30 4l170 49l144 41l126 33q-39 -168 -119 -334t-186.5 -322.5t-232.5 -301t-261 -270.5t-270 -230.5t-260 -182.5l-153 -91l-166 -100q-83 -52 -160.5 -109.5 t-137 -121t-95.5 -135t-36 -149.5q0 -70 41 -133.5t109.5 -117.5t162 -98t197 -75t214 -47.5t214.5 -16.5q205 0 357.5 34t263 89.5t182.5 127t117 145.5q104 172 100 395q6 -229 -96 -408q-43 -78 -116 -150.5t-183.5 -129.5t-264 -92t-360.5 -35q-104 0 -220 18.5 t-229.5 51t-216 80t-181 104.5t-125 121.5t-46.5 136.5zM223 1583q27 20 51 43q23 20 47.5 47t45.5 58q23 -35 49 -63t49 -46q27 -23 55 -39l-53 -43l-50 -47q-28 -27 -50 -55q-23 37 -47.5 63.5t-47.5 44.5q-24 23 -49 37zM739 1581q27 20 52 43q23 20 47 47t45 58 q23 -35 49 -63t49 -46q27 -23 55 -39l-53 -43l-50 -47q-28 -27 -50 -55q-23 37 -47.5 63.5t-47.5 44.5q-24 23 -49 37z" />
<glyph unicode="&#x152;" horiz-adv-x="1929" d="M0 958q0 264 60.5 468t163 342.5t236.5 209t281 70.5l191 -12q18 -2 39.5 -5t34.5 -6h112q129 0 254 5.5t275 15.5q-35 -66 -61.5 -168t-31.5 -201q-20 82 -68 143.5t-115.5 100.5t-148.5 58.5t-165 19.5q-12 -127 -15.5 -274.5t-3.5 -276.5q0 -150 6 -299q90 2 183 14 q78 10 169 33t171 64q-10 -68 -13.5 -131.5t-3.5 -112.5q0 -57 4 -111l-20 8q2 63 -43 100.5t-116.5 57t-160 23.5t-170.5 2q-4 -61 -5 -134t0 -148t3 -150.5t7 -145.5l16 -332q168 -16 305 -8q57 2 115.5 10.5t106.5 23.5t82 38.5t44 60.5l6 -12l-45 -121q-18 -49 -34 -99 l-25 -77q-188 0 -354 12.5t-338 12.5q-63 0 -109.5 -4.5t-77.5 -8.5q-37 -6 -63 -12v10q-41 -8 -94 -8q-55 0 -121 16.5t-130.5 58.5t-125 111.5t-106.5 176t-73.5 251.5t-27.5 340zM236 1161q0 -104 13 -220t40.5 -229.5t69.5 -217t99.5 -182.5t130.5 -126t163 -47h26 q12 0 25 2q6 82 13 214l15 280q8 147 13.5 290.5t5.5 250.5q0 113 -6 217t-16.5 195t-21.5 167t-22 131q-41 31 -96 50.5t-127 19.5q-170 0 -247.5 -203t-77.5 -592zM780 41l17 2v4q-4 -2 -8.5 -3t-8.5 -3z" />
<glyph unicode="&#x153;" horiz-adv-x="2043" d="M0 428q0 117 63.5 224.5t157.5 190.5t204 132t204 49q43 0 92 -13.5t95 -39t87 -65.5t72 -93q47 45 102.5 77t110.5 54q197 80 268 80q76 0 132.5 -25.5t97.5 -56.5q45 -37 79 -82l-675 -272q14 -86 40.5 -153.5t78 -115t133 -73t210.5 -25.5q59 0 111.5 15.5t91.5 35.5 q45 23 84 52q-55 -92 -133 -164q-66 -61 -165 -111.5t-230 -50.5q-139 0 -257 69.5t-177 198.5q-49 -55 -106.5 -103t-118 -85t-118 -57.5t-106.5 -20.5q-84 0 -161 35t-136 94t-95 136t-36 163zM178 635q0 -61 23.5 -136t79 -139.5t144.5 -108.5t218 -44q68 0 106.5 18.5 t57 46t24 58t5.5 57.5q0 88 -34 174t-93.5 153.5t-140.5 108.5t-175 41q-61 0 -102 -23.5t-66.5 -59.5t-36 -75.5t-10.5 -70.5zM1075 733q0 -33 1 -63.5t7 -61.5l344 158q-20 39 -51 70q-27 27 -65.5 48t-89.5 21q-29 0 -55.5 -15.5t-48 -40t-33 -55t-9.5 -61.5z" />
<glyph unicode="&#x178;" horiz-adv-x="1693" d="M0 2030v18q31 -6 68 -10q33 -4 77.5 -6t100.5 -2q66 0 119 2t94 6q47 4 86 10v-18l-127 -21l157 -332l71 -144l77 -149l78 -144q39 -71 76 -128q31 63 59.5 137t53.5 149l49 149l44 143q47 158 86 319l-139 21v18q39 -6 76 -10q33 -4 69.5 -6t67.5 -2q66 0 111 2t76 6 q35 4 59 10v-18l-80 -21l-145 -280l-152 -303l-182 -367q-16 -268 -12 -462t14 -321q10 -147 31 -247l133 -21v-12q-41 2 -88 6q-41 2 -95.5 4t-115.5 2q-55 0 -105.5 -2t-89.5 -4q-45 -4 -84 -6v18l148 15q14 164 22 331q6 143 5 313.5t-21 325.5l-71 123l-85 153l-93 166 l-93 167l-224 401zM348 2615q27 20 51 43q23 20 47.5 47t45.5 58q23 -35 49 -62.5t49 -46.5q27 -23 55 -39l-53 -43l-50 -47q-28 -27 -50 -55q-23 37 -47.5 63.5t-47.5 44.5q-24 23 -49 37zM864 2613q27 20 51 43q23 20 47.5 47t45.5 58q23 -35 49 -62.5t49 -46.5 q27 -23 55 -39l-53 -43l-50 -47q-28 -27 -50 -55q-23 37 -47.5 63.5t-47.5 44.5q-24 23 -49 37z" />
<glyph unicode="&#x2c6;" horiz-adv-x="985" d="M0 1632l92 162l172 113q98 66 139 145q57 -104 164 -162q8 -4 213 -88l-82 -143l-209 86q-109 57 -163 149q-39 -70 -150 -143q-168 -111 -176 -119z" />
<glyph unicode="&#x2dc;" horiz-adv-x="1003" d="M0 1821l94 164q72 61 209 61q59 0 92 -18q86 -49 166 -50q82 0 238 72l-88 -154q-143 -66 -224 -65q-82 0 -165 49q-35 20 -91 21q-141 0 -231 -80z" />
<glyph unicode="&#x2000;" horiz-adv-x="1746" />
<glyph unicode="&#x2001;" horiz-adv-x="3493" />
<glyph unicode="&#x2002;" horiz-adv-x="1746" />
<glyph unicode="&#x2003;" horiz-adv-x="3493" />
<glyph unicode="&#x2004;" horiz-adv-x="1163" />
<glyph unicode="&#x2005;" horiz-adv-x="872" />
<glyph unicode="&#x2006;" horiz-adv-x="581" />
<glyph unicode="&#x2007;" horiz-adv-x="581" />
<glyph unicode="&#x2008;" horiz-adv-x="436" />
<glyph unicode="&#x2009;" horiz-adv-x="698" />
<glyph unicode="&#x200a;" horiz-adv-x="192" />
<glyph unicode="&#x2010;" horiz-adv-x="1105" d="M51 489l94 164q72 61 209 62q59 0 92 -19q86 -49 166 -49q82 0 238 72l-88 -154q-143 -66 -223 -65q-82 0 -166 49q-35 20 -90 20q-142 0 -232 -80z" />
<glyph unicode="&#x2011;" horiz-adv-x="1105" d="M51 489l94 164q72 61 209 62q59 0 92 -19q86 -49 166 -49q82 0 238 72l-88 -154q-143 -66 -223 -65q-82 0 -166 49q-35 20 -90 20q-142 0 -232 -80z" />
<glyph unicode="&#x2012;" horiz-adv-x="1105" d="M51 489l94 164q72 61 209 62q59 0 92 -19q86 -49 166 -49q82 0 238 72l-88 -154q-143 -66 -223 -65q-82 0 -166 49q-35 20 -90 20q-142 0 -232 -80z" />
<glyph unicode="&#x2013;" horiz-adv-x="1703" d="M51 489l164 164q125 61 367 62q102 0 159 -19q152 -49 291 -49q143 0 416 72l-154 -154q-252 -66 -391 -65q-143 0 -291 49q-59 20 -157 20q-246 0 -404 -80z" />
<glyph unicode="&#x2014;" horiz-adv-x="2304" d="M51 487l236 164q180 61 522 62q150 0 231 -19q215 -49 414 -49q205 0 594 72l-219 -154q-358 -66 -559 -65q-205 0 -414 49q-88 20 -225 20q-355 0 -580 -80z" />
<glyph unicode="&#x2018;" horiz-adv-x="512" d="M0 1853l260 297q-39 -90 -41 -231q0 -90 88 -137q-63 -63 -74 -72q-49 -39 -92 -41q-59 -2 -100 64q-33 52 -41 120z" />
<glyph unicode="&#x2019;" horiz-adv-x="512" d="M0 1925q31 35 74 72q49 43 92 41q61 -2 102 -66q33 -51 39 -119l-260 -297q43 96 41 185q-2 141 -88 184z" />
<glyph unicode="&#x201a;" horiz-adv-x="512" d="M0 164q31 35 74 72q49 43 92 40q61 -2 102 -65q33 -51 39 -119l-260 -297q43 96 41 185q-2 141 -88 184z" />
<glyph unicode="&#x201c;" horiz-adv-x="802" d="M0 1849l260 297q-39 -98 -39 -159q-4 -94 15 -136l260 297q-49 -123 -50 -186q0 -47 19 -104q23 -74 59 -74q14 0 34 5t28 5q12 0 12 -18q0 -12 -92 -64q-76 -43 -129 -47q-55 0 -98 55q-106 -55 -152 -55q-43 0 -88 64q-31 54 -39 120z" />
<glyph unicode="&#x201d;" horiz-adv-x="802" d="M0 1931q0 25 98.5 69t130.5 44q51 0 90 -55q111 55 138 55q59 -2 102 -64q33 -55 39 -120l-260 -297q49 121 47 200q0 57 -23 101l-260 -303q49 125 50 188q0 55 -21 109q-29 68 -76 67l-18 -4q-12 -6 -25 -6q-12 0 -12 16z" />
<glyph unicode="&#x201e;" horiz-adv-x="901" d="M0 164q31 35 74 72q49 43 92 40q61 -2 102 -65q33 -51 39 -119l-260 -297q43 96 41 185q-2 141 -88 184zM389 164q31 35 74 72q49 43 92 40q61 -2 102 -65q33 -51 39 -119l-260 -297q43 96 41 185q-2 141 -88 184z" />
<glyph unicode="&#x2022;" horiz-adv-x="751" d="M0 883q0 29 186 114l80 33q10 4 35 6q63 0 96 -111.5t70 -117.5q12 0 25 2l24 6q27 0 31 -24q0 -12 -17 -25q-88 -61 -137 -92q-96 -55 -151 -58q-74 -4 -114 125t-52 129q-14 0 -26.5 -4t-22.5 -8q-27 0 -27 25z" />
<glyph unicode="&#x2026;" horiz-adv-x="1675" d="M0 125q0 18 125 76q18 8 53 22q6 2 23 4q43 0 64.5 -74.5t45.5 -78.5q8 0 17 2l16 4q18 0 21 -17q0 -8 -11 -16q-59 -41 -92 -61q-63 -37 -100 -39q-49 -2 -76 84t-35 86q-10 0 -18 -3t-15 -5q-18 0 -18 16zM553 125q0 18 125 76q18 8 53 22q6 2 23 4q43 0 64.5 -74.5 t45.5 -78.5q8 0 17 2l16 4q18 0 21 -17q0 -8 -11 -16q-59 -41 -92 -61q-63 -37 -100 -39q-49 -2 -76 84t-35 86q-10 0 -18 -3t-15 -5q-18 0 -18 16zM1106 125q0 18 125 76q18 8 53 22q6 2 23 4q43 0 64.5 -74.5t45.5 -78.5q8 0 17 2l16 4q18 0 20 -17q0 -8 -10 -16 q-59 -41 -92 -61q-63 -37 -100 -39q-49 -2 -76 84t-35 86q-10 0 -18.5 -3l-14.5 -5q-18 0 -18 16z" />
<glyph unicode="&#x202f;" horiz-adv-x="698" />
<glyph unicode="&#x2039;" horiz-adv-x="811" d="M0 637q61 41 168 188l180 258l258 138q-12 -12 -190 -265q-117 -166 -230 -223q147 -84 240 -246l137 -313l-164 -102q-150 307 -157 319z" />
<glyph unicode="&#x203a;" horiz-adv-x="827" d="M0 51q12 12 190 264q117 166 230 224q-147 84 -240 245l-137 314l180 102q133 -307 142 -319q90 -160 258 -246q-78 -41 -185 -189l-180 -258z" />
<glyph unicode="&#x205f;" horiz-adv-x="872" />
<glyph unicode="&#x20ac;" horiz-adv-x="1595" d="M0 764l94 164q72 61 209 61q33 0 55 -6q0 29 1 54.5t3 49.5l-40 23q-35 20 -91 20q-141 0 -231 -79l94 163q72 61 209 62q49 0 80 -12q31 190 100.5 336.5t164.5 246t211 150.5t241 51l190 -12q55 0 74 6q10 2 16 6h11q-16 -43 -30.5 -87t-27 -93t-20.5 -106.5 t-13 -129.5h-22q0 39 -18.5 94.5t-59.5 106.5t-110.5 87t-169.5 36q-166 0 -244 -190.5t-82 -555.5q78 10 205 70l-88 -154q-63 -29 -115 -45q2 -76 12 -155q76 14 191 67l-88 -153q-45 -20 -82 -35q25 -127 65.5 -247t100 -213t138.5 -149.5t177 -56.5q76 0 124 21.5 t77 50.5q33 33 47 74l22 -23q-35 -74 -96 -129q-53 -49 -136 -89t-206 -40q-78 0 -172 34t-178 123t-147.5 243.5t-79.5 396.5l-43 22q-35 20 -91 21q-141 0 -231 -80z" />
<glyph unicode="&#x2122;" horiz-adv-x="2324" d="M0 1765q25 41 43 91.5t31 95.5q14 53 24 104l17 -4l-4 -22q199 0 343 -7.5t241.5 -9.5t148.5 5t63 38l8 -4q-16 -27 -32 -65q-14 -35 -29.5 -86.5t-30.5 -120.5h-10q6 31 1 53t-33.5 35.5t-86 17.5t-155.5 2q-4 -68 -7 -143q-2 -66 -3 -149t-1 -173q0 -160 6.5 -301 t16.5 -252q10 -127 24 -237l95 -12l4 -15q-23 2 -51 4q-25 2 -61 3t-77 1q-55 0 -96 -1t-70 -3q-33 -2 -57 -4v8l98 19q4 90 11 213q4 104 8 253.5t4 344.5q0 106 -4 189t-8 141l-11 114q-90 0 -148 -2t-95 -14t-61.5 -38t-47.5 -73zM971 2038v12q18 -4 41 -6q37 -6 82 -6 q23 0 48 1t50 5q27 2 57 6q8 -61 26 -143l39 -175l47 -192l50 -192q57 -219 127 -461l88 327l86 333l94 378q-4 33 -5 63.5t-5 61.5q8 -4 25 -6q25 -6 84 -6q72 0 114 6q25 2 45 6v-12l-69 -15q-8 -72 -10.5 -169t1 -207.5t9.5 -229.5t14 -231q18 -264 47 -553l64 -12v-11 l-43 6q-23 4 -53.5 6.5t-71.5 2.5t-72 -2t-53 -7l-43 -6v15l57 8q0 158 -4 344l-9 366q-5 207 -16 437l-43 -194q-27 -118 -67.5 -267.5t-96 -323.5t-126.5 -362q-39 82 -85 219t-92 295l-92 316l-82 286q-4 -84 -5 -176t0 -186.5t4 -186.5t8 -176q8 -197 20 -391l90 -8v-19 l-49 8q-23 4 -51.5 7.5t-59.5 3.5q-39 0 -58 -2t-28 -7q-10 -4 -10 -6v15l6 8q16 57 35 203q8 61 17.5 149t18.5 207l20 272q11 154 22 346q-33 94 -55.5 151.5t-36.5 61.5l-25.5 6.5t-13.5 4.5q-6 2 -6 4z" />
<glyph unicode="&#xe000;" horiz-adv-x="1025" d="M0 1025h1025v-1025h-1025v1025z" />
<glyph unicode="&#xfb01;" horiz-adv-x="1533" d="M795 860q49 20 93 35.5t84 33t78 39t75 54.5q15 -49 14 -117v-17q-2 -79 -9 -166t-9 -175q0 -9 -1 -19q0 -77 16 -141q17 -72 61 -120t133 -56q-88 -57 -151 -109l-124 -104l-41 18q-23 10 -43 30t-35.5 49.5t-17.5 76.5q2 139 6 265q1 42 1 81q0 77 -5 140 q-8 95 -36 150q-27 52 -85 52h-4zM828 1282q27 20 51 43q23 20 47.5 47t44.5 58q23 -35 49.5 -63t48.5 -46q27 -23 56 -39l-54 -43l-50 -47q-28 -27 -50 -55q-23 37 -47.5 63.5t-46.5 44.5q-24 23 -49 37zM-2540 -3391q16 82 46 165q25 72 67.5 161t108.5 177 q57 55 163.5 109.5t242.5 97.5t297 69.5t327 26.5q307 0 549.5 -58t422 -137t294 -160t163.5 -124q12 39 18.5 160t8.5 294q1 87 1 183.5t-1 203.5q-2 214 -5 439t-8 448.5t-11 416.5l-9 345l-6 228q-41 0 -86 10t-84 25q-45 16 -88 37q18 -2 36 -2q28 0 56 4q41 4 85 15 t81 38l-21 606q-9 268 -17.5 484l-15.5 386l-13 310l-9 255l-8 224q31 0 62.5 11t70.5 36t89 64l118 94q141 100 292.5 153.5t330.5 53.5q72 0 114.5 -15.5t69.5 -34.5q-35 -59 -60.5 -117.5t-41.5 -115.5q0 -217 -53.5 -404.5t-141.5 -344t-198.5 -285.5t-227.5 -230 q-274 -238 -621 -393q340 162 609 400q113 100 222 229t195.5 285.5t138.5 342t52 400.5q-29 25 -70 47q-37 16 -93 31.5t-140 15.5q-115 0 -192.5 -21.5t-126 -55t-73 -75.5t-34.5 -83q-12 -51 -21.5 -183.5t-14.5 -315.5t-7 -405l-4 -450q-2 -229 -3 -454.5t-3 -418.5 q68 -29 147.5 -38t147.5 -9q80 0 159 9q-76 -31 -153 -54q-68 -20 -148 -38.5t-153 -22.5l-5 -317q-3 -189 -7.5 -412t-10.5 -468t-14 -485.5t-20.5 -465t-30 -404.5t-40 -304t-51.5 -165q-63 70 -164.5 137.5t-225.5 129t-265 112.5t-285.5 89t-285 59.5t-262.5 21.5 q-203 0 -361 -24.5t-277.5 -64.5t-204.5 -92.5t-143 -105.5q-135 -126 -170 -286z" />
<glyph unicode="&#xfb02;" horiz-adv-x="1441" d="M611 1642q395 127 706 328q131 86 258 195.5t227.5 245t161 298t60.5 353.5q0 76 -18.5 147.5t-63.5 126.5t-121 88t-188 33q-117 0 -214.5 -47t-168 -113.5t-114.5 -136.5t-54 -113q-25 -68 -38 -175t-19.5 -239t-7.5 -282.5t-1 -304.5q0 -102 -3 -261t-6 -338t-5 -363 q-1 -122 -2 -231q0 -55 1 -107q1 -155 6 -264t17 -138q25 -55 66 -103t119 -55l-138 -104q-59 -47 -108 -96q-39 20 -69.5 52t-52 66.5t-35 68.5t-15.5 60q-2 51 -2 177.5t1 293t4 359t5 377t3 344.5t1 262q0 229 1 396v81q0 117 -2 207q-3 121 -10 202t-22 138 q61 0 127 30.5t134.5 76l141.5 98.5t148.5 98t153.5 76t158 31q113 0 191.5 -36t127.5 -94.5t71.5 -133t22.5 -154.5q0 -193 -61.5 -355.5t-162.5 -298t-230 -245t-265 -195.5q-315 -201 -716 -326zM-2540 -3391q16 82 46 165q25 72 67.5 161t108.5 177q57 55 163.5 109.5 t242.5 97.5t297 69.5t327 26.5q307 0 549.5 -58t422 -137t294 -160t163.5 -124q12 39 18.5 160t8.5 294q1 87 1 183.5t-1 203.5q-2 214 -5 439t-8 448.5t-11 416.5l-9 345l-6 228q-41 0 -86 10t-84 25q-45 16 -88 37q18 -2 36 -2q28 0 56 4q41 4 85 15t81 38l-21 606 q-9 268 -17.5 484l-15.5 386l-13 310l-9 255l-8 224q31 0 62.5 11t70.5 36t89 64l118 94q141 100 292.5 153.5t330.5 53.5q72 0 114.5 -15.5t69.5 -34.5q-35 -59 -60.5 -117.5t-41.5 -115.5q0 -217 -53.5 -404.5t-141.5 -344t-198.5 -285.5t-227.5 -230q-274 -238 -621 -393 q340 162 609 400q113 100 222 229t195.5 285.5t138.5 342t52 400.5q-29 25 -70 47q-37 16 -93 31.5t-140 15.5q-115 0 -192.5 -21.5t-126 -55t-73 -75.5t-34.5 -83q-12 -51 -21.5 -183.5t-14.5 -315.5t-7 -405l-4 -450q-2 -229 -3 -454.5t-3 -418.5q68 -29 147.5 -38 t147.5 -9q80 0 159 9q-76 -31 -153 -54q-68 -20 -148 -38.5t-153 -22.5l-5 -317q-3 -189 -7.5 -412t-10.5 -468t-14 -485.5t-20.5 -465t-30 -404.5t-40 -304t-51.5 -165q-63 70 -164.5 137.5t-225.5 129t-265 112.5t-285.5 89t-285 59.5t-262.5 21.5q-203 0 -361 -24.5 t-277.5 -64.5t-204.5 -92.5t-143 -105.5q-135 -126 -170 -286z" />
<glyph unicode="&#xfb03;" horiz-adv-x="2328" d="M1589 860q49 20 93 35.5t84 33t78 39t75 54.5q15 -49 14 -117v-17q-2 -79 -9 -166t-9 -175q0 -9 -1 -19q0 -77 16 -141q17 -72 61 -120t133 -56q-88 -57 -151 -109l-124 -104l-41 18q-23 10 -43 30t-35.5 49.5t-17.5 76.5q2 139 6 265q1 42 1 81q0 77 -5 140 q-8 95 -36 150q-27 52 -85 52h-4zM1622 1282q27 20 51 43q23 20 47.5 47t44.5 58q23 -35 49.5 -63t48.5 -46q27 -23 56 -39l-54 -43l-50 -47q-28 -27 -50 -55q-23 37 -47.5 63.5t-46.5 44.5q-24 23 -49 37zM-1745 -3391q16 82 46 165q25 72 67.5 161t108.5 177 q57 55 163.5 109.5t242.5 97.5t297 69.5t327 26.5q307 0 549.5 -58t422 -137t294 -160t163.5 -124q12 39 18.5 160t8.5 294q1 87 1 183.5t-1 203.5q-2 214 -5 439t-8 448.5t-11 416.5l-9 345l-6 228q-41 0 -86 10t-84 25q-45 16 -88 37q18 -2 36 -2q28 0 56 4q41 4 85 15 t81 38l-21 606q-9 268 -17.5 484l-15.5 386l-13 310l-9 255l-8 224q31 0 62.5 11t70.5 36t89 64l118 94q141 100 292.5 153.5t330.5 53.5q72 0 114.5 -15.5t69.5 -34.5q-35 -59 -60.5 -117.5t-41.5 -115.5q0 -217 -53.5 -404.5t-141.5 -344t-198.5 -285.5t-227.5 -230 q-274 -238 -621 -393q340 162 609 400q113 100 222 229t195.5 285.5t138.5 342t52 400.5q-29 25 -70 47q-37 16 -93 31.5t-140 15.5q-115 0 -192.5 -21.5t-126 -55t-73 -75.5t-34.5 -83q-12 -51 -21.5 -183.5t-14.5 -315.5t-7 -405l-4 -450q-2 -229 -3 -454.5t-3 -418.5 q68 -29 147.5 -38t147.5 -9q80 0 159 9q-76 -31 -153 -54q-68 -20 -148 -38.5t-153 -22.5l-5 -317q-3 -189 -7.5 -412t-10.5 -468t-14 -485.5t-20.5 -465t-30 -404.5t-40 -304t-51.5 -165q-63 70 -164.5 137.5t-225.5 129t-265 112.5t-285.5 89t-285 59.5t-262.5 21.5 q-203 0 -361 -24.5t-277.5 -64.5t-204.5 -92.5t-143 -105.5q-135 -126 -170 -286zM-2540 -3391q16 82 46 165q25 72 67.5 161t108.5 177q57 55 163.5 109.5t242.5 97.5t297 69.5t327 26.5q307 0 549.5 -58t422 -137t294 -160t163.5 -124q12 39 18.5 160t8.5 294 q1 87 1 183.5t-1 203.5q-2 214 -5 439t-8 448.5t-11 416.5l-9 345l-6 228q-41 0 -86 10t-84 25q-45 16 -88 37q18 -2 36 -2q28 0 56 4q41 4 85 15t81 38l-21 606q-9 268 -17.5 484l-15.5 386l-13 310l-9 255l-8 224q31 0 62.5 11t70.5 36t89 64l118 94q141 100 292.5 153.5 t330.5 53.5q72 0 114.5 -15.5t69.5 -34.5q-35 -59 -60.5 -117.5t-41.5 -115.5q0 -217 -53.5 -404.5t-141.5 -344t-198.5 -285.5t-227.5 -230q-274 -238 -621 -393q340 162 609 400q113 100 222 229t195.5 285.5t138.5 342t52 400.5q-29 25 -70 47q-37 16 -93 31.5t-140 15.5 q-115 0 -192.5 -21.5t-126 -55t-73 -75.5t-34.5 -83q-12 -51 -21.5 -183.5t-14.5 -315.5t-7 -405l-4 -450q-2 -229 -3 -454.5t-3 -418.5q68 -29 147.5 -38t147.5 -9q80 0 159 9q-76 -31 -153 -54q-68 -20 -148 -38.5t-153 -22.5l-5 -317q-3 -189 -7.5 -412t-10.5 -468 t-14 -485.5t-20.5 -465t-30 -404.5t-40 -304t-51.5 -165q-63 70 -164.5 137.5t-225.5 129t-265 112.5t-285.5 89t-285 59.5t-262.5 21.5q-203 0 -361 -24.5t-277.5 -64.5t-204.5 -92.5t-143 -105.5q-135 -126 -170 -286z" />
<glyph unicode="&#xfb04;" horiz-adv-x="2236" d="M1405 1642q395 127 706 328q131 86 258 195.5t227.5 245t161 298t60.5 353.5q0 76 -18.5 147.5t-63.5 126.5t-121 88t-188 33q-117 0 -214.5 -47t-168 -113.5t-114.5 -136.5t-54 -113q-25 -68 -38 -175t-19.5 -239t-7.5 -282.5t-1 -304.5q0 -102 -3 -261t-6 -338t-5 -363 q-1 -122 -2 -231q0 -55 1 -107q1 -155 6 -264t17 -138q25 -55 66 -103t119 -55l-138 -104q-59 -47 -108 -96q-39 20 -69.5 52t-52 66.5t-35 68.5t-15.5 60q-2 51 -2 177.5t1 293t4 359t5 377t3 344.5t1 262q0 229 1 396v81q0 117 -2 207q-3 121 -10 202t-22 138 q61 0 127 30.5t134.5 76l141.5 98.5t148.5 98t153.5 76t158 31q113 0 191.5 -36t127.5 -94.5t71.5 -133t22.5 -154.5q0 -193 -61.5 -355.5t-162.5 -298t-230 -245t-265 -195.5q-315 -201 -716 -326zM-1745 -3391q16 82 46 165q25 72 67.5 161t108.5 177q57 55 163.5 109.5 t242.5 97.5t297 69.5t327 26.5q307 0 549.5 -58t422 -137t294 -160t163.5 -124q12 39 18.5 160t8.5 294q1 87 1 183.5t-1 203.5q-2 214 -5 439t-8 448.5t-11 416.5l-9 345l-6 228q-41 0 -86 10t-84 25q-45 16 -88 37q18 -2 36 -2q28 0 56 4q41 4 85 15t81 38l-21 606 q-9 268 -17.5 484l-15.5 386l-13 310l-9 255l-8 224q31 0 62.5 11t70.5 36t89 64l118 94q141 100 292.5 153.5t330.5 53.5q72 0 114.5 -15.5t69.5 -34.5q-35 -59 -60.5 -117.5t-41.5 -115.5q0 -217 -53.5 -404.5t-141.5 -344t-198.5 -285.5t-227.5 -230q-274 -238 -621 -393 q340 162 609 400q113 100 222 229t195.5 285.5t138.5 342t52 400.5q-29 25 -70 47q-37 16 -93 31.5t-140 15.5q-115 0 -192.5 -21.5t-126 -55t-73 -75.5t-34.5 -83q-12 -51 -21.5 -183.5t-14.5 -315.5t-7 -405l-4 -450q-2 -229 -3 -454.5t-3 -418.5q68 -29 147.5 -38 t147.5 -9q80 0 159 9q-76 -31 -153 -54q-68 -20 -148 -38.5t-153 -22.5l-5 -317q-3 -189 -7.5 -412t-10.5 -468t-14 -485.5t-20.5 -465t-30 -404.5t-40 -304t-51.5 -165q-63 70 -164.5 137.5t-225.5 129t-265 112.5t-285.5 89t-285 59.5t-262.5 21.5q-203 0 -361 -24.5 t-277.5 -64.5t-204.5 -92.5t-143 -105.5q-135 -126 -170 -286zM-2540 -3391q16 82 46 165q25 72 67.5 161t108.5 177q57 55 163.5 109.5t242.5 97.5t297 69.5t327 26.5q307 0 549.5 -58t422 -137t294 -160t163.5 -124q12 39 18.5 160t8.5 294q1 87 1 183.5t-1 203.5 q-2 214 -5 439t-8 448.5t-11 416.5l-9 345l-6 228q-41 0 -86 10t-84 25q-45 16 -88 37q18 -2 36 -2q28 0 56 4q41 4 85 15t81 38l-21 606q-9 268 -17.5 484l-15.5 386l-13 310l-9 255l-8 224q31 0 62.5 11t70.5 36t89 64l118 94q141 100 292.5 153.5t330.5 53.5 q72 0 114.5 -15.5t69.5 -34.5q-35 -59 -60.5 -117.5t-41.5 -115.5q0 -217 -53.5 -404.5t-141.5 -344t-198.5 -285.5t-227.5 -230q-274 -238 -621 -393q340 162 609 400q113 100 222 229t195.5 285.5t138.5 342t52 400.5q-29 25 -70 47q-37 16 -93 31.5t-140 15.5 q-115 0 -192.5 -21.5t-126 -55t-73 -75.5t-34.5 -83q-12 -51 -21.5 -183.5t-14.5 -315.5t-7 -405l-4 -450q-2 -229 -3 -454.5t-3 -418.5q68 -29 147.5 -38t147.5 -9q80 0 159 9q-76 -31 -153 -54q-68 -20 -148 -38.5t-153 -22.5l-5 -317q-3 -189 -7.5 -412t-10.5 -468 t-14 -485.5t-20.5 -465t-30 -404.5t-40 -304t-51.5 -165q-63 70 -164.5 137.5t-225.5 129t-265 112.5t-285.5 89t-285 59.5t-262.5 21.5q-203 0 -361 -24.5t-277.5 -64.5t-204.5 -92.5t-143 -105.5q-135 -126 -170 -286z" />
</font>
</defs>
</svg>
