<?xml version="1.0" standalone="no"?>
<!DOCTYPE svg PUBLIC "-//W3C//DTD SVG 1.1//EN" "http://www.w3.org/Graphics/SVG/1.1/DTD/svg11.dtd" >
<svg xmlns="http://www.w3.org/2000/svg">
<metadata>
This is a custom SVG webfont generated by Font Squirrel.
Copyright   : Kingthings Petrock  Kevin King 2006 All Rights Reserved
Designer    : Kevin King Exeter England
Foundry     : Kingthings
Foundry URL : httpmysitewanadoomemberscoukKingthingsindexhtm
</metadata>
<defs>
<font id="webfontsDl1KU8Z" horiz-adv-x="937" >
<font-face units-per-em="2048" ascent="1638" descent="-410" />
<missing-glyph horiz-adv-x="380" />
<glyph unicode=" "  horiz-adv-x="380" />
<glyph unicode="&#x09;" horiz-adv-x="380" />
<glyph unicode="&#xa0;" horiz-adv-x="380" />
<glyph unicode="!" horiz-adv-x="374" d="M47 1180q23 -115 51 -904l221 140l9 737q-20 172 -97 184zM102 178l4 -178l216 117v213z" />
<glyph unicode="&#x22;" horiz-adv-x="659" d="M14 1227q-10 -20 4 -33q170 -143 64 -260q-9 -31 24 -37q416 201 119 477h-18zM313 1227q-10 -20 4 -33q172 -145 66 -260q-10 -31 23 -37q416 201 120 477h-20z" />
<glyph unicode="#" horiz-adv-x="905" d="M-57 467h280l-92 -420l72 -76l108 496h133l-92 -420l72 -76l108 496h263l47 94h-289l41 187h270l47 96h-297l97 434l-68 80l-115 -514h-135l96 434l-67 80l-115 -514h-244l-51 -96h275l-41 -187h-252zM332 561l41 187h135l-41 -187h-135z" />
<glyph unicode="$" horiz-adv-x="985" d="M25 397q-25 -74 51 -178q74 -100 184 -153q70 -33 143 -48v-360l156 -98v448q92 12 152 66q90 76 176 217q88 143 86 233t-78 181q-72 84 -336 143v262q2 -2 8 -2q133 -51 103 -111l22 -4l160 158q-47 88 -141 135q-70 33 -152 31v385l-149 108l-2 -538q-39 -16 -97 -47 q-106 -70 -149 -119q-52 -61 -68 -184t68 -213q63 -70 244 -105v-354q-78 25 -138 92q-57 66 -69 107q-12 37 8 73l-19 23zM260 1001q-16 111 102 136l46 6l-2 -244q-130 43 -146 102zM559 213v344q178 -49 215 -92q51 -76 35 -135q-16 -55 -72 -90q-59 -35 -178 -27z" />
<glyph unicode="%" horiz-adv-x="1146" d="M29 901q12 -95 92 -184q80 -90 129 -90q45 0 149 114q43 47 72 93q27 41 43 141q14 86 -22 199q-96 182 -244 159q-111 -84 -152 -147q-43 -66 -61 -127q-18 -64 -6 -158zM135 1120q12 92 101 86q90 -6 139 -116q49 -109 20 -232q-27 -119 -119 -80t-122 146 q-31 104 -19 196zM225 -168l64 -12q53 113 203 243q96 506 426 1418l-54 -15l-186 -186q-152 -631 -453 -1448zM643 270q12 -95 92 -184q80 -90 127 -90t152 115q43 47 71 92q27 41 43 139q14 88 -22 201q-96 182 -246 159q-104 -82 -149 -147q-43 -66 -62 -127 q-18 -64 -6 -158zM749.5 489.5q12.5 92.5 100.5 85.5q90 -6 139 -116q49 -109 21 -232q-27 -119 -119 -80t-123 146q-31 104 -18.5 196.5z" />
<glyph unicode="&#x26;" horiz-adv-x="1132" d="M43 342q2 -127 98 -229q94 -98 310 -115q151 197 172 209q109 -143 260 -213q55 -6 128.5 81t164.5 265l-29 27q-29 -63 -92 -95q-115 -8 -260 168l338 471l-11 19h-344l-153 -250l22 -27q45 57 244 35l-150 -209q-393 485 -430 551q-27 47 -16 109q8 57 67 75 q55 18 121 -22q61 -39 72 -150q10 -109 -76 -188l25 -31q211 117 213 250q4 135 -64 197q-70 63 -162 63t-229 -108q-135 -109 -145.5 -242t114.5 -274q-190 -238 -188 -367zM274 657l314 -413q-133 -80 -289 35q-158 116 -25 378z" />
<glyph unicode="'" horiz-adv-x="360" d="M14 1237q-10 -20 4 -33q170 -143 64 -260q-9 -31 24 -37q416 201 119 477h-18z" />
<glyph unicode="(" horiz-adv-x="444" d="M51 727q-35 -178 15 -405q49 -233 194 -414l184 196q-410 612 -30 1190l-15 31q-131 -145 -223 -285q-92 -137 -125 -313z" />
<glyph unicode=")" horiz-adv-x="458" d="M-2 1128q410 -612 31 -1189l14 -31q129 143 221 282q94 141 127 316q35 178 -14 405q-49 225 -197 412z" />
<glyph unicode="*" horiz-adv-x="552" d="M31 1079l151 13l-94 -72l25 -105l118 125l-12 -131l96 -43l-14 176l125 -131l25 101l-99 80l127 -2l43 90l-178 -21l86 84l-22 80l-105 -106l10 153l-86 -45l6 -113l-102 115l-27 -80l84 -88h-116z" />
<glyph unicode="+" horiz-adv-x="909" d="M53 561l148 160l176 -4l-2 203l162 137l10 -23q-35 -29 -33 -319q301 -2 330 33l22 -11l-137 -162l-217 7v-193l-152 -145l-14 10q33 33 25 321q-272 6 -308 -28z" />
<glyph unicode="," horiz-adv-x="358" d="M14 166q-10 -20 4 -33q170 -143 64 -260q-8 -29 24 -35q414 199 119 475h-18z" />
<glyph unicode="-" horiz-adv-x="851" d="M43 561l10 -14q35 35 631 28l129 162l-20 11q-29 -35 -611 -27z" />
<glyph unicode="." horiz-adv-x="348" d="M6 145q86 -72 139 -168q160 104 189 142q20 27 -10 94q-31 66 -119 92z" />
<glyph unicode="/" horiz-adv-x="690" d="M-86 -256l70 -14q58 123 221 270q109 586 463 1581l-56 -16l-204 -209q-162 -688 -494 -1612z" />
<glyph unicode="0" horiz-adv-x="897" d="M29 506q23 -182 157 -348q139 -170 220 -170q84 0 260 219q70 84 120 176q51 90 76 262t-43 381q-164 342 -416 301q-182 -162 -257.5 -278.5t-106 -239.5t-10.5 -303zM211 924q18 174 174 163q152 -8 236 -221t36.5 -440t-202.5 -152q-160 78 -211 277q-51 197 -33 373z " />
<glyph unicode="1" horiz-adv-x="448" d="M10 1044l33 -32l80 63q27 -115 14 -553q-12 -449 99 -532q61 76 174 149q-78 127 -64 1174l-39 18z" />
<glyph unicode="2" horiz-adv-x="915" d="M14 47l47 -49q86 27 379 6.5t353 40.5q57 59 104 258l-27 12q-61 -90 -272 -69q-221 23 -317 8l475 618q86 113 18 285q-66 168 -268 178q-201 10 -322 -114q-123 -125 -137 -269q-16 -145 74 -256l196 187q-106 125 -81 225q25 104 126 82q104 -23 201 -137 q98 -117 17 -283l-107 -133z" />
<glyph unicode="3" horiz-adv-x="968" d="M63 236q120 -190 283 -233.5t264 36.5q102 80 232 250q127 166 102 393q-29 137 -127 197q-86 86 -180 79l250 324l-23 39h-651l-135 -203l14 -28l539 2l-262 -299l32 -37q115 33 199 -29q82 -61 150 -217q68 -160 -51 -260t-232 -35q-109 63 -213 166q-104 100 10 254 l-31 24q-289 -233 -170 -423z" />
<glyph unicode="4" horiz-adv-x="1040" d="M31 262l37 -39q55 31 419 41q-20 -268 80 -348l211 127q-90 72 -84 229l209 -2l115 156l-19 33l-299 -2q34 252 -55 387l-188 -129q57 -139 26 -258l-299 4q399 582 373 729q-27 145 -94 156l-209 -189q125 -70 -223 -895z" />
<glyph unicode="5" horiz-adv-x="944" d="M31 256q121 -221 288 -250q166 -27 240 8q78 37 150 133l159 215q86 119 39 281q-45 160 -206.5 264.5t-385.5 40.5v187l387 4l166 147l-20 37l-508 -4l-201 -232l-20 -378l35 -19q190 160 393 10q230 -175 227 -307q-4 -135 -104 -186q-102 -53 -240 8q-139 61 -186 127 t-4 170l-39 14z" />
<glyph unicode="6" horiz-adv-x="882" d="M35 444q12 -156 88 -249q78 -96 168 -148q92 -52 166 -55q72 -2 131 53q58 55 110 129q53 76 129 223q78 152 12.5 291t-173.5 193q-111 53 -269 -35q-160 -88 -221 -244q-6 254 64 375q68 117 120 135q55 18 140 16q88 -4 125 -94l147 162q4 74 -96.5 115t-202.5 8 q-106 -35 -237 -205q-132 -172 -173 -344q-40 -176 -28 -326zM197 543q104 125 227 155q125 31 223 -131q96 -160 47 -272q-49 -111 -155.5 -92.5t-206.5 114.5q-98 97 -135 226z" />
<glyph unicode="7" horiz-adv-x="808" d="M-2 1077l12 -35q120 71 572 43q-252 -578 -285 -778q-35 -207 94 -332l158 220q-61 111 -64 211q-3 104 43 239q45 129 265 653l-21 19l-622 6z" />
<glyph unicode="8" horiz-adv-x="833" d="M35 338q12 -147 149 -258q139 -111 316 -90q176 211 260 329q74 102 45 234q-27 129 -250 258q221 184 166 348q-53 160 -223 178q-166 18 -234 -100l-127 -215q-59 -96 -31 -180q29 -86 146 -166q-229 -193 -217 -338zM245.5 389.5q-63.5 151.5 41.5 253.5 q229 -123 305 -207q82 -90 45 -168q-37 -80 -182.5 -55t-209 176.5zM248 1067q0 76 133 70q135 -6 186 -113q53 -109 -59 -180q-70 33 -162 86q-98 57 -98 137z" />
<glyph unicode="9" horiz-adv-x="880" d="M49 903q-31 -137 19 -256q47 -113 182 -178q127 -59 248 20q119 80 166 226q27 -252 -23 -371q-49 -117 -104 -133q-53 -16 -134 6q-78 20 -116 98l-160 -186q-2 -74 94 -113q100 -41 215 -10q119 31 244 215q127 184 154 354q29 172 0 318q-29 147 -103 240 q-86 106 -145 147q-72 51 -127 53q-57 2 -137 -49q-80 -52 -160 -147q-82 -99 -113 -234zM184 1036q39 102 162 103q121 0 201 -111q76 -104 100 -278q-45 -86 -192 -105q-143 -18 -228 135q-84 152 -43 256z" />
<glyph unicode=":" horiz-adv-x="362" d="M16 545q88 -74 140 -166q164 106 188 139q20 27 -10 94q-31 66 -119 93zM27 145q86 -72 139 -168q160 104 188 142q20 27 -10 94q-31 66 -119 92z" />
<glyph unicode=";" horiz-adv-x="368" d="M16 545q88 -74 140 -166q164 106 188 139q20 27 -10 94q-31 66 -119 93zM33 180q-10 -20 4 -33q152 -158 45 -274q-8 -29 24 -35q414 199 119 475h-18z" />
<glyph unicode="&#x3c;" horiz-adv-x="659" d="M25 649l450 -362l160 202l-346 265l352 209l-47 77l-569 -356v-35z" />
<glyph unicode="=" horiz-adv-x="866" d="M53 463l10 -17q35 35 631 29l129 164l-20 8q-29 -35 -610 -26zM53 672l10 -15q35 35 631 29l129 162l-20 8q-29 -35 -610 -27z" />
<glyph unicode="&#x3e;" horiz-adv-x="661" d="M25 385l47 -78l569 357v34l-451 363l-157 -203l344 -262z" />
<glyph unicode="?" horiz-adv-x="849" d="M0 1087l207 -151l8 14l135 187q84 49 170 -15q90 -68 92 -170q2 -104 -151.5 -178t-159.5 -166l6 -297l236 160l2 256q229 111 266 250t-39 242q-78 104 -188 120q-113 16 -166 -22q-51 -37 -119 -117l-149 88zM309 207v-227l238 133l4 247z" />
<glyph unicode="@" horiz-adv-x="1280" d="M51 532q-29 -143 21 -282q49 -141 186 -254q141 -117 225 -98q88 18 328 264l-47 24q-168 -168 -344 -26q-178 141 -174 332q3 190 67 313q63 123 179 164q113 41 243.5 28.5t212.5 -77.5q80 -65 111 -228q31 -164 -37 -248q-66 -82 -127 -6t-51 482l-273 2 q-215 -170 -241.5 -332t65.5 -271q94 -109 162 -77q66 31 152 125q35 -127 174 -121q338 172 374 364q37 190 -42.5 338t-245.5 203q-162 53 -314 14q-152 -41 -258 -125q-115 -90 -213 -225q-106 -144 -133 -283zM469 516q-16 152 47 244h156q-12 -274 16 -330 q-203 -61 -219 86z" />
<glyph unicode="A" horiz-adv-x="1126" d="M23 43l14 -45l323 2l146 188l-17 19h-245q72 37 145 205l199 2l98 106q133 -375 193 -446q61 -74 125 -88l155 182q-119 29 -287 561q-168 535 -200 576q-31 39 -84 38q-49 0 -82 -22q-20 -14 -213 -258l41 -33q61 76 100 100q9 5 16 6q27 0 42 -67l-152 -440h-92 l-205 -203l18 -31q86 18 150 18q17 0 33 -1q-47 -129 -94 -217q-41 -74 -127 -152zM459 621l98 286l98 -286h-196z" />
<glyph unicode="B" horiz-adv-x="911" d="M27 1169l12 -43q5 2 9 2q56 0 57 -290q0 -59 -3 -129q-16 -225 -15 -356q0 -102 9 -148q23 -106 174 -182q70 -35 141 -36q85 0 167 52q154 98 206 162q57 72 76 127q23 72 23 158.5t-56 197.5q-58 117 -252 141q182 131 183 264q0 20 -4 39q-31 156 -140 189 q-56 17 -102 17q-43 0 -76 -15q-66 -31 -129 -96q-27 82 -96 106zM319 637q41 100 125 108q6 1 13 1q79 0 153 -105q67 -96 68 -202q0 -17 -2 -36q-12 -131 -72 -204q-40 -50 -89 -50q-27 0 -56 15q-86 45 -125 135q-24 55 -24 169q-1 72 9 169zM324 782l4 367q24 54 76 54 q16 0 34 -5q84 -23 111 -135q8 -34 8 -69q0 -80 -43 -158q-137 -1 -190 -54z" />
<glyph unicode="C" horiz-adv-x="927" d="M37 717q-10 -65 -10 -126q0 -110 32 -198q51 -141 135.5 -237.5t215.5 -141.5q57 -19 113 -19q66 0 132 25q117 45 250 222l-43 41q-78 -85 -176 -85q-77 0 -168 52q-207 119 -272 358q-32 118 -32 218t32 180q63 158 215 161h12q141 0 184 -69q25 -41 26 -75 q0 -26 -15 -48l30 -17l181 152q6 15 5 32q0 49 -48 109q-68 83 -215 86h-15q-139 0 -235 -55q-109 -63 -205 -217q-102 -164 -129 -348z" />
<glyph unicode="D" horiz-adv-x="1026" d="M23 1155l14 -35q12 3 23 4q61 0 81 -102l-2 -635q0 -168 82 -272q80 -100 223 -117q25 -3 49 -3q106 0 169 58q77 71 147 166q59 80 129 223q57 118 57 328v23q-4 227 -188 436q-78 90 -227 112l-201 -219q-16 145 -131 217zM375 432l2 598q61 76 121 82h7q59 0 144 -88 q92 -94 129 -342q10 -66 10 -131q0 -182 -77 -350q-54 -38 -112 -38q-49 0 -101 27q-107 58 -123 242z" />
<glyph unicode="E" horiz-adv-x="940" d="M41 289q58 -230 430 -295q391 205 447 409q13 47 12 89q0 141 -144 231l-184 -236q125 -97 125 -175q0 -15 -4 -29q-24 -79 -136 -79q-12 0 -26 1q-137 10 -262 135q-77 77 -77 175q0 65 34 138q59 -23 137 -30l197 208l-19 23q-229 0 -286 57q-50 50 -51 129q0 12 2 25 q8 94 106 113q29 6 57 5q66 0 125 -30q75 -38 76 -98q0 -9 -2 -19l23 -14l170 182q-16 41 -76 86q-61 47 -140 49q-13 1 -25 1q-66 0 -118 -15q-66 -18 -164 -90q-96 -70 -172 -221q-22 -43 -21 -90q0 -112 126 -238q-169 -144 -169 -315q0 -40 9 -82z" />
<glyph unicode="F" horiz-adv-x="782" d="M12 1124l17 -30q24 19 41 18q36 0 39 -82l-3 -864q12 -152 156 -176l162 157q-86 72 -84 201v348l227 4l127 168l-24 27h-221l-103 -141v350l301 -2l168 186l-6 35h-350l-127 -180q0 147 -109 190z" />
<glyph unicode="G" horiz-adv-x="1024" d="M43 449q33 -133 100 -226q59 -82 152 -151q88 -66 186 -78q8 -1 15 -1q97 0 217 142q18 -125 108 -149l187 170l-23 30q-13 -9 -23 -9q-25 0 -40 50l-7 465q-3 15 -2 28q0 45 33 62l-26 25l-367 2l-137 -229l24 -21q21 39 155 40q45 0 103 -5l2 -369q-243 18 -374 203 q-131 184 -136 330v16q0 132 46 213q45 82 143 125q46 20 95 20q57 0 118 -26q88 -38 87 -86q0 -14 -7 -29l22 -18l215 149q-78 137 -147 176q-72 41 -166 41q-92 0 -170 -45q-66 -39 -139 -118q-66 -72 -137 -181q-68 -104 -107 -260q-18 -72 -18 -143.5t18 -142.5z" />
<glyph unicode="H" horiz-adv-x="1005" d="M37 1202q25 -41 31 -125q-5 -359 -5 -585q0 -339 11 -381q18 -68 102 -111l238 168l-17 43q-12 -3 -22 -4q-35 0 -51 43q-18 45 -18 296q0 65 1 142h346q-2 -128 -1 -228q0 -300 14 -354q18 -70 102 -112l236 168l-17 43q-11 -3 -20 -3q-36 0 -54 44q-13 33 -13 393 q0 221 5 578q-14 78 -67 114l-211 -135q27 -45 32 -125v-231l-274 2l-78 -92l6 473q-14 80 -65 114z" />
<glyph unicode="I" horiz-adv-x="446" d="M27 1167l14 -28q9 3 16 3q36 0 41 -73q-5 -360 -5 -586q0 -338 11 -381q18 -70 103 -112l213 168l-33 30h-4q-33 0 -53 52q-13 33 -13 396q0 222 5 581q-14 78 -68 114z" />
<glyph unicode="J" horiz-adv-x="919" d="M20 389q49 -209 173 -297q121 -86 311 -96q287 209 348 405l-4 738q-1 18 -2 34q0 90 43 121l-15 29h-583l-168 -219l18 -27q65 43 340 44q66 0 146 -3l-2 -747q2 -38 1 -69q0 -93 -14 -118q-100 8 -202.5 55.5t-165.5 137.5q-34 48 -34 114q0 60 28 136l-29 6z" />
<glyph unicode="K" horiz-adv-x="993" d="M14 1157l4 -24q51 -14 64 -109v-819q10 -104 63 -156q57 -53 91 -53q195 127 204 131l-16 39q-89 0 -92 80l-2 379h7q119 0 325 -514q63 -123 170 -123h6l166 153l-17 37q-5 -1 -10 -1q-94 0 -199 272q-111 285 -248 327q266 223 266 410q0 80 -48 151l-216 -174 q39 -60 40 -123q0 -154 -238 -321l-15 471q-8 88 -94 143z" />
<glyph unicode="L" horiz-adv-x="856" d="M16 1180l15 -29h2q51 0 57 -141v-795q0 -166 92 -219l183 129q31 22 60 22q44 0 87 -53q72 -86 158 -102l196 153l-18 33q-49 0 -72 27q-23 29 -76 90q-47 55 -126 55q-14 0 -29 -2l-199 -168q-17 56 -17 106q0 8 1 15l-2 803q-12 174 -113 219z" />
<glyph unicode="M" horiz-adv-x="1542" d="M29 1065l24 -47q19 16 33 16q36 0 36 -110q0 -18 -1 -39q-4 -242 -4 -410q0 -250 8 -309q12 -92 100 -168l215 215v35q-9 -2 -17 -2q-64 0 -75 135q-5 65 -5 182q0 135 7 371q103 130 182 130q23 0 43 -11q90 -47 91 -353q-2 -157 -3 -282q0 -180 5 -252q6 -100 90 -178 l207 221l-4 33q-3 -1 -6 -1q-63 0 -62 459q0 117 4 263q94 103 167 102q26 0 50 -12q92 -49 92 -353q-2 -157 -2 -282q0 -180 4 -252q6 -102 88 -178l213 227l-4 33q-7 -3 -13 -3q-45 0 -58 134q-9 92 -10 228q0 101 6 227q1 31 1 60q0 142 -24 236q-29 113 -123 164 q-47 26 -91 26q-45 0 -85 -28q-82 -57 -133 -116q-61 -72 -86 -111q-49 176 -146 229q-47 26 -90 26q-45 0 -86 -28q-82 -57 -133 -116q-59 -70 -80 -105q1 18 1 35q0 150 -72 217z" />
<glyph unicode="N" horiz-adv-x="1046" d="M18 1067l25 -47q20 16 34 16q39 0 39 -112q0 -17 -1 -37q-4 -284 -5 -445q0 -225 9 -276q16 -96 104 -168l228 213v33q-9 -3 -17 -3q-58 0 -74 138q-13 111 -13 304q0 89 3 194l375 -590q0 -59 8 -135q8 -82 82 -156l219 225l-6 35q-8 -3 -15 -3q-43 0 -57 132 q-9 92 -9 231q0 103 5 228v137l2 197q0 92 -63 157l-248 -248l16 -47q16 8 28 9q37 0 37 -72q0 -12 -1 -25v-411l-375 606q3 20 4 38q0 79 -67 140z" />
<glyph unicode="O" horiz-adv-x="946" d="M29 506q20 -180 168 -348q147 -170 235 -170q90 0 277 217q66 74 127 176q57 96 82 264q7 46 6 93q0 133 -52 286q-157 305 -388 305q-27 0 -56 -4q-197 -164 -274 -278q-78 -117 -113 -240q-21 -73 -21 -169q1 -62 9 -132zM223 924q21 164 168 164q8 0 17 -1 q164 -8 254 -221q57 -135 56 -278q0 -80 -18 -162q-37 -171 -140 -171q-35 0 -77 19q-170 78 -225 277q-41 147 -41 277q0 49 6 96z" />
<glyph unicode="P" d="M23 618q27 -29 88 -77q-7 -121 -7 -212q0 -205 35 -268q53 -92 137 -116l185 192l-21 35q-12 -5 -21 -5q-77 0 -77 257v18q33 -13 70 -13q68 0 151 44q131 70 225 172q96 106 121 225q6 30 6 62q0 97 -57 209q-78 152 -301 194l-201 -192q-4 113 -84 178l-229 -195 l10 -32q11 10 20 9q42 0 42 -214q0 -83 -6 -197zM356 711v348l76 57q147 -18 223 -172q49 -100 49 -180q0 -43 -14 -82q-37 -99 -136 -99q-9 0 -17 1q-113 8 -181 127z" />
<glyph unicode="Q" horiz-adv-x="1144" d="M45 483q29 -229 219 -420q79 -79 169 -79q127 0 272 159l118 -198q59 -109 121 -109l258 246l-26 49q-49 -40 -91 -40q-36 0 -67 32l-129 217q122 267 122 418q0 17 -1 33q-16 160 -88 286q-76 133 -162 187q-90 55 -168 65l-23 2q-69 0 -141 -49q-94 -63 -145 -123 l-107 -123q-47 -57 -102 -190q-38 -92 -38 -225q0 -64 9 -138zM246 606q-23 77 -23 156q0 101 37 207q33 135 109 172q31 16 66 15q49 0 102 -30q94 -53 180 -188q88 -139 121 -268q14 -54 13 -106q0 -73 -28 -138q-80 115 -177 115q-124 0 -277 -187q-71 74 -123 252z M416 293q65 43 110 43q22 0 39 -10q53 -31 111 -131q-36 -8 -68 -8q-117 0 -192 106z" />
<glyph unicode="R" horiz-adv-x="999" d="M25 1165l4 -22q49 -14 61 -111v-819q8 -100 60 -154q51 -55 81 -55q199 131 207 133l-18 37q-88 0 -92 82l2 356q13 4 26 4q156 0 303 -497q63 -123 171 -123h6l182 178l-17 37q-22 -11 -42 -12q-95 0 -166 243q-84 289 -255 289h-8q203 55 258 184q30 69 30 138 q0 58 -21 118q-47 131 -213 158q-22 4 -43 4q-138 0 -215 -159q-18 115 -105 159zM328 684v408q52 56 114 55q36 0 76 -19q88 -41 88 -132q0 -23 -6 -50q-27 -131 -121 -176z" />
<glyph unicode="S" horiz-adv-x="886" d="M25 397q-4 -18 -5 -36q0 -64 50 -142q66 -102 176 -168q92 -55 197 -55q27 0 55 4q135 18 258 190q119 166 119 271t-74 198q-68 86 -279 175q-207 86 -231 182q-6 22 -6 40q0 60 65 79q27 8 55 7q57 0 121 -34q70 -37 70 -92q0 -17 -6 -35l14 -23l158 175 q-14 100 -123 157q-77 41 -141 41q-24 0 -47 -6q-90 -23 -158 -82q-70 -59 -121 -131q-53 -73 -53 -182q0 -94 67 -174q70 -84 240 -162t244 -191q40 -60 40 -104q0 -39 -30 -68q-50 -47 -119 -47q-21 0 -43 4q-90 16 -182 74q-90 55 -129 146q-19 43 -19 80q0 43 25 77 l-27 19z" />
<glyph unicode="T" horiz-adv-x="915" d="M14 1118l21 -16q36 32 230 32q81 0 190 -6q-52 -55 -93 -104l5 -854q37 -154 161 -180l168 153l-14 33h-3q-73 0 -91 154l4 803h209l176 172l-19 20h-804z" />
<glyph unicode="U" horiz-adv-x="1030" d="M43 1161l6 -33q17 4 31 5q46 0 53 -46l4 -606q-2 -41 -2 -78q0 -132 25 -223q31 -111 121 -166q44 -27 87 -26q44 0 89 28q82 51 139 117q59 68 84 107q-1 -18 -1 -35q0 -152 75 -221l258 184l-27 47q-15 -12 -27 -12q-49 0 -49 204v21q4 287 5 449q0 227 -9 280 q-14 96 -92 168l-219 -164v-35q20 6 36 7q40 0 48 -41q14 -161 14 -372q0 -158 -8 -341q-108 -132 -189 -132q-23 0 -44 11q-96 49 -97 354q3 218 3 353.5t-3 187.5q-6 104 -94 182z" />
<glyph unicode="V" horiz-adv-x="1064" d="M14 1018l9 -27q19 22 37 22q38 0 77 -95l299 -822q54 -101 110 -101q33 0 64 36q86 95 160 221q72 121 170 356q53 126 53 254q0 106 -37 215q-80 236 -200 297q-18 9 -37 9q-108 0 -244 -296l21 -32q47 53 90 53q64 0 121 -117q93 -191 92 -377v-22q-6 -205 -94 -324h-3 q-87 0 -415 994q-13 53 -41 52q-17 0 -39 -20z" />
<glyph unicode="W" horiz-adv-x="1435" d="M0 1030l8 -26q19 22 38 21l79 -97l299 -838q54 -102 108 -102l64 37q80 90 182 264l76 -201q54 -102 108 -102l64 37q84 96 160 225q63 109 170 364q53 128 53 258q0 108 -37 220q-80 242 -198 303q-18 9 -37 9q-108 0 -244 -302l18 -33q47 54 91 54q65 0 122 -120 q90 -190 91 -381q0 -12 -1 -24q-6 -211 -94 -332h-2q-87 0 -416 1014q-13 54 -40 54q-17 0 -39 -21l-193 -283l8 -24q19 22 38 21l79 -97l203 -561l-68 -101h-2q-88 0 -416 1012q-13 56 -41 56q-17 0 -38 -21z" />
<glyph unicode="X" horiz-adv-x="1124" d="M-2 1096l20 -25q29 29 119 29q24 0 51 -2l199 -377q-286 -313 -295 -455q-1 -15 -1 -29q0 -118 67 -180q68 -62 125 -62q5 0 10 1l176 225l-16 27q-15 -2 -30 -2q-100 0 -147 92q-10 20 -10 44q0 99 178 257q333 -647 482 -647h2l170 223l-21 31q-6 -5 -13 -5 q-85 0 -400 545l415 494l-14 41l-328 -2l-178 -227l23 -23q55 32 182 33q30 0 63 -2l-219 -246l-241 465h-226z" />
<glyph unicode="Y" horiz-adv-x="948" d="M-2 1145l25 -29q18 20 42 20q17 0 37 -10l263 -428l4 -475q-1 -12 -1 -24q0 -146 101 -209l213 153l-10 33q-5 -1 -10 -1q-45 0 -54 79v514q295 258 314 434q2 16 1 32q0 148 -159 218l-176 -172q115 -86 115 -219q0 -127 -138 -213l-219 344q-84 135 -127 134 q-4 0 -8 -1z" />
<glyph unicode="Z" horiz-adv-x="905" d="M20 39l50 -29q64 28 167 28q92 0 216 -22q95 -17 163 -16q121 0 160 51q57 74 125 240l-35 22q-35 -40 -187 -39q-144 0 -392 35l200 305q50 -26 108 -25q62 0 132 29l68 134q-101 -53 -174 -54q-43 0 -74 19l350 565l-23 41l-692 -2l-149 -258l22 -23q18 65 331 65 q118 0 278 -9l-203 -330q-79 17 -140 17q-106 0 -155 -50l-68 -123q84 68 183 69q52 0 106 -20q-297 -407 -367 -620z" />
<glyph unicode="[" horiz-adv-x="477" d="M-18 -381q88 68 77 176v1706q12 113 265 336l28 -33q-86 -111 -86 -194l-2 -1706q-35 -166 -248 -318zM193 -268q86 -72 139 -168q164 106 188 139q20 27 -10 94q-33 68 -119 94zM295 1675q88 -74 139 -166q164 106 189 140q20 27 -11 94q-31 66 -118 92z" />
<glyph unicode="\" horiz-adv-x="577" d="M-96 1581l55 -16l207 -209q166 -705 491 -1612l-67 -14q-58 123 -221 270q-107 573 -465 1581z" />
<glyph unicode="]" horiz-adv-x="628" d="M-39 -268q90 -76 141 -168q164 106 189 139q20 27 -10 94q-33 68 -119 94zM35 1657q88 -74 139 -166q164 106 188 139q20 27 -10 94q-31 66 -119 93zM231 -381q88 68 78 176v1706q12 113 264 336l29 -33q-86 -111 -86 -194l-2 -1706q-35 -166 -248 -318z" />
<glyph unicode="^" horiz-adv-x="516" d="M33 1430l270 237q76 -158 209 -176l-113 -133q-139 6 -182 153l-149 -120z" />
<glyph unicode="_" horiz-adv-x="974" d="M-133 -387l12 -12q27 27 1139 14l88 115l-25 6q-18 -25 -1116 -12z" />
<glyph unicode="`" horiz-adv-x="393" d="M-8 1219q182 -199 270 -187l137 154q-127 -23 -290 153z" />
<glyph unicode="a" horiz-adv-x="935" d="M12 287q-1 -11 -1 -22q0 -110 89 -187q94 -82 186 -82h7q94 2 164 47q76 49 135 119q25 -139 162 -164l178 192l-12 23q-11 -3 -21 -3q-65 0 -84 97l2 355q-12 135 -98 186q-88 51 -236 57q-9 0 -17 1q-141 0 -286 -97q-98 -66 -98 -158q0 -54 33 -116l223 131 q-35 53 -35 88q0 65 119 67h4q160 0 160 -199q0 -24 -2 -51l-324 -4zM178 373l37 35l369 2v-181q-33 -42 -140 -41h-28q-129 7 -238 185z" />
<glyph unicode="b" horiz-adv-x="929" d="M39 1284q42 -24 42 -326q0 -54 -1 -116q-3 -133 -3 -243q0 -202 9 -282q12 -111 176 -239q103 -82 188 -82q50 0 95 29q117 76 217 178q96 98 121 260q8 49 7 94q0 104 -40 191q-57 123 -225 153q-24 4 -48 5q-138 0 -266 -154q4 155 4 272q0 281 -20 330q-27 63 -49 71z M317 666q31 45 109 57q14 2 28 2q64 0 121 -45q72 -55 84 -197q2 -20 2 -41q0 -123 -61 -272q-61 -24 -110 -24q-78 0 -125 61q-55 70 -55 280q-1 79 7 179z" />
<glyph unicode="c" horiz-adv-x="786" d="M111 150q61 -78 135 -117q68 -37 162 -37q96 0 194 92t164 188l-33 27q-20 -27 -63 -67q-43 -39 -105 -39q-63 0 -137 49q-185 104 -185 297q0 42 9 88q21 84 99 83q24 0 52 -7q111 -41 150 -166l195 153q-4 88 -66 137q-59 47 -123 64q-20 5 -41 5q-36 0 -76 -15 q-51 -20 -104 -53t-102 -74q-217 -167 -218 -355q1 -122 93 -253z" />
<glyph unicode="d" d="M41 449q-8 -40 -8 -80q0 -118 69 -228q92 -147 201 -151h3q110 0 319 215q0 -143 123 -219l174 147q-91 51 -91 504q0 76 3 164q3 102 3 187q0 425 -75 437l-195 -135q42 -75 42 -352q0 -35 -1 -74q-66 33 -126 33h-11q-59 -2 -139 -57q-90 -61 -170 -142 q-90 -89 -121 -249zM262 694q13 1 25 1q136 0 192 -132l133 115v-60l4 -24v-309l-12 -4q-29 -63 -133 -70h-9q-99 0 -177 131q-49 82 -49 187q-1 78 26 165z" />
<glyph unicode="e" horiz-adv-x="768" d="M27 508q-14 -64 -15 -123q0 -95 37 -178q61 -139 230 -199q40 -14 81 -14q98 0 201 78q145 109 193 207l-29 22q-150 -102 -255 -102q-36 0 -67 12q-120 46 -141 104l217 144q192 120 193 243q0 13 -2 25q-20 137 -178 162q-26 4 -52 4q-126 0 -239 -100 q-137 -121 -174 -285zM186 598q0 70 52 119q28 27 65 27t80 -27q76 -47 76 -118q0 -12 -2 -26q-16 -90 -226 -202q-27 63 -32 98q-13 67 -13 129z" />
<glyph unicode="f" horiz-adv-x="632" d="M18 596l31 -31q59 63 150 70l-6 -416q1 -6 0 -11q0 -67 -132 -177l19 -33h287l159 190l-10 21l-209 -4q79 58 79 276q0 67 -7 150l76 2l163 207l-24 14l-217 4l-39 293v13q0 74 56 74q15 0 34 -5q71 -20 72 -101q0 -30 -11 -69l19 -21l197 211q-25 158 -142 158 q-14 0 -31 -2q-143 -20 -221 -102q-76 -78 -155 -273l28 -215z" />
<glyph unicode="g" horiz-adv-x="968" d="M-35 -84q111 -201 340 -235q78 -12 140 -12q119 0 178 42q89 65 129 129q35 57 73 103q35 41 115 176v15q0 155 -186 175q-178 19 -179 43q0 2 3 4q29 33 141 146q58 58 58 138q0 84 -64 187q185 149 185 268q0 14 -3 27q-25 131 -111 152l-206 -221q102 -51 101 -127 q0 -26 -11 -54q-90 25 -152 26q-44 0 -74 -13q-71 -31 -159.5 -86.5t-159.5 -141.5q-70 -86 -80 -206q21 -234 286 -234h27q-1 -10 -1 -19q0 -69 63 -69q61 0 221 -33q126 -26 126 -97q0 -14 -5 -30q-31 -92 -197 -92q-162 0 -282 78q-93 59 -93 105q0 12 7 24l-23 35z M250 559q-12 37 -12 66q0 70 69 90q11 1 22 0q163 0 226 -137q19 -52 19 -90q0 -92 -117 -95q-152 25 -207 166z" />
<glyph unicode="h" horiz-adv-x="909" d="M43 1270q29 -59 31 -137q-1 -213 -1 -367q0 -601 13 -651q18 -74 72 -135l213 198v25q-10 -2 -19 -3q-51 0 -67 76q-11 53 -11 176q0 81 5 191q114 88 191 88q23 0 44 -8q86 -33 86 -244q-2 -109 -2 -196q0 -125 4 -174q6 -74 86 -125l203 184l2 25q-7 -2 -14 -3 q-40 0 -56 80q-12 58 -11 166q0 59 3 135q1 25 1 49q0 98 -21 158q-29 78 -119 115q-44 17 -84 17q-43 0 -84 -19q-84 -41 -129 -80q-51 -45 -96 -72l-4 543q-12 86 -64 127z" />
<glyph unicode="i" horiz-adv-x="423" d="M14 1143q92 -65 142 -154q164 106 188 139q8 11 9 29q0 26 -19 66q-33 68 -119 94zM31 748l14 -29q13 8 24 8q40 0 40 -111q0 -46 -7 -112q-2 -114 -2 -205q0 -131 4 -182q6 -74 89 -123l198 184l2 27h-4q-52 0 -63 76q-8 51 -9 152q0 51 2 114q3 105 4 176q0 44 -1 70 q-4 61 -56 118z" />
<glyph unicode="j" horiz-adv-x="425" d="M-43 -324l25 -34q289 170 346 286q43 89 43 216q0 30 -2 61q-8 106 -9 224q0 59 2 122q3 103 4 174q0 44 -1 70q-4 59 -58 116l-252 -161l19 -27q14 8 25 8q51 0 51 -148q0 -31 -3 -69l5 -479q-4 -106 -27 -166q-25 -62 -168 -193zM35 1143q89 -65 135 -154 q158 111 178 139q8 11 8 30q0 28 -18 65q-33 68 -113 94z" />
<glyph unicode="k" horiz-adv-x="917" d="M49 1278q29 -55 31 -135q-5 -397 -5 -652q0 -347 9 -391q14 -72 86 -120l233 176l-30 32q-18 -15 -32 -15q-26 0 -34 52q-8 53 -8 237q0 92 2 216q82 69 145 68q8 0 15 -1q63 -8 80 -65q4 -13 3 -25q0 -42 -38 -84q-45 -49 -191 -114v-66q25 30 54 30q64 0 139 -155 q104 -219 199 -280l254 196l-29 27q-18 -13 -38 -13q-66 0 -144 128q-102 166 -175 194q125 63 173 139q26 41 25 83q0 36 -19 71q-43 78 -115 86q-18 2 -36 2q-55 0 -105 -22q-70 -31 -199 -134v555q-12 84 -63 125z" />
<glyph unicode="l" horiz-adv-x="417" d="M29 1237q27 -51 28 -129q-3 -351 -3 -581q0 -383 9 -429q14 -72 95 -118l256 184l-29 33q-13 -3 -25 -3q-48 0 -75 48q-26 44 -26 588q0 187 3 430q-12 80 -61 120z" />
<glyph unicode="m" horiz-adv-x="1474" d="M29 735l22 -33q18 12 32 12q36 0 37 -78q0 -12 -1 -26q-4 -206 -5 -323q0 -142 7 -176q12 -63 96 -117l213 184v25q-10 -2 -19 -3q-51 0 -67 76q-11 53 -11 176q0 81 5 191q101 91 176 91q22 0 41 -7q86 -33 86 -244q-2 -109 -2 -196q0 -127 4 -176q6 -71 86 -123 l209 184l-4 25q-3 -1 -5 -1q-62 0 -63 409v38q101 91 178 91q22 0 41 -7q86 -33 86 -244q-2 -109 -2 -196q0 -127 5 -176q6 -71 86 -123l208 184l-6 25q-8 -2 -14 -3q-38 0 -53 78q-12 58 -12 168q0 59 3 135l2 49q0 98 -22 158q-27 76 -119 113q-44 17 -85 17 q-44 0 -85 -19q-76 -37 -127 -78q-57 -47 -94 -86q0 25 -25 78q-25 51 -114 88q-44 17 -85 17q-43 0 -83 -19q-84 -41 -129 -80q-53 -47 -78 -74q1 13 1 26q0 104 -69 150z" />
<glyph unicode="n" horiz-adv-x="935" d="M29 735l22 -33q18 12 32 12q36 0 37 -78q0 -12 -1 -26q-4 -206 -5 -323q0 -142 7 -176q12 -63 96 -117l213 184v25q-10 -2 -19 -3q-51 0 -67 76q-11 53 -11 176q0 81 5 191q101 91 176 91q22 0 41 -7q86 -33 86 -244q-2 -109 -2 -196q0 -127 4 -176q6 -71 86 -123 l209 184l-4 25q-8 -2 -15 -3q-40 0 -55 78q-12 58 -11 168q0 59 3 135q1 25 1 49q0 98 -21 158q-27 76 -119 113q-44 17 -85 17q-43 0 -83 -19q-84 -41 -129 -80q-53 -47 -78 -74q1 13 1 26q0 104 -69 150z" />
<glyph unicode="o" horiz-adv-x="831" d="M39 342q18 -123 145 -238q129 -117 203 -116q78 0 240 149q70 61 110 121q49 70 70 180q6 31 6 64q0 91 -45 196q-135 210 -337 210q-24 0 -48 -3q-166 -109 -237.5 -192.5t-98.5 -163.5q-16 -48 -16 -111q0 -44 8 -96zM205 629q16 102 109 101q17 0 36 -3 q129 -23 201 -162q55 -108 55 -216q0 -36 -6 -73q-17 -97 -80 -96q-31 0 -74 23q-129 72 -192 188q-53 98 -53 189q0 25 4 49z" />
<glyph unicode="p" horiz-adv-x="909" d="M23 219q41 -41 88 -76q-7 -115 -7 -201q0 -197 35 -255q53 -88 137 -113l185 184l-21 33q-15 -5 -28 -5q-82 0 -83 200q0 33 3 71q37 -10 74 -10q73 0 141 39q101 58 196 178q92 115 121 207q9 30 10 67q0 73 -36 173q-55 154 -281 194l-211 -180q0 8 1 16q0 95 -75 152 l-229 -188l10 -31q11 9 20 9q42 0 42 -204q0 -80 -6 -188zM344 664l88 30q145 -14 207 -184q29 -80 29 -147q0 -73 -35 -127q-27 -42 -80 -43q-77 0 -207 90z" />
<glyph unicode="q" horiz-adv-x="983" d="M49 408q-5 -33 -5 -64q0 -109 69 -192q92 -111 233 -156q172 71 227 147q-4 -91 -4 -167q0 -308 66 -361l366 295l-32 57q-81 -75 -121 -74q-33 0 -35 52l6 739q-15 120 -74 141q86 92 134 150q41 49 61 106q11 29 11 63t-11 70q-23 76 -100 97l-222 -183l7 -16 q97 0 97 -82q0 -58 -48 -156q-65 34 -120 34q-9 0 -17 -1q-63 -6 -131 -39q-71 -34 -142 -92q-70 -57 -131 -137q-57 -75 -84 -231zM246 547q43 193 153 205q10 1 20 1q97 0 159 -110v-424q-27 -23 -59 -22q-16 0 -34 6q-245 131 -245 293q0 25 6 51z" />
<glyph unicode="r" horiz-adv-x="696" d="M29 735l22 -33q18 12 32 12q36 0 37 -78q0 -12 -1 -26q-4 -206 -5 -323q0 -142 7 -176q12 -63 96 -117l213 184v25q-10 -2 -19 -3q-51 0 -67 76q-11 53 -11 176q0 81 5 191q59 53 110 53q61 0 115 -75l180 167q-93 123 -170 123q-18 0 -34 -6q-92 -34 -197 -166 q1 13 1 26q0 104 -69 150z" />
<glyph unicode="s" horiz-adv-x="784" d="M25 268q-4 -12 -5 -25q0 -43 46 -96q61 -72 147 -106q94 -39 184 -45q9 -1 18 -1q85 0 171 56q96 61 139 142q36 68 36 132q0 13 -1 27q-9 80 -62 142q-49 57 -225 108q-174 49 -201 105q-8 16 -7 28q0 33 50 39q12 2 25 2q62 0 143 -39q72 -34 73 -67q0 -12 -9 -23 l12 -14l150 141q-16 68 -88 105q-50 25 -117 25q-29 0 -62 -5q-109 -16 -170 -57q-74 -49 -112 -88q-43 -43 -70 -131q-7 -22 -6 -43q0 -56 49 -101q68 -61 219 -92q156 -31 205 -78q56 -52 56 -92q0 -33 -33 -47q-22 -9 -56 -9q-25 0 -55 5q-72 12 -141 47q-66 33 -117 84 q-27 27 -27 50q0 20 19 40l-23 14z" />
<glyph unicode="t" horiz-adv-x="667" d="M-10 645l30 -27q42 48 148 48h25q-9 -217 -9.5 -346.5t9.5 -172.5q18 -84 118 -153q135 70 328 227l-16 78q-119 -60 -176 -60q-47 0 -52 42q-8 58 -7 185q0 86 3 200h125l131 161l-8 21l-244 2l13 336q-12 88 -60 127l-182 -144q1 0 2 1q38 0 38 -156q0 -69 -7 -170h-66 z" />
<glyph unicode="u" d="M20 729l19 -22q8 6 15 5q27 0 36 -81q8 -65 8 -165q0 -68 -4 -149q-2 -25 -2 -48q0 -91 27 -154q29 -72 123 -109q44 -17 84 -17q43 0 84 19q84 41 129 80q53 47 77 74q-1 -13 -1 -26q0 -102 69 -148l246 178l-25 33q-7 -1 -13 -2q-53 0 -52 94q4 206 4 323q0 142 -6 177 q-10 61 -99 116l-211 -182l11 -18q13 6 23 6q38 0 52 -78q11 -61 11 -184q0 -82 -4 -193q-99 -90 -175 -90q-22 0 -43 8q-88 33 -88 244q2 109 3 196q0 125 -5 175q-6 74 -86 124z" />
<glyph unicode="v" horiz-adv-x="974" d="M-25 688l9 -16q19 15 37 15q38 0 77 -66l299 -558q54 -67 108 -67l64 24q88 66 160 150q76 88 172 242q53 85 53 171q0 72 -36 146q-82 164 -201 203q-17 6 -36 6q-108 0 -245 -203l19 -20q46 35 89 35q66 0 124 -80q90 -125 90 -254v-17q-6 -141 -92 -219h-3 q-88 0 -415 674q-13 37 -40 37q-17 0 -40 -14z" />
<glyph unicode="w" horiz-adv-x="1437" d="M10 688l8 -16q19 15 38 15q38 0 77 -66l299 -564q54 -69 109 -69q33 0 65 24q76 57 189 176l67 -133q54 -69 110 -69q33 0 64 24q84 63 160 152q66 78 170 246q53 86 53 173q0 73 -37 148q-80 164 -200 205q-17 6 -36 6q-108 0 -245 -203l21 -22q46 37 89 36 q64 0 122 -81q93 -131 92 -259v-16q-6 -139 -95 -221h-2q-89 0 -415 680q-13 38 -42 38q-17 0 -38 -13l-193 -191l9 -16q19 15 37 15q38 0 77 -66l203 -377l-76 -60q-2 -4 -6 -4q-51 0 -401 676q-13 38 -42 38q-17 0 -38 -13z" />
<glyph unicode="x" horiz-adv-x="1003" d="M20 715l21 -17q27 20 112 20q21 0 46 -1l176 -264q-264 -174 -273 -269q-1 -12 -1 -23q0 -78 55 -124q50 -42 114 -43q12 0 25 2l164 156l-15 18q-117 6 -151 55q-7 9 -7 21q0 50 136 143l266 -350q55 -48 107 -48q13 0 26 3l152 151l-17 21q-5 -3 -12 -3q-75 0 -348 363 l338 318l-33 53h-221l-174 -172l18 -16q45 18 110 18q29 0 62 -4l-145 -137l-213 307l-170 2z" />
<glyph unicode="y" horiz-adv-x="841" d="M-41 -225q216 -158 368 -159q44 0 83 13q172 57 274 131q96 70 113 265v661q1 15 1 29q0 124 -71 194l-207 -153h3q39 0 39 -77q0 -10 -1 -22l-2 -428l-47 -57q-42 -22 -86 -22q-18 0 -35 4q-59 12 -78 100l2 494q-18 131 -88 157l-184 -135q57 -37 58 -150q0 -6 -1 -12 l-2 -366q12 -120 92 -191q68 -61 169 -60q14 0 28 1q117 10 182 121q7 -88 7 -156q0 -86 -11 -137q-12 -59 -77 -59q-34 0 -82 16q-147 49 -289 180z" />
<glyph unicode="z" horiz-adv-x="786" d="M18 18l39 -18q52 19 139 19q76 0 183 -15q83 -12 141 -11q99 0 129 34q53 59 125 241l-29 17q-37 -46 -188 -47q-112 0 -285 26l478 602l-19 29h-526l-162 -223l12 -23q49 34 315 35q60 0 132 -2q-421 -512 -484 -664z" />
<glyph unicode="{" horiz-adv-x="360" d="M18 549q92 -66 93 -348q0 -299 10 -385q12 -106 92 -172l156 139q-113 74 -90.5 416t-100.5 411q88 49 86 383q-4 352 12 432q18 98 107 174l-29 31q-268 -229 -266 -591.5t-12 -407.5q-17 -49 -58 -82z" />
<glyph unicode="|" horiz-adv-x="352" d="M-18 -381q88 68 77 176v1706q12 113 265 336l28 -33q-86 -111 -86 -194l-2 -1706q-35 -166 -248 -318z" />
<glyph unicode="}" horiz-adv-x="387" d="M18 -326l27 -30q270 231 268 592q-2 362 13 407q16 49 57 82q-94 68 -94 348q0 299 -10 385q-12 106 -93 172l-153 -139q111 -74 88 -416t100 -411q-88 -49 -86 -383q4 -352 -12 -433q-21 -100 -105 -174z" />
<glyph unicode="~" horiz-adv-x="1005" d="M90 999l39 -32l86 71q121 61 293 -26q170 -86 252 14l172 168l-35 31l-72 -68q-100 -53 -276 37q-175 89 -307 -49z" />
<glyph unicode="&#xa1;" horiz-adv-x="358" d="M-43 -127q109 8 109 322l-13 598l221 139q104 -926 -8 -932l-268 -166zM51 979v213l215 117l4 -181z" />
<glyph unicode="&#xa2;" horiz-adv-x="845" d="M152 150q63 -80 133 -117q68 -37 164 -37q94 0 192 92q104 98 166 188l-33 27q-16 -23 -65 -67q-43 -39 -103 -39q-63 0 -137 49q-225 127 -176 385q29 109 151 76q108 -40 148 -166l196 153q-4 88 -65 137q-59 47 -125 64q-55 14 -117 -10q-51 -20 -104 -54 q-45 -29 -101 -73q-357 -276 -124 -608zM158 -395l49 -27q47 123 168 254q90 582 373 1598l-41 -9l-154 -186q-141 -739 -395 -1630z" />
<glyph unicode="&#xa3;" horiz-adv-x="968" d="M20 465l50 149l155 2l6 78l-190 -2l51 150l158 6q27 242 -43 268l135 133q59 -14 82 -96q90 125 151 154q59 29 123 28q58 0 142 -55t96 -147l-168 -199l-31 20q31 106 -82 152q-117 47 -215 -16l-32 -259l200 3l-63 -134l-156 -4l-8 -84h225l-63 -139l-183 6l-28 -243 q227 -35 547 30l18 -39l-162 -233q-518 29 -624 -10l-43 28q77 117 135 455z" />
<glyph unicode="&#xa5;" horiz-adv-x="972" d="M16 1139l27 -29q31 33 80 8l262 -424l4 -473q-8 -162 100 -231l211 153l-10 31q-27 -4 -42 15.5t-19 62.5v512q295 258 313.5 430t-158.5 250l-178 -172q115 -82 117 -211q4 -131 -137 -217l-219 342q-92 147 -136 131zM121 305l8 -14q35 35 633 28l129 162l-21 8 q-29 -35 -612 -26zM121 506l8 -14q35 35 633 28l129 162l-21 8q-29 -35 -612 -26z" />
<glyph unicode="&#xa6;" horiz-adv-x="333" d="M-43 -385q88 70 80 176v901l205 2v-796q-33 -160 -250 -316zM39 860v637q12 115 262 336l29 -35q-86 -111 -86 -192v-746h-205z" />
<glyph unicode="&#xa8;" horiz-adv-x="708" d="M66 1159q109 -18 114 -160l189 150q6 129 -121 176zM383 1155q109 -18 115 -160l186 150q6 131 -121 178z" />
<glyph unicode="&#xa9;" horiz-adv-x="731" d="M63 1069q0 86 43 166q41 78 123 121q80 43 162 43t162 -43q82 -43 123 -121q43 -80 43 -166q0 -82 -43 -162t-121 -123q-76 -43 -164 -43t-164 43q-78 43 -121 123t-43 162zM117 1069q0 -71 37 -135q37 -66 102 -103q61 -35 135 -34.5t135 34.5q66 37 103 103 q37 65 37 135q0 74 -37 137q-37 66 -103 103q-61 35 -135 34.5t-135 -34.5q-66 -37 -102 -103q-37 -63 -37 -137zM250 952q31 -39 57 -51q29 -14 72 -14t84 39t72 82l-15 12q-16 -20 -28 -31q-20 -16 -46 -16q-31 0 -59 20q-98 55 -78 168q12 47 68 33q45 -18 63 -72l86 68 q0 37 -28 59q-27 20 -54 27q-25 6 -51 -4q-23 -8 -47 -23q-14 -8 -43 -32q-155 -120 -53 -265z" />
<glyph unicode="&#xaa;" horiz-adv-x="792" d="M51 993q-8 -96 68 -170q74 -72 149.5 -67.5t126.5 37.5q41 27 103 98q18 -111 127 -133l135 155l-8 21q-61 -14 -80 76v286q-10 111 -76 154q-61 39 -182 45q-113 6 -234 -78q-119 -82 -51 -223l172 106q-78 123 68 127q72 2 102.5 -49t22.5 -153l-250 -4zM180 1063 l29 29h283v-146q-27 -37 -130 -33q-100 3 -182 150z" />
<glyph unicode="&#xad;" horiz-adv-x="874" d="M55 565l11 -14q35 35 632 29l129 161l-20 9q-29 -35 -612 -27z" />
<glyph unicode="&#x2212;" horiz-adv-x="874" d="M55 565l11 -14q35 35 632 29l129 161l-20 9q-29 -35 -612 -27z" />
<glyph unicode="&#xae;" horiz-adv-x="708" d="M33 1069q0 86 43 164q41 74 123 119q76 43 157 43q83 0 160 -43q80 -45 121 -119q45 -80 45 -164q0 -83 -43 -160q-43 -78 -121 -121q-76 -43 -162 -43q-83 0 -159 43q-78 43 -121 121q-43 77 -43 160zM86 1069q0 -70 37 -133.5t100 -99.5q61 -35 133 -35q74 0 136 35 q63 37 100 100q35 61 35 133q0 74 -35 135q-39 68 -103 101q-66 35 -133 34.5t-133 -34.5q-61 -33 -100 -101q-37 -64 -37 -135zM217 1233v-8q18 -6 21 -33v-252q4 -33 18 -47q16 -16 25 -16q59 41 63 41l-6 12q-29 0 -29 22v111q53 16 103 -152q20 -37 53 -37l55 54l-4 12 q-18 -10 -33.5 7.5t-30 62.5t-34 68.5t-45.5 21.5q63 18 78 55q16 45 4 80q-14 39 -65.5 47t-80.5 -47q-6 34 -30 49zM309 1085v125q27 27 60 11q34 -15 24.5 -55.5t-37.5 -55.5z" />
<glyph unicode="&#xaf;" horiz-adv-x="1325" d="M-2 1556l10 -14q35 35 1143 23l129 161l-23 9q-29 -35 -1120 -21z" />
<glyph unicode="&#xb0;" horiz-adv-x="618" d="M45 1235q-16 -111 78 -201t162 -96q72 -6 123 33q59 45 122 137q68 98 55.5 184t-85.5 148q-72 59 -131 69q-61 10 -97 -4q-33 -12 -125 -88q-86 -71 -102 -182zM162 1305q12 63 73.5 83.5t137.5 -45.5q74 -65 86 -141q12 -78 -23 -112q-33 -33 -102 -27q-66 6 -125 92 q-59 89 -47 150z" />
<glyph unicode="&#xb1;" horiz-adv-x="909" d="M53 242l10 -15q35 35 631 29l129 162l-20 8q-29 -35 -610 -27zM90 768l279 2v-344l172 172v172h164l143 180h-311v316l-160 -148v-172h-160z" />
<glyph unicode="&#xb2;" horiz-adv-x="487" d="M14 1149q6 -63 52 -107l147 132l-12 12q-39 -18 -58 31q-16 45 0 77q14 29 62 25q43 -2 94 -117q49 -111 -6 -172l-260 -272l16 -19h350l84 146l-18 6l-29 -39l-256 2q199 201 246 297q49 96 -22.5 174t-174.5 47q-111 -33 -163 -92q-58 -63 -52 -131z" />
<glyph unicode="&#xb3;" horiz-adv-x="436" d="M2 1233l14 -16q47 49 90 36l183 2l-203 -254l14 -22q78 92 162 -4t-4 -215l-143 -164l18 -14q205 201 252 272.5t45 157.5q-2 82 -178 147l156 207l-9 14h-274z" />
<glyph unicode="&#xb4;" horiz-adv-x="409" d="M33 1001l33 -47l258 158q98 82 32 234l-229 -154q107 -89 -94 -191z" />
<glyph unicode="&#xb6;" horiz-adv-x="1361" d="M10 1090q-8 -123 70 -220q80 -98 213 -110q131 -12 262 114q-37 -1212 86 -1288l174 148q-106 59 -45 1515h186l-2 -1636l64 65l8 1571l129 2l197 176l-29 31l-655 -2q-162 4 -267 0q-59 -2 -151 -35q-88 -31 -160 -120.5t-80 -210.5z" />
<glyph unicode="&#xb7;" horiz-adv-x="464" d="M78 709q109 -18 115 -160l188 147q6 131 -121 178z" />
<glyph unicode="&#xb8;" horiz-adv-x="233" d="M31 -129l6 -8q23 41 65.5 34.5t57 -33t14.5 -57.5q0 -33 -20 -61l-64 -80l10 -8q92 113 105 133q14 27 18 64q4 39 -16 63q-25 33 -45 37q-25 6 -43 6q-16 0 -45 -16l14 61l-20 4z" />
<glyph unicode="&#xb9;" horiz-adv-x="370" d="M14 752l11 -15h211l124 84l-14 17q-127 0 -188 -2q98 43 108 110v424l-10 14l-225 -165l14 -25l80 45v-285q8 -98 -111 -202z" />
<glyph unicode="&#xba;" horiz-adv-x="626" d="M31 1030q16 -96 106 -184t150 -88q57 0 178 114q43 39 82 93q39 51 53 139q16 94 -29 201q-109 180 -286 157q-129 -86 -176 -145q-49 -61 -72 -127q-21 -65 -6 -160zM154 1251q12 92 118 86q109 -6 164 -116q55 -113 25 -234q-31 -119 -142 -78q-106 39 -143 146 q-34 100 -22 196z" />
<glyph unicode="&#xbc;" horiz-adv-x="983" d="M25 1194l18 -16l43 32q12 -55 6 -290q-6 -238 53 -281q49 49 105 84q-41 63 -33 614l-20 11zM45 -168l64 -12q53 113 202 243q96 506 426 1418l-53 -15l-186 -186q-152 -631 -453 -1448zM420 117l18 -23q31 16 236 23q-12 -150 45 -193l119 72q-49 37 -47 125h116l64 84 l-10 18l-168 -2q20 137 -29 213l-107 -69q33 -76 15 -144l-166 4q221 317 206.5 399.5t-53.5 86.5l-114 -103q70 -38 -125 -491z" />
<glyph unicode="&#xbd;" horiz-adv-x="954" d="M25 1184l18 -17l43 33q12 -55 6 -290.5t53 -278.5q43 43 105 82q-41 63 -33 614l-20 10zM45 -168l64 -12q53 113 202 243q96 506 426 1418l-53 -15l-186 -186q-152 -631 -453 -1448zM471 25l25 -27q37 12 211 0q170 -12 186 18q18 35 43 138l-12 8q-33 -51 -146 -39 q-104 10 -168 4l252 334q45 61 10 149q-37 94 -143 96.5t-170 -61.5q-61 -61 -72 -143q-8 -74 39 -135l105 98q-55 66 -43 121t67 43q51 -12 105 -74q51 -59 8 -149l-55 -72z" />
<glyph unicode="&#xbe;" horiz-adv-x="1224" d="M47 768q61 -98 145 -122.5t138 18.5q51 43 119 131q66 86 53 209q-16 70 -66 102q-45 45 -94 41l129 170l-10 18l-336 2l-72 -106l8 -14h279l-135 -156l16 -21q61 18 102.5 -14.5t78 -114.5t-26.5 -135q-61 -53 -119 -20q-53 31 -111 88q-53 53 5 133l-17 12 q-149 -121 -86 -221zM256 -168l61 -12q53 113 203 243q96 506 426 1418l-51 -15l-188 -186q-156 -647 -451 -1448zM649 121l21 -23q37 23 231 25q-12 -147 45 -191l115 68q-49 37 -45 127h114l64 84l-10 16l-164 -2q18 137 -33 213l-102 -71q33 -80 14 -142l-166 4 q221 317 207 398q-16 80 -53 84l-115 -103q67 -36 -123 -487z" />
<glyph unicode="&#xbf;" horiz-adv-x="884" d="M27 178q-20 100 20 205q41 102 272 213v256l236 160l4 -328q-313 -211 -321 -319q-8 -111 77 -179q88 -70 197 0l137 187l8 14l238 -172l-152 -211l-178 119q-66 -84 -184 -133q-120 -49 -227 18q-107 66 -127 170zM315 991l2 269l238 133v-246z" />
<glyph unicode="&#xc0;" horiz-adv-x="1171" d="M23 43l14 -45l323 2l146 188l-17 19h-245q72 37 145 205l199 2l98 106q133 -375 193 -446q61 -74 125 -88l155 182q-119 29 -287 561q-168 535 -200 576q-31 39 -84 38q-49 0 -82 -22q-20 -14 -213 -258l41 -33q61 76 100 100q20 12 33.5 -3t24.5 -58l-152 -440h-92 l-205 -203l18 -31q109 23 183 17q-47 -129 -94 -217q-41 -74 -127 -152zM389 1667q181 -197 270 -184l138 153q-126 -22 -289 154zM459 621l98 286l98 -286h-196z" />
<glyph unicode="&#xc1;" horiz-adv-x="1173" d="M23 43l14 -45l323 2l146 188l-17 19h-245q72 37 145 205l199 2l98 106q133 -375 193 -446q61 -74 125 -88l155 182q-119 29 -287 561q-168 535 -200 576q-31 39 -84 38q-49 0 -82 -22q-20 -14 -213 -258l41 -33q61 76 100 100q20 12 33.5 -3t24.5 -58l-152 -440h-92 l-205 -203l18 -31q109 23 183 17q-47 -129 -94 -217q-41 -74 -127 -152zM420 1432l41 -41l225 200q82 100 -8 236l-201 -193q121 -67 -57 -202zM459 621l98 286l98 -286h-196z" />
<glyph unicode="&#xc2;" horiz-adv-x="1173" d="M23 43l14 -45l323 2l146 188l-17 19h-245q72 37 145 205l199 2l98 106q133 -375 193 -446q61 -74 125 -88l155 182q-119 29 -287 561q-168 535 -200 576q-31 39 -84 38q-49 0 -82 -22q-20 -14 -213 -258l41 -33q61 76 100 100q20 12 33.5 -3t24.5 -58l-152 -440h-92 l-205 -203l18 -31q109 23 183 17q-47 -129 -94 -217q-41 -74 -127 -152zM350 1579l271 240q77 -160 208 -179l-110 -133q-141 6 -184 154l-150 -121zM459 621l98 286l98 -286h-196z" />
<glyph unicode="&#xc3;" horiz-adv-x="1181" d="M23 43l14 -45l323 2l146 188l-17 19h-245q72 37 145 205l199 2l98 106q133 -375 193 -446q61 -74 125 -88l155 182q-119 29 -287 561q-168 535 -200 576q-31 39 -84 38q-49 0 -82 -22q-20 -14 -213 -258l41 -33q61 76 100 100q20 12 33.5 -3t24.5 -58l-152 -440h-92 l-205 -203l18 -31q109 23 183 17q-47 -129 -94 -217q-41 -74 -127 -152zM303 1538l27 -31l53 72q76 59 180 -27q106 -86 158 15l106 166l-20 32l-45 -67q-63 -55 -172 35t-193 -50zM459 621l98 286l98 -286h-196z" />
<glyph unicode="&#xc4;" horiz-adv-x="1187" d="M23 43l14 -45l323 2l146 188l-17 19h-245q72 37 145 205l199 2l98 106q133 -375 193 -446q61 -74 125 -88l155 182q-119 29 -287 561q-168 535 -200 576q-31 39 -84 38q-49 0 -82 -22q-20 -14 -213 -258l41 -33q61 76 100 100q20 12 33.5 -3t24.5 -58l-152 -440h-92 l-205 -203l18 -31q109 23 183 17q-47 -129 -94 -217q-41 -74 -127 -152zM246 1563q109 -18 114 -160l189 149q6 131 -121 179zM459 621l98 286l98 -286h-196zM623 1559q109 -18 114 -160l187 149q6 133 -119 178z" />
<glyph unicode="&#xc5;" horiz-adv-x="1169" d="M23 43l14 -45l323 2l146 188l-17 19h-245q72 37 145 205l199 2l98 106q133 -375 193 -446q61 -74 125 -88l155 182q-119 29 -287 561q-168 535 -200 576q-31 39 -84 38q-49 0 -82 -22q-20 -14 -213 -258l41 -33q61 76 100 100q20 12 33.5 -3t24.5 -58l-152 -440h-92 l-205 -203l18 -31q109 23 183 17q-47 -129 -94 -217q-41 -74 -127 -152zM365 1565q135 -25 141 -199l231 184q6 162 -147 219zM457 1579l135 125q94 -35 88 -131l-139 -111q-2 101 -84 117zM459 621l98 286l98 -286h-196z" />
<glyph unicode="&#xc6;" horiz-adv-x="1835" d="M33 43l14 -45l324 2l143 188l-14 19h-246q72 37 145 205l199 2l98 106q131 -371 250 -454q115 -82 234 -76l161 4q391 205 447 409q55 203 -131 320l-184 -236q150 -115 120 -204q-27 -86 -161 -78q-137 10 -263 135q-129 129 -43 313q59 -23 138 -30l196 208l-18 23 q-229 0 -287 57q-58 58 -49 154q8 94 106 113q96 18 182.5 -25t73.5 -117l23 -14l170 182q-16 41 -76 86q-61 47 -139 49q-82 4 -143 -14q-66 -18 -164 -90q-100 -72 -174 -221q-74 -147 106 -328q-86 -66 -115 -137q-242 713 -274 756q-31 39 -84 38q-49 0 -82 -22 q-25 -18 -215 -258l43 -33q61 76 100 100q20 12 34 -3t24 -58l-154 -440h-92l-203 -203l19 -31q109 23 182 17q-47 -129 -94 -217q-41 -74 -127 -152zM469 621l98 286l99 -286h-197z" />
<glyph unicode="&#xc7;" horiz-adv-x="909" d="M37 717q-27 -186 22 -324q51 -141 135.5 -237.5t215.5 -141.5q121 -41 245 6q117 45 250 222l-43 41q-139 -152 -344 -33q-207 119 -272 358q-66 238 0 398q63 158 214.5 161.5t196.5 -69.5q45 -72 11 -123l30 -17l181 152q23 61 -43 141q-68 83 -215 86q-147 4 -250 -55 q-109 -63 -205 -217q-102 -164 -129 -348zM453 -145l8 -11q25 47 71 41q43 -6 62 -37q16 -27 16 -65q0 -35 -22 -70l-70 -92l10 -10q104 129 117 153q18 39 21 74q2 39 -19 72q-18 29 -49 41q-16 6 -47 6q-23 0 -51 -18l12 57l-25 2z" />
<glyph unicode="&#xc8;" d="M41 289q58 -230 430 -295q391 205 447 409q55 203 -132 320l-184 -236q150 -115 121 -204q-27 -86 -162 -78q-137 10 -262 135q-129 129 -43 313q59 -23 137 -30l197 208l-19 23q-229 0 -286 57q-58 58 -49 154q8 94 106 113q96 18 182 -25t74 -117l23 -14l170 182 q-16 41 -76 86q-61 47 -140 49q-82 4 -143 -14q-66 -18 -164 -90q-96 -70 -172 -221q-74 -150 105 -328q-209 -178 -160 -397zM342 1569q182 -199 270 -187l138 154q-126 -22 -289 154z" />
<glyph unicode="&#xc9;" horiz-adv-x="942" d="M41 289q58 -230 430 -295q391 205 447 409q55 203 -132 320l-184 -236q150 -115 121 -204q-27 -86 -162 -78q-137 10 -262 135q-129 129 -43 313q59 -23 137 -30l197 208l-19 23q-229 0 -286 57q-58 58 -49 154q8 94 106 113q96 18 182 -25t74 -117l23 -14l170 182 q-16 41 -76 86q-61 47 -140 49q-82 4 -143 -14q-66 -18 -164 -90q-96 -70 -172 -221q-74 -150 105 -328q-209 -178 -160 -397zM330 1372l32 -49l259 160q98 82 32 233l-229 -155q105 -87 -94 -189z" />
<glyph unicode="&#xca;" horiz-adv-x="950" d="M41 289q58 -230 430 -295q391 205 447 409q55 203 -132 320l-184 -236q150 -115 121 -204q-27 -86 -162 -78q-137 10 -262 135q-129 129 -43 313q59 -23 137 -30l197 208l-19 23q-229 0 -286 57q-58 58 -49 154q8 94 106 113q96 18 182 -25t74 -117l23 -14l170 182 q-16 41 -76 86q-61 47 -140 49q-82 4 -143 -14q-66 -18 -164 -90q-96 -70 -172 -221q-74 -150 105 -328q-209 -178 -160 -397zM281 1458l270 240q77 -160 209 -178l-113 -131q-139 6 -182 151l-150 -121z" />
<glyph unicode="&#xcb;" horiz-adv-x="948" d="M41 289q58 -230 430 -295q391 205 447 409q55 203 -132 320l-184 -236q150 -115 121 -204q-27 -86 -162 -78q-137 10 -262 135q-129 129 -43 313q59 -23 137 -30l197 208l-19 23q-229 0 -286 57q-58 58 -49 154q8 94 106 113q96 18 182 -25t74 -117l23 -14l170 182 q-16 41 -76 86q-61 47 -140 49q-82 4 -143 -14q-66 -18 -164 -90q-96 -70 -172 -221q-74 -150 105 -328q-209 -178 -160 -397zM199 1509q109 -18 114 -159l189 147q6 131 -121 178zM514 1505q111 -18 117 -159l186 147q6 131 -121 178z" />
<glyph unicode="&#xcc;" horiz-adv-x="436" d="M25 1538q182 -199 270 -186l137 153q-127 -23 -291 154zM27 1174l14 -29q51 18 57 -70q-12 -903 6.5 -972.5t102.5 -112.5l213 168l-33 30q-35 -2 -57 54q-20 53 -8 979q-15 80 -68 116z" />
<glyph unicode="&#xcd;" horiz-adv-x="452" d="M20 1372l31 -49l260 160q98 82 33 233l-231 -155q104 -87 -93 -189zM27 1174l14 -29q51 18 57 -70q-12 -903 6.5 -972.5t102.5 -112.5l213 168l-33 30q-35 -2 -57 54q-20 53 -8 979q-15 80 -68 116z" />
<glyph unicode="&#xce;" horiz-adv-x="434" d="M-14 1479l270 239q77 -160 209 -178l-113 -131q-139 6 -182 152l-150 -121zM27 1174l14 -29q51 18 57 -70q-12 -903 6.5 -972.5t102.5 -112.5l213 168l-33 30q-35 -2 -57 54q-20 53 -8 979q-15 80 -68 116z" />
<glyph unicode="&#xcf;" horiz-adv-x="438" d="M-88 1509q109 -18 115 -159l186 147q6 131 -121 178zM27 1174l14 -29q51 18 57 -70q-12 -903 6.5 -972.5t102.5 -112.5l213 168l-33 30q-35 -2 -57 54q-20 53 -8 979q-15 80 -68 116zM227 1505q109 -18 115 -159l186 147q6 133 -118 178z" />
<glyph unicode="&#xd0;" horiz-adv-x="1007" d="M-127 549l102 139l168 -2l-2 336q-25 121 -102 98l-16 35l225 184q115 -72 131 -217l203 219q147 -23 225 -112q187 -212 190 -436v-25q0 -209 -57 -326q-66 -135 -131 -223q-76 -100 -145 -166q-63 -57 -168 -57q-35 0 -52 2q-143 16 -223 117q-82 104 -82 272l4 168 q-236 8 -262 -18zM371 555l4 -123q14 -184 125 -242q113 -59 211 11q106 231 69 481q-37 244 -131 342q-92 94 -151 88q-57 -6 -119 -82l-6 -342q233 -6 254 21l14 -7l-94 -143z" />
<glyph unicode="&#xd1;" horiz-adv-x="1069" d="M18 1049l25 -48q67 54 72 -72q1 -26 0 -59q-10 -623 4 -706q16 -98 104 -166l228 209v33q-35 -10 -58.5 23.5t-32.5 109.5q-18 160 -10 487l375 -577q0 -59 8 -133q10 -84 82 -154l219 221l-6 33q-29 -10 -46 21.5t-26 107.5q-16 158 -4 450v134l2 192q0 92 -63 158 l-248 -246l16 -45q35 18 51.5 -3.5t12.5 -82.5v-406l-375 594q18 102 -63 176zM315 1389l27 -31l51 69q78 61 182 -24q106 -86 158 14l107 166l-23 33l-43 -68q-63 -55 -171.5 35t-192.5 -49z" />
<glyph unicode="&#xd2;" horiz-adv-x="950" d="M29 498q23 -180 168 -344q147 -166 235 -166q89 0 277 215q74 82 127 172q57 96 82 260q25 172 -46 375q-176 336 -444 297q-195 -158 -274 -275q-78 -113 -113 -237q-32 -119 -12 -297zM223 909q20 170 184 162t255 -219q88 -207 38 -432q-49 -223 -217 -150 q-170 74 -225 272.5t-35 366.5zM313 1569q182 -199 271 -187l137 154q-127 -23 -291 154z" />
<glyph unicode="&#xd3;" horiz-adv-x="956" d="M29 498q23 -180 168 -344q147 -166 235 -166q89 0 277 215q74 82 127 172q57 96 82 260q25 172 -46 375q-176 336 -444 297q-195 -158 -274 -275q-78 -113 -113 -237q-32 -119 -12 -297zM223 909q20 170 184 162t255 -219q88 -207 38 -432q-49 -223 -217 -150 q-170 74 -225 272.5t-35 366.5zM285 1352l30 -47l260 157q98 82 33 234l-231 -156q105 -86 -92 -188z" />
<glyph unicode="&#xd4;" horiz-adv-x="954" d="M29 498q23 -180 168 -344q147 -166 235 -166q89 0 277 215q74 82 127 172q57 96 82 260q25 172 -46 375q-176 336 -444 297q-195 -158 -274 -275q-78 -113 -113 -237q-32 -119 -12 -297zM223 909q20 170 184 162t255 -219q88 -207 38 -432q-49 -223 -217 -150 q-170 74 -225 272.5t-35 366.5zM270 1450l271 238q77 -160 209 -179l-111 -131q-141 6 -184 154l-150 -123z" />
<glyph unicode="&#xd5;" d="M29 498q23 -180 168 -344q147 -166 235 -166q89 0 277 215q74 82 127 172q57 96 82 260q25 172 -46 375q-176 336 -444 297q-195 -158 -274 -275q-78 -113 -113 -237q-32 -119 -12 -297zM219 1419l27 -33l53 72q76 59 180.5 -26.5t157.5 16.5l106 166l-20 31l-45 -66 q-63 -55 -172 35t-193 -49zM223 909q20 170 184 162t255 -219q88 -207 38 -432q-49 -223 -217 -150q-170 74 -225 272.5t-35 366.5z" />
<glyph unicode="&#xd6;" horiz-adv-x="956" d="M29 498q23 -180 168 -344q147 -166 235 -166q89 0 277 215q74 82 127 172q57 96 82 260q25 172 -46 375q-176 336 -444 297q-195 -158 -274 -275q-78 -113 -113 -237q-32 -119 -12 -297zM137 1499q109 -18 115 -160l186 150q6 131 -119 176zM223 909q20 170 184 162 t255 -219q88 -207 38 -432q-49 -223 -217 -150q-170 74 -225 272.5t-35 366.5zM512 1495q111 -18 117 -160l186 150q6 131 -121 178z" />
<glyph unicode="&#xd7;" horiz-adv-x="778" d="M53 362l39 -40l264 251l254 -264l129 127l-252 260l256 256l-41 41l-258 -256l-241 264l-142 -124l250 -252z" />
<glyph unicode="&#xd8;" horiz-adv-x="962" d="M-68 -94q561 737 955 1362l223 137l45 -2q-630 -836 -922 -1340q-169 -92 -258 -190zM39 631q0 96 20 164q31 117 113 237q80 117 274 275q37 4 56 4q231 0 389 -301q51 -147 51 -281q0 -45 -6 -92q-25 -166 -82 -262q-49 -82 -129 -172q-188 -213 -274 -213 q-90 0 -235.5 163.5t-168.5 344.5q-8 63 -8 133zM240 909q-20 -164 36 -366q55 -199 224 -273q170 -74 219 150q49 225 -39 432q-90 211 -254 219q-166 8 -186 -162z" />
<glyph unicode="&#xd9;" horiz-adv-x="993" d="M14 1161l4 -33q74 18 84 -41l4 -606q-8 -184 23 -301q31 -111 123 -166q90 -53 176 2q82 51 139 117q53 59 82 107q-8 -178 76 -256l256 184l-25 47q-77 -62 -78 187q0 13 1 26q10 643 -5 729q-16 98 -90 168l-221 -164v-35q72 23 84 -34q27 -299 8 -713 q-139 -170 -235 -121q-94 49 -94 354q6 408 -2 541q-6 104 -95 182zM281 1559q182 -199 270 -187l137 154q-127 -23 -291 153z" />
<glyph unicode="&#xda;" horiz-adv-x="1013" d="M43 1161l6 -33q74 18 84 -41l4 -606q-8 -184 23 -301q31 -111 121 -166q90 -53 176 2q82 51 139 117q59 68 84 107q-10 -178 74 -256l258 184l-27 47q-54 -43 -69 68q-8 54 -7 145q10 643 -4 729q-14 96 -92 168l-219 -164v-35q72 23 84 -34q25 -283 6 -713 q-139 -170 -233 -121q-96 49 -97 354q6 436 0 540.5t-94 182.5zM383 1372l31 -49l260 160q98 82 33 233l-232 -155q105 -87 -92 -189z" />
<glyph unicode="&#xdb;" horiz-adv-x="983" d="M14 1161l4 -33q74 18 84 -41l4 -606q-8 -184 23 -301q31 -111 123 -166q90 -53 176 2q82 51 139 117q53 59 82 107q-8 -178 76 -256l256 184l-25 47q-77 -62 -78 187q0 13 1 26q10 643 -5 729q-16 98 -90 168l-221 -164v-35q72 23 84 -34q27 -299 8 -713 q-139 -170 -235 -121q-94 49 -94 354q6 408 -2 541q-6 104 -95 182zM283 1430l270 237q76 -158 209 -176l-113 -133q-139 6 -182 153l-150 -120z" />
<glyph unicode="&#xdc;" horiz-adv-x="980" d="M43 1161l6 -33q74 18 84 -41l4 -606q-8 -184 23 -301q31 -111 121 -166q90 -53 176 2q82 51 139 117q59 68 84 107q-10 -178 74 -256l258 184l-27 47q-54 -43 -69 68q-8 54 -7 145q10 643 -4 729q-14 96 -92 168l-219 -164v-35q72 23 84 -34q25 -283 6 -713 q-139 -170 -233 -121q-96 49 -97 354q6 436 0 540.5t-94 182.5zM143 1524q109 -18 115 -160l186 149q6 133 -118 179zM518 1520q111 -18 117 -160l186 149q6 131 -121 179z" />
<glyph unicode="&#xdd;" horiz-adv-x="952" d="M-2 1139l25 -29q31 33 79 8l263 -424l4 -473q-8 -162 100 -231l213 153l-10 31q-27 -4 -43.5 15.5t-20.5 62.5v512q295 258 313.5 430t-157.5 250l-176 -172q111 -80 115 -211t-138 -217l-219 342q-92 147 -135 131zM299 1362l33 -47l260 158q98 82 33 233l-232 -156 q105 -86 -94 -188z" />
<glyph unicode="&#xde;" horiz-adv-x="1050" d="M27 1358l12 -43q79 32 63 -420l-10 -885q16 -180 96 -227l199 184l2 27q-86 -31 -82 117l2 145q66 -78 211 -59q154 18 273 102q125 88 176 205q53 121 41 297q-12 178 -140 282q-125 104 -237 105q-100 0 -172 -10q-63 -8 -137 -56l4 205l-21 84q-29 84 -96 109z M319 977q41 98 125 98q88 0 197 -98t104 -324q-2 -223 -73 -297t-197 -55q-125 18 -153 145q-28 123 -3 531z" />
<glyph unicode="&#xdf;" horiz-adv-x="954" d="M6 784h156v-626q2 -63 -33 -94t-106 -31l20 -33h254q72 -2 88 70l2 1079q31 72 113 49q78 -20 100 -149q20 -125 -65 -203l-117 -4v-60q49 2 114 -26q61 -29 119 -127q57 -100 2 -430q-55 -328 -319 -568l24 -26q336 246 453 407q111 154 123 352.5t-66 319.5 q-78 119 -272 147q201 90 207 263q6 170 -105 221q-106 49 -188 14q-84 -35 -143 -98q-29 84 -97 108l-184 -161l12 -43q29 10 44.5 -21t19.5 -104v-162h-113z" />
<glyph unicode="&#xe0;" horiz-adv-x="946" d="M12 287q-10 -123 88 -209q96 -86 193 -82q94 2 164 47q76 49 135 119q25 -139 162 -164l178 192l-12 23q-82 -18 -105 94l2 355q-12 135 -98 186q-88 51 -236 57q-150 6 -303 -96q-156 -104 -65 -274l223 131q-100 154 84 155q92 2 132 -60.5t30 -189.5l-324 -4zM178 373 l37 35l369 2v-181q-37 -47 -168 -41q-129 7 -238 185zM244 1219q182 -199 270 -187l137 154q-127 -23 -291 153z" />
<glyph unicode="&#xe1;" horiz-adv-x="952" d="M33 287q-10 -125 86 -209q96 -86 194 -82q94 2 164 47q72 45 133 119q25 -139 164 -164l176 192l-12 23q-80 -18 -102 94l2 355q-12 135 -100.5 186t-233.5 57q-150 6 -303 -96q-158 -104 -68 -274l223 131q-100 152 86 155q92 2 132 -60.5t30 -189.5l-323 -4zM199 373 l37 35l366 2v-181q-37 -47 -165.5 -40.5t-237.5 184.5zM274 1001l31 -47l260 158q98 82 33 234l-231 -154q106 -89 -93 -191z" />
<glyph unicode="&#xe2;" horiz-adv-x="933" d="M12 287q-10 -123 88 -209q96 -86 193 -82q94 2 164 47q76 49 135 119q25 -139 162 -164l178 192l-12 23q-82 -18 -105 94l2 355q-12 135 -98 186q-88 51 -236 57q-150 6 -303 -96q-156 -104 -65 -274l223 131q-100 154 84 155q92 2 132 -60.5t30 -189.5l-324 -4zM178 373 l37 35l369 2v-181q-37 -47 -168 -41q-129 7 -238 185zM244 1090l270 237q76 -158 209 -176l-111 -133q-141 6 -184 153l-149 -120z" />
<glyph unicode="&#xe3;" horiz-adv-x="948" d="M12 287q-10 -123 88 -209q96 -86 193 -82q94 2 164 47q76 49 135 119q25 -139 162 -164l178 192l-12 23q-82 -18 -105 94l2 355q-12 135 -98 186q-88 51 -236 57q-150 6 -303 -96q-156 -104 -65 -274l223 131q-100 154 84 155q92 2 132 -60.5t30 -189.5l-324 -4zM178 373 l37 35l369 2v-181q-37 -47 -168 -41q-129 7 -238 185zM217 1010l27 -33l53 72q76 59 180 -27q106 -86 158 14l106 166l-20 33l-45 -68q-63 -55 -172 35t-193 -49z" />
<glyph unicode="&#xe4;" horiz-adv-x="944" d="M12 287q-10 -123 88 -209q96 -86 193 -82q94 2 164 47q76 49 135 119q25 -139 162 -164l178 192l-12 23q-82 -18 -105 94l2 355q-12 135 -98 186q-88 51 -236 57q-150 6 -303 -96q-156 -104 -65 -274l223 131q-100 154 84 155q92 2 132 -60.5t30 -189.5l-324 -4z M135 1159q111 -18 117 -160l186 150q6 129 -121 176zM178 373l37 35l369 2v-181q-37 -47 -168 -41q-129 7 -238 185zM453 1155q109 -18 114 -160l187 150q6 133 -119 178z" />
<glyph unicode="&#xe5;" horiz-adv-x="944" d="M12 287q-10 -123 88 -209q96 -86 193 -82q94 2 164 47q76 49 135 119q25 -139 162 -164l178 192l-12 23q-82 -18 -105 94l2 355q-12 135 -98 186q-88 51 -236 57q-150 6 -303 -96q-156 -104 -65 -274l223 131q-100 154 84 155q92 2 132 -60.5t30 -189.5l-324 -4zM178 373 l37 35l369 2v-181q-37 -47 -168 -41q-129 7 -238 185zM281 1147q135 -25 141 -199l231 185q6 162 -147 219zM373 1161l135 123q94 -35 88 -131l-139 -109q-2 101 -84 117z" />
<glyph unicode="&#xe6;" horiz-adv-x="1431" d="M33 287q-10 -125 86 -209q96 -86 194 -82q94 2 164 47q72 45 133 119q63 -137 230 -166q231 -29 379 78q145 104 194 205l-29 22q-201 -137 -321 -90q-120 46 -141 104l217 144q211 131 194 272q-14 139 -186 174q-170 35 -324 -135q4 25 -86 78q-88 51 -233 57 q-150 6 -303 -96q-158 -104 -68 -274l223 131q-100 152 86 155q92 2 132 -60.5t30 -189.5l-323 -4zM199 373l37 35l366 2v-181q-37 -47 -165.5 -40.5t-237.5 184.5zM827 590q-4 76 52 127q57 53 143 0q90 -57 76 -144q-16 -90 -226 -202q-27 63 -32 98q-11 49 -13 121z" />
<glyph unicode="&#xe7;" horiz-adv-x="776" d="M111 150q61 -78 135 -117q68 -37 162 -37q96 0 194 92t164 188l-33 27q-20 -27 -63 -67q-43 -39 -105 -39q-63 0 -137 49q-225 127 -176 385q29 109 151 76q111 -41 150 -166l195 153q-4 88 -66 137q-59 47 -123 64q-55 14 -117 -10q-51 -20 -104 -53t-102 -74 q-358 -276 -125 -608zM354 -152l6 -10q25 47 72 41q43 -6 64 -39q16 -27 16 -63.5t-23 -71.5l-69 -90l10 -10q100 123 115 153q18 39 20 72q2 39 -18 72q-20 31 -47 41q-23 8 -47 8q-23 0 -52 -19l17 66h-27z" />
<glyph unicode="&#xe8;" horiz-adv-x="765" d="M37 508q-37 -166 22 -301q61 -139 230 -199q135 -47 282 64q145 109 193 207l-31 22q-201 -137 -321 -90q-117 45 -140 104l217 144q211 131 190.5 268t-177.5 162q-156 25 -291 -96q-137 -121 -174 -285zM197 590q-4 76 51 127q57 53 143 0q90 -57 76 -144 q-16 -90 -225 -202q-27 63 -33 98q-10 49 -12 121zM225 1219q182 -199 271 -187l137 154q-127 -23 -291 153z" />
<glyph unicode="&#xe9;" horiz-adv-x="759" d="M27 508q-37 -166 22 -301q61 -139 230 -199q135 -47 282 64q145 109 193 207l-29 22q-201 -137 -322 -90q-120 46 -141 104l217 144q211 131 190.5 268t-177.5 162q-156 25 -291 -96q-137 -121 -174 -285zM186 590q-4 76 52 127q57 55 145 0t74 -144q-16 -90 -226 -202 q-27 63 -32 98q-11 49 -13 121zM266 973l27 -43l209 141q80 74 26 211l-186 -139q86 -76 -76 -170z" />
<glyph unicode="&#xea;" horiz-adv-x="763" d="M27 508q-37 -166 22 -301q61 -139 230 -199q135 -47 282 64q145 109 193 207l-29 22q-201 -137 -322 -90q-120 46 -141 104l217 144q211 131 190.5 268t-177.5 162q-156 25 -291 -96q-137 -121 -174 -285zM186 590q-4 76 52 127q57 55 145 0t74 -144q-16 -90 -226 -202 q-27 63 -32 98q-11 49 -13 121zM195 1090l272 237q76 -158 207 -176l-111 -133q-139 6 -182 153l-152 -120z" />
<glyph unicode="&#xeb;" horiz-adv-x="774" d="M27 508q-37 -166 22 -301q61 -139 230 -199q135 -47 282 64q145 109 193 207l-29 22q-201 -137 -322 -90q-120 46 -141 104l217 144q211 131 190.5 268t-177.5 162q-156 25 -291 -96q-137 -121 -174 -285zM84 1159q109 -18 115 -160l186 150q6 129 -121 176zM186 590 q-4 76 52 127q57 55 145 0t74 -144q-16 -90 -226 -202q-27 63 -32 98q-11 49 -13 121zM399 1155q109 -18 115 -160l186 150q6 133 -118 178z" />
<glyph unicode="&#xec;" horiz-adv-x="438" d="M-10 1219q182 -199 270 -187l137 154q-127 -23 -291 153zM31 748l14 -29q54 31 63 -62q5 -55 -6 -153q-6 -293 2 -387q6 -74 89 -123l198 184l2 27q-27 -2 -44 17.5t-23 58.5q-12 76 -7 266q6 176 3 246q-4 61 -56 118z" />
<glyph unicode="&#xed;" horiz-adv-x="430" d="M-4 1001l33 -47l258 158q98 82 32 234l-231 -154q107 -89 -92 -191zM31 748l14 -29q54 31 63 -62q5 -55 -6 -153q-6 -293 2 -387q6 -74 89 -123l198 184l2 27q-27 -2 -44 17.5t-23 58.5q-12 76 -7 266q6 176 3 246q-4 61 -56 118z" />
<glyph unicode="&#xee;" horiz-adv-x="432" d="M-12 1090l270 237q76 -158 209 -176l-113 -133q-139 6 -182 153l-149 -120zM31 748l14 -29q54 31 63 -62q5 -55 -6 -153q-6 -293 2 -387q6 -74 89 -123l198 184l2 27q-27 -2 -44 17.5t-23 58.5q-12 76 -7 266q6 176 3 246q-4 61 -56 118z" />
<glyph unicode="&#xef;" horiz-adv-x="503" d="M-33 1159q109 -18 115 -160l151 134q78 -23 84 -138l189 150q6 131 -121 178l-121 -94q-20 66 -114 96zM31 748l14 -29q54 31 63 -62q5 -55 -6 -153q-6 -293 2 -387q6 -74 89 -123l198 184l2 27q-27 -2 -44 17.5t-23 58.5q-12 76 -7 266q6 176 3 246q-4 61 -56 118z" />
<glyph unicode="&#xf0;" horiz-adv-x="1050" d="M30.5 303q-12.5 117 10.5 213q20 90 113 182q80 80 170 142q76 51 163 55q82 2 209 -78l-51 217q-322 -37 -344 -67l-12 10l106 151l207 29q-10 90 -84 164l195 168q125 -49 182 -277q256 68 326 113l26 -10l-110 -180l-203 -41q72 -264 65 -519q-6 -258 -176 -409 q-172 -154 -354 -178q-184 -25 -305 86q-121 112 -133.5 229zM221 432q63 -170 195 -254q129 -84 266 -2q139 82 35 555l-182 -131q-68 180 -279 94q-101 -90 -35 -262z" />
<glyph unicode="&#xf1;" horiz-adv-x="950" d="M29 735l22 -33q37 23 54.5 0.5t13.5 -92.5q-10 -438 2 -499q12 -63 96 -117l213 184v25q-68 -15 -86 73q-18 90 -6 367q129 117 217 84q86 -33 86 -244q-6 -283 2 -372q6 -71 86 -123l209 184l-4 25q-27 -8 -43.5 10t-26.5 65q-18 88 -8 303q6 133 -20 207 q-27 76 -119 113q-90 35 -168 -2q-84 -41 -129 -80q-53 -47 -78 -74q10 123 -68 176zM256 1010l27 -33l53 72q76 59 180 -27q106 -86 158 14l106 166l-20 33l-45 -68q-63 -55 -172 35t-193 -49z" />
<glyph unicode="&#xf2;" horiz-adv-x="745" d="M45 461q-20 -174 100 -318q119 -141 211 -153q90 -12 158 51q76 72 160 217q90 154 74 295q-14 135 -113 233q-94 94 -170 111q-74 16 -125 -8q-53 -25 -164 -139q-108 -113 -131 -289zM180 606q16 113 105 146q89 34 196.5 -80t122.5 -246q16 -133 -33 -194.5t-147 -49 t-178 163.5q-82 151 -66 260zM205 1219q182 -199 270 -187l137 154q-127 -23 -290 153z" />
<glyph unicode="&#xf3;" horiz-adv-x="729" d="M14.5 461q-22.5 -176 98.5 -318q119 -141 211 -153.5t159 51.5q76 72 160 217q90 154 74 295q-14 135 -113 233q-94 94 -170 111q-74 16 -125 -8q-53 -25 -164 -139q-108 -113 -130.5 -289zM150 606q16 113 104 146q89 34 196.5 -80t122.5 -246q14 -131 -34 -195 q-49 -61 -146 -49q-100 12 -180 164q-79 149 -63 260zM184 1001l33 -47l258 158q98 84 35 234l-231 -154q106 -89 -95 -191z" />
<glyph unicode="&#xf4;" horiz-adv-x="761" d="M65.5 461q-20.5 -174 100.5 -318q119 -141 211 -153.5t160 51.5q72 68 157 217q90 154 74 295q-14 135 -113 233q-94 94 -170 111q-74 16 -125 -8q-49 -23 -161 -139q-113 -115 -133.5 -289zM201 606q16 113 104 146q89 34 196.5 -80t123.5 -246q16 -133 -33 -194.5 t-147.5 -49t-178.5 163.5q-81 151 -65 260zM213 1090l270 237q76 -158 209 -176l-110 -133q-141 6 -185 153l-149 -120z" />
<glyph unicode="&#xf5;" horiz-adv-x="763" d="M49.5 461q-20.5 -174 100.5 -318q119 -141 211 -153.5t159 51.5q72 68 158 217q90 154 74 295q-14 135 -113 233q-94 94 -170 111q-74 16 -125 -8q-49 -23 -162 -139q-112 -115 -132.5 -289zM137 1010l25 -33l53 72q76 61 182 -27q106 -86 158 14l107 166l-23 33l-43 -68 q-66 -55 -174 35q-108 89 -191 -49zM184 606q16 111 107 146q88 33 194 -80q108 -114 123 -246q16 -133 -33 -194.5t-147 -49t-178 163.5q-82 151 -66 260z" />
<glyph unicode="&#xf6;" horiz-adv-x="776" d="M39 461q-20 -174 100 -318q119 -141 211 -153.5t160 51.5q72 68 158 217q90 154 73 295q-14 135 -112 233q-94 94 -170 111q-74 16 -125 -8q-53 -25 -164 -139q-108 -113 -131 -289zM84 1159q109 -18 115 -160l186 150q6 129 -121 176zM174 606q16 113 105 146 q89 34 196.5 -80t122.5 -246q16 -133 -33 -194.5t-147.5 -49t-177.5 163.5q-82 151 -66 260zM399 1155q109 -18 115 -160l186 150q6 133 -118 178z" />
<glyph unicode="&#xf7;" horiz-adv-x="913" d="M43 573l10 -14q37 33 660 27l133 151l-21 8q-25 -31 -637 -24zM289 430q78 -68 110 -131q135 90 148 109q16 23 -8 75q-23 49 -95 72zM299 889q72 -61 109 -133q132 89 147 110q16 25 -6 74q-25 53 -94 74z" />
<glyph unicode="&#xf8;" horiz-adv-x="894" d="M25 -160q387 618 624 1110l178 121l41 2q-430 -698 -598 -1089q-143 -86 -200 -164zM51 434q0 74 17 117q25 76 98 162q72 84 237 192q16 2 48 2q203 0 337 -209q45 -102 46 -194q0 -35 -7 -66q-20 -109 -71 -180q-41 -59 -111 -121q-162 -147 -237.5 -147t-202.5 114.5 t-146 237.5q-8 43 -8 92zM225 629q-18 -117 47 -238q63 -117 195 -188q129 -71 153.5 73.5t-49.5 288.5q-72 139 -200 162t-146 -98z" />
<glyph unicode="&#xf9;" horiz-adv-x="829" d="M-35 715l21 -27l57 53q41 -6 35 -147v-299q0 -152 82 -227q80 -74 182 -80l182 184q20 -158 152 -176l188 186l-24 31l-60 -53q-82 4 -71 164v409q-2 147 -119 168l-189 -184l21 -21l57 49q47 -14 35 -149v-377l-92 -78q-158 12 -156 221l2 367q0 147 -112 168zM213 1219 q182 -199 270 -187l138 154q-127 -23 -291 153z" />
<glyph unicode="&#xfa;" horiz-adv-x="837" d="M-31 715l21 -27l57 53q41 -6 35 -147l-2 -299q0 -150 84 -227q80 -74 180 -80l182 184q20 -158 154 -176l186 186l-22 31l-60 -53q-82 4 -71 164v409q-2 147 -119 168l-191 -184l21 -21l57 49q49 -14 37 -149v-377l-92 -78q-158 12 -156 221v367q0 147 -110 168zM246 993 l22 -39l260 158q98 82 33 234l-231 -154q106 -88 -84 -199z" />
<glyph unicode="&#xfb;" horiz-adv-x="837" d="M-29 715l21 -27l57 53q41 -6 35 -147l-2 -299q0 -150 84 -227q80 -74 180 -80l182 184q20 -158 154 -176l186 186l-22 31l-60 -53q-82 4 -71 164v409q-2 147 -119 168l-190 -184l20 -21l57 49q49 -14 37 -149v-377l-94 -78q-157 12 -154 221v367q0 147 -110 168z M184 1090l273 237q76 -158 207 -176l-111 -133q-139 6 -182 153l-152 -120z" />
<glyph unicode="&#xfc;" horiz-adv-x="823" d="M-29 715l21 -27l57 53q41 -6 35 -147l-2 -299q0 -150 84 -227q80 -74 180 -80l182 184q20 -158 154 -176l186 186l-22 31l-60 -53q-82 4 -71 164v409q-2 147 -119 168l-190 -184l20 -21l57 49q49 -14 37 -149v-377l-94 -78q-157 12 -154 221v367q0 147 -110 168zM72 1159 q109 -18 114 -160l189 150q6 129 -121 176zM387 1155q111 -18 117 -160l186 150q6 131 -121 178z" />
<glyph unicode="&#xfd;" horiz-adv-x="798" d="M-29 680l21 -37l61 59q59 31 64 -106v-322q16 -217 229 -286q135 74 236 188v-115q15 -276 -123 -276q-137 0 -246 131l-166 -186q238 -197 465 -23q229 176 262 395v637q-20 147 -123 168l-217 -213l23 -32l63 61q59 6 53 -141v-318q-53 -84 -147 -76q-92 8 -111 181 v366q0 145 -116 168zM266 1001l33 -47l258 158q98 82 33 234l-232 -154q107 -89 -92 -191z" />
<glyph unicode="&#xfe;" horiz-adv-x="911" d="M29 1284l186 141q20 -6 47 -71q31 -74 19 -602q150 180 313 149q168 -31 225 -153q41 -92 41 -193q0 -47 -6 -92q-25 -158 -123 -260q-90 -92 -207 -176q-47 -29 -94 -29q-109 0 -154 70v-193q-2 -47 11.5 -68.5t40.5 -19.5v-27l-201 -186q-61 49 -68 123q-6 63 -2 401 q4 332 13 744q8 413 -41 442zM287 666q-29 -362 51 -459q80 -98 231 -37q70 170 58 313q-12 141 -84 197q-71 55 -148 43t-108 -57z" />
<glyph unicode="&#xff;" horiz-adv-x="804" d="M-33 680l21 -37l61 59q31 14 45.5 -12t16.5 -94v-322q16 -215 231 -286q135 74 236 188v-115q16 -276 -125 -276q-135 0 -244 131l-166 -186q238 -197 465 -23q229 176 262 395v637q-20 147 -125 168l-217 -213l25 -32l63 61q57 6 51 -141v-318q-53 -84 -145 -76 q-94 8 -113 181l2 366q0 145 -116 168zM63 1159q109 -18 115 -160l189 150q6 129 -121 176zM381 1155q109 -18 115 -160l186 150q6 131 -121 178z" />
<glyph unicode="&#x152;" horiz-adv-x="1658" d="M49 498q23 -180 168 -344q147 -166 235.5 -166t303.5 250q55 -180 426 -244q391 205 446 409q55 203 -131 320l-184 -236q150 -115 121 -204q-27 -86 -162 -78q-137 10 -262 135q-129 129 -43 313q59 -23 137 -30l196 208l-18 23q-229 0 -287 57q-58 58 -49 154 q8 94 105 113q98 18 184 -25t74 -117l22 -14l168 182q-16 43 -74 86q-61 46 -141 49q-80 4 -141 -14q-66 -18 -164 -90q-100 -74 -111 -152q-152 262 -419 224q-195 -158 -275 -275q-78 -113 -113 -237q-32 -119 -12 -297zM242 909q20 170 186 162q164 -8 254 -219 q88 -207 39 -432q-49 -223 -219 -150q-168 74 -223 273q-57 202 -37 366z" />
<glyph unicode="&#x153;" horiz-adv-x="1345" d="M32.5 461q-20.5 -174 100.5 -318q119 -141 211 -153.5t160 51.5q72 70 139 182q57 -156 225 -215q135 -47 283 64q145 109 192 207l-28 22q-201 -137 -322 -90q-120 46 -141 104l217 144q211 131 190.5 268t-190.5 174t-377 -207q0 20 -84 104.5t-155 98.5 q-74 14 -123 -8q-53 -25 -164 -139q-113 -115 -133.5 -289zM168 606q16 111 106 146q88 33 195 -80q109 -115 123 -248q14 -135 -35 -194.5t-145 -47.5q-98 12 -179 164q-81 151 -65 260zM776 590q-4 74 53.5 127t143.5 0q88 -55 74 -144q-16 -90 -226 -202q-27 63 -33 98 q-10 49 -12 121z" />
<glyph unicode="&#x178;" d="M-2 1139l25 -29q31 33 79 8l263 -424l4 -473q-8 -162 100 -231l213 153l-10 31q-27 -4 -43.5 15.5t-20.5 62.5v512q295 258 313.5 430t-157.5 250l-176 -172q111 -80 115 -211t-138 -217l-219 342q-92 147 -135 131zM127 1509q109 -18 115 -159l186 147q6 131 -121 178z M442 1505q109 -18 115 -159l186 147q6 133 -118 178z" />
<glyph unicode="&#x2c6;" horiz-adv-x="516" d="M33 1090l270 237q76 -158 209 -176l-113 -133q-139 6 -182 153l-149 -120z" />
<glyph unicode="&#x2dc;" horiz-adv-x="565" d="M31 999l24 -32l54 71q76 61 182 -26q104 -86 155 14l109 168l-23 31l-45 -68q-63 -53 -172 37q-108 89 -190 -49z" />
<glyph unicode="&#x2000;" horiz-adv-x="917" />
<glyph unicode="&#x2001;" horiz-adv-x="1837" />
<glyph unicode="&#x2002;" horiz-adv-x="917" />
<glyph unicode="&#x2003;" horiz-adv-x="1837" />
<glyph unicode="&#x2004;" horiz-adv-x="610" />
<glyph unicode="&#x2005;" horiz-adv-x="458" />
<glyph unicode="&#x2006;" horiz-adv-x="305" />
<glyph unicode="&#x2007;" horiz-adv-x="305" />
<glyph unicode="&#x2008;" horiz-adv-x="227" />
<glyph unicode="&#x2009;" horiz-adv-x="366" />
<glyph unicode="&#x200a;" horiz-adv-x="100" />
<glyph unicode="&#x2010;" horiz-adv-x="851" d="M43 561l10 -14q35 35 631 28l129 162l-20 11q-29 -35 -611 -27z" />
<glyph unicode="&#x2011;" horiz-adv-x="851" d="M43 561l10 -14q35 35 631 28l129 162l-20 11q-29 -35 -611 -27z" />
<glyph unicode="&#x2012;" horiz-adv-x="851" d="M43 561l10 -14q35 35 631 28l129 162l-20 11q-29 -35 -611 -27z" />
<glyph unicode="&#x2013;" horiz-adv-x="950" d="M23 432l10 -14q33 33 772 22l129 162l-21 10q-29 -35 -751 -22z" />
<glyph unicode="&#x2014;" horiz-adv-x="1449" d="M23 432l10 -14q33 33 1272 22l129 162l-21 10q-29 -35 -1251 -22z" />
<glyph unicode="&#x2018;" horiz-adv-x="366" d="M141 911h21l192 148q10 20 -4 33q-170 143 -63 260q8 29 -25 34q-414 -199 -121 -475z" />
<glyph unicode="&#x2019;" horiz-adv-x="356" d="M14 1237q-10 -20 4 -33q170 -143 64 -260q-9 -31 24 -37q416 201 119 477h-18z" />
<glyph unicode="&#x201c;" horiz-adv-x="665" d="M143 907h21l192 150q10 20 -4 30q-170 143 -63 261q9 31 -25 36q-416 -201 -121 -477zM444 907h21l190 150q10 20 -4 30q-170 143 -63 261q9 31 -25 36q-416 -201 -119 -477z" />
<glyph unicode="&#x201d;" horiz-adv-x="655" d="M14 1227q-10 -20 4 -33q170 -143 64 -260q-9 -31 24 -37q416 201 119 477h-18zM313 1227q-10 -20 4 -33q172 -145 66 -260q-10 -31 23 -37q416 201 120 477h-20z" />
<glyph unicode="&#x2022;" horiz-adv-x="419" d="M0 459l129 12l-80 -72l21 -102l100 125l-8 -133l82 -41l-13 176l107 -131l18 98l-84 80l109 -2l37 90l-152 -18l74 82l-18 82l-91 -109l11 156l-74 -45l4 -113l-86 115l-23 -80l70 -88h-98z" />
<glyph unicode="&#x2026;" horiz-adv-x="1062" d="M4 131q109 -18 115 -160l186 150q6 133 -119 178zM375 131q109 -18 114 -160l187 150q6 131 -121 178zM743 131q109 -18 115 -160l189 150q6 131 -121 178z" />
<glyph unicode="&#x202f;" horiz-adv-x="366" />
<glyph unicode="&#x2039;" horiz-adv-x="364" d="M2 477l209 -473l131 166l-170 377l176 373l-65 131z" />
<glyph unicode="&#x203a;" horiz-adv-x="421" d="M2 135l66 -131l280 574l-209 473l-131 -168l170 -375z" />
<glyph unicode="&#x205f;" horiz-adv-x="458" />
<glyph unicode="&#x20ac;" horiz-adv-x="1097" d="M18 502l11 -17q35 35 633 29l129 164l-23 8q-29 -35 -610 -27zM18 702l11 -16q37 37 633 31l129 162l-23 8q-29 -35 -610 -27zM203 717q-27 -186 22 -324q51 -137 137 -237q86 -98 213 -142q58 -18 117 -18q65 0 129 24q117 45 250 222l-43 41q-139 -152 -344 -33 q-207 119 -272 358q-66 238 0 398q63 158 214.5 161.5t196.5 -69.5q45 -72 11 -123l30 -17l180 152q23 61 -43 141q-68 83 -215 86h-16q-138 0 -233 -55q-109 -63 -205 -217q-102 -164 -129 -348z" />
<glyph unicode="&#x2122;" horiz-adv-x="1212" d="M43 1288l8 -8q31 23 195 14q-4 -4 -20.5 -23.5t-24.5 -27.5v-403q18 -74 82 -86l82 73l-9 17q-37 0 -45 71l2 379h103l88 82l-8 10h-385zM471 1260l12 -23q29 24 33 -31q1 -14 0 -32q-6 -283 2 -343q6 -46 49 -79l109 102v16q-20 -4 -32.5 11.5t-14.5 52.5q-4 55 2 262 q63 80 110 57q45 -20 45 -166q-2 -180 2 -256q3 -49 43 -86l105 107l-4 16q-33 -10 -33 226q0 52 2 116q61 66 109 43q45 -20 45 -166q-4 -207 0 -256q2 -47 45 -86l104 109l-2 16q-27 -12 -35 62q-8 68 -2 219q3 89 -12 141q-16 55 -59 78q-45 25 -88 -2q-37 -23 -66 -55 q-20 -23 -43 -53q-25 86 -72 110q-45 25 -88 -2q-37 -23 -65 -55l-39 -49q6 84 -35 118z" />
<glyph unicode="&#xe000;" horiz-adv-x="895" d="M0 895h895v-895h-895v895z" />
<glyph unicode="&#xfb01;" horiz-adv-x="1056" d="M647 1143q92 -65 142 -154q164 106 188 139q8 11 9 29q0 26 -19 66q-33 68 -119 94zM664 748l14 -29q13 8 24 8q40 0 40 -111q0 -46 -7 -112q-2 -114 -2 -205q0 -131 4 -182q6 -74 89 -123l198 184l2 27h-4q-52 0 -63 76q-8 51 -9 152q0 51 2 114q3 105 4 176q0 44 -1 70 q-4 61 -56 118zM18 596l31 -31q59 63 150 70l-6 -416q1 -6 0 -11q0 -67 -132 -177l19 -33h287l159 190l-10 21l-209 -4q79 58 79 276q0 67 -7 150l76 2l163 207l-24 14l-217 4l-39 293v13q0 74 56 74q15 0 34 -5q71 -20 72 -101q0 -30 -11 -69l19 -21l197 211 q-25 158 -142 158q-14 0 -31 -2q-143 -20 -221 -102q-76 -78 -155 -273l28 -215z" />
<glyph unicode="&#xfb02;" horiz-adv-x="1050" d="M662 1237q27 -51 28 -129q-3 -351 -3 -581q0 -383 9 -429q14 -72 95 -118l256 184l-29 33q-13 -3 -25 -3q-48 0 -75 48q-26 44 -26 588q0 187 3 430q-12 80 -61 120zM18 596l31 -31q59 63 150 70l-6 -416q1 -6 0 -11q0 -67 -132 -177l19 -33h287l159 190l-10 21l-209 -4 q79 58 79 276q0 67 -7 150l76 2l163 207l-24 14l-217 4l-39 293v13q0 74 56 74q15 0 34 -5q71 -20 72 -101q0 -30 -11 -69l19 -21l197 211q-25 158 -142 158q-14 0 -31 -2q-143 -20 -221 -102q-76 -78 -155 -273l28 -215z" />
<glyph unicode="&#xfb03;" horiz-adv-x="1689" d="M1280 1143q92 -65 142 -154q164 106 188 139q8 11 9 29q0 26 -19 66q-33 68 -119 94zM1297 748l14 -29q13 8 24 8q40 0 40 -111q0 -46 -7 -112q-2 -114 -2 -205q0 -131 4 -182q6 -74 89 -123l198 184l2 27h-4q-52 0 -63 76q-8 51 -9 152q0 51 2 114q3 105 4 176 q0 44 -1 70q-4 61 -56 118zM651 596l31 -31q59 63 150 70l-6 -416q1 -6 0 -11q0 -67 -132 -177l19 -33h287l159 190l-10 21l-209 -4q79 58 79 276q0 67 -7 150l76 2l163 207l-24 14l-217 4l-39 293v13q0 74 56 74q15 0 34 -5q71 -20 72 -101q0 -30 -11 -69l19 -21l197 211 q-25 158 -142 158q-14 0 -31 -2q-143 -20 -221 -102q-76 -78 -155 -273l28 -215zM18 596l31 -31q59 63 150 70l-6 -416q1 -6 0 -11q0 -67 -132 -177l19 -33h287l159 190l-10 21l-209 -4q79 58 79 276q0 67 -7 150l76 2l163 207l-24 14l-217 4l-39 293v13q0 74 56 74 q15 0 34 -5q71 -20 72 -101q0 -30 -11 -69l19 -21l197 211q-25 158 -142 158q-14 0 -31 -2q-143 -20 -221 -102q-76 -78 -155 -273l28 -215z" />
<glyph unicode="&#xfb04;" horiz-adv-x="1683" d="M1295 1237q27 -51 28 -129q-3 -351 -3 -581q0 -383 9 -429q14 -72 95 -118l256 184l-29 33q-13 -3 -25 -3q-48 0 -75 48q-26 44 -26 588q0 187 3 430q-12 80 -61 120zM651 596l31 -31q59 63 150 70l-6 -416q1 -6 0 -11q0 -67 -132 -177l19 -33h287l159 190l-10 21 l-209 -4q79 58 79 276q0 67 -7 150l76 2l163 207l-24 14l-217 4l-39 293v13q0 74 56 74q15 0 34 -5q71 -20 72 -101q0 -30 -11 -69l19 -21l197 211q-25 158 -142 158q-14 0 -31 -2q-143 -20 -221 -102q-76 -78 -155 -273l28 -215zM18 596l31 -31q59 63 150 70l-6 -416 q1 -6 0 -11q0 -67 -132 -177l19 -33h287l159 190l-10 21l-209 -4q79 58 79 276q0 67 -7 150l76 2l163 207l-24 14l-217 4l-39 293v13q0 74 56 74q15 0 34 -5q71 -20 72 -101q0 -30 -11 -69l19 -21l197 211q-25 158 -142 158q-14 0 -31 -2q-143 -20 -221 -102 q-76 -78 -155 -273l28 -215z" />
</font>
</defs>
</svg>
