<?xml version="1.0" standalone="no"?>
<!DOCTYPE svg PUBLIC "-//W3C//DTD SVG 1.1//EN" "http://www.w3.org/Graphics/SVG/1.1/DTD/svg11.dtd" >
<svg xmlns="http://www.w3.org/2000/svg">
<metadata>
This is a custom SVG webfont generated by Font Squirrel.
Copyright   : Copyright c PJL 2002 All rights reserved
Designer    : PJL
</metadata>
<defs>
<font id="webfontDvUUiWiM" horiz-adv-x="385" >
<font-face units-per-em="1000" ascent="800" descent="-200" />
<missing-glyph horiz-adv-x="301" />
<glyph unicode=" "  horiz-adv-x="301" />
<glyph unicode="&#x09;" horiz-adv-x="301" />
<glyph unicode="&#xa0;" horiz-adv-x="301" />
<glyph unicode="!" horiz-adv-x="240" d="M39 62q0 -4 9.5 -12.5l21 -18.5l22 -18.5t12.5 -12.5h7q7 0 21.5 14t29 31l25.5 30t11 12l0.5 1.5t0.5 2.5q0 2 -5 8t-10 13l-11 11q-1 1 -14.5 12.5t-21.5 20.5h-6h-5l-11 -11q-6 -6 -17 -16l-22.5 -21l-22 -21.5t-14.5 -17.5v-7zM57 681q0 -17 0.5 -52.5t0.5 -80.5 q0 -44 1 -93.5t1 -94.5q0 -44 0.5 -79.5t0.5 -52.5q4 -4 11.5 -5.5t20.5 -2.5t32.5 -1.5t47.5 -1.5h4l3 18v189q0 8 0.5 34t1.5 60.5t2 73.5t2 74t1.5 60.5t0.5 34.5v14h-131v-94z" />
<glyph unicode="&#x22;" horiz-adv-x="376" d="M22 706q0 -3 10 -13q25 -28 46.5 -69t27.5 -85q3 -11 9 -16q2 1 6 0t3 3q2 3 3 5.5t1 6.5q0 1 1 1q1 6 2.5 12t0.5 13q5 20 5.5 41.5t2 42t8 39.5t23.5 33q10 12 10 11l0.5 1.5t0.5 2.5q0 2 -5 8t-10 13l-11 11q-1 1 -14.5 12.5t-21.5 20.5h-6h-5l-11 -11q-6 -6 -17 -16 l-22.5 -21l-22 -21.5t-14.5 -17.5v-7zM189 707q0 -3 10 -13q25 -28 46.5 -69t27.5 -85q3 -11 9 -16q2 1 6 0t3 3q2 3 3 5.5t1 6.5q0 1 1 1q1 6 2.5 12t0.5 13q5 20 5.5 41.5t2 42t8 39.5t23.5 33q10 12 10 11l0.5 1.5t0.5 2.5q0 2 -5 8t-10 13l-11 11q-1 1 -14.5 12.5 t-21.5 20.5h-6h-5l-11 -11q-6 -6 -17 -16l-22.5 -21l-22 -21.5t-14.5 -17.5v-7z" />
<glyph unicode="&#x26;" horiz-adv-x="713" d="M36 135q4 -36 10.5 -55t14.5 -28.5t17 -13t20 -8.5q24 -15 46 -20.5t30 -5.5h98q5 0 17 6.5t24.5 14l21 13t6.5 3.5q4 3 15 14t14 15h4q35 -20 71 -34.5t74 -27.5q9 -5 22.5 -8t32.5 -3h69q5 0 11 10.5t10.5 24t7.5 26t3 15.5q3 3 6.5 12t6 18.5l4.5 17.5t2 9 q0 5 -3.5 8.5t-8.5 3.5h-7q-25 -17 -46.5 -21.5t-39.5 -4.5q-13 0 -22.5 0.5t-19.5 2.5t-22 6l-31 10q-11 0 -22.5 3.5t-20.5 8t-14 7.5l-5 3q-13 7 -20.5 12.5t-12 10t-8.5 7t-10 2.5l-58.5 58.5t-50.5 72.5q-5 5 -11 19l-11 25l15 11h3q13 -14 26 -21.5t22.5 -11t15 -5 t5.5 -2.5q4 -2 9.5 -7l11 -10l10 -9t6.5 -4t8 4.5l14 11t17.5 15t18.5 17.5l14 14q1 1 4 2.5t4 1.5l7 7q8 11 8 22q0 9 -8 14t-25 22q-2 2 -6 3t-5 1l-44 33q-1 0 -5 0.5t-6 0.5q-14 0 -30 -8t-43 -26q-6 0 -14.5 -4t-18 -9l-18 -9.5t-14.5 -6.5q-2 0 -5 7.5t-6.5 17.5 l-6.5 19t-4 11q0 7 -2.5 18t-5.5 22t-6 20l-4 12v4l7 7q2 2 9.5 6.5t18 8.5t23.5 7t26 3q5 2 11.5 3t9.5 5h15q43 -5 69.5 -9t28.5 -6q28 -9 58 -21.5t56 -12.5q0 6 -4.5 14.5t-10.5 18t-10.5 19.5t-4.5 19l-7.5 14.5l-11 21.5l-11 21.5l-7.5 14.5l-21 7q-54 15 -91 19 t-68 4q-9 0 -15.5 -0.5t-13 -1.5l-15.5 -2.5t-23 -3.5q-18 -5 -30 -6.5t-17 -18.5q-4 -16 -9 -31.5t-9 -23.5v-4q-5 -20 -9 -31t-7.5 -19t-8 -16t-8.5 -21q0 -3 -4 -10t-8.5 -16l-8.5 -17.5t-4 -14.5q0 -7 4.5 -20.5t10.5 -29l12 -30.5t9 -25v-7q0 -2 -5.5 -14t-12.5 -25 l-12.5 -23t-5.5 -7q-23 -45 -30 -65t-7.5 -27.5t0 -8.5t-6.5 -8q0 -8 -2.5 -17.5t-4.5 -22.5v-4zM177 181l1 8.5t2.5 18t3.5 17.5t5 8h7q2 -2 6 -6.5l8.5 -10t7.5 -10t3 -6.5l87 -87q1 0 1 -2l-3 -2.5t-5 -2.5h-51q-29 0 -51 19t-22 56z" />
<glyph unicode="'" horiz-adv-x="212" d="M26 706q0 -3 10 -13q25 -28 46.5 -69t27.5 -85q3 -11 9 -16q2 1 6 0t3 3q2 3 3 5.5t1 6.5q0 1 1 1q1 6 2.5 12t0.5 13q5 20 5.5 41.5t2 42t8 39.5t23.5 33q10 12 10 11l0.5 1.5t0.5 2.5q0 2 -5 8t-10 13l-11 11q-1 1 -14.5 12.5t-21.5 20.5h-6h-5l-11 -11q-6 -6 -17 -16 l-22.5 -21l-22 -21.5t-14.5 -17.5v-7z" />
<glyph unicode="," horiz-adv-x="179" d="M6 68l29 -29q1 1 9 1q11 0 20 -10t21 -38q1 -2 2.5 -5.5t1.5 -4.5v-13v-13q0 -12 -3 -21t-7 -16t-7 -13.5t-3 -13.5q8 0 12 1t8 4t8.5 8.5t13.5 14.5q5 15 12 28t13 27t10.5 30.5t4.5 39.5q0 19 -0.5 32.5t-4 25t-11 23t-21.5 25.5q-8 12 -16 12q-3 0 -7.5 -3t-9.5 -7.5 l-9.5 -8.5t-7.5 -7l-29 -29q-3 -3 -8 -8.5t-9.5 -11l-8 -9.5l-3.5 -4v-7z" />
<glyph unicode="-" d="M39 294q73 0 145.5 -2t145.5 -2h10l3 4v105l-3 7h-26q-7 0 -34 -0.5t-58 -1t-58 -1.5t-34 -1h-87q-1 0 -2.5 -1.5l-1.5 -1.5v-4q0 -2 2 -9t2 -9v-44q0 -1 -1 -6t-1.5 -10l-1 -10t-0.5 -6v-7z" />
<glyph unicode="." horiz-adv-x="231" d="M34 62q0 -4 9.5 -12.5l21 -18.5l22 -18.5t12.5 -12.5h7q7 0 21.5 14t29 31l25.5 30t11 12l0.5 1.5t0.5 2.5q0 2 -5 8t-10 13l-11 11q-1 1 -14.5 12.5t-21.5 20.5h-6h-5l-11 -11q-6 -6 -17 -16l-22.5 -21l-22 -21.5t-14.5 -17.5v-7z" />
<glyph unicode="0" horiz-adv-x="641" d="M30 265q2 -2 3 -9.5t2.5 -17t4 -19.5t5.5 -16q3 -15 13 -35.5t21 -39t21 -31.5t14 -13q7 -13 22.5 -24.5t26 -17l12.5 -6.5l34 -16t30 -11.5t30 -6.5t34 -2h32q22 0 45 4.5t43 11.5t36 16.5t25 18.5q3 0 13 8.5l20 16.5l11 11l18.5 23t14 19t13.5 22.5t16 33.5 q0 10 3.5 22.5l7.5 28t7.5 34t3.5 41.5q0 42 -11 90t-44 97q-14 21 -31 41t-38 31q-14 14 -36 23.5t-43.5 16t-38 10t-20.5 5.5h-80q-21 0 -36.5 -4.5t-25 -9t-13.5 -8t-1 -0.5q-38 -15 -70.5 -45t-64.5 -93q-5 -5 -10 -17t-9.5 -25.5t-7 -26t-2.5 -18.5v-113zM106 276v34 v35q3 17 7 35.5t12.5 38t23 40.5t37.5 42q8 6 17 13.5t21 14.5t27.5 11.5t36.5 4.5h54q29 0 53 -10.5t42.5 -25.5t32.5 -32.5t22.5 -31.5t12 -22t1.5 -5q13 -31 19.5 -59t6.5 -47q0 -44 -7.5 -74t-17.5 -49t-18.5 -28l-11.5 -12q-27 -33 -49.5 -48t-41.5 -20.5t-35 -4.5 t-30 0h-8q-11 1 -38.5 3t-59 17.5t-60 50t-41.5 100.5q-2 6 -5 17t-3 12z" />
<glyph unicode="1" horiz-adv-x="237" d="M8 533q0 -2 6.5 -5.5t15 -7t15 -7t6.5 -6.5q15 -26 15 -47v-348q0 -13 -2 -30l-4 -33.5t-4 -30t-2 -19.5q14 0 26 2.5t26 2.5q25 0 52.5 -2.5t38.5 -2.5q0 14 -4 40.5t-7 54.5q0 10 -0.5 36.5t-0.5 55.5v55v36q0 53 0.5 90.5t1 66t1 51.5l1 46.5t1 50t0.5 63.5h-8 q-41 -35 -61.5 -49t-34.5 -20.5t-28.5 -10.5t-42.5 -18l-7 -7v-4v-3z" />
<glyph unicode="2" horiz-adv-x="527" d="M27 425q0 -1 1.5 -2t2.5 -2h3l8 8q1 2 7 9t7 9l7 7q26 22 63 42t88 20h16q20 0 35 -6t25.5 -14t16 -15t7.5 -9q13 -13 19.5 -25.5t9 -23t3 -17.5t1.5 -10q2 -15 3 -20.5t1 -18.5q0 -5 -1 -17.5t-4 -28.5t-8 -34t-13 -34q-5 -5 -10.5 -14.5l-11.5 -20l-11.5 -20 t-10.5 -14.5l-40 -40q-6 0 -14 -4l-17.5 -8.5t-20.5 -8.5t-24 -4q-29 -2 -43 -2q-13 0 -20.5 -7.5t-15 -27.5l-23.5 -61v-4v-3q1 -1 2 -2.5t2 -1.5h374l7 4q6 8 14.5 23l17 31t14 28.5t5.5 15.5v7h-221l-4 4l7 7q35 19 59.5 44l53.5 54q0 6 11.5 19t17.5 25l7 14 q10 28 21.5 53t11.5 49v58q0 35 -5.5 57t-12 33.5t-11.5 15.5t-4 3q0 10 -11.5 21.5t-24 21.5t-22.5 16t-7 6q-18 14 -49 20t-60 6h-18q-40 0 -79.5 -14t-69.5 -37q-7 -7 -12.5 -10t-10 -6.5t-8 -8.5t-6.5 -15q-6 -27 -9.5 -45l-6 -30.5l-4.5 -22t-5 -18.5v-4z" />
<glyph unicode="3" horiz-adv-x="512" d="M34 541q0 -4 4 -4h283l3 -1t4 -2l4 -4l-57.5 -66l-57 -64.5l-46 -54t-24.5 -33.5l-1 -3q0 -4 4 -8h7q2 1 6 2.5t5 1.5h33q11 0 22 -4t21.5 -8.5t19 -8.5t13.5 -4q22 -11 34 -26t17 -28.5t6 -23t1 -10.5q1 0 1 -10v-15q0 -28 -4 -46.5t-9.5 -30.5t-11 -19t-8.5 -13 l-18 -18q-15 -15 -35 -18t-42 -8h-29q-20 5 -35 9.5t-28 10.5t-24.5 14t-24.5 21h-11q-1 0 -2 -1.5t-2 -2.5v-1v-2q0 -35 5.5 -53t13 -26.5t13.5 -9.5t8 -2q3 -2 12 -4t18.5 -3.5t17.5 -2.5t10 -1h73q34 0 62.5 10t49.5 22.5t33.5 23.5t14.5 13l25 25q22 22 28.5 48l15.5 61 v62q0 28 -10.5 50.5t-22.5 37.5t-21.5 22.5t-7.5 5.5q-16 16 -44 28t-65 12l-4 8v3q2 5 13.5 19l27.5 33l35.5 41l38 42.5l34.5 38t26 26.5q13 13 20 21t10 13t3 8v8q0 8 -12 8h-21q-7 0 -35 -0.5t-59.5 -1t-59.5 -1.5t-35 -1h-207q-4 0 -7.5 -7t-3.5 -14v-11 q-2 -4 -3.5 -13t-3.5 -19t-3 -18.5t-1 -11.5v-11z" />
<glyph unicode="4" horiz-adv-x="523" d="M4 189q0 -4 4 -4h286q5 0 5.5 -8.5t2.5 -13.5v-29q0 -9 -1 -23.5t-1.5 -28.5t-1 -25.5t-0.5 -12.5t-1 -5.5t-2.5 -9.5t-2.5 -9t-1 -5v-6v-5q0 -1 1.5 -2.5l1.5 -1.5h117q2 0 7.5 1.5t6.5 2.5v14q0 7 -3.5 17t-3.5 16v134h72q1 0 3.5 1.5t4.5 2.5l3 3v53h-87v390h-101 q-4 0 -14 -12t-23 -30l-26.5 -38.5l-25 -38.5l-18.5 -29.5t-6 -10.5q-30 -53 -50 -79t-33 -45q-2 -3 -9.5 -13.5l-16 -22.5l-16 -22.5t-9.5 -13.5q-15 -31 -31.5 -49t-30.5 -35v-7zM98 250v4l37.5 51.5l26.5 36l20 28.5t18 29q10 20 27.5 45.5l45.5 67.5q5 10 11 18t9 8 l1 -1q3 0 4 -22.5t2 -51.5t1.5 -56.5t0.5 -36.5v-109q-3 -3 -4 -6t-3 -6t-6 -4.5t-13 -1.5h-127q-3 0 -9.5 0.5t-14 1t-14 1.5t-9.5 1q-1 0 -2 1.5t-2 1.5z" />
<glyph unicode="5" horiz-adv-x="475" d="M17 -28v-18l44 -44l7 -0.5t11 -0.5q16 0 35 3.5t35.5 7.5t28.5 8t13 4q31 11 54 31t44 34l4 4q0 7 12 17.5t17 18.5q6 10 10.5 16.5t9 14.5t9 19t10.5 30q1 3 3.5 14t4 24l3 25.5t1.5 18.5q0 25 -4 48t-15 55l-7 14q-13 19 -19 26.5t-11.5 12l-13.5 11t-25 23.5 q-35 18 -54 25.5t-32.5 11t-26.5 4.5t-36 6l-3 5v2q8 24 12.5 39t12.5 30l4 4q1 0 3.5 1.5t3.5 1.5q6 0 20 0.5t30.5 1.5t31 1.5t20.5 0.5h50q12 0 29.5 0.5l34.5 1t29 1l12 0.5l8 4l32 98l0.5 1.5t0.5 2.5q0 3 -4 7h-4q-11 0 -34.5 -0.5t-53.5 -1t-63 -0.5q-32 0 -62 -0.5 t-53.5 -1t-34.5 -0.5q-12 -42 -20.5 -67l-14.5 -41.5l-11 -30l-12 -31.5q-8 -18 -16.5 -47t-23.5 -58q-2 -5 -3 -9t-1 -6q-2 -1 7 -2.5t21 -3t22.5 -3t11.5 -2.5q20 -3 34 -11.5t32 -17.5q36 -16 54.5 -53.5t32.5 -80.5v-51q-3 -6 -3.5 -15.5t-4.5 -16.5q-13 -37 -37 -66.5 t-50 -42.5q-11 -11 -28 -13t-22 -2h-62q-2 0 -7 1.5t-11 2.5t-11.5 2.5t-6.5 1.5h-4z" />
<glyph unicode="6" horiz-adv-x="538" d="M24 211q0 -38 15.5 -76.5t35.5 -68.5q3 -5 8.5 -13t5.5 -9l40 -40q16 -16 31.5 -24.5t32.5 -13.5t36 -7.5l42 -5.5h7q48 7 72 17t26 12q10 3 20.5 14t16.5 11q12 14 22 24.5t20 23t20 32t21 51.5q1 3 2.5 12.5t1.5 13.5v51q0 22 -9 45t-20 42q-2 2 -12 13l-17 19l-4 4 q-10 12 -22.5 19t-23 11t-17.5 5t-6 1q-13 6 -31.5 8.5t-41.5 2.5h-3l-53 -11.5t-23.5 -6.5t-13.5 -8.5t-23 -16.5q-5 -8 -15.5 -19l-17.5 -18l-7 -7q-1 -1 -2 10.5t-1 19.5v3q0 38 22 79t50 76t53 59t31 29q17 17 34.5 27t32.5 15.5t26 8t16 4.5q1 0 19 3t39 6t38 6l17 3 q0 4 -9.5 11t-21.5 14t-23.5 12t-15.5 6q-1 1 -5 2.5t-6 1.5h-3q-25 -3 -37 -4t-21 -2.5t-20.5 -5l-34.5 -10.5q-3 0 -11.5 -3.5l-18.5 -8l-17 -7.5l-7 -3q-7 0 -19 -8t-25 -18.5l-25.5 -20.5t-21.5 -14l-26 -26l-20 -22l-14.5 -16.5t-12.5 -16t-14 -21.5q-12 -14 -27 -48 t-28 -97q-1 -4 -2 -11l-2 -14.5t-2 -14t-1 -8.5v-39v-44zM144 185v30v29q0 9 5.5 20t14 20t17 15t14.5 6q9 9 24 12t23 3h14q25 -4 38 -7t21.5 -6.5t16.5 -8t23 -11.5l18 -18q23 -29 35.5 -56.5t12.5 -65.5q0 -19 -0.5 -30t-3.5 -20.5t-10.5 -22t-22.5 -34.5q-14 -7 -29 -17 t-33 -16h-58q-4 2 -16.5 7.5t-16.5 7.5l-11 11q-32 23 -46.5 53t-22.5 60q-3 8 -5 20t-2 19z" />
<glyph unicode="7" horiz-adv-x="495" d="M29 530q5 -1 20 -2t20 -2h14q5 0 25 1t42.5 1.5t42.5 1t25 0.5h123q1 0 2 -1.5t2 -2.5v-3q-10 -19 -14 -28t-5.5 -13t-1.5 -5t-1 -4.5t-5 -11.5l-13 -25l-12.5 -25.5l-27 -55l-37 -75l-42 -85l-43 -86l-38.5 -76.5q-5 -8 -10.5 -19t-5.5 -14h82q6 0 14 16t15 35t12 35.5 t6 18.5q6 16 13.5 30.5l15.5 30t16 33.5t16 41l10.5 20.5l26 51l33 65l32 62.5l22.5 44.5t4 10.5q12 27 21.5 43.5t18 29l16 24.5t16.5 30q9 13 9 25h-459v-116z" />
<glyph unicode="8" horiz-adv-x="479" d="M32 102q0 -23 13.5 -47t32 -44t36.5 -33t27 -13q4 -2 12 -4.5t16 -4.5t14.5 -4t8.5 -2h72q15 0 29 4t26 9.5l21.5 10t14.5 5.5l4.5 3.5l10.5 8t12 9.5t9 8l4 4q19 19 30.5 40t16.5 41.5t6.5 38t1.5 31.5q0 25 -1.5 40.5t-5.5 27t-9.5 22t-13.5 24.5q-5 9 -9.5 16t-11 13 t-16 13.5l-24.5 18.5q-8 8 -15 9.5t-7 8.5v4q1 3 8.5 10t18 15t20.5 17t15 16q15 20 18.5 43t10.5 37v29q-6 21 -11 41.5t-14 39t-24.5 34.5t-41.5 27l-22.5 9.5t-15 5.5t-12.5 2.5t-15 0.5h-77q-14 0 -28 -5t-25.5 -11.5t-19.5 -12.5t-10 -8q-30 -24 -49.5 -62.5 t-19.5 -93.5v-3q2 -18 3.5 -29.5t3.5 -21t5.5 -19.5t9.5 -25q0 -7 9.5 -16.5t11.5 -15.5l37 -37v-1l-11 -13q-20 -9 -34 -26t-24 -35t-15 -33.5l-7 -21.5v-95zM83 110v72q0 27 13 47.5t28.5 34t27.5 19.5t11 5q1 0 6.5 1.5t7.5 1.5h6h5q5 0 15.5 -5.5t22.5 -12.5t23.5 -12.5 t18.5 -5.5l29.5 -17.5t21 -15.5t18.5 -25.5t22 -46.5v-40q0 -14 -7 -27t-15.5 -24t-16.5 -18t-9 -8q-14 -14 -31 -19.5t-34 -9.5h-47q-13 3 -20.5 4t-23.5 7q-7 7 -18 15t-21.5 17.5t-18 20.5t-7.5 24q-2 3 -4.5 9t-2.5 9zM119 534v8v7q3 15 9 32t17.5 31.5t28 24.5t39.5 10 h51q14 0 29 -8.5t23.5 -16t9.5 -8.5q6 -6 13 -15t13 -19.5t10 -20.5t4 -17v-73q0 -1 -1.5 -5t-2.5 -6l-7 -14q-6 -16 -24 -30t-32 -21l-16 -8q-6 0 -23 8t-36 18t-34.5 19.5t-19.5 13.5q-17 12 -26.5 22t-14 20.5t-6.5 22t-4 25.5z" />
<glyph unicode="9" horiz-adv-x="549" d="M24 0q0 -1 1.5 -2t2.5 -2l65 -32q2 -1 11.5 -2.5t13.5 -1.5q25 0 51 5.5t47 12.5t33.5 12.5t10.5 5.5q37 19 57 30.5t30.5 19.5t15.5 13.5t13 13.5q40 35 61.5 59.5t31.5 40.5t12 24.5t4 12.5q12 22 16.5 38t6.5 29l3.5 23t6.5 19q2 9 3 16t1 15v19v26q0 21 0.5 34 t-0.5 24t-3.5 22.5t-8.5 29.5q0 15 -6 27.5t-13.5 23.5l-13.5 20t-6 16q-2 2 -10.5 11.5t-11.5 13.5l-29 29q-9 9 -25 18.5t-33 16.5t-33.5 11.5t-28.5 4.5h-55q-35 0 -57.5 -8t-36.5 -18t-21.5 -19.5t-11.5 -12.5l-11 -11q-12 -22 -25.5 -38t-24.5 -38q-8 -15 -11.5 -25 t-5.5 -20t-2 -22v-28q0 -33 5.5 -55t12 -35.5t12.5 -19t7 -6.5q18 -29 46 -44t54 -21.5t45 -7t20 -0.5q14 0 30 1t36 8.5t44 23.5t55 47h3q0 -2 0.5 -9t0.5 -9q-9 -22 -15.5 -44t-14 -43t-17 -39.5t-22.5 -32.5q-3 -7 -10.5 -16.5t-16 -18.5t-14.5 -16t-6 -8q-3 0 -11 -6 l-18.5 -14l-22 -16.5t-21.5 -13.5q-33 -21 -52.5 -29.5t-31.5 -11t-21 -3t-22 -4.5q-5 -1 -14.5 -2t-10.5 -1h-37q-1 0 -3.5 -1.5t-3.5 -2.5v-3v-4zM118 501v11v11l2 6t4 13.5t3.5 14t1.5 9.5l11 22q4 10 15 20.5t24 19t27 13.5t25 5h36q20 0 47.5 -19.5t47.5 -49.5 q8 -15 13.5 -27t10 -25.5t8 -31l8.5 -43.5v-36q0 -1 -3 -9l-6.5 -17.5t-8 -17t-8.5 -7.5q-14 -12 -28 -20.5t-34 -8.5h-54q-31 0 -54.5 15t-39.5 34.5t-25 38l-12 24.5q0 3 -1 11t-3 16.5l-4 16.5t-3 11z" />
<glyph unicode=":" horiz-adv-x="203" d="M20 61l29 -29q4 -3 10 -8.5l11.5 -11t10 -9l4.5 -3.5h7l6 5.5l14 13l16.5 15.5t14.5 13l32 32q1 1 2 3.5t2 4.5v7q-7 7 -16 17.5l-18 20.5t-17.5 17t-15.5 7q-3 0 -7.5 -3t-9.5 -7.5l-9.5 -8.5t-7.5 -7l-29 -29l-11.5 -12t-12 -13.5t-5.5 -6.5v-8zM24 433q3 -2 12 -12 l19.5 -21t20 -19.5t13.5 -8.5h7q9 7 23.5 21.5l29 28.5t24.5 25.5t10 14.5q0 9 -19.5 22.5t-42.5 42.5h-5h-6l-12 -12.5t-17 -12.5l-29 -29q-3 -3 -8 -8.5t-9.5 -11t-7.5 -9.5l-3 -4v-7z" />
<glyph unicode=";" horiz-adv-x="201" d="M9 68l29 -29q1 1 9 1q11 0 20.5 -10t20.5 -37q1 -2 2.5 -6t1.5 -5v-13v-13q0 -12 -3 -21t-7 -16t-7 -13.5t-3 -13.5q8 0 12 1t8 4t8.5 8.5t13.5 14.5q22 33 31 61.5t9 63.5q0 18 -0.5 33.5t-5 30t-14 28t-27.5 25.5q-1 0 -3 0.5t-3 0.5t-6 -3t-10.5 -7t-11 -8.5 t-6.5 -7.5l-29 -29l-11.5 -12t-12 -13.5t-5.5 -6.5v-8zM23 433q3 -4 12.5 -13l20 -18.5l19.5 -18t13 -11.5h8q5 4 19 17l29 27t26.5 26.5t11.5 16.5l1 3q0 2 -3.5 8t-11.5 14l-11 11q-3 0 -8 4.5t-11 10.5t-12 11t-10 7q-2 0 -4 -0.5l-2 -0.5l-11 -11q-1 -1 -8.5 -7t-9.5 -7 l-29 -29q-3 -3 -8 -8.5t-9.5 -11l-8 -9.5l-3.5 -4v-7z" />
<glyph unicode="?" horiz-adv-x="418" d="M9 599q0 -1 7 -6.5l11 -8.5h4q31 31 54 44.5t22 13.5q11 11 19 17t22 6q16 0 33.5 -3.5t33 -11t27.5 -18.5t17 -26q12 -12 17 -27.5t6.5 -31.5t0.5 -31.5t-1 -26.5q0 -22 -1 -44t-4.5 -42t-10 -37t-17.5 -28l-33 -33q-11 -11 -19 -16.5t-14.5 -9.5l-13.5 -8.5t-15 -12.5 v-4l7 -18q5 -5 7 -6.5t9 -1.5q19 0 41 8.5t41 19t30 19t7 8.5q1 1 7 3.5t7 3.5q16 11 25.5 18.5t16 16.5t12 22t12.5 34q3 15 6 24t5 18l4.5 20.5t5.5 31.5v109q0 21 -9 47.5t-20 50.5q0 13 -11 26t-24 23.5t-24 17t-10 6.5q-20 11 -38.5 20t-44.5 9h-29l-149 -149 q-7 -6 -18 -17t-11 -12v-7zM122 62q0 -1 9.5 -11t21 -21l22 -20.5t12.5 -9.5h7l6 5.5l14 13l16.5 15.5t14.5 13l33 33q0 3 2 5.5t2 5.5q0 4 -5 10.5t-11.5 12.5t-11.5 10t-5 3q-4 3 -9 8l-10 10t-9 8.5t-7 3.5q-11 0 -27 -14.5t-30.5 -31.5t-24.5 -30.5t-10 -11.5v-7z" />
<glyph unicode="A" horiz-adv-x="684" d="M34 598h23q13 2 33 3.5t43 2.5t46.5 1.5t44.5 0.5h105q4 0 6 -2.5t2 -4.5q0 -4 -5.5 -18l-13.5 -33t-19 -40.5l-21 -39.5l-11 -22q0 -8 -5 -18.5t-11 -21t-11 -20.5t-5 -16q1 2 -4 -8.5l-13 -26.5l-16.5 -34.5l-14.5 -32.5l-22.5 -44.5l-15 -31.5l-12.5 -27l-15 -31 q-2 -5 -10.5 -20.5l-20 -35t-25 -38.5t-24.5 -30v-2v-1q1 -1 2 -2.5t2 -1.5h120q14 55 23 74.5l9 19.5q4 11 11.5 27.5l14 31l10.5 23.5t1 6q0 9 4 18.5t9 17.5t9 13t3 5q3 0 12 1t19 1.5t19 1t12 0.5h192l8 -8q0 -2 0.5 -15t1.5 -31.5t1 -29.5v-87q0 -7 0.5 -17.5t1.5 -20 t1.5 -17l0.5 -7.5l7 -7h102q4 0 4 13q0 2 -0.5 6.5t-0.5 5.5q1 52 -0.5 103.5t-4 111.5t-4.5 134.5t-2 173.5v160h-14q-3 0 -11.5 -0.5l-17.5 -1t-17.5 -1.5t-11.5 -1h-425q-3 0 -10.5 1t-16.5 1.5t-16.5 1t-10.5 0.5h-4q-6 0 -13 -14t-13 -31t-10 -33t-4 -20 q0 -2 -0.5 -7.5t-0.5 -7.5zM303 346q0 13 3.5 21t7.5 14t7.5 10.5t3.5 10.5q5 9 13 26.5l17.5 40l19.5 47.5t19 50q1 3 4.5 10t7.5 14l7 12t3 4h95l3 -4l0.5 -16t1.5 -38t1.5 -45.5t0.5 -38.5v-116q0 -3 -3 -6t-4 -5h-204q-4 4 -4 9z" />
<glyph unicode="B" horiz-adv-x="581" d="M36 657q0 -20 5.5 -39t5.5 -37q0 -21 1 -47t2.5 -49.5l2.5 -40l1 -16.5v-98q0 -73 2.5 -153.5t2.5 -168.5q47 0 93 -2t98 -2h22q2 0 11 -1t19.5 -1.5t19.5 -1t12 -0.5h36q5 1 15 8.5t19.5 15.5l17 14.5t6.5 5.5q28 14 42.5 23t22.5 16t15 12.5t22 13.5l14 7 q3 13 4.5 22.5t2 20t1 22.5t0.5 30q0 34 -3.5 55t-10.5 35.5t-18 26.5t-27 28q-1 1 -8 4t-16.5 7.5t-18.5 10t-15 10.5v8q17 17 34.5 31l31.5 24.5l23 17.5t9 10v11q-4 47 -10 76.5t-13 46t-13.5 24t-12 11.5t-9 7.5t-3.5 12.5q-16 16 -37.5 24.5t-44.5 13t-45.5 5.5 t-39.5 1q-16 0 -25 -4t-15.5 -10.5t-12 -16t-13.5 -20.5q-1 -2 -9 -11.5l-17.5 -20.5l-18 -20l-9.5 -10h-4q-3 0 -5 19t-4 42.5t-4 42.5t-5 19h-4q-17 0 -33.5 -7.5t-25.5 -14t-10 -7.5q-6 -2 -14.5 -4t-16 -4t-13.5 -4l-6 -2l-4 -13v-9zM174 294v265q0 9 11.5 15t25 10 t23 6t5.5 2h84q7 0 16.5 -3.5t17 -8l12.5 -7.5l5 -3q13 -13 28 -33.5t15 -53.5v-69q0 -5 -4 -11.5t-7 -6.5h-72q-1 0 -3.5 -1.5t-4.5 -2.5l-7 -7q-13 -13 -24 -26.5l-19 -24t-12 -17t-3 -5.5v-1q0 -2 1.5 -6.5t1.5 -6.5h1q1 0 6 0.5l10 1l10 1t6 0.5h18q34 0 54.5 -9.5 t31.5 -20t14 -19t2 -5.5q3 -5 7 -12.5t7 -15.5t5.5 -15.5t2.5 -11.5v-72q0 -3 -2.5 -8.5t-4.5 -6.5h-8q-2 0 -10 1t-17 1.5t-17 1t-10 0.5h-18q-9 0 -28.5 1t-43.5 2.5t-50.5 2.5t-48.5 1l-3 4l-1 20t-1.5 47.5l-1 57t-0.5 49.5z" />
<glyph unicode="C" horiz-adv-x="611" d="M26 334q0 -39 7.5 -71t14.5 -52q0 -13 9.5 -30t22 -33.5t25 -31l19.5 -22.5q19 -20 43 -33.5t47 -22.5t42.5 -15t31.5 -9q7 0 25.5 -1t39.5 -2.5t39.5 -2.5t25.5 -1h51q7 0 19.5 13.5t27 33l31 41.5t31.5 39q0 1 0.5 3.5t0.5 3.5q0 4 -1 7.5t-3 3.5h-4q-11 -4 -21 -9 t-21.5 -9.5t-26.5 -7.5t-36 -3h-77q-42 0 -79.5 12t-76.5 32q-2 0 -8 7t-14 11l-18 18q-16 16 -25 36.5t-14 40.5t-6.5 36t-1.5 22v87q0 25 4 49t9 42.5t8.5 29l3.5 10.5q20 9 37.5 14t46.5 15h11q12 0 29.5 3.5t28.5 3.5h47q47 0 70.5 -7t20.5 -7q8 -3 14.5 -4.5l14.5 -3.5 t18.5 -6.5l25.5 -11.5q5 -5 11.5 -6.5t11.5 -1.5q0 38 -0.5 74t-4.5 69q-12 4 -31.5 9t-40.5 9.5t-42.5 7.5t-38.5 3h-91q-29 0 -48 -4t-31 -9.5t-17.5 -11l-8.5 -8.5q-1 -2 -5.5 -7.5t-9 -12.5t-9 -13t-5.5 -7l-11 -11l-26 -32l-38.5 -47l-39 -46.5t-27.5 -30.5v-11 q0 -8 -3.5 -28.5t-3.5 -37.5v-65z" />
<glyph unicode="D" horiz-adv-x="778" d="M35 551q0 -2 1.5 -9t2.5 -9h3q12 7 36.5 18t48 20t40 14.5t13.5 2.5h22l4 -4v-7v-8q-7 -14 -10 -28t-4.5 -26t-2 -20.5t-2.5 -12.5q0 -10 -4 -28t-8.5 -36t-8.5 -31.5l-4 -13.5l-20.5 -69t-11 -41l-5 -21t-3.5 -10q0 -9 -5.5 -28t-12.5 -37l-12 -31t-3 -10q0 -9 -5 -25 t-12 -32.5l-13 -30.5t-9 -20q-1 -2 -1.5 -8t-0.5 -8q20 0 34.5 6t32.5 6q6 0 19.5 0.5t29.5 1.5t29.5 1.5t19.5 0.5h116q5 0 26 -2.5t45 -5t45 -5t26 -2.5h21q3 0 20.5 12l37 26.5l35.5 25.5t16 9q24 8 45.5 22.5t49.5 24.5q14 28 22 51t12 46.5t5.5 49.5l3.5 60v3 q-2 30 -1 49.5t-1.5 37t-10.5 38t-27 53.5q-12 32 -34.5 58.5t-46 46t-44 32l-27.5 16.5q-21 13 -53.5 23t-66.5 17t-64.5 11t-48.5 4q-22 0 -42 -1.5t-41.5 -4.5t-46.5 -8l-58 -12q-3 0 -16.5 -4t-29.5 -9.5t-28.5 -12t-12.5 -10.5q0 -6 -0.5 -20t-1.5 -29.5t-1.5 -29.5 t-0.5 -19v-8zM216 146q0 14 7.5 25.5t7.5 23.5l9.5 32t9.5 35.5t7 27t3 7.5l14 51l10.5 39.5t9 32.5t10.5 30q14 72 23 104.5t17 36.5h40q12 0 26.5 -4t27 -9.5t21.5 -10t12 -5.5l14 -7q18 -11 38 -26t38.5 -38.5t33 -57t21.5 -81.5q0 -3 1.5 -15.5t2.5 -17.5v-4 q0 -2 -1 -8.5t-1.5 -14.5t-1 -15t-0.5 -9v-14q-9 -40 -14.5 -62l-8.5 -33.5t-4.5 -15t-3 -4.5t-3.5 -2.5t-6 -10.5q-7 -7 -11 -9t-14 -2h-9q-5 0 -6 1q-72 5 -115.5 9l-72.5 6.5t-50.5 4t-48.5 1.5h-29q-4 4 -4 9z" />
<glyph unicode="E" horiz-adv-x="643" d="M28 367q0 -44 3 -70.5t6 -42t6 -22t3 -10.5q8 -25 17.5 -50.5t24 -49t36 -44.5t53.5 -37q15 -10 38 -18t48.5 -14t50.5 -9t44 -3h120q25 0 37 7.5t20 20.5t17 30t28 36q14 18 23.5 32t9.5 16q0 4 -8 7h-4q-29 -14 -71 -25.5t-86 -11.5q-19 0 -35.5 0.5t-34 2.5t-37 6 t-44.5 10q-7 2 -22.5 8t-31.5 14t-28 16.5t-12 15.5q-17 17 -28.5 46t-15.5 52v4q2 1 5 4t6 3h123h25q20 0 46.5 -0.5l55.5 -1l55.5 -1t46 -1t25.5 -0.5h26l3 4v105l-3 8h-26q-7 0 -34 -1t-58 -1.5t-58.5 -1t-34.5 -0.5h-185q-7 0 -17 2.5t-12 4.5v4q3 26 5 40.5t2 28.5v11 q5 17 10.5 38t15.5 31l14 7q11 0 24.5 3l27 6t25.5 6t18 3h112q32 0 67 -7.5t64 -17.5q8 -4 17.5 -8t18.5 -4v15q0 9 -0.5 28.5l-1 39t-2 34t-3.5 14.5q-22 10 -56 18t-75 8h-80q-21 -5 -43 -8.5t-41.5 -7.5l-33 -7t-16.5 -6q-7 -14 -19 -28t-25.5 -27.5t-27 -25.5 t-22.5 -21q-4 -3 -14.5 -11.5l-22 -18l-22 -17.5l-14.5 -11q-4 -17 -7.5 -29t-5.5 -25.5t-3.5 -31t-1.5 -45.5v-9v-9z" />
<glyph unicode="F" horiz-adv-x="511" d="M38 671q0 -16 3.5 -35t3.5 -30v-40q0 -2 1.5 -7.5t2.5 -7.5v-207v-206q0 -61 -2.5 -113t-2.5 -105h125v36q-3 23 -4 45.5t-1 49.5v61v80v26q0 17 0.5 32.5t0.5 26.5v13l7 7h287q8 -4 18 -4h21q0 15 1 31t1.5 30.5t1.5 27t1 19.5q0 3 -1 6t-3 3h-312q-1 0 -4 3v4 q5 34 10.5 58t16 42t27 32.5t44.5 30.5q8 8 21 12.5t28 7t31 3t29 0.5q18 0 30.5 -1t22.5 -2.5t19.5 -3.5t21.5 -5h15q0 13 0.5 28.5t1.5 30.5t1.5 26.5t0.5 16.5q0 12 -4.5 18.5t-11 9.5t-15 3.5t-17.5 0.5h-11q-41 0 -60.5 -7t-33.5 -7q-20 -7 -33.5 -13.5t-26 -16.5 t-26.5 -23.5l-34 -33.5q-8 -11 -13 -20t-9.5 -19l-10 -22.5t-14.5 -29.5q0 -3 -5.5 -14l-5.5 -11q0 4 -1.5 21.5t-1.5 30.5v9q0 5 1 26t2 45t2.5 45t1.5 26v4l-9 7h-2q-6 -6 -23 -10t-34.5 -6.5t-29.5 -4t-7 -1.5q-15 -5 -24 -7t-9 -8v-14z" />
<glyph unicode="G" horiz-adv-x="674" d="M27 323q4 -43 7 -61t5.5 -25.5t5.5 -11.5t7 -18q17 -43 46.5 -81.5t68.5 -67t87.5 -45t102.5 -16.5q1 0 8.5 -0.5t16.5 -1.5t18.5 -1.5t15.5 -0.5h7q8 8 25 19.5l37 24l40.5 25t35.5 22.5q1 1 5 3.5t8 4.5t7.5 4t4.5 2l22 11q11 11 16.5 24t8.5 25t4 22t4 16 q3 17 3.5 28.5t0.5 35.5q0 57 -11.5 92t-28 56t-35 31.5l-31.5 18.5q-2 0 -10 3l-17.5 6.5l-18.5 7t-12 5.5q-5 1 -13.5 2.5t-17.5 3.5t-17 3.5t-10 1.5h-69q-8 -4 -20.5 -6t-25.5 -3.5t-23.5 -3.5t-14.5 -6q-18 0 -30 -16.5t-31 -48.5l-17.5 -23.5l-14 -20t-14 -18.5 t-16.5 -18q-6 0 -7 17t-1 39q0 31 1.5 50t3.5 31t4.5 19l5.5 15q0 1 2 6.5l4.5 12t4.5 12.5t4 9l7 14q0 4 9 8.5t21 8.5t24.5 7.5t18.5 4.5q4 4 18.5 7t31 5t30.5 2.5t18 0.5h54q19 0 45.5 -4.5t51.5 -10t43.5 -10t22.5 -4.5q2 -1 6 -1h5v106q0 2 -1 6t-2 5l-8 4q-9 0 -20 3 l-22.5 6l-22.5 6t-18 3q-26 3 -43.5 3.5t-49.5 0.5q-20 0 -49 -2t-56.5 -5t-47 -8t-19.5 -11q-13 -17 -23.5 -28l-21 -22t-21.5 -24.5t-25 -34.5l-4 -4l-42.5 -36t-26.5 -24t-14 -18.5t-4 -19.5q-1 -5 -2 -15.5l-2 -22t-2 -21.5t-1 -13v-37v-40zM150 284v2v1q5 8 8 11t7 6.5 l10.5 9t18.5 17.5q38 23 77.5 35t93.5 12h25q34 0 60.5 -13t44.5 -31t27.5 -38t9.5 -34v-51q0 -17 -4.5 -38t-10 -38.5t-10 -28.5t-4.5 -8q-7 -7 -11.5 -8t-14.5 -3h-69l-39 9t-36 9.5t-37.5 13t-43.5 19.5q-18 9 -35.5 27.5t-31.5 40.5t-23.5 43t-11.5 35z" />
<glyph unicode="H" horiz-adv-x="604" d="M36 -3h124v334q0 7 16 15.5t34.5 15t32.5 10.5t11 3q3 0 11.5 1.5t10.5 1.5h12q22 0 44 -3.5t42 -11t36 -19t26 -28.5q8 -12 12.5 -21t6.5 -17.5t2.5 -17.5t0.5 -22q0 -16 -1 -23t-3.5 -15l-7 -22.5t-10.5 -46.5l-28.5 -59l-13.5 -28.5t-5 -9t-1.5 -1t-3 -5t-10.5 -20.5 q-1 -2 -2 -4.5t-2 -3.5v-2v-1q1 -1 2 -2.5t2 -1.5h14q2 0 6 1.5t5 2.5h95q20 28 31.5 55t26.5 57q0 8 7 20t7 24q4 14 6.5 25t4 22t1.5 24v32q0 18 -0.5 30.5t-3 24.5t-7.5 27t-15 40q-7 7 -9.5 15t-8.5 14l-7 7l-30 25t-22 17t-20.5 11.5t-26.5 8.5q-22 8 -44.5 11.5 t-45.5 3.5h-40q-5 0 -16.5 -1.5t-23 -3.5t-20.5 -4.5t-9 -5.5q-23 -36 -32.5 -54.5l-14 -27.5t-7.5 -13.5t-12 -13.5l-3 4v216h294q0 1 0.5 8t1.5 17.5t1 16.5v47q0 1 1 6t1.5 10.5l1 10.5t0.5 6v8q-34 0 -70 -4t-68 -4h-84q-9 0 -20.5 0.5t-21.5 1.5t-17 1.5t-8 0.5 q-8 0 -21.5 -14.5t-27.5 -33.5l-28 -39t-23 -30l-3 -3q-9 -9 -21 -19t-12 -14v-58q0 -18 1 -47.5t2.5 -66.5t2.5 -78.5t1 -83.5v-91q0 -16 -1 -34.5t-2.5 -36.5t-2.5 -33t-1 -23v-11z" />
<glyph unicode="I" horiz-adv-x="450" d="M33 581l4 -7h40q3 0 14 0.5t23.5 1t24 1.5t14.5 1h120l3 -4l1 -7t1.5 -16t1 -19t0.5 -16v-69q-14 -14 -38.5 -31.5t-55.5 -48.5l-4.5 -4.5t-3.5 -2.5v-4l4 -4q39 -1 59.5 -6.5t29.5 -11.5t9.5 -10.5t-0.5 -3.5q7 -14 7.5 -27t0.5 -37v-27t-2 -30.5t-6.5 -29.5t-14.5 -24 l-1.5 -3t-1.5 -4l-4 -4q-17 -11 -30.5 -18t-41.5 -7h-9q-43 0 -76 5.5t-53 12.5h-5q0 -4 7 -16.5l15 -26.5l15 -27t7 -17q2 -2 5 -8.5l6 -13.5t6.5 -12.5t8.5 -5.5h91q25 0 44.5 4t35 10.5t28.5 15l26 17.5q18 12 29.5 26t19 35t11 51.5t4.5 76t1 108.5v150v18q2 9 4 30 t3.5 46.5t2.5 51.5t1 46v19q-1 0 -3.5 1.5t-3.5 1.5h-4q-11 0 -26.5 -1t-32 -2.5t-32.5 -2.5t-28 -1h-153q-3 0 -13.5 0.5t-22.5 1t-23 1.5t-14 1h-25v-124z" />
<glyph unicode="J" horiz-adv-x="448" d="M30.5 666.5q-0.5 -19.5 1 -38t7 -31.5t17.5 -13h22q42 0 82.5 2t82.5 2h27q5 0 5.5 -7.5t2.5 -14.5v-25q-2 -21 -2 -39q0 -17 -3 -31.5t-10.5 -26t-24.5 -19.5l-8 -8q-23 -20 -35 -28l-12 -8v-14q13 -3 33.5 -13l32.5 -16l18 -18l1.5 -8.5t3 -22t3.5 -29t3 -28.5v-264 l-6 -4h-2l-6 4l-14 9t-16 9.5t-11 6.5q-5 5 -12.5 9.5l-14 8.5t-11.5 8t-5 7q-2 2 -11 9t-11 9l-11 11h-11l-11 -11q-8 -12 -18.5 -22l-20.5 -20t-16.5 -18.5t-6.5 -17.5q0 -8 4 -8.5t8 -4.5l21 -14l53.5 -42l30 -23t15.5 -10.5t10 -4.5h4q20 20 62.5 54t111.5 69q2 3 4 24 t3.5 52.5t2 69l1 72.5t0.5 63v42v102q0 1 0.5 7l1 12.5t1 12t0.5 7.5v11q3 60 5 107.5t6 85.5q5 19 7 40t2 36h-9q-36 -8 -81.5 -13.5t-101.5 -5.5q-2 0 -21.5 0.5t-47 2t-57.5 2.5t-53 3h-11q-4 0 -4 -4v-11q0 -14 -0.5 -33.5z" />
<glyph unicode="K" horiz-adv-x="605" d="M40 4q0 -4 4 -4h127q3 0 3 4v21q0 13 -1 29t-2.5 32.5t-2.5 31.5t-1 27v138q0 5 0.5 12.5l1 15t1.5 13.5l1 6l3 4h33q30 -10 47 -14t26.5 -6.5t14 -4.5t10.5 -8q26 -21 43 -44t28.5 -46t18 -43.5l11.5 -36.5q11 -28 15 -49t5.5 -36l2.5 -25.5t6 -16.5h135q0 11 -5 29.5 t-11.5 38.5t-11.5 38t-5 28q-45 140 -102.5 211.5t-136.5 85.5q-7 2 -14 2.5t-12 5.5v3q0 3 16.5 18.5l37 34l39 35t23.5 21.5q2 1 6 3.5t5 3.5l11 11q13 13 37 30t50 43l11 11q1 1 5.5 3.5t5.5 3.5l11 11l31 21.5t14 18.5h-169q-28 -51 -47 -79.5t-19 -30.5l1 1 q0 -8 -10 -20.5t-22 -25t-21.5 -21.5t-8.5 -9q0 -8 -10.5 -19.5t-23.5 -24t-23.5 -24.5t-10.5 -19q-15 -15 -21 -24t-16 -16l-3 3q0 1 -0.5 7.5t-0.5 14.5v15v13q0 34 1.5 65l3 62.5l3 65t1.5 74.5q-29 0 -54.5 -5.5t-44.5 -11.5t-29.5 -10.5t-10.5 -2.5v-54q0 -7 0.5 -35.5 l1.5 -83.5l2.5 -138.5t2.5 -200.5v-3q-1 -38 -2.5 -62.5l-2.5 -42t-1.5 -31.5t-0.5 -31v-4v-3z" />
<glyph unicode="L" horiz-adv-x="566" d="M38 675q0 -2 1.5 -12.5t2.5 -12.5v-26q0 -40 3.5 -103t7.5 -162v-29q-2 -134 -4 -214t-4 -91v-10v-8q0 -4 4 -4h4q18 0 37.5 5.5t38.5 5.5q8 1 23 2t17 2h171q3 0 13.5 -1.5t22.5 -2.5t22.5 -2.5t13.5 -1.5h40l4 4l23.5 28.5l27.5 33.5l22.5 28l9.5 12v7q-21 4 -44.5 6 t-53.5 2.5t-67 0t-84 -0.5q-35 0 -66.5 -0.5t-43.5 -0.5l-4 4v218q0 9 1.5 27.5t5 39.5t10 42t16.5 36q11 21 26.5 41t33.5 35t38 24t40 9q3 1 14 2t15 2h11q13 -2 24 -4t22.5 -5.5t24.5 -9t31 -14.5q9 -9 18 -9v16q0 7 -0.5 24.5t-1.5 37.5t-1.5 37.5t-0.5 24.5 q-9 5 -21.5 8t-25.5 4.5t-25 2t-19 0.5q-34 0 -58 -6.5t-38.5 -14.5t-21 -14.5t-5.5 -5.5q-24 -21 -40 -38t-25 -30.5t-13.5 -22.5t-5.5 -14q-11 -23 -15 -37t-10 -17l-4 3v208q-5 0 -14.5 -3.5l-22 -8t-26.5 -8.5t-28 -6q-10 -5 -23.5 -6.5t-23.5 -4.5v-22z" />
<glyph unicode="M" horiz-adv-x="904" d="M37 530q0 -8 1.5 -28t3.5 -43t3.5 -43t2.5 -28v-392h131v54q0 4 -1 20t-1.5 34.5t-1 34.5t-0.5 20v37v22t-0.5 40t-1 48.5t-1 48.5t-1 40t-0.5 22v164q6 6 11 7h66q45 0 68 -20.5t32.5 -44.5t10.5 -43.5t1 -18.5v-55q5 -113 5 -213v-193h126v21q0 5 -0.5 23t-1.5 39 t-1.5 39t-0.5 23v349q0 14 -3.5 29.5t-3.5 28.5v25l4 4q1 0 9.5 0.5t13.5 0.5q32 0 64 -6t69 -6h14q8 -2 15 -4t7 -7v-15q0 -79 -2 -153t-2 -140q0 -57 -2.5 -90t0.5 -55t15.5 -40.5t41.5 -47.5q7 -7 17 -14.5t12 -7.5h11l33 33q17 17 34.5 29t34.5 29l3 3q0 1 0.5 2.5 t0.5 3.5q0 5 -6 7.5t-14 4t-16 2t-12 2.5q-13 7 -19 24.5t-7.5 40t-0.5 46.5t1 45q0 45 1 83.5t2.5 75.5t4 74.5t4.5 79.5v36q0 1 0.5 6.5l1 11.5l1 11.5t0.5 6.5v33q-1 0 -14 2t-32 4t-42 4l-44.5 4t-39 3t-24.5 1h-11q-15 5 -33.5 10t-31.5 5h-7q-8 -8 -18.5 -26 l-20.5 -36.5l-18 -32.5t-9 -14h-3q-2 0 -7.5 6.5l-12 14.5l-13.5 16t-11 10q-21 21 -56 30.5t-89 20.5q-5 1 -16 2t-13 2h-73l-4 -4l-18 -28t-14 -19l-8 -8q-7 -7 -16 -17l-17.5 -19.5t-14.5 -17.5t-6 -11l-12 -12l-13 -13t-10.5 -11.5t-4.5 -7.5v-14z" />
<glyph unicode="N" horiz-adv-x="684" d="M39 642q0 -5 1.5 -18.5t3 -28.5t2.5 -28.5t2 -18.5v-545h129l4 4v25q0 3 -0.5 10.5t-1.5 16.5t-1.5 17t-0.5 11q0 17 -0.5 52.5t-1 80t-0.5 93.5q0 50 -0.5 94.5t-1 80t-0.5 52.5v8q1 7 2.5 19.5l1.5 12.5l4 4h61q17 0 41 -3.5t43 -3.5q13 -3 34.5 -4t42 -3t35.5 -6 t15 -13v-319q0 -69 6 -110t9 -46q3 -6 13 -18.5t22.5 -24.5t24 -21t16.5 -9h3l53.5 50.5t55.5 47.5q0 1 0.5 2t0.5 2t-2 7.5t-6 6.5h-3q-5 0 -9.5 -2t-9.5 -2q-3 0 -10.5 4t-10.5 7l-11 11q-5 5 -8 15.5t-4.5 22.5t-2 24.5t-0.5 21.5v196q0 34 1.5 73.5t4 76.5t5 66.5 t4.5 44.5v13q-33 0 -62.5 0.5t-59.5 2.5t-63.5 6t-76.5 11q-10 3 -22 5.5t-17 2.5q-8 0 -23.5 -16.5t-32 -36.5t-32 -36.5t-22.5 -16.5h-10q0 2 -0.5 11t-0.5 11q0 3 1 13.5t1.5 22.5l1 23t0.5 14v11q-20 0 -37 -7t-36 -12q-8 -3 -19 -5.5t-21.5 -4.5t-17.5 -4.5t-7 -3.5 v-40z" />
<glyph unicode="O" horiz-adv-x="710" d="M27 345q0 -51 4.5 -82t12.5 -52.5t19.5 -38l25.5 -37.5q14 -25 46 -51.5t77 -53.5q6 -4 17 -7.5t23 -6.5t22.5 -6t13.5 -6q5 0 17 -3.5t20 -3.5h98l91.5 61t45 31t14.5 11.5t1.5 2t4.5 3l24 14.5q15 10 22.5 21t12 23.5t9 28.5t14.5 36q4 7 7.5 21.5t6 34t4 42.5t1.5 47 q0 25 -0.5 40t-3.5 30t-10 35.5l-19 58.5q-6 6 -9.5 13.5t-9 17.5t-13.5 22t-23 27q-1 1 -8.5 7t-9.5 7l-11 11q-22 22 -45.5 34.5t-44 19t-36.5 8.5t-23 3q-4 1 -13.5 2.5t-11.5 1.5h-80q-24 0 -48 -14t-45.5 -33.5t-39.5 -40t-30 -32.5q-30 -20 -48 -35t-29.5 -32.5 t-19 -40.5t-16.5 -59q0 -12 -3.5 -34.5t-3.5 -37.5v-4v-4zM150 353v15q0 33 4 67.5t15 66.5q0 13 6 26t13 23.5t12.5 17t4.5 5.5q19 5 40 10t32 5h51q35 0 66 -11t56.5 -28.5t46 -38.5t35.5 -42q0 -1 3.5 -8.5t7 -16t7 -15.5l3.5 -7q4 -11 7.5 -31t3.5 -38v-22 q0 -42 -5.5 -71.5t-8.5 -37.5q-6 -18 -10 -27.5t-8 -17l-8.5 -16.5l-13.5 -26q-11 -20 -30 -24.5t-54 -4.5h-11q-35 0 -76 10t-76 33q-5 5 -15.5 12t-17.5 14l-3 3q-21 21 -33 38t-19.5 32t-10.5 30l-6 31q-1 4 -2 11.5t-2.5 14.5l-2.5 12t-1 6z" />
<glyph unicode="P" horiz-adv-x="638" d="M40 625q0 -7 0.5 -33t1 -56t1.5 -56t1 -33v-66v-41q0 -30 0.5 -71t1 -87.5t1 -87.5t0.5 -72v-40v-76q0 -2 -0.5 -8.5t-1 -14t-1 -14t-0.5 -7.5v-4v-3q0 -1 1.5 -2.5l1.5 -1.5h124v47q0 3 -0.5 16t-1.5 28t-1.5 27.5t-0.5 15.5q0 9 -1 21t0 22.5t5 18t13 7.5h1 q16 -3 30 -8.5l25 -10t17 -8t5 -2.5q20 -6 39 -15.5t33 -9.5h11l44.5 29.5t36 22t31 17l30.5 15.5q1 2 10 5.5t19.5 8l20 8.5t12.5 7q20 50 27 70.5t8 26.5t0 4t5 4l19 61t10 41.5t3.5 37.5t0.5 51q0 68 -14.5 115.5t-40.5 78.5q-35 42 -64 62t-51 29t-38 12t-25 10 q-15 0 -28 3.5t-27 3.5h-40q-15 -15 -40 -34.5t-47 -41.5l-15.5 -16t-13.5 -10q-2 0 -4.5 6.5t-2.5 11.5v15q0 19 2 37.5t2 35.5h-11q-1 0 -13.5 -3.5l-27.5 -8t-27 -9t-12 -5.5q-15 0 -28.5 -6.5t-15.5 -11.5v-58zM167 196v207q0 10 0.5 36.5t1 56.5t1.5 56t1 37l3 3 q7 3 18 6t23.5 5t26 3t25.5 1h16q39 0 69 -11.5t50.5 -26.5t32.5 -28.5t16 -17.5q7 -14 15 -25.5t14.5 -26t10.5 -35.5t4 -52q0 -26 -5 -68t-21 -98q-1 -1 -4 -8t-6 -15.5t-5.5 -16.5t-2.5 -11q-11 -27 -19 -44.5t-10 -20.5l-7 -4h-4q-15 2 -34.5 8.5t-42 15l-48 19 t-50.5 19.5q-8 0 -19 5t-21.5 11t-18.5 12t-10 8z" />
<glyph unicode="Q" horiz-adv-x="775" d="M35 306q0 -20 4.5 -37.5t13.5 -46.5q13 -27 22 -50.5t26.5 -47t49.5 -48t91 -54.5q27 -6 45 -11t36.5 -8.5t42.5 -5t63 -1.5q43 0 72 4t31 4q22 5 46 5q25 0 45 10q19 2 33 4.5t24.5 9t18.5 18.5t15 33q1 3 5.5 14t8.5 23l7.5 22.5t3.5 13.5v12q-6 0 -12 -3.5t-12.5 -8.5 l-12.5 -9.5t-10 -5.5l-60.5 -25t-44.5 -11h-7q-4 0 -4 4q26 26 44 54t29 52.5t16 41.5t5 22q13 25 12.5 53.5t-0.5 56.5q0 25 -1.5 42t-5.5 33t-11 33.5t-19 43.5q-1 1 -3.5 6t-6 11l-7 11.5t-5.5 7.5q-14 27 -31 44t-33.5 28t-32 17.5t-26.5 12.5q-20 9 -36.5 13.5t-32 7.5 t-30.5 4.5t-32 3.5h-11l-28 -4t-26.5 -3.5l-21.5 -2.5t-11 -1l-22 -22q-20 -20 -37 -34.5l-32 -27l-28.5 -24t-25.5 -23.5q-14 -10 -27 -21.5t-24 -22.5l-7 -7q-14 -29 -23.5 -68.5t-9.5 -76.5v-35v-30zM155 338v29v29q0 32 4.5 56t9.5 40.5t10 25t5 9.5q10 23 19.5 35 t16.5 17t11.5 5.5t6.5 0.5q3 1 14 2.5t15 1.5h84q18 0 41.5 -10.5t46 -24.5t39.5 -27t22 -18q18 -26 29.5 -47.5t19 -41.5t10.5 -40.5t3 -44.5q0 -49 -15 -96t-44 -86q-8 -14 -15.5 -24t-17.5 -17t-23 -10.5t-33 -3.5q-12 0 -30 3t-37 8t-35.5 13t-25.5 17q-4 0 -8.5 3.5 l-9 7t-8.5 7t-7 3.5l-40 40q-25 25 -35.5 52.5t-15.5 49.5q0 5 -3.5 16.5t-3.5 19.5z" />
<glyph unicode="R" horiz-adv-x="615" d="M39 676q0 -8 1 -20t2.5 -25t2.5 -25.5t1 -20.5v-588h127q4 0 4 3v11q0 4 -1.5 15t-2.5 14v531q9 5 17 8t16.5 4.5t19.5 2t26 0.5q36 0 56 -5.5t30.5 -14t15 -19l8.5 -20.5q3 -3 5.5 -14t2.5 -15v-58q0 -17 -4 -34.5t-7 -20.5h-4l-8.5 5.5t-16.5 9.5h-8q-44 -31 -76 -48.5 t-40 -20.5v-11q7 -3 16 -7.5l17.5 -9t14.5 -8t7 -4.5l29 -29q0 -4 4.5 -13.5t9.5 -19t10 -17.5l5 -8q4 -9 9 -25l10 -32t8.5 -29t5.5 -16v-11q-1 0 2 -4t7.5 -9t8 -10.5t3.5 -9.5q6 -6 15 -17t23.5 -21.5t35 -18.5t50.5 -8h11q39 39 62.5 68.5t23.5 37.5q-79 0 -104 25 q-7 7 -16 25.5t-18.5 42t-18.5 50t-16 49.5q-4 7 -6 13t-5 12.5t-8 14t-14 18.5q-1 2 -5.5 7.5t-5.5 7.5v11q-5 4 9 8.5t34 10t40.5 12.5t29.5 16l3 3q1 5 2.5 20t1.5 20v44q-2 18 -4 31t-5 25.5t-8 25.5l-12 31q-15 15 -23.5 26t-20.5 20.5t-32.5 18t-58.5 18.5 q-2 1 -12 2.5t-13 1.5h-29q-4 0 -13 -10l-19 -22l-19.5 -23t-14.5 -14q-10 -17 -17.5 -21.5t-14.5 -11.5q-4 0 -5 8t-3 14v80q0 1 -3 4h-11q-56 -16 -85 -19t-35 -3v-15z" />
<glyph unicode="S" horiz-adv-x="638" d="M30 0v-2v-1q0 -4 4 -4h18q4 0 18.5 0.5t32 1t32 1.5t18.5 1h95q3 0 13 -1t21.5 -1.5t21.5 -1t13 -0.5h80q42 32 69.5 46.5t31.5 18.5q25 15 42.5 23t28.5 17.5t17 24.5t10 44q4 17 6 28t3.5 21t2 20.5t0.5 27.5t-2 38t-9.5 42t-21.5 39.5t-37 30.5q-15 15 -39.5 23.5 t-48 12t-41.5 4.5t-20 1t-9 -0.5t-9 -0.5l-3 -3l-30 -42t-28 -46q-2 -2 -4.5 -6t-3.5 -5l-7 -7h-43q-23 8 -45.5 17t-38.5 30l-11 22q0 6 -1.5 10.5l-3 9t-2.5 11.5t-1 19q0 18 4.5 44.5t14.5 76.5l9 7h2q38 -5 73 -5.5t68 -5.5q60 0 120 -7.5l120 -14.5h15v19q-7 13 -7 31 q0 19 -1 35t-7 27.5t-25 11.5q-3 0 -13.5 0.5t-24 1t-26.5 1.5t-20 1h-18q-42 0 -83.5 5t-83.5 13h-29q-6 -2 -21.5 -15.5l-32.5 -29l-32 -29.5t-19 -17q-24 -24 -42 -36.5t-29.5 -28t-17.5 -42t-6 -78.5v-69q0 -22 10.5 -42t24.5 -35t28 -23.5t21 -8.5q15 -10 33 -16t34 -9 t28 -4t14 -1q14 0 19 6t10 18.5t15.5 31t35.5 43.5q8 12 17.5 13.5t29.5 1.5q1 0 18 0.5t38.5 -6t42 -23.5t28.5 -52v-69q0 -5 -1.5 -15.5t-3.5 -22t-4 -21t-2 -13.5l-7 -7h-382q-22 -57 -35 -78.5t-19 -27.5z" />
<glyph unicode="T" horiz-adv-x="747" d="M14 516l105 -106h11l4 4l44.5 48t17.5 21v7l-25 27l-27 28t-21 22.5t-7 10.5l7 7h58q27 0 53.5 1t49.5 2.5l39.5 2.5t24.5 1t18.5 -0.5t10.5 -5.5v-1q0 -3 -12 -13l-25.5 -20.5t-24 -17.5t-7.5 -4q-18 -14 -28.5 -28.5t-18.5 -27.5t-14 -24.5t-15 -20.5 q-11 -26 -17 -41.5t-8.5 -26.5t-3 -21t-0.5 -24v-29v-29q0 -47 19 -86.5t48.5 -69.5t65 -50t67.5 -30q21 -6 35 -9.5t29 -5.5t35 -3.5t53 -3.5h4q19 2 30.5 3.5t18.5 4t11.5 7t10.5 11.5l14.5 17.5t23.5 25.5q20 24 32 36t12 20q0 3 -1 6t-3 3h-4q-21 -11 -38 -16t-24 -5 h-123q-11 0 -20.5 3.5l-19 7t-20 7t-24.5 3.5q-16 8 -28.5 16.5t-29.5 16.5l-18 18q-17 23 -27 48t-10 64q0 47 7.5 73l7.5 26q10 17 14.5 28t7 18l4.5 12.5t7.5 13.5t16 20t30.5 31q23 23 40.5 34t35.5 17q13 6 30 9.5t34.5 6l33.5 5t26 5.5h40q5 0 20 1t20 2q-1 2 -1 9v15 q0 16 2 22.5t2 15.5v15q1 1 4 3.5t4 3.5v7q0 1 -2 4l-2 3v11q0 1 -1.5 2t-2.5 2h-3q-6 0 -21 -1.5t-33 -3t-37.5 -3.5t-35.5 -3h-15q-2 0 -14.5 -1.5t-14.5 -2.5h-4q-6 0 -25 0.5t-44 1.5t-54 2t-54 2t-44 1.5t-25 0.5h-117l-7 -4q-11 -26 -43 -72t-95 -102v-11z" />
<glyph unicode="U" horiz-adv-x="670" d="M35 664q0 -21 3.5 -43.5t3.5 -54.5v-11q0 -5 1 -25.5t1.5 -43.5t1 -43.5t0.5 -25.5v-127q0 -2 0.5 -7.5t1 -12.5t1.5 -13t1 -7v-18q3 -22 5 -35t5.5 -24t9 -23t16.5 -31q1 -2 3.5 -6t3.5 -5l29 -29q24 -24 55 -39.5t64 -23.5t65.5 -11t60.5 -3q6 0 16.5 0.5l10.5 0.5 l93 91h2q3 -3 3 -4v-83h127l8 3v44q0 4 -0.5 15.5t-1.5 24.5t-1.5 24t-0.5 16v457q0 7 1 23.5t2.5 35t2.5 35t1 22.5v4h-14q-10 0 -25.5 -1t-33 -1.5t-36.5 -1.5t-37 -1q0 -21 1.5 -67.5t3 -108t3 -132.5t1.5 -139v-35q0 -22 -0.5 -45t-2 -40.5t-5.5 -19.5 q-11 -4 -24.5 -7.5t-29.5 -3.5h-66q-19 3 -34.5 6.5t-31 10t-32.5 16.5t-40 25q-16 16 -26.5 31t-16.5 35t-8.5 46.5t-2.5 65.5v294q0 3 0.5 13.5t1 23t1.5 23t1 13.5v11q-4 4 -8 4q-1 0 -14.5 -5.5l-29 -12t-27.5 -11t-9 -1.5q-14 -4 -32 -12.5t-22 -12.5v-3v-4z" />
<glyph unicode="V" horiz-adv-x="640" d="M33 657q0 -8 2.5 -20t6.5 -26.5t7.5 -29t5.5 -26.5l3 -31.5t3.5 -44.5t3 -43t1.5 -26v-275q0 -3 -1 -10t-1.5 -14.5t-1 -14t-0.5 -9.5v-12v-13q26 -6 44.5 -12t38.5 -6q69 -20 118.5 -33t63.5 -18h4l14 7q26 18 47 30t41 21t41.5 16.5l48.5 16.5q13 5 20 15t11 23.5t8 30 t12 36.5q0 8 2.5 23t5.5 30.5t6 28.5t4 16q5 21 6 41t5 35q-1 11 -1 40v62q0 38 0.5 68t1.5 56.5t1.5 53t0.5 58.5v3q0 1 -1.5 2.5l-1.5 1.5h-8q-8 0 -20.5 -1.5t-26 -4t-27 -4t-23.5 -1.5h-113q-2 0 -9.5 0.5t-16 1t-16 1.5t-9.5 1h-43q-29 -32 -59.5 -60t-56.5 -46 q-4 0 -4 4v113l-1.5 1.5t-2.5 1.5h-3q-9 0 -20.5 -8t-23.5 -14q-21 -10 -43.5 -15.5t-43.5 -13.5v-7zM174 536q0 26 4 32t22 6h265l2.5 -1.5t4.5 -2.5l4 -4q1 -1 2 -14.5t2 -32l2 -38t1 -31.5v-32q-2 -48 -4.5 -94.5t-10.5 -94.5q0 -31 -7 -47t-7 -22q0 -13 -6 -25t-13 -21 t-11.5 -14t-2.5 -5q0 -1 -4 -1h-5l-17 4l-38 9l-38 9l-17 4q-15 6 -33.5 11.5l-35 10.5t-30 8t-18.5 3l-3 3l-0.5 27.5t-1 66t-1.5 79t-1 67.5v54q0 23 -2 43.5t-2 42.5z" />
<glyph unicode="W" horiz-adv-x="910" d="M34 658q0 -4 3.5 -11.5t8 -15l7.5 -12.5l3 -5q0 -6 2 -16t5 -21t5 -21.5t2 -17.5v-25q0 -2 1 -7t1.5 -11.5t1 -12t0.5 -6.5v-14q0 -4 0.5 -19.5t1 -33.5t1.5 -33.5t1 -19.5v-174q0 -3 -1 -13.5t-1.5 -22.5t-1 -22.5t-0.5 -13.5v-22v-22l8 -1.5t19.5 -4t24 -6t21.5 -6.5 l57 -19.5l46.5 -16.5l30 -11t7.5 -4h11l69 69q1 1 5 4t6 3h7q6 0 18.5 -5l26.5 -11l26.5 -11t19.5 -5q26 -9 50.5 -23t51.5 -21h14q2 0 9.5 5l16.5 11t17 12t12 8q10 10 35 21t48 23q6 0 17.5 4t22 8.5t17.5 8t5 1.5q5 0 11 11t11 25t9 27t5 17q7 14 9.5 23t3 14.5t0.5 8.5 q0 4 2 8q3 18 5 32.5t4.5 28.5t4.5 28t4 31q5 177 9.5 257t4.5 77v7q0 1 -3 4q-9 -1 -31 -1h-46h-40h-25t-23 1t-31 3q-16 3 -30 3t-25 5h-18q-1 -1 -7 -8.5l-13 -17t-14 -18t-10 -11.5l-14 -14q-10 -10 -17.5 -21t-18.5 -19h-4q-2 0 -4.5 6t-5 13.5t-4.5 14.5t-4 9 q0 11 -10 20t-21.5 15t-20.5 8t-6 1q-18 8 -43 13t-52 5h-25l-7 -7q-17 -17 -28 -32l-21 -28.5t-22 -25t-31 -20.5h-4q-1 1 -3 2.5l-2 1.5v114q-5 0 -25.5 -5.5t-52.5 -21.5q-14 0 -35.5 -7.5t-44.5 -14.5v-3zM193 541q0 4 0.5 11t0.5 8l7 7q1 1 6.5 2.5l12.5 3.5t14 3.5 t11 1.5h54q1 0 6.5 -1.5t8.5 -2.5l21 -7q12 -6 25.5 -22.5t18.5 -39.5q4 -15 6 -31t2.5 -48t0.5 -88t2 -152v-4q-3 -44 -5 -61.5t-10 -21.5h-3q-33 6 -44 10.5t-13 7.5t-2 5t-10 2q-14 4 -25.5 9l-22.5 10t-22 9.5t-25 7.5q-2 2 -6.5 4t-4.5 4v308q0 17 -2 31t-2 34z M506 563v4q1 2 4 4.5l3 2.5h218l4 -3l0.5 -11t1 -26l1 -31.5t0.5 -26.5q0 -17 -0.5 -42.5t-1.5 -51t-2.5 -47t-2.5 -29.5q0 -26 -5.5 -53.5t-12.5 -59.5q-7 -13 -7 -26t-8 -21q-6 -21 -10.5 -31.5t-8 -15t-5.5 -4.5h-1l-3.5 -0.5t-5.5 -0.5q-9 0 -26 6.5t-33 14t-26.5 12 t-7.5 1.5q-8 3 -17.5 7.5l-18.5 9l-15 7.5t-7 5v40t-0.5 61l-1 71.5l-1 71.5t-0.5 61v40v11q0 2 -1 9.5t-1.5 15.5l-1 15.5t-0.5 9.5z" />
<glyph unicode="X" horiz-adv-x="811" d="M37 560q0 -1 1.5 -2t2.5 -2h3q18 24 40 32t33 8h43q16 0 32 -10.5t29 -24t22 -27.5t12 -21q4 -8 10.5 -22.5t12.5 -30t10 -29t4 -18.5t-5 -7.5t-11.5 -3t-14 0t-13.5 0.5q-15 0 -24.5 0.5t-16.5 1t-13.5 2t-14.5 4.5h-8q-10 -10 -21.5 -27t-21 -33l-16 -26.5t-6.5 -7.5 q0 -2 -0.5 -4.5t-0.5 -3.5h12q3 1 14.5 2t14.5 2h178q1 -2 4 -5t3 -6v-11q0 -1 -8.5 -11.5l-21 -25.5l-27 -33l-27.5 -33.5l-22 -26t-10 -11.5q0 -1 -8.5 -9t-19 -19.5t-21.5 -25t-16 -23.5q-18 -13 -27 -22.5t-14 -17t-9 -14.5t-12 -15v-7h123q4 0 7.5 10t3.5 15l11 22 q2 3 6.5 11.5l10 18l10 17.5t6.5 11l11 11l42 59.5l22 30t8 11t0 1.5h4q1 0 2 -1.5t2 -2.5l7 -14q5 -21 13.5 -40.5l15.5 -36.5l7 -14q15 -34 40 -54.5t49.5 -32t43 -15t20.5 -3.5h5t11.5 -0.5t13.5 -0.5h11h42q14 0 18 4l15 15q2 4 12 16l21.5 26.5t20.5 28t9 21.5 q-19 0 -42.5 -6.5t-58.5 -6.5q-11 0 -19.5 0.5t-18 3t-21 7.5t-27.5 15q-9 9 -18 17t-17 17.5t-15.5 23.5t-14.5 36q0 11 -9 25t-9 23q-1 1 -3 7.5l-4.5 14l-4.5 13.5t-3 8v8q1 0 2 1.5t2 1.5h51q21 0 40.5 -1.5t35.5 -4l26 -4l10 -1.5h18q3 0 13.5 11t24 26.5l28 33 l25.5 31.5v4l-5 3h-2q-20 -4 -36 -6.5t-34 -4.5t-41 -3t-56 -1q-18 0 -33 0.5t-15 7.5q0 2 9.5 13.5t24 27.5l31 35t30.5 37l5 5t11.5 12.5l14 15.5l13.5 14l3 3l64 62.5t35.5 32t19.5 15.5t16 14l3 3q2 4 2 8h-161q-6 0 -10.5 -8t-8.5 -18.5t-7.5 -21t-6.5 -14.5 q-11 -23 -34 -52t-46 -64q-7 -7 -19 -26l-25.5 -39.5t-25.5 -36t-19 -15.5q0 -1 -4.5 2.5t-4.5 5.5l-40 116q-5 5 -13 29.5t-31 61.5q-13 22 -31.5 36.5t-40 22.5t-45 11t-47.5 3q-23 0 -35.5 -0.5t-21.5 -1.5t-18.5 -3.5t-25.5 -5.5q-12 -6 -17 -16t-6.5 -23.5t-1 -31 t-0.5 -38.5v-22z" />
<glyph unicode="Y" horiz-adv-x="740" d="M22 697q0 -5 7 -17t16 -25.5l17 -25.5t10 -16q3 0 10.5 -12.5t18 -33.5t22.5 -48l25.5 -55.5l26.5 -56.5l24 -51l11 -22q3 -6 13.5 -32l22.5 -55l23 -55t14 -32q0 -14 5 -27t11 -23t11 -17t5 -10q6 -6 11 -17.5t9 -24.5t7 -24t6 -17v-15q1 -1 -4.5 -4t-13 -6t-15 -6.5 t-10.5 -4.5q-20 -10 -44.5 -11t-46.5 -4h-26q-22 3 -43 5.5t-22 2.5q-2 0 -4.5 -1t-2.5 -3v-4q0 -2 8.5 -14l20.5 -28.5l25 -35t22 -34.5q2 -1 5.5 -2.5t5.5 -1.5h7q18 3 34.5 4t33 3.5t34.5 7t40 14.5q34 16 58.5 33.5t44 38t36 43l35.5 48.5q13 18 24.5 42t19.5 46 t12.5 36.5t5.5 13.5q0 12 5.5 27.5t12.5 31t12.5 31t5.5 27.5q9 24 13 39.5t6.5 27.5l5 23.5t8.5 28.5q0 26 10 51t15 51q0 9 3 20.5l6 23l6 22t3 17.5l8 37.5t6.5 37t4 31t1.5 18.5h-5q-38 -7 -84 -8.5t-109 -6.5h-40q-36 3 -64 7t-59 4h-15q-4 -1 -10 -7.5t-12.5 -14.5 l-12 -14.5t-8.5 -6.5q-11 -11 -18 -19t-14 -15l-14 -14t-16 -14h-11q-2 -2 -5.5 7l-8 21l-8.5 23t-7 14q-1 8 -9 19.5t-13 13.5h-3q-1 0 -6 -0.5t-10.5 -1.5t-10.5 -1.5t-6 -0.5h-65q-2 0 -7.5 0.5t-12.5 1.5t-13 1.5t-7 0.5h-14zM243 563v5l3 9h91q50 0 104 3t114 8h4 q3 0 3 -4v-10q0 -6 -1 -15t-2.5 -18t-3.5 -17t-4 -12q-14 -86 -21.5 -136l-11.5 -76.5t-6 -37t-4.5 -17.5l-6 -17.5t-11.5 -38.5q-6 -20 -13 -40l-13.5 -37t-12.5 -28.5t-9 -14.5h-3q-5 0 -9.5 10t-8.5 23t-6.5 25.5t-4.5 17.5q-9 18 -26.5 68.5t-46.5 116.5q0 7 -6.5 26 t-15 39l-15 34t-6.5 10q-2 1 -5.5 11l-7 20.5t-6.5 18t-3 5.5q-9 9 -15.5 26t-10 29t-3.5 14z" />
<glyph unicode="Z" horiz-adv-x="746" d="M34 1q0 -4 4 -4h7q6 0 19 1.5t28.5 4t32.5 4t32 1.5h22q21 0 64 3.5t89 3.5h54q30 0 60 -2t53 -5t36.5 -5t10.5 -2q1 0 5.5 -0.5t6.5 -0.5q9 0 16.5 6t15 14t16.5 16.5t20 14.5q2 2 11.5 10l21 17.5l21 17.5t11.5 10l7 7q1 2 1.5 7t0.5 6q-60 0 -120.5 -1.5l-118 -3 l-110.5 -3t-99 -1.5h-11q-1 0 -2.5 1.5l-1.5 1.5q9 17 22.5 29t24.5 29q3 3 14.5 16.5l24 29l24 29t14.5 16.5l11 11q0 2 6 9.5t14 16t16.5 15t13.5 6.5h4q34 -2 54.5 -2.5t36 -1t29 -2t32.5 -5.5q2 0 9.5 -1.5t9.5 -1.5h7q6 18 20 37t23 28l22 22q9 9 9 19q-2 0 -11 -2 t-20 -4l-21.5 -4t-14.5 -2h-131l-3 4l83.5 103l83.5 104l14 14q6 6 16.5 19.5t20 27l16.5 24l7 10.5q-11 0 -34 -2t-53 -4l-62.5 -4t-62.5 -2h-218q-24 0 -54.5 1t-60.5 2.5t-55.5 3t-37.5 1.5h-10q-6 0 -7 -1l-4 -3q0 -4 0.5 -12t0.5 -17q0 -20 -2 -40.5t-2 -43.5v-11 q0 -2 6.5 -3t14.5 -1h16h14q1 0 28.5 1l66.5 2.5t82 3t77 1.5h30q26 0 54.5 -0.5t51.5 -2t23 -3.5v-1q0 -1 -5 -8l-11.5 -16t-13 -17t-10.5 -10q-32 -32 -50 -55.5l-29.5 -38.5t-20.5 -22.5t-24 -7.5q-42 0 -84 4t-84 4h-16l-4 -4q-3 -6 -10 -18l-15 -24.5l-15.5 -23.5 t-10.5 -14q0 -6 -5.5 -12t-5.5 -14q5 0 12 2.5l14.5 5t14 5t10.5 2.5q14 4 32 6t26 2h21t28 -0.5t24.5 -2.5t10.5 -5q0 -7 -9 -18.5t-20 -23.5t-21 -21.5t-12 -12.5q-6 -11 -15 -22.5t-18 -21.5t-16 -16.5t-9 -8.5l-25 -25q-1 -1 -2.5 -3.5t-1.5 -3.5l-39.5 -46.5l-30 -35 l-24.5 -28l-22 -25.5v-2v-1z" />
<glyph unicode="a" horiz-adv-x="456" d="M22 112q0 -4 13.5 -14l30 -21.5l31.5 -21t19 -12.5q14 -9 28.5 -21t19.5 -12h11l25 25q0 1 1.5 4t2.5 4l3 3q2 5 9 10l13.5 9.5t11.5 7t3 2.5q2 2 7 6t7 5h4l3 -3q9 -9 17.5 -21.5t17.5 -23t18.5 -18t21.5 -7.5q5 0 5 1l44 43q4 4 11.5 8.5t14.5 10t12.5 12t5.5 15.5 q0 5 -9.5 9.5l-21 9.5t-21 11t-9.5 15v280q0 16 -6.5 31t-13.5 26.5t-12 18.5t-2 7q-17 17 -33.5 26.5t-34 14t-36.5 5.5t-41 1h-4q-22 0 -30 -3.5t-13 -13l-14 -25.5t-34 -41l-15 -23t-7 -10v-29q0 -2 1 -8t1.5 -13.5t1 -14t0.5 -7.5v-22q0 -4 2 -18.5t3.5 -31t3.5 -31 t2 -17.5v-58q0 -7 -11 -17l-23.5 -21l-23.5 -20.5t-11 -14.5v-4v-3zM105 404q0 19 5.5 28.5t31.5 9.5h54q1 0 6.5 -1t11.5 -2.5t11.5 -3.5t7.5 -4l7 -7q13 -13 14 -26t1 -27q0 -9 -16 -29t-35 -40l-33 -34t-11 -11q-8 -11 -19 -20t-14 -9h-7q-1 4 -4 12t-3 17q-2 19 -3.5 44 t-2.5 48t-1.5 39zM130 179q0 8 12 20l107 105h2q4 0 5.5 -10t2.5 -24.5t1.5 -30t1.5 -26.5v-94q-4 -8 -16 -8q-18 0 -44 10.5t-46 30.5l-7 7q-1 1 -5.5 3.5t-5.5 3.5l-7 7q0 1 -0.5 3t-0.5 3z" />
<glyph unicode="b" horiz-adv-x="472" d="M35 787q0 -2 1.5 -14.5t2.5 -14.5v-40v-22q0 -16 0.5 -37.5t1 -46t1 -46t0.5 -37.5v-21v-18q0 -16 0.5 -55.5t1.5 -84.5t1.5 -84.5t0.5 -55.5q0 -34 12.5 -62t34.5 -50l7 -7q28 -25 43.5 -37.5t23 -18t9.5 -6t4 -0.5q4 -4 15.5 -6.5t13.5 -4.5h29q-1 0 17 9.5l44 23 l56 28.5l54 26q15 15 24.5 38.5t15.5 47t8 41.5t2 22v109l-11 44.5t-18 53.5q0 9 -11.5 20t-20.5 23l-15 15q-21 14 -48 28.5t-57 14.5h-29q-15 -15 -25 -26t-18.5 -21.5t-17.5 -20.5t-22 -23h-4l-4 4v25q0 75 4 149t4 149h-127q-4 0 -4 -4v-7zM158 290v69v69q5 11 18 13 t37 2q20 0 39 -6.5t37 -15.5l22 -22l15 -30t10 -25.5t6 -31t2 -45.5q0 -17 0.5 -35.5t-1.5 -38t-8.5 -39.5t-20.5 -38q0 -1 -1.5 -2t-1.5 -2h-26q-14 7 -29.5 10.5t-35.5 18.5q-13 13 -24 23t-19.5 25t-13.5 38.5t-5 62.5z" />
<glyph unicode="c" horiz-adv-x="394" d="M25 243q0 -49 16.5 -86.5t39 -64.5t46 -43t36.5 -20q22 -11 45 -14t56 -8h8q8 0 17 8t15.5 17t10 15.5t0.5 3.5q26 26 40.5 45t14.5 29q0 5 -0.5 7.5t-3.5 5.5h-4l-28 -10t-19 -5h-51q-38 0 -72 34t-47 100v14t-0.5 21.5t-0.5 21.5v14q0 45 -0.5 77t8.5 41h11 q10 -5 30.5 -17l41.5 -25l38 -23.5t22 -11.5q3 0 10 7t14 15.5t13 17l8 11.5q1 1 9.5 13.5l16.5 23.5v10q-10 10 -20 16.5t-27 16.5q-1 0 -4 1.5t-4 2.5l-7 7q-6 0 -15.5 5.5t-18 12.5t-14.5 11.5t-6 3.5q-5 0 -11.5 7t-10.5 7h-14q-34 -31 -52 -46t-26 -20.5t-10 -5t-3.5 1 t-6 -3t-18.5 -17.5q-24 -15 -38.5 -22.5t-22 -17.5t-10 -26.5t-2.5 -49.5v-55v-53z" />
<glyph unicode="d" horiz-adv-x="527" d="M35 570q0 -2 20 -8.5t45 -13.5l48.5 -13t31.5 -9q1 0 4 -1.5t4 -2.5l3 -5v-2q0 -4 -14.5 -11.5t-32.5 -15.5l-34 -15t-20 -9q-14 -3 -23.5 -21t-15.5 -38t-9 -37.5t-3 -19.5v-9t-0.5 -13t-0.5 -13v-9q0 -27 1 -45.5t4.5 -35.5t12 -36.5t23.5 -49.5q0 -6 6.5 -15.5 t15.5 -19.5t19.5 -20t19.5 -17q23 -9 36.5 -20.5t32.5 -19.5l23 -8.5t17 -6.5h26q1 0 11.5 6.5t23 15l25.5 17t20 12.5q9 5 27.5 14.5l37 19l33 16.5t14.5 8q4 6 9.5 19t10.5 27.5t9 28t4 19.5v11q0 9 2.5 31.5t4.5 70.5v4q0 27 -5 49t-11 38.5t-12 27.5t-8 16 q-6 9 -14.5 24t-22 33t-33.5 36.5t-50 33.5q-3 0 -20 9.5l-39.5 21.5l-45 24t-37.5 17q-37 20 -62 30t-50 18h-7q-5 -5 -8 -15t-4.5 -19t-2 -14t-0.5 0q-10 -10 -18.5 -26t-13.5 -31t-7.5 -24t-0.5 -6v-3zM166 293v28q0 108 54 176q1 1 2.5 2t1.5 2h14q52 -26 81.5 -62 t57.5 -84q0 -11 1.5 -18.5t4 -17t4.5 -22.5t4 -33v-3q-3 -27 -9 -54t-12 -47.5t-10.5 -31.5t-4.5 -5q-3 -3 -3.5 -5t-1.5 -3.5t-4 -2.5t-11 -1q-60 0 -133 73l-11 22q0 6 -3.5 15t-8 18l-7.5 15.5l-3 6.5q0 2 -0.5 7l-1 10t-1 9.5t-0.5 5.5z" />
<glyph unicode="e" horiz-adv-x="425" d="M35 282q0 -38 4.5 -60.5t10 -37.5t10 -25t4.5 -22q2 -2 8 -10t12 -17l11 -16t5 -8q9 -6 18.5 -13t17.5 -14t14.5 -11.5t11.5 -4.5q6 -3 19 -8t28.5 -10t33.5 -9t35 -6h4q1 0 11.5 9.5t24 23l27 26.5l21.5 21q7 7 14.5 18t7.5 13l-1 2q0 1 -1.5 3.5t-1.5 3.5l-9 4h-6 q-8 -8 -24 -10t-30 -2q-28 0 -56 7t-50.5 23t-36.5 41.5t-14 61.5q0 14 19 24l7 7q28 28 56.5 46t48.5 38q22 15 34.5 25l21.5 17.5t16.5 15l18.5 18.5v4l-36 36l-17.5 17.5l-24 23t-23.5 20t-15 8.5h-15q-3 0 -10.5 -4.5t-15 -9.5t-13 -9t-4.5 -3q-4 0 -11 -4t-13.5 -9 l-11 -8.5l-4.5 -3.5q-18 -12 -39 -23l-39 -21t-30 -20t-12 -20q-1 -3 -3 -15.5t-3.5 -28l-3 -30t-1.5 -20.5v-21v-23zM151 341v11v10q0 6 2 21.5t5 32.5l5.5 30.5l2.5 13.5q0 1 1.5 2.5l1.5 1.5h8q36 -36 55.5 -52t20.5 -17v-7q-40 -40 -62 -58.5t-31 -18.5q-5 -2 -6 9.5 t-3 20.5z" />
<glyph unicode="f" horiz-adv-x="346" d="M18 438q3 -3 7 -3h22q7 -2 16 -2.5t9 -5.5v-413h113l3 4q0 1 0.5 8t0.5 16v18v16q0 31 -0.5 56.5t-1.5 49.5t-1.5 48.5t-0.5 51.5v4q0 8 0.5 28.5t1 44t1 44t0.5 28.5q4 1 15 2.5t24.5 2.5t28.5 1.5t27 0.5v76q0 4 -6.5 5t-11.5 3h-8q-1 0 -3.5 3t-3.5 4h-4 q-7 -7 -15.5 -8t-23.5 -3h-11q-5 0 -8 7.5t-3 14.5v152l1 1.5t2 2.5h4q2 -1 5.5 -3.5t5.5 -4.5l14 -14q1 -1 5.5 -4t5.5 -3l26 -26h11l61 62q4 2 6 7.5t2 6.5t-0.5 2.5l-0.5 1.5l-7 7l-37.5 35l-38.5 34h-11l-13.5 -11.5t-31 -25t-33.5 -24.5t-20 -11q-28 -28 -50 -40 t-22 -18v-40q0 -3 0.5 -12.5t1 -20.5t1 -20.5t0.5 -12.5v-7q0 -6 -1.5 -17.5l-1.5 -11.5l-7 -9h-40q-1 0 -2.5 -7.5t-1.5 -12.5v-58z" />
<glyph unicode="g" horiz-adv-x="450" d="M28 232q0 -2 1.5 -9t2.5 -9v-18q0 -35 11 -61t25 -43t27.5 -27t19.5 -14q34 -25 56 -34.5t41 -9.5h5q1 0 5.5 5l10.5 12t11.5 14.5t8.5 12.5l29 29h8l1.5 -10t1.5 -16v-36q0 -2 2 -7.5t2 -7.5v-7q-2 -21 -3 -40t-3.5 -34t-7.5 -23.5t-14 -8.5t-17 4t-14 9t-10 9t-7 4 l-6.5 3.5l-15 8l-16 8.5t-10.5 6q-2 0 -10.5 4.5t-11.5 6.5h-7q-5 -5 -17.5 -13l-27.5 -17.5l-30 -19.5t-23 -19v-8v-7q15 -3 33 -10.5t35.5 -17.5t32.5 -20.5t26 -20.5h18l40 27.5l20.5 14t8.5 5t4 0.5q4 4 15.5 9.5t23 9.5l20.5 7t10 3q7 7 18.5 11t21.5 9.5t17.5 15.5 t7.5 30q8 8 11 26.5t3 39.5q0 22 -1 42.5t-1 33.5q0 32 -1 57.5t-3 48.5l-4 45t-4 48v18q0 16 -0.5 28t-1.5 25t-1.5 30t-0.5 44v44t1 29l-4 4q-3 0 -16 4l-29 8.5l-31.5 8.5t-24.5 4q-65 17 -80 22h-4q-30 -25 -58 -52.5t-55 -45.5q-1 -1 -7 -5.5t-7 -5.5l-7 -7 q-18 -14 -27 -31t-12.5 -36t-4 -39.5t-0.5 -39.5v-58zM140 299q0 22 0.5 36.5t1.5 28.5t3.5 29.5t5.5 38.5q2 2 4 6.5t4 4.5h5q22 0 39.5 -5t29 -10.5t17 -9t3.5 -1.5q2 0 7.5 -1.5t7.5 -1.5l7 -7q1 -13 2.5 -37t3 -53l3 -58.5t3 -53.5l2.5 -40l1 -16v-33q-1 -1 -2 -2.5 t-2 -1.5h-22l-28 8.5t-34 17.5q-13 13 -24.5 23t-19.5 26t-13 41.5t-5 70.5z" />
<glyph unicode="h" horiz-adv-x="470" d="M35 748q0 -3 0.5 -10.5t1 -16.5t1.5 -16.5t1 -10.5v-41t0.5 -63t1 -74t1 -74t0.5 -63v-41v-214q0 -33 -2 -63.5t-2 -53.5h128v19q-1 4 -2 18t-2 18v356q0 3 7 7t11 4h51q12 0 24 -5t22 -11.5t17.5 -12.5t9.5 -8q15 -20 20.5 -43t8.5 -47v-91q0 -38 -3.5 -68t-10.5 -57 t-18 -52.5t-26 -55.5q-14 -14 -23.5 -28.5t-9.5 -18.5v-6v-5q1 -1 5 -3.5t6 -3.5h14l39.5 39l40 38.5l35.5 34l27 26.5l11 11q8 0 13.5 14t9.5 35.5t6.5 46t4 45.5t2 34.5l0.5 13.5q0 1 0.5 7.5t0.5 9.5q0 29 -3.5 55.5t-7.5 47t-7.5 33t-3.5 14.5q-3 3 -7 17.5t-12 26.5 l-14 21q-12 21 -30 32.5t-34 17.5t-26.5 7t-7.5 1l-4 4t-3 4h-4q-3 0 -10 -0.5t-15.5 -1.5t-15.5 -1.5t-10 -0.5q-8 -7 -15 -18l-15.5 -23.5t-18.5 -24t-25 -18.5q-1 0 -3.5 1t-2.5 3v47q0 4 0.5 21.5t1 37t1.5 36.5t1 22v32q0 3 0.5 16.5t1 29t1 29t0.5 16.5q0 1 0.5 6.5 t0.5 8.5q0 9 -13 12.5t-31 4.5t-36.5 0.5t-29.5 0.5h-21q-1 -2 -2.5 -9t-1.5 -9v-19z" />
<glyph unicode="i" horiz-adv-x="267" d="M14 448l6.5 -2.5l15 -5.5t16 -6.5t9.5 -7.5q6 -9 7 -19.5t4 -23.5v-11q0 -7 -0.5 -33t-1.5 -56t-1.5 -56t-0.5 -32v-51v-51q0 -19 11 -34t25.5 -26.5t29 -19t21.5 -10.5h11q24 27 41 43.5t28.5 25.5l16.5 13t5 8q0 2 -1 8.5t-3 6.5h-11q-2 0 -7.5 -1.5t-7.5 -2.5h-3 q-3 3 -8.5 5t-9.5 6l-4 4q-6 6 -8.5 15t-2.5 17v319q-4 12 -8 21t-17 26l-11 11q-8 8 -18.5 16.5t-21.5 12.5h-7l-87 -84q-1 -1 -4 -5t-3 -6v-14zM50 629l18 -29h18q7 0 21.5 14t29 31l25.5 30t11 12v7q-9 9 -15.5 19.5t-15.5 10.5q-1 0 -3 -0.5l-2 -0.5l-11 -11 q-2 -1 -9 -7t-9 -7l-29 -29q-3 -4 -8 -9.5l-9.5 -10.5l-8 -9l-3.5 -4v-7z" />
<glyph unicode="j" horiz-adv-x="229" d="M11 -174v-37q11 0 25 7t27.5 16t24 17.5t13.5 11.5q24 20 38 35.5t21.5 27.5t10.5 20t6 14q12 32 16.5 57.5t5 60t-1 85t-1.5 132.5q0 16 -0.5 51t-1.5 69.5t-1.5 61l-0.5 26.5q-6 9 -16 20.5l-20 22t-19 18t-14 7.5h-14l-87 -87q-1 0 -2 -2.5t-2 -4.5v-11q0 -1 1.5 -3.5 t2.5 -3.5h2q5 0 13 -1t10 -2l15 -15q4 -4 7 -10.5t3 -11.5v-10q0 -3 0.5 -9t1.5 -13t1.5 -13t0.5 -9v-351q0 -28 -3 -54.5t-8 -46.5q0 -9 -7 -15t-7 -14l-11 -11q-2 -1 -11 -8.5t-11 -9.5zM54 614l26 -25l1.5 -0.5t3.5 -0.5q1 0 11.5 9.5t24 23l28 28.5l25.5 27v11 q-1 1 -4.5 5.5t-8 9.5l-8.5 9.5t-5 4.5h-7l-87 -87v-15z" />
<glyph unicode="k" horiz-adv-x="452" d="M39 711q0 -42 0.5 -94.5t1.5 -110t3 -110.5v-33q0 -2 0.5 -7.5t1 -12.5t1 -13t0.5 -7v-7q0 -3 -1.5 -13t-1.5 -12q0 -8 0.5 -29l1 -44t1 -43.5t0.5 -28.5v-8q0 -20 -2.5 -59.5t-2.5 -74.5h125q1 0 2 1.5t2 2.5v18q0 2 -1 10.5t-1.5 18.5t-1 18.5t-0.5 10.5v120l1.5 1.5 t2.5 1.5h1h2q4 -2 14.5 -13.5t22 -26l21 -27t11.5 -16.5q22 -25 40 -48l32.5 -40.5l23.5 -28t13 -10.5h3q4 0 18.5 12t30 26.5t27.5 27l12 12.5q0 2 -10.5 16.5t-24.5 32l-27 33.5t-18 21l-8 8q-35 40 -48 56.5t-16.5 22t-3.5 6.5t-8 9v3q0 2 8.5 8.5l19 14l19.5 13.5t11 8 q30 26 41 41t13.5 23.5t0.5 12t3 6.5q0 1 0.5 7t0.5 9q0 19 -4 31.5t-11.5 22.5t-18.5 19.5t-25 23.5q-14 0 -27.5 9t-30.5 9h-7l-24.5 -26.5t-28.5 -29t-26.5 -23t-18.5 -9.5q-2 0 -4 1.5t-3 2.5v319h-128v-65zM167 251v167q0 5 6.5 9.5t11.5 4.5h22h22q5 -1 15.5 -5 t21.5 -11.5t19.5 -18t8.5 -23.5v-22q0 -12 -7 -22.5t-19 -21t-27 -21l-31 -22.5q-5 -4 -14.5 -11t-10.5 -7h-14q-4 0 -4 4z" />
<glyph unicode="l" horiz-adv-x="257" d="M39 625q0 -41 0.5 -97t1 -119t1 -119t1 -97.5t0.5 -54.5v-44q0 -18 12 -34.5t25.5 -28.5t23.5 -17.5t7 -2.5q3 -2 11.5 -6t10.5 -5h11l39.5 32.5l32.5 26t22.5 21t8.5 18.5h-45q-12 0 -19.5 7.5t-12 17t-6.5 18.5t-2 11v272q0 8 0.5 34t1.5 60.5t2 73.5t1.5 73.5t1 60.5 t0.5 34v15h-130v-94v-56z" />
<glyph unicode="m" horiz-adv-x="777" d="M33 447q0 -3 6 -3.5t9 -3.5l7 -7q8 -15 11 -35.5t3 -37.5l8 -360h116l4 4v10q0 83 -2 165t-2 164v46q0 7 1.5 19.5t2.5 13.5l7 7q1 0 9 0.5t13 0.5q15 0 36.5 -0.5t32.5 -11.5q1 0 3.5 -1.5t3.5 -1.5l11 -11q4 -7 8.5 -18t4.5 -19v-363q0 -2 5 -4h7q12 0 30 1t35 1.5 t29 1l12 0.5l3 4v414l4 4h19h28q2 -2 7.5 -2.5t12.5 -1.5t12.5 -1.5t7.5 -2.5q9 0 17 -6.5t13 -14t7.5 -13t-0.5 -2.5q0 -11 3.5 -30t3.5 -28v-332l3 1q20 6 30 15.5t10 6.5q17 9 38 19t39.5 20t31 19t12.5 14q0 8 -2.5 15.5t-11.5 7.5q-4 0 -10.5 -4.5t-12.5 -7.5h-7 q-1 1 -2.5 2t-1.5 2v33q0 5 0.5 25t1.5 43.5t1.5 44t0.5 25.5v127q0 29 -8.5 50t-9.5 23l-29 29q-3 0 -10.5 3.5t-15.5 8l-15 8.5t-10 5l-20 7t-17 4h-36l-7 -7q-1 -1 -4.5 -5l-7 -8t-6.5 -8t-4 -5l-36 -36q-2 -2 -7.5 -6t-7.5 -5h-7q-4 9 -10.5 21t-15.5 22.5t-22 18 t-29 7.5q-5 2 -16 4.5t-13 3.5h-36q-12 -8 -19.5 -15t-12 -12.5t-9 -9.5t-10.5 -7q-4 -4 -11 -9.5l-14 -11t-12.5 -9t-6.5 -3.5q-11 0 -10.5 16.5t0.5 33.5v8q0 8 2 17t2 20h-4q-8 -8 -19.5 -14.5t-24.5 -13t-25 -13.5t-19 -14q-31 -14 -53.5 -21t-22.5 -12v-18z" />
<glyph unicode="n" horiz-adv-x="543" d="M27 418q19 -6 28.5 -12t13.5 -12t4.5 -11.5t0.5 -11.5q1 -5 2.5 -16t1.5 -13v-345h125v414q0 4 9.5 7.5t17.5 3.5h33q21 0 33.5 -5t20 -14.5t12 -23t7.5 -30.5q4 -95 4 -183v-181q4 0 25 10.5l43.5 22.5t38.5 22.5t12 10.5q6 3 16 8.5t19.5 11.5t16.5 11.5t7 8.5 q0 5 -1.5 12t-7.5 7h-4t-2 -1l-36 -18l-4 4v269q0 46 -2.5 68.5t-6 32t-7 12t-6.5 7.5q-19 19 -48 35t-75 16h-8q-5 0 -7 -1l-33.5 -32.5l-32 -29.5l-22.5 -20t-6 -5l-4 4v98h-7q-20 -12 -37.5 -24l-35 -23.5l-36 -24l-40.5 -26.5q-2 -2 -11 -6t-11 -5v-22z" />
<glyph unicode="o" horiz-adv-x="526" d="M28 214q0 -16 4 -35.5t10.5 -38.5t15 -35t17.5 -25l18 -18q1 -1 5.5 -3.5t5.5 -3.5l11 -11q23 -23 61.5 -37t72.5 -14h33q5 0 18 6.5t28.5 15.5l30.5 18t25 14q13 9 27.5 16l27 13t20.5 11.5t8 10.5q9 31 19.5 76t10.5 101q0 19 -0.5 35t-5 34t-13.5 40.5t-25 55.5 q0 -2 -7 6.5l-16 19t-18 19.5t-14 9q-17 16 -39.5 26.5t-43.5 16t-35 7.5t-12 1q-1 0 -4 1.5t-4 2.5h-7q-10 -8 -25 -18l-32.5 -21.5l-36.5 -24l-37 -24.5q-41 -29 -64 -47.5t-23 -21.5q0 -19 -3.5 -35.5t-3.5 -33.5v-57v-52zM141 302v1v2q0 18 2 40t5 41.5t7.5 33 t10.5 16.5h51q18 0 39.5 -8.5t40 -19.5t31 -23t12.5 -18q9 -9 15 -22.5t9 -25.5t4 -21.5t1 -10.5q0 -2 1 -8t1.5 -13t1 -13t0.5 -9v-62q0 -9 -3 -25t-6.5 -31.5t-7.5 -27.5t-5 -14q0 -1 -1.5 -2.5l-1.5 -1.5h-22q-50 7 -71.5 20.5t-19.5 12.5q-32 19 -40 29.5t-11 13.5 q-8 15 -16 27t-14 27t-9.5 36t-3.5 56z" />
<glyph unicode="p" horiz-adv-x="517" d="M26 432l2.5 -1.5t4.5 -1.5h22q25 0 36 -20t13.5 -47t0.5 -55.5t-2 -44.5q0 -26 -0.5 -43t-6 -30.5t-16.5 -26.5t-32 -31v-15l58 -19v-275h14q6 0 22 0.5l33 1t32.5 1.5t21.5 1q1 2 1 10v10q0 47 -2 93t-2 93v4q0 1 2.5 3.5l4.5 4.5h4q10 -7 21 -14t22 -12h15 q30 22 57.5 37.5l62.5 35.5q4 0 11 4t14 9.5l12.5 10t5.5 5.5q6 8 11 23t9 30t6.5 26.5t2.5 14.5l6.5 32.5t3.5 23.5t1.5 23t0.5 31q0 49 -4.5 83t-15 58t-27.5 40.5t-41 28.5q-12 8 -21.5 13t-19.5 8t-22.5 6t-30.5 6h-18q-4 0 -10 -7.5t-11.5 -16.5t-9 -15.5t-2.5 -4.5 q-3 -3 -9.5 -11l-13.5 -16t-12 -15.5t-5 -8.5h-4q0 1 -1.5 2t-1.5 2l-14.5 26.5t-16 21.5t-24.5 20.5t-40 22.5h-7q-2 0 -12 -12l-23 -29l-28 -37t-28 -35v-22zM226 167v269l3 4q5 0 19 2t27 2t18 -0.5t13 -3.5l22 -11q15 -15 24 -28.5t14 -24t6.5 -16.5t2.5 -7 q1 -9 2 -15.5t1.5 -13t0.5 -15.5v-20q0 -14 0.5 -25t0 -20.5t-2.5 -20t-6 -23.5q-3 -10 -5 -24t-4.5 -27.5t-7 -24.5t-12.5 -15h-7q-11 6 -29 14.5l-35 16.5l-29.5 14l-12.5 6q-1 2 -2 4.5z" />
<glyph unicode="q" horiz-adv-x="462" d="M13 214q0 -12 4 -28.5t8.5 -30.5t8.5 -24.5l4 -10.5q15 -15 24.5 -29t23 -26.5t36.5 -24.5t65 -22q2 0 11 -1.5t11 -1.5h7q5 0 14 10t18.5 23l17 23.5t8.5 12.5q2 2 9.5 9t9.5 9l7 -7v-280h118q0 59 0.5 126.5l1 136l1 133.5t1 120.5t1 97t0.5 61.5v11q0 4 -12.5 8t-29 8 l-32 7.5t-20.5 5.5l-44 14.5t-26.5 9.5l-18 7t-16.5 6h-11q-8 0 -35.5 -25t-84.5 -66l-20 -11t-21 -14.5t-17.5 -20.5t-10.5 -27q0 -5 -1 -14t-3 -18l-4 -17.5t-3 -11.5v-128zM136 251v45v49l4 42t4 36t3.5 25.5t3.5 9.5h5q17 0 31.5 -9t32.5 -9q11 -5 28 -8t30 -11 q10 0 14 -12t5.5 -40.5t1.5 -75.5t1 -118v-4q-3 -11 -3.5 -18.5t-2.5 -12.5t-8.5 -7t-21.5 -2h-29q-26 0 -43.5 11.5t-28 26t-15 27t-4.5 15.5q-5 8 -5 20q0 13 -3 20z" />
<glyph unicode="r" horiz-adv-x="415" d="M19 442q0 -1 1.5 -4t2.5 -3h7q1 0 5.5 1.5t5.5 2.5h18q12 -12 20.5 -23t8.5 -28v-33q0 -13 0.5 -46t1 -70t1.5 -70t1 -46q0 -24 16.5 -43t37 -32t39 -21t23.5 -9q2 -1 5.5 -2.5t5.5 -1.5h18l101 102q1 0 1 2v4q0 7 -1 8t-7 4h-4q-5 -5 -14 -5q-8 0 -11 -3h-25 q-9 4 -19.5 7t-20 8.5t-17 13.5t-9.5 22v240l4 32q0 4 4 4h3q4 -2 14 -10.5t21.5 -19.5l23.5 -23.5l21 -22.5h11q35 40 55.5 58.5t27.5 32.5l1 1q0 5 -10.5 15l-25.5 23.5l-32.5 28.5t-30.5 30h-3q-3 0 -11.5 -8.5t-18.5 -19.5l-20 -23t-16 -18q-2 -3 -7.5 -8.5l-6.5 -6.5 h-3q-5 0 -15.5 12.5t-21 26.5t-18 25.5t-4.5 8.5l-14 11h-4q-1 -1 -3.5 -2t-3.5 -2l-40 -40q-2 -2 -8 -7.5l-13.5 -12.5l-14 -13t-8.5 -7l-25 -25v-15z" />
<glyph unicode="s" horiz-adv-x="444" d="M27 330q0 -41 22 -68.5t54 -54.5l4.5 -4.5t3.5 -2.5v-4q1 0 -2.5 -2.5l-9 -6.5l-11.5 -8.5t-10 -8.5q-20 -14 -32 -26t-15 -17l-1 -2l1 -2q0 -2 7 -7.5l16.5 -12.5t19.5 -13.5t15 -9.5q7 -7 17.5 -14.5l21 -14.5t20.5 -13t17 -9q8 -8 17 -14t16 -8h3q19 8 26.5 16.5 t17.5 8.5l22 11l30 14t24.5 10.5t22.5 8t25 7.5q4 4 12.5 3.5t8.5 4.5q6 6 10 18.5t7 24.5t4 20.5t1 5.5q4 11 5.5 27.5t1.5 22.5v4q-2 32 -5 50.5t-7.5 29t-9.5 15.5l-10 10q-9 11 -20 19.5t-20.5 15t-16 11.5t-6.5 9q0 1 0.5 2t0.5 2l76 76q1 0 1.5 2.5t0.5 4.5 q0 4 -8.5 11t-21.5 14.5l-27 15t-25 14.5l-3 1.5t-4 1.5q-8 4 -20 11l-23 14t-20 11.5t-11 4.5q-14 0 -35.5 -14.5t-50.5 -26.5q-5 -5 -23 -11.5t-36.5 -12t-31.5 -9t-7 -3.5l-7 -7q-7 -7 -11.5 -24t-6.5 -34t-3 -30.5l-1 -13.5v-44zM136 374v17v16q0 26 9.5 45.5t15.5 19.5 h4q7 0 18.5 -7l23.5 -15t22.5 -16t15.5 -9q20 -13 28.5 -17.5t11 -6l2.5 -1.5q1 0 5 -4l4 -9v-6q-20 -15 -36.5 -30l-29.5 -27t-20.5 -19.5t-9.5 -7.5q1 0 -9 3.5t-22 12t-22.5 23.5t-10.5 38zM143 192v2v2q2 2 11 12t21 21.5l24.5 23t23.5 16.5h4q6 -1 19 -3.5t26.5 -10 t24 -22.5t10.5 -41v-25l-6 -23t-6 -22.5t-7 -17.5t-9 -7q-6 0 -14.5 6.5t-19.5 16t-24 19.5t-27 17q-3 3 -11.5 8.5l-17.5 11.5l-15.5 10.5t-6.5 5.5z" />
<glyph unicode="t" horiz-adv-x="327" d="M13 435q3 -3 4 -3h50l4 -4l0.5 -30t1 -71.5t1.5 -86t1 -73.5v-40q0 -18 4 -31t9 -21.5t9.5 -13.5t6.5 -7q10 -11 24.5 -20.5t28.5 -17t26.5 -12t18.5 -4.5h18l11 11l20 20.5l24 26l22 25.5t13 19l1 3q0 7 -8 15h-4q-1 -1 -5 -3.5t-5 -4.5h-40q-12 0 -21.5 7.5t-16.5 17 t-11.5 19t-5.5 14.5q-1 4 -2 13.5t-1 12.5v228l7 9h101v86h-101l-4 3v47q0 20 2.5 36.5t2.5 36.5h-8q-15 -26 -42 -54t-45 -51l-18 -18q-22 -22 -40 -43.5t-33 -36.5v-4z" />
<glyph unicode="u" horiz-adv-x="538" d="M25 439q0 -5 6 -8t12.5 -5.5t12.5 -4t6 -4.5q3 -3 5.5 -11.5t3.5 -10.5v-254q0 -33 19 -58t42 -42t44 -25.5t24 -8.5q1 -1 5 -1h6q8 0 12 1t10 7l11 11q18 18 35 31l37 27h4h4l4.5 -6.5l10.5 -15t11.5 -15.5l5.5 -7q11 -5 25.5 -17.5t29.5 -18.5h3q8 4 15.5 15t17.5 21 l4 4q8 8 18.5 17l20.5 18t16.5 17t6.5 14t-6 7t-14 1q-7 0 -15.5 0.5t-12.5 5.5q-14 7 -16 26t-2 35v186q0 39 2.5 80t2.5 87h-9q-9 0 -29.5 -0.5l-41.5 -1t-36.5 -3t-15.5 -6.5v-4l1 -22.5l2.5 -56.5t2.5 -72.5t1 -69.5v-175q0 -3 -4.5 -8.5t-6.5 -5.5h-54q-20 0 -33 9 t-20 19.5t-9.5 18.5t-2.5 7q0 5 -1 18.5t-1.5 29t-1 29t-0.5 18.5v26t0.5 46.5t1 56t1 56t1 46.5t0.5 26v39q-7 0 -15 -5t-17 -11.5l-18.5 -14t-18.5 -11.5q-23 -17 -41.5 -28.5t-20.5 -11.5q-26 -15 -33.5 -23t-7.5 -13z" />
<glyph unicode="v" horiz-adv-x="508" d="M21 433q0 -2 5.5 -3.5l13 -3.5l15 -4t10.5 -4l7 -7q5 -10 9.5 -24.5t4.5 -26.5l8 -232q1 -23 14.5 -40.5t30.5 -31t32.5 -22t20.5 -12.5q5 -3 13.5 -7l16.5 -8l14 -7l6 -3h8q17 13 34.5 24l31 19.5t22.5 13t10 5.5q25 11 40 15.5t26 13.5t20 27t23 56q7 23 14 49.5 t7 41.5v113q0 39 -15 67t-31.5 45.5t-28 24.5t-4.5 4q-7 4 -18 9.5l-22 11t-19.5 9t-9.5 3.5h-33l-3.5 -3.5t-3.5 -4.5q-21 -21 -40.5 -43t-36.5 -36l-3 -1q-6 0 -12 9.5t-12 21.5l-11 21.5t-9 9.5q-5 6 -15 16l-10 10h-7q-1 0 -13 -10t-29 -25.5l-36.5 -33.5l-34.5 -33v-7 v-7zM210 178v251l3 4h37q3 -3 12 -6t18.5 -5t17.5 -4.5t10 -3.5q34 -24 40 -36l7 -14q6 -15 7.5 -27.5t3.5 -38.5v-18q-3 -23 -4.5 -38.5t-4 -28.5t-5.5 -25t-8 -28q0 -15 -4 -27t-8.5 -20.5t-8.5 -13l-4 -4.5q-1 -1 -3.5 -2t-4.5 -2q-8 5 -20 9t-12 6q-9 6 -21 15t-22.5 19 t-18 20t-7.5 18z" />
<glyph unicode="w" horiz-adv-x="762" d="M27 422q0 -4 4 -4q1 0 4.5 0.5t7.5 0.5q14 0 21 -2.5t18 -9.5l3 -3q10 -17 10.5 -29.5t4.5 -29.5v-47q0 -5 0.5 -23.5t1 -40t1 -40t0.5 -23.5v-25q4 -27 9 -47.5t19.5 -38t44.5 -33.5t84 -34h10q3 0 16.5 12.5l29.5 27.5l29.5 28.5l15.5 15.5h4q27 -32 58 -52.5t73 -31.5 h7q12 6 23 15l22 18.5t22.5 18t23.5 13.5q5 3 20 10.5l30.5 15t28 13l12.5 5.5q12 42 19.5 64t11 33.5t4.5 17.5t1 16q7 20 7.5 39t0.5 44q0 62 -17 111.5t-60 81.5q-11 10 -20.5 15t-17.5 7t-15 4t-12 7q-6 0 -16 2l-24 5h-4q-17 -22 -32 -38.5t-26 -27t-16 -16t-2 -5.5 l-1.5 -0.5t-2.5 -0.5t-2 0.5t-2 0.5l-3 3q-1 1 -4 5t-6 8.5l-5.5 8t-2.5 4.5l-22 22q-7 0 -11 2.5l-9.5 6t-14 8t-23.5 8.5q-8 4 -22.5 6t-20.5 2t-15.5 -12.5t-21.5 -24.5l-11 -11l-47 -47q-2 0 -6.5 6.5l-10.5 15.5l-12 18t-11 14q-4 8 -20 18.5t-24 18.5h-4q-2 -1 -6 -2 t-5 -2l-3 -7q-10 -10 -21 -24.5t-23 -22.5l-40 -40q-1 -2 -4 -6t-3 -5v-11zM223 320v98l8 7q0 1 11 2t18 2h14q33 0 48 -15t20 -37.5t4 -47.5t1 -45v-22q0 -23 0.5 -53t1.5 -55.5t1.5 -42t0.5 -13.5h-44q-13 13 -27 20l-26 13.5t-19.5 15t-7.5 24.5q0 8 -0.5 29.5t-1.5 45 t-1.5 45t-0.5 29.5zM463 422v4v3q0 4 7.5 6t10.5 2q34 0 56 -12.5t34.5 -27.5t17.5 -27.5t5 -13.5l3.5 -19t2.5 -16l2 -16.5t3 -20.5v-8q-3 -27 -4.5 -46t-4 -37.5t-8 -40t-16.5 -54.5q0 -2 -3.5 -3t-7.5 -1q-9 0 -20.5 4.5t-21 10t-16.5 10.5l-7 5q-14 10 -20 22.5t-7.5 32 t-1 47.5t-0.5 69v14q0 4 -1 20.5t-1.5 36t-1 36t-0.5 20.5z" />
<glyph unicode="x" horiz-adv-x="420" d="M29 -61v-2v-2q5 -11 11 -11h18q8 0 18.5 21.5t19.5 48t15.5 48.5t8.5 24l7 7l42.5 -37.5t18.5 -16.5t12 -8l22 -11q4 -1 9 -4t9 -3h14q1 0 13.5 9t26.5 20.5l26 21t14 11.5q21 14 29 20.5t8 13.5q0 3 -1 7t-3 6h-7q-11 -3 -25 -5.5t-16 -2.5q-13 0 -28.5 7.5t-29 20.5 t-23 29.5t-9.5 34.5v228q0 1 3 4h4l15 -14.5l25 -23.5t25 -21.5t15 -9.5h11q16 22 31 38l27 28t19 20.5t7 17.5q0 4 -15.5 18.5t-34.5 30.5l-34.5 28t-16.5 12q-2 -1 -9 -8t-16 -17.5l-19 -22.5l-19 -22l-18 -18h-7q-5 12 -9.5 21.5t-10.5 18t-15 18t-24 22.5q-2 5 -8 6.5 t-9 1.5q-4 0 -4 -1l-102 -101q-1 -1 -2 -3.5t-2 -4.5v-7q1 -1 2 -3.5t2 -3.5h33q9 0 15 -8t10 -19t5.5 -23t1.5 -19v-207q0 -27 -2 -37.5t-5 -13.5l-5 -5t-2 -13q-4 -12 -13.5 -29.5l-19.5 -35l-17.5 -31.5t-7.5 -20q-1 -1 -2 -8t-2 -10z" />
<glyph unicode="y" horiz-adv-x="524" d="M36 443q0 -5 5.5 -9.5t13 -8t14 -5.5t8.5 -2q2 -2 6 -8t5 -7l7 -14q8 -17 8.5 -45t2.5 -68v-25q0 -49 4 -79.5t10 -49t13 -29.5l13 -20l7 -7q24 -24 45 -37t38 -21.5t28.5 -13.5t15.5 -12v-7q0 -1 -6 -16.5t-14.5 -33.5t-17 -33t-13.5 -15l-4.5 2.5t-6.5 4.5q-4 3 -15 12 l-23 19l-23 19t-15 12h-11q-18 -15 -42 -32l-41 -30v-7v-7q0 -1 8.5 -7t19.5 -14.5l21.5 -16.5t15.5 -13l18 -18q3 -3 9.5 -6t8.5 -5h11q10 0 23 7t25 16t21 17.5l11 10.5q12 4 23.5 11.5l24 16t27.5 17t34 16.5q10 10 17 22.5t11 23t6 16.5t2 4q28 47 45.5 91t34.5 94 q0 9 4.5 23.5t10 30t10 30.5t4.5 25q0 17 4 33.5t4 34.5q0 29 -5 53t-11.5 42t-11.5 28.5t-5 11.5l-21.5 22t-24.5 20.5t-35 18t-54 15.5h-18q-5 0 -10.5 -6.5t-7.5 -11.5l-65 -65q0 -1 -2 -1h-1q-5 0 -14 13t-19 29t-20 29t-17 13h-3l-73.5 -53l-35 -26t-11 -9.5t-0.5 -2.5 l-0.5 -2.5t-0.5 -4.5zM229 207v211q0 5 8.5 6.5l24.5 4.5h7q31 0 50 -11.5t29.5 -26t14 -27.5t4.5 -15q5 -12 6.5 -31.5t1.5 -32.5q0 -9 -3.5 -30l-7.5 -43.5l-7.5 -41t-3.5 -21.5q-4 -4 -8 -14.5t-7 -21l-5 -18t-2 -4.5l-5 -4h-2q-9 3 -21 11.5t-23.5 18t-20.5 18.5t-12 14 q-2 6 -5 13.5t-6 16t-5 16t-2 12.5z" />
<glyph unicode="z" horiz-adv-x="423" d="M33 420q0 -4 4 -4h232l3 -3q-40 -48 -80 -89.5t-87 -84.5q-5 -5 -8 -11t-3 -11q0 -4 1 -7.5t3 -3.5h7q2 0 9.5 2t9.5 2h54q26 0 44 -15.5t29 -34t16 -35.5t5 -20q0 -2 1.5 -17t2.5 -23v-4q-4 -27 -7 -45t-7.5 -34t-12 -33.5t-20.5 -43.5l-4.5 -4.5t-3.5 -2.5q-5 0 -17 9 l-26 20.5l-27 23t-20 16.5h-4q-14 -6 -30.5 -17.5t-30 -22.5l-21.5 -18t-5 -4q0 -3 -2 -5.5t-2 -5.5l1 -3q16 -17 28 -26.5t21 -15.5l15 -10t12 -10l12.5 -13t14.5 -6q11 0 32.5 14.5t48.5 29.5q6 2 24 11l38 20t36 21t18 14q15 15 23.5 31.5t13 31t6 23.5t1.5 8 q0 23 7.5 51.5t7.5 52.5q0 36 -3.5 58t-9 35.5t-12 21t-12.5 13.5l-7 7l-29 24.5t-21.5 16t-23.5 11.5l-35 13q-3 3 -3 4q0 5 11 17t27.5 27.5t36.5 32.5l37 32q7 3 12 12t8 19t4 18.5l1 8.5q4 4 6 10.5t3.5 13t2.5 12t3 7.5v4q-3 3 -5.5 3.5t-8.5 0.5q-16 0 -54.5 -2.5 l-80.5 -5.5h-16q-37 0 -74 2t-75 2h-20q0 -1 -1.5 -3.5t-1.5 -3.5q-5 -17 -6.5 -32.5t-8.5 -40.5q-2 -8 -4.5 -16t-2.5 -17v-3z" />
<glyph unicode="&#xaa;" horiz-adv-x="456" d="M22 112q0 -4 13.5 -14l30 -21.5l31.5 -21t19 -12.5q14 -9 28.5 -21t19.5 -12h11l25 25q0 1 1.5 4t2.5 4l3 3q2 5 9 10l13.5 9.5t11.5 7t3 2.5q2 2 7 6t7 5h4l3 -3q9 -9 17.5 -21.5t17.5 -23t18.5 -18t21.5 -7.5q5 0 5 1l44 43q4 4 11.5 8.5t14.5 10t12.5 12t5.5 15.5 q0 5 -9.5 9.5l-21 9.5t-21 11t-9.5 15v280q0 16 -6.5 31t-13.5 26.5t-12 18.5t-2 7q-17 17 -33.5 26.5t-34 14t-36.5 5.5t-41 1h-4q-22 0 -30 -3.5t-13 -13l-14 -25.5t-34 -41l-15 -23t-7 -10v-29q0 -2 1 -8t1.5 -13.5t1 -14t0.5 -7.5v-22q0 -4 2 -18.5t3.5 -31t3.5 -31 t2 -17.5v-58q0 -7 -11 -17l-23.5 -21l-23.5 -20.5t-11 -14.5v-4v-3zM105 404q0 19 5.5 28.5t31.5 9.5h54q1 0 6.5 -1t11.5 -2.5t11.5 -3.5t7.5 -4l7 -7q13 -13 14 -26t1 -27q0 -9 -16 -29t-35 -40l-33 -34t-11 -11q-8 -11 -19 -20t-14 -9h-7q-1 4 -4 12t-3 17q-2 19 -3.5 44 t-2.5 48t-1.5 39zM130 179q0 8 12 20l107 105h2q4 0 5.5 -10t2.5 -24.5t1.5 -30t1.5 -26.5v-94q-4 -8 -16 -8q-18 0 -44 10.5t-46 30.5l-7 7q-1 1 -5.5 3.5t-5.5 3.5l-7 7q0 1 -0.5 3t-0.5 3z" />
<glyph unicode="&#xad;" d="M39 294q73 0 145.5 -2t145.5 -2h10l3 4v105l-3 7h-26q-7 0 -34 -0.5t-58 -1t-58 -1.5t-34 -1h-87q-1 0 -2.5 -1.5l-1.5 -1.5v-4q0 -2 2 -9t2 -9v-44q0 -1 -1 -6t-1.5 -10l-1 -10t-0.5 -6v-7z" />
<glyph unicode="&#xb2;" horiz-adv-x="527" d="M27 425q0 -1 1.5 -2t2.5 -2h3l8 8q1 2 7 9t7 9l7 7q26 22 63 42t88 20h16q20 0 35 -6t25.5 -14t16 -15t7.5 -9q13 -13 19.5 -25.5t9 -23t3 -17.5t1.5 -10q2 -15 3 -20.5t1 -18.5q0 -5 -1 -17.5t-4 -28.5t-8 -34t-13 -34q-5 -5 -10.5 -14.5l-11.5 -20l-11.5 -20 t-10.5 -14.5l-40 -40q-6 0 -14 -4l-17.5 -8.5t-20.5 -8.5t-24 -4q-29 -2 -43 -2q-13 0 -20.5 -7.5t-15 -27.5l-23.5 -61v-4v-3q1 -1 2 -2.5t2 -1.5h374l7 4q6 8 14.5 23l17 31t14 28.5t5.5 15.5v7h-221l-4 4l7 7q35 19 59.5 44l53.5 54q0 6 11.5 19t17.5 25l7 14 q10 28 21.5 53t11.5 49v58q0 35 -5.5 57t-12 33.5t-11.5 15.5t-4 3q0 10 -11.5 21.5t-24 21.5t-22.5 16t-7 6q-18 14 -49 20t-60 6h-18q-40 0 -79.5 -14t-69.5 -37q-7 -7 -12.5 -10t-10 -6.5t-8 -8.5t-6.5 -15q-6 -27 -9.5 -45l-6 -30.5l-4.5 -22t-5 -18.5v-4z" />
<glyph unicode="&#xb3;" horiz-adv-x="512" d="M34 541q0 -4 4 -4h283l3 -1t4 -2l4 -4l-57.5 -66l-57 -64.5l-46 -54t-24.5 -33.5l-1 -3q0 -4 4 -8h7q2 1 6 2.5t5 1.5h33q11 0 22 -4t21.5 -8.5t19 -8.5t13.5 -4q22 -11 34 -26t17 -28.5t6 -23t1 -10.5q1 0 1 -10v-15q0 -28 -4 -46.5t-9.5 -30.5t-11 -19t-8.5 -13 l-18 -18q-15 -15 -35 -18t-42 -8h-29q-20 5 -35 9.5t-28 10.5t-24.5 14t-24.5 21h-11q-1 0 -2 -1.5t-2 -2.5v-1v-2q0 -35 5.5 -53t13 -26.5t13.5 -9.5t8 -2q3 -2 12 -4t18.5 -3.5t17.5 -2.5t10 -1h73q34 0 62.5 10t49.5 22.5t33.5 23.5t14.5 13l25 25q22 22 28.5 48l15.5 61 v62q0 28 -10.5 50.5t-22.5 37.5t-21.5 22.5t-7.5 5.5q-16 16 -44 28t-65 12l-4 8v3q2 5 13.5 19l27.5 33l35.5 41l38 42.5l34.5 38t26 26.5q13 13 20 21t10 13t3 8v8q0 8 -12 8h-21q-7 0 -35 -0.5t-59.5 -1t-59.5 -1.5t-35 -1h-207q-4 0 -7.5 -7t-3.5 -14v-11 q-2 -4 -3.5 -13t-3.5 -19t-3 -18.5t-1 -11.5v-11z" />
<glyph unicode="&#xb9;" horiz-adv-x="237" d="M8 533q0 -2 6.5 -5.5t15 -7t15 -7t6.5 -6.5q15 -26 15 -47v-348q0 -13 -2 -30l-4 -33.5t-4 -30t-2 -19.5q14 0 26 2.5t26 2.5q25 0 52.5 -2.5t38.5 -2.5q0 14 -4 40.5t-7 54.5q0 10 -0.5 36.5t-0.5 55.5v55v36q0 53 0.5 90.5t1 66t1 51.5l1 46.5t1 50t0.5 63.5h-8 q-41 -35 -61.5 -49t-34.5 -20.5t-28.5 -10.5t-42.5 -18l-7 -7v-4v-3z" />
<glyph unicode="&#xba;" horiz-adv-x="526" d="M28 214q0 -16 4 -35.5t10.5 -38.5t15 -35t17.5 -25l18 -18q1 -1 5.5 -3.5t5.5 -3.5l11 -11q23 -23 61.5 -37t72.5 -14h33q5 0 18 6.5t28.5 15.5l30.5 18t25 14q13 9 27.5 16l27 13t20.5 11.5t8 10.5q9 31 19.5 76t10.5 101q0 19 -0.5 35t-5 34t-13.5 40.5t-25 55.5 q0 -2 -7 6.5l-16 19t-18 19.5t-14 9q-17 16 -39.5 26.5t-43.5 16t-35 7.5t-12 1q-1 0 -4 1.5t-4 2.5h-7q-10 -8 -25 -18l-32.5 -21.5l-36.5 -24l-37 -24.5q-41 -29 -64 -47.5t-23 -21.5q0 -19 -3.5 -35.5t-3.5 -33.5v-57v-52zM141 302v1v2q0 18 2 40t5 41.5t7.5 33 t10.5 16.5h51q18 0 39.5 -8.5t40 -19.5t31 -23t12.5 -18q9 -9 15 -22.5t9 -25.5t4 -21.5t1 -10.5q0 -2 1 -8t1.5 -13t1 -13t0.5 -9v-62q0 -9 -3 -25t-6.5 -31.5t-7.5 -27.5t-5 -14q0 -1 -1.5 -2.5l-1.5 -1.5h-22q-50 7 -71.5 20.5t-19.5 12.5q-32 19 -40 29.5t-11 13.5 q-8 15 -16 27t-14 27t-9.5 36t-3.5 56z" />
<glyph unicode="&#xc2;" horiz-adv-x="684" d="M-13 1015q0 -32 12.5 -75t49.5 -88l7 -7q20 -20 42 -32t44 -18.5t43.5 -9.5l41.5 -6h7q25 10 33.5 26t10.5 18q4 5 12.5 13.5l8.5 8.5h4v-66h128v13t-0.5 20.5t-1.5 23.5t-3 23v120l4 4h2l13 -11q0 -2 8.5 -13.5t19 -24l19.5 -23.5t11 -12q18 -25 36.5 -48t34 -40.5 t26 -28t12.5 -10.5h3q4 0 18.5 12t30 26.5t27.5 27l12 12.5q0 3 -11 17.5l-25 32l-27 33.5t-18 21l-7 7l-16.5 21l-16.5 20.5t-14 16t-7 7.5l-11 11q-3 3 -7 9.5t-4 8.5v4l4 4q12 12 24.5 21l25 18t24.5 20t24 28q0 1 2 5.5l4.5 10.5l5 11.5t2.5 8.5v33q-3 16 -8 26 t-12.5 18.5t-17 16.5t-20.5 19q-14 0 -27.5 9t-30.5 9h-7l-31 -31t-30 -28.5t-24 -20.5t-13 -8q-2 0 -5 1t-3 3v320h-127v-113q0 -7 0.5 -27.5t1 -48t1 -58.5t1 -59t0.5 -49v-27v-32q0 -2 0.5 -7.5t1 -12.5t1.5 -13t1 -7v-7q-1 -3 -2 -13t-2 -13q0 -8 0.5 -28.5t1 -44 t1.5 -44t1 -28.5v-7q-4 -4 -5.5 -8.5t-9.5 -6.5q-2 -1 -7.5 -2t-6.5 -2h-51q-12 2 -20 3.5t-17 6t-21.5 15t-32.5 30.5q-14 14 -19.5 37t-9.5 43v141q0 5 0.5 12.5t1.5 15t2 13t3 7.5h11q7 -8 20 -15t25.5 -12.5l20.5 -9t7 -3.5l1 -0.5t2 -0.5q7 0 18 12t22 27.5l21 30.5 t16 21v4l-11 11q-5 5 -17.5 13t-25.5 15.5l-23 13t-11 5.5h-14q-37 -28 -50.5 -39.5t-16.5 -15.5t-3 -5l-10 -5q-23 -23 -40 -34t-29 -17l-20 -10t-12.5 -12t-6 -23.5t-1.5 -45.5v-109zM426 1026v167q0 7 7.5 11t11.5 4h21h22q7 0 18.5 -6t22 -15.5t18 -22t7.5 -25.5 q0 -19 -8.5 -32.5t-23 -26t-34.5 -26t-43 -31.5q-1 -1 -3 -1h-4q-5 0 -8.5 1t-3.5 3zM34 598h23q13 2 33 3.5t43 2.5t46.5 1.5t44.5 0.5h105q4 0 6 -2.5t2 -4.5q0 -4 -5.5 -18l-13.5 -33t-19 -40.5l-21 -39.5l-11 -22q0 -8 -5 -18.5t-11 -21t-11 -20.5t-5 -16q1 2 -4 -8.5 l-13 -26.5l-16.5 -34.5l-14.5 -32.5l-22.5 -44.5l-15 -31.5l-12.5 -27l-15 -31q-2 -5 -10.5 -20.5l-20 -35t-25 -38.5t-24.5 -30v-2v-1q1 -1 2 -2.5t2 -1.5h120q14 55 23 74.5l9 19.5q4 11 11.5 27.5l14 31l10.5 23.5t1 6q0 9 4 18.5t9 17.5t9 13t3 5q3 0 12 1t19 1.5t19 1 t12 0.5h192l8 -8q0 -2 0.5 -15t1.5 -31.5t1 -29.5v-87q0 -7 0.5 -17.5t1.5 -20t1.5 -17l0.5 -7.5l7 -7h102q4 0 4 13q0 2 -0.5 6.5t-0.5 5.5q1 52 -0.5 103.5t-4 111.5t-4.5 134.5t-2 173.5v160h-14q-3 0 -11.5 -0.5l-17.5 -1t-17.5 -1.5t-11.5 -1h-425q-3 0 -10.5 1 t-16.5 1.5t-16.5 1t-10.5 0.5h-4q-6 0 -13 -14t-13 -31t-10 -33t-4 -20q0 -2 -0.5 -7.5t-0.5 -7.5zM303 346q0 13 3.5 21t7.5 14t7.5 10.5t3.5 10.5q5 9 13 26.5l17.5 40l19.5 47.5t19 50q1 3 4.5 10t7.5 14l7 12t3 4h95l3 -4l0.5 -16t1.5 -38t1.5 -45.5t0.5 -38.5v-116 q0 -3 -3 -6t-4 -5h-204q-4 4 -4 9z" />
<glyph unicode="&#xca;" horiz-adv-x="643" d="M21 1015q0 -32 12.5 -75t49.5 -88l7 -7q20 -20 42 -32t44 -18.5t43.5 -9.5l41.5 -6h7q25 10 33.5 26t10.5 18q4 5 12.5 13.5l8.5 8.5h4v-66h128v13t-0.5 20.5t-1.5 23.5t-3 23v120l4 4h2l13 -11q0 -2 8.5 -13.5t19 -24l19.5 -23.5t11 -12q18 -25 36.5 -48t34 -40.5 t26 -28t12.5 -10.5h3q4 0 18.5 12t30 26.5t27.5 27l12 12.5q0 3 -11 17.5l-25 32l-27 33.5t-18 21l-7 7l-16.5 21l-16.5 20.5t-14 16t-7 7.5l-11 11q-3 3 -7 9.5t-4 8.5v4l4 4q12 12 24.5 21l25 18t24.5 20t24 28q0 1 2 5.5l4.5 10.5l5 11.5t2.5 8.5v33q-3 16 -8 26 t-12.5 18.5t-17 16.5t-20.5 19q-14 0 -27.5 9t-30.5 9h-7l-31 -31t-30 -28.5t-24 -20.5t-13 -8q-2 0 -5 1t-3 3v320h-127v-113q0 -7 0.5 -27.5t1 -48t1 -58.5t1 -59t0.5 -49v-27v-32q0 -2 0.5 -7.5t1 -12.5t1.5 -13t1 -7v-7q-1 -3 -2 -13t-2 -13q0 -8 0.5 -28.5t1 -44 t1.5 -44t1 -28.5v-7q-4 -4 -5.5 -8.5t-9.5 -6.5q-2 -1 -7.5 -2t-6.5 -2h-51q-12 2 -20 3.5t-17 6t-21.5 15t-32.5 30.5q-14 14 -19.5 37t-9.5 43v141q0 5 0.5 12.5t1.5 15t2 13t3 7.5h11q7 -8 20 -15t25.5 -12.5l20.5 -9t7 -3.5l1 -0.5t2 -0.5q7 0 18 12t22 27.5l21 30.5 t16 21v4l-11 11q-5 5 -17.5 13t-25.5 15.5l-23 13t-11 5.5h-14q-37 -28 -50.5 -39.5t-16.5 -15.5t-3 -5l-10 -5q-23 -23 -40 -34t-29 -17l-20 -10t-12.5 -12t-6 -23.5t-1.5 -45.5v-109zM460 1026v167q0 7 7.5 11t11.5 4h21h22q7 0 18.5 -6t22 -15.5t18 -22t7.5 -25.5 q0 -19 -8.5 -32.5t-23 -26t-34.5 -26t-43 -31.5q-1 -1 -3 -1h-4q-5 0 -8.5 1t-3.5 3zM28 367q0 -44 3 -70.5t6 -42t6 -22t3 -10.5q8 -25 17.5 -50.5t24 -49t36 -44.5t53.5 -37q15 -10 38 -18t48.5 -14t50.5 -9t44 -3h120q25 0 37 7.5t20 20.5t17 30t28 36q14 18 23.5 32 t9.5 16q0 4 -8 7h-4q-29 -14 -71 -25.5t-86 -11.5q-19 0 -35.5 0.5t-34 2.5t-37 6t-44.5 10q-7 2 -22.5 8t-31.5 14t-28 16.5t-12 15.5q-17 17 -28.5 46t-15.5 52v4q2 1 5 4t6 3h123h25q20 0 46.5 -0.5l55.5 -1l55.5 -1t46 -1t25.5 -0.5h26l3 4v105l-3 8h-26q-7 0 -34 -1 t-58 -1.5t-58.5 -1t-34.5 -0.5h-185q-7 0 -17 2.5t-12 4.5v4q3 26 5 40.5t2 28.5v11q5 17 10.5 38t15.5 31l14 7q11 0 24.5 3l27 6t25.5 6t18 3h112q32 0 67 -7.5t64 -17.5q8 -4 17.5 -8t18.5 -4v15q0 9 -0.5 28.5l-1 39t-2 34t-3.5 14.5q-22 10 -56 18t-75 8h-80 q-21 -5 -43 -8.5t-41.5 -7.5l-33 -7t-16.5 -6q-7 -14 -19 -28t-25.5 -27.5t-27 -25.5t-22.5 -21q-4 -3 -14.5 -11.5l-22 -18l-22 -17.5l-14.5 -11q-4 -17 -7.5 -29t-5.5 -25.5t-3.5 -31t-1.5 -45.5v-9v-9z" />
<glyph unicode="&#xce;" horiz-adv-x="450" d="M39 1015q0 -32 12.5 -75t49.5 -88l7 -7q20 -20 42 -32t44 -18.5t43.5 -9.5l41.5 -6h7q25 10 33.5 26t10.5 18q4 5 12.5 13.5l8.5 8.5h4v-66h128v13t-0.5 20.5t-1.5 23.5t-3 23v120l4 4h2l13 -11q0 -2 8.5 -13.5t19 -24l19.5 -23.5t11 -12q18 -25 36.5 -48t34 -40.5 t26 -28t12.5 -10.5h3q4 0 18.5 12t30 26.5t27.5 27l12 12.5q0 3 -11 17.5l-25 32l-27 33.5t-18 21l-7 7l-16.5 21l-16.5 20.5t-14 16t-7 7.5l-11 11q-3 3 -7 9.5t-4 8.5v4l4 4q12 12 24.5 21l25 18t24.5 20t24 28q0 1 2 5.5l4.5 10.5l5 11.5t2.5 8.5v33q-3 16 -8 26 t-12.5 18.5t-17 16.5t-20.5 19q-14 0 -27.5 9t-30.5 9h-7l-31 -31t-30 -28.5t-24 -20.5t-13 -8q-2 0 -5 1t-3 3v320h-127v-113q0 -7 0.5 -27.5t1 -48t1 -58.5t1 -59t0.5 -49v-27v-32q0 -2 0.5 -7.5t1 -12.5t1.5 -13t1 -7v-7q-1 -3 -2 -13t-2 -13q0 -8 0.5 -28.5t1 -44 t1.5 -44t1 -28.5v-7q-4 -4 -5.5 -8.5t-9.5 -6.5q-2 -1 -7.5 -2t-6.5 -2h-51q-12 2 -20 3.5t-17 6t-21.5 15t-32.5 30.5q-14 14 -19.5 37t-9.5 43v141q0 5 0.5 12.5t1.5 15t2 13t3 7.5h11q7 -8 20 -15t25.5 -12.5l20.5 -9t7 -3.5l1 -0.5t2 -0.5q7 0 18 12t22 27.5l21 30.5 t16 21v4l-11 11q-5 5 -17.5 13t-25.5 15.5l-23 13t-11 5.5h-14q-37 -28 -50.5 -39.5t-16.5 -15.5t-3 -5l-10 -5q-23 -23 -40 -34t-29 -17l-20 -10t-12.5 -12t-6 -23.5t-1.5 -45.5v-109zM478 1026v167q0 7 7.5 11t11.5 4h21h22q7 0 18.5 -6t22 -15.5t18 -22t7.5 -25.5 q0 -19 -8.5 -32.5t-23 -26t-34.5 -26t-43 -31.5q-1 -1 -3 -1h-4q-5 0 -8.5 1t-3.5 3zM33 581l4 -7h40q3 0 14 0.5t23.5 1t24 1.5t14.5 1h120l3 -4l1 -7t1.5 -16t1 -19t0.5 -16v-69q-14 -14 -38.5 -31.5t-55.5 -48.5l-4.5 -4.5t-3.5 -2.5v-4l4 -4q39 -1 59.5 -6.5t29.5 -11.5 t9.5 -10.5t-0.5 -3.5q7 -14 7.5 -27t0.5 -37v-27t-2 -30.5t-6.5 -29.5t-14.5 -24l-1.5 -3t-1.5 -4l-4 -4q-17 -11 -30.5 -18t-41.5 -7h-9q-43 0 -76 5.5t-53 12.5h-5q0 -4 7 -16.5l15 -26.5l15 -27t7 -17q2 -2 5 -8.5l6 -13.5t6.5 -12.5t8.5 -5.5h91q25 0 44.5 4t35 10.5 t28.5 15l26 17.5q18 12 29.5 26t19 35t11 51.5t4.5 76t1 108.5v150v18q2 9 4 30t3.5 46.5t2.5 51.5t1 46v19q-1 0 -3.5 1.5t-3.5 1.5h-4q-11 0 -26.5 -1t-32 -2.5t-32.5 -2.5t-28 -1h-153q-3 0 -13.5 0.5t-22.5 1t-23 1.5t-14 1h-25v-124z" />
<glyph unicode="&#xd4;" horiz-adv-x="710" d="M-16 1015q0 -32 12.5 -75t49.5 -88l7 -7q20 -20 42 -32t44 -18.5t43.5 -9.5l41.5 -6h7q25 10 33.5 26t10.5 18q4 5 12.5 13.5l8.5 8.5h4v-66h128v13t-0.5 20.5t-1.5 23.5t-3 23v120l4 4h2l13 -11q0 -2 8.5 -13.5t19 -24l19.5 -23.5t11 -12q18 -25 36.5 -48t34 -40.5 t26 -28t12.5 -10.5h3q4 0 18.5 12t30 26.5t27.5 27l12 12.5q0 3 -11 17.5l-25 32l-27 33.5t-18 21l-7 7l-16.5 21l-16.5 20.5t-14 16t-7 7.5l-11 11q-3 3 -7 9.5t-4 8.5v4l4 4q12 12 24.5 21l25 18t24.5 20t24 28q0 1 2 5.5l4.5 10.5l5 11.5t2.5 8.5v33q-3 16 -8 26 t-12.5 18.5t-17 16.5t-20.5 19q-14 0 -27.5 9t-30.5 9h-7l-31 -31t-30 -28.5t-24 -20.5t-13 -8q-2 0 -5 1t-3 3v320h-127v-113q0 -7 0.5 -27.5t1 -48t1 -58.5t1 -59t0.5 -49v-27v-32q0 -2 0.5 -7.5t1 -12.5t1.5 -13t1 -7v-7q-1 -3 -2 -13t-2 -13q0 -8 0.5 -28.5t1 -44 t1.5 -44t1 -28.5v-7q-4 -4 -5.5 -8.5t-9.5 -6.5q-2 -1 -7.5 -2t-6.5 -2h-51q-12 2 -20 3.5t-17 6t-21.5 15t-32.5 30.5q-14 14 -19.5 37t-9.5 43v141q0 5 0.5 12.5t1.5 15t2 13t3 7.5h11q7 -8 20 -15t25.5 -12.5l20.5 -9t7 -3.5l1 -0.5t2 -0.5q7 0 18 12t22 27.5l21 30.5 t16 21v4l-11 11q-5 5 -17.5 13t-25.5 15.5l-23 13t-11 5.5h-14q-37 -28 -50.5 -39.5t-16.5 -15.5t-3 -5l-10 -5q-23 -23 -40 -34t-29 -17l-20 -10t-12.5 -12t-6 -23.5t-1.5 -45.5v-109zM423 1026v167q0 7 7.5 11t11.5 4h21h22q7 0 18.5 -6t22 -15.5t18 -22t7.5 -25.5 q0 -19 -8.5 -32.5t-23 -26t-34.5 -26t-43 -31.5q-1 -1 -3 -1h-4q-5 0 -8.5 1t-3.5 3zM27 345q0 -51 4.5 -82t12.5 -52.5t19.5 -38l25.5 -37.5q14 -25 46 -51.5t77 -53.5q6 -4 17 -7.5t23 -6.5t22.5 -6t13.5 -6q5 0 17 -3.5t20 -3.5h98l91.5 61t45 31t14.5 11.5t1.5 2t4.5 3 l24 14.5q15 10 22.5 21t12 23.5t9 28.5t14.5 36q4 7 7.5 21.5t6 34t4 42.5t1.5 47q0 25 -0.5 40t-3.5 30t-10 35.5l-19 58.5q-6 6 -9.5 13.5t-9 17.5t-13.5 22t-23 27q-1 1 -8.5 7t-9.5 7l-11 11q-22 22 -45.5 34.5t-44 19t-36.5 8.5t-23 3q-4 1 -13.5 2.5t-11.5 1.5h-80 q-24 0 -48 -14t-45.5 -33.5t-39.5 -40t-30 -32.5q-30 -20 -48 -35t-29.5 -32.5t-19 -40.5t-16.5 -59q0 -12 -3.5 -34.5t-3.5 -37.5v-4v-4zM150 353v15q0 33 4 67.5t15 66.5q0 13 6 26t13 23.5t12.5 17t4.5 5.5q19 5 40 10t32 5h51q35 0 66 -11t56.5 -28.5t46 -38.5t35.5 -42 q0 -1 3.5 -8.5t7 -16t7 -15.5l3.5 -7q4 -11 7.5 -31t3.5 -38v-22q0 -42 -5.5 -71.5t-8.5 -37.5q-6 -18 -10 -27.5t-8 -17l-8.5 -16.5l-13.5 -26q-11 -20 -30 -24.5t-54 -4.5h-11q-35 0 -76 10t-76 33q-5 5 -15.5 12t-17.5 14l-3 3q-21 21 -33 38t-19.5 32t-10.5 30l-6 31 q-1 4 -2 11.5t-2.5 14.5l-2.5 12t-1 6z" />
<glyph unicode="&#xdb;" horiz-adv-x="670" d="M-197 1029q0 -32 12.5 -75t49.5 -88l7 -7q20 -20 42 -32t44 -18.5t43.5 -9.5l41.5 -6h7q25 10 33.5 26t10.5 18q4 5 12.5 13.5l8.5 8.5h4v-66h128v13t-0.5 20.5t-1.5 23.5t-3 23v120l4 4h2l13 -11q0 -2 8.5 -13.5t19 -24l19.5 -23.5t11 -12q18 -25 36.5 -48t34 -40.5 t26 -28t12.5 -10.5h3q4 0 18.5 12t30 26.5t27.5 27l12 12.5q0 3 -11 17.5l-25 32l-27 33.5t-18 21l-7 7l-16.5 21l-16.5 20.5t-14 16t-7 7.5l-11 11q-3 3 -7 9.5t-4 8.5v4l4 4q12 12 24.5 21l25 18t24.5 20t24 28q0 1 2 5.5l4.5 10.5l5 11.5t2.5 8.5v33q-3 16 -8 26 t-12.5 18.5t-17 16.5t-20.5 19q-14 0 -27.5 9t-30.5 9h-7l-31 -31t-30 -28.5t-24 -20.5t-13 -8q-2 0 -5 1t-3 3v320h-127v-113q0 -7 0.5 -27.5t1 -48t1 -58.5t1 -59t0.5 -49v-27v-32q0 -2 0.5 -7.5t1 -12.5t1.5 -13t1 -7v-7q-1 -3 -2 -13t-2 -13q0 -8 0.5 -28.5t1 -44 t1.5 -44t1 -28.5v-7q-4 -4 -5.5 -8.5t-9.5 -6.5q-2 -1 -7.5 -2t-6.5 -2h-51q-12 2 -20 3.5t-17 6t-21.5 15t-32.5 30.5q-14 14 -19.5 37t-9.5 43v141q0 5 0.5 12.5t1.5 15t2 13t3 7.5h11q7 -8 20 -15t25.5 -12.5l20.5 -9t7 -3.5l1 -0.5t2 -0.5q7 0 18 12t22 27.5l21 30.5 t16 21v4l-11 11q-5 5 -17.5 13t-25.5 15.5l-23 13t-11 5.5h-14q-37 -28 -50.5 -39.5t-16.5 -15.5t-3 -5l-10 -5q-23 -23 -40 -34t-29 -17l-20 -10t-12.5 -12t-6 -23.5t-1.5 -45.5v-109zM242 1040v167q0 7 7.5 11t11.5 4h21h22q7 0 18.5 -6t22 -15.5t18 -22t7.5 -25.5 q0 -19 -8.5 -32.5t-23 -26t-34.5 -26t-43 -31.5q-1 -1 -3 -1h-4q-5 0 -8.5 1t-3.5 3zM35 664q0 -21 3.5 -43.5t3.5 -54.5v-11q0 -5 1 -25.5t1.5 -43.5t1 -43.5t0.5 -25.5v-127q0 -2 0.5 -7.5t1 -12.5t1.5 -13t1 -7v-18q3 -22 5 -35t5.5 -24t9 -23t16.5 -31q1 -2 3.5 -6 t3.5 -5l29 -29q24 -24 55 -39.5t64 -23.5t65.5 -11t60.5 -3q6 0 16.5 0.5l10.5 0.5l93 91h2q3 -3 3 -4v-83h127l8 3v44q0 4 -0.5 15.5t-1.5 24.5t-1.5 24t-0.5 16v457q0 7 1 23.5t2.5 35t2.5 35t1 22.5v4h-14q-10 0 -25.5 -1t-33 -1.5t-36.5 -1.5t-37 -1q0 -21 1.5 -67.5 t3 -108t3 -132.5t1.5 -139v-35q0 -22 -0.5 -45t-2 -40.5t-5.5 -19.5q-11 -4 -24.5 -7.5t-29.5 -3.5h-66q-19 3 -34.5 6.5t-31 10t-32.5 16.5t-40 25q-16 16 -26.5 31t-16.5 35t-8.5 46.5t-2.5 65.5v294q0 3 0.5 13.5t1 23t1.5 23t1 13.5v11q-4 4 -8 4q-1 0 -14.5 -5.5 l-29 -12t-27.5 -11t-9 -1.5q-14 -4 -32 -12.5t-22 -12.5v-3v-4z" />
<glyph unicode="&#xdf;" horiz-adv-x="494" d="M30 621q0 -4 0.5 -13.5l1 -20t1.5 -19.5t1 -13v-548h112l4 4v149q0 4 -0.5 21t-1.5 37t-1.5 37t-0.5 21v4q0 13 1 32.5t1.5 38t1 32l0.5 13.5l3 3l14 0.5t33 1.5t39.5 1.5t33.5 0.5h76l4 -4q-4 -5 -15 -16.5l-23 -25l-23 -25.5t-15 -16l-91 -91q-2 -1 -6 -6.5t-5 -7.5 v-15q0 -2 2.5 -3t4.5 -1q7 0 15.5 2.5t34.5 2.5q28 0 46 -6.5t30.5 -17.5t21 -26t16.5 -31q0 -12 4 -23.5t7 -41.5v-4q-4 -32 -7.5 -50t-7 -30t-8 -22t-10.5 -25q-5 -11 -12 -23.5t-10 -12.5q-4 0 -16 8.5t-26.5 20l-28 23l-20.5 17.5h-3q-6 0 -15 -6t-17.5 -14l-15.5 -15 t-10 -8q-19 -11 -26 -16t-7 -10v-4v-3q19 -16 32 -25.5l21 -15.5t13.5 -10.5t9.5 -10.5l13 -13t14 -6q3 0 18 7l36.5 17.5t45.5 23.5t45 25.5t36 22.5t17 14q15 15 23.5 32.5t12 31t4 20.5t0.5 3q2 2 5 13t6 24t5 24.5t2 14.5q1 1 1 14v21q0 21 -0.5 35.5t-3 27t-8 24.5 t-14.5 27l-33 32t-27.5 23t-29 17t-37.5 15q-1 0 -2 1.5t-2 2.5q1 1 3.5 5t4.5 6l36 36q36 30 53 47t24 25t6.5 10.5t-0.5 4.5q15 31 19 52t7 24v4q-3 3 -5.5 3.5t-8.5 0.5q-14 0 -52.5 -2.5l-82.5 -5.5h-33q-26 1 -50 2.5t-43 2.5t-31.5 1.5t-13.5 0.5l-7 8v152q0 1 1.5 2 t2.5 2h3q22 -10 35 -25.5t27 -29.5h11l62 62q1 1 3.5 5t3.5 6v7l-7 7l-17.5 17.5l-23.5 23.5t-23 20.5t-18 8.5q-8 -4 -29 -18.5l-43 -30.5l-39.5 -29.5t-20.5 -16.5q-18 -12 -31 -21.5t-13 -14.5v-40z" />
<glyph unicode="&#xe2;" horiz-adv-x="456" d="M-175 861q0 -32 12.5 -75t49.5 -88l7 -7q20 -20 42 -32t44 -18.5t43.5 -9.5l41.5 -6h7q25 10 33.5 26t10.5 18q4 5 12.5 13.5l8.5 8.5h4v-66h128v13t-0.5 20.5t-1.5 23.5t-3 23v120l4 4h2l13 -11q0 -2 8.5 -13.5t19 -24l19.5 -23.5t11 -12q18 -25 36.5 -48t34 -40.5 t26 -28t12.5 -10.5h3q4 0 18.5 12t30 26.5t27.5 27l12 12.5q0 3 -11 17.5l-25 32l-27 33.5t-18 21l-7 7l-16.5 21l-16.5 20.5t-14 16t-7 7.5l-11 11q-3 3 -7 9.5t-4 8.5v4l4 4q12 12 24.5 21l25 18t24.5 20t24 28q0 1 2 5.5l4.5 10.5l5 11.5t2.5 8.5v33q-3 16 -8 26 t-12.5 18.5t-17 16.5t-20.5 19q-14 0 -27.5 9t-30.5 9h-7l-31 -31t-30 -28.5t-24 -20.5t-13 -8q-2 0 -5 1t-3 3v320h-127v-113q0 -7 0.5 -27.5t1 -48t1 -58.5t1 -59t0.5 -49v-27v-32q0 -2 0.5 -7.5t1 -12.5t1.5 -13t1 -7v-7q-1 -3 -2 -13t-2 -13q0 -8 0.5 -28.5t1 -44 t1.5 -44t1 -28.5v-7q-4 -4 -5.5 -8.5t-9.5 -6.5q-2 -1 -7.5 -2t-6.5 -2h-51q-12 2 -20 3.5t-17 6t-21.5 15t-32.5 30.5q-14 14 -19.5 37t-9.5 43v141q0 5 0.5 12.5t1.5 15t2 13t3 7.5h11q7 -8 20 -15t25.5 -12.5l20.5 -9t7 -3.5l1 -0.5t2 -0.5q7 0 18 12t22 27.5l21 30.5 t16 21v4l-11 11q-5 5 -17.5 13t-25.5 15.5l-23 13t-11 5.5h-14q-37 -28 -50.5 -39.5t-16.5 -15.5t-3 -5l-10 -5q-23 -23 -40 -34t-29 -17l-20 -10t-12.5 -12t-6 -23.5t-1.5 -45.5v-109zM264 872v167q0 7 7.5 11t11.5 4h21h22q7 0 18.5 -6t22 -15.5t18 -22t7.5 -25.5 q0 -19 -8.5 -32.5t-23 -26t-34.5 -26t-43 -31.5q-1 -1 -3 -1h-4q-5 0 -8.5 1t-3.5 3zM22 112q0 -4 13.5 -14l30 -21.5l31.5 -21t19 -12.5q14 -9 28.5 -21t19.5 -12h11l25 25q0 1 1.5 4t2.5 4l3 3q2 5 9 10l13.5 9.5t11.5 7t3 2.5q2 2 7 6t7 5h4l3 -3q9 -9 17.5 -21.5 t17.5 -23t18.5 -18t21.5 -7.5q5 0 5 1l44 43q4 4 11.5 8.5t14.5 10t12.5 12t5.5 15.5q0 5 -9.5 9.5l-21 9.5t-21 11t-9.5 15v280q0 16 -6.5 31t-13.5 26.5t-12 18.5t-2 7q-17 17 -33.5 26.5t-34 14t-36.5 5.5t-41 1h-4q-22 0 -30 -3.5t-13 -13l-14 -25.5t-34 -41l-15 -23 t-7 -10v-29q0 -2 1 -8t1.5 -13.5t1 -14t0.5 -7.5v-22q0 -4 2 -18.5t3.5 -31t3.5 -31t2 -17.5v-58q0 -7 -11 -17l-23.5 -21l-23.5 -20.5t-11 -14.5v-4v-3zM105 404q0 19 5.5 28.5t31.5 9.5h54q1 0 6.5 -1t11.5 -2.5t11.5 -3.5t7.5 -4l7 -7q13 -13 14 -26t1 -27q0 -9 -16 -29 t-35 -40l-33 -34t-11 -11q-8 -11 -19 -20t-14 -9h-7q-1 4 -4 12t-3 17q-2 19 -3.5 44t-2.5 48t-1.5 39zM130 179q0 8 12 20l107 105h2q4 0 5.5 -10t2.5 -24.5t1.5 -30t1.5 -26.5v-94q-4 -8 -16 -8q-18 0 -44 10.5t-46 30.5l-7 7q-1 1 -5.5 3.5t-5.5 3.5l-7 7q0 1 -0.5 3 t-0.5 3z" />
<glyph unicode="&#xea;" horiz-adv-x="425" d="M-109 858q0 -32 12.5 -75t49.5 -88l7 -7q20 -20 42 -32t44 -18.5t43.5 -9.5l41.5 -6h7q25 10 33.5 26t10.5 18q4 5 12.5 13.5l8.5 8.5h4v-66h128v13t-0.5 20.5t-1.5 23.5t-3 23v120l4 4h2l13 -11q0 -2 8.5 -13.5t19 -24l19.5 -23.5t11 -12q18 -25 36.5 -48t34 -40.5 t26 -28t12.5 -10.5h3q4 0 18.5 12t30 26.5t27.5 27l12 12.5q0 3 -11 17.5l-25 32l-27 33.5t-18 21l-7 7l-16.5 21l-16.5 20.5t-14 16t-7 7.5l-11 11q-3 3 -7 9.5t-4 8.5v4l4 4q12 12 24.5 21l25 18t24.5 20t24 28q0 1 2 5.5l4.5 10.5l5 11.5t2.5 8.5v33q-3 16 -8 26 t-12.5 18.5t-17 16.5t-20.5 19q-14 0 -27.5 9t-30.5 9h-7l-31 -31t-30 -28.5t-24 -20.5t-13 -8q-2 0 -5 1t-3 3v320h-127v-113q0 -7 0.5 -27.5t1 -48t1 -58.5t1 -59t0.5 -49v-27v-32q0 -2 0.5 -7.5t1 -12.5t1.5 -13t1 -7v-7q-1 -3 -2 -13t-2 -13q0 -8 0.5 -28.5t1 -44 t1.5 -44t1 -28.5v-7q-4 -4 -5.5 -8.5t-9.5 -6.5q-2 -1 -7.5 -2t-6.5 -2h-51q-12 2 -20 3.5t-17 6t-21.5 15t-32.5 30.5q-14 14 -19.5 37t-9.5 43v141q0 5 0.5 12.5t1.5 15t2 13t3 7.5h11q7 -8 20 -15t25.5 -12.5l20.5 -9t7 -3.5l1 -0.5t2 -0.5q7 0 18 12t22 27.5l21 30.5 t16 21v4l-11 11q-5 5 -17.5 13t-25.5 15.5l-23 13t-11 5.5h-14q-37 -28 -50.5 -39.5t-16.5 -15.5t-3 -5l-10 -5q-23 -23 -40 -34t-29 -17l-20 -10t-12.5 -12t-6 -23.5t-1.5 -45.5v-109zM330 869v167q0 7 7.5 11t11.5 4h21h22q7 0 18.5 -6t22 -15.5t18 -22t7.5 -25.5 q0 -19 -8.5 -32.5t-23 -26t-34.5 -26t-43 -31.5q-1 -1 -3 -1h-4q-5 0 -8.5 1t-3.5 3zM35 282q0 -38 4.5 -60.5t10 -37.5t10 -25t4.5 -22q2 -2 8 -10t12 -17l11 -16t5 -8q9 -6 18.5 -13t17.5 -14t14.5 -11.5t11.5 -4.5q6 -3 19 -8t28.5 -10t33.5 -9t35 -6h4q1 0 11.5 9.5 t24 23l27 26.5l21.5 21q7 7 14.5 18t7.5 13l-1 2q0 1 -1.5 3.5t-1.5 3.5l-9 4h-6q-8 -8 -24 -10t-30 -2q-28 0 -56 7t-50.5 23t-36.5 41.5t-14 61.5q0 14 19 24l7 7q28 28 56.5 46t48.5 38q22 15 34.5 25l21.5 17.5t16.5 15l18.5 18.5v4l-36 36l-17.5 17.5l-24 23t-23.5 20 t-15 8.5h-15q-3 0 -10.5 -4.5t-15 -9.5t-13 -9t-4.5 -3q-4 0 -11 -4t-13.5 -9l-11 -8.5l-4.5 -3.5q-18 -12 -39 -23l-39 -21t-30 -20t-12 -20q-1 -3 -3 -15.5t-3.5 -28l-3 -30t-1.5 -20.5v-21v-23zM151 341v11v10q0 6 2 21.5t5 32.5l5.5 30.5l2.5 13.5q0 1 1.5 2.5l1.5 1.5 h8q36 -36 55.5 -52t20.5 -17v-7q-40 -40 -62 -58.5t-31 -18.5q-5 -2 -6 9.5t-3 20.5z" />
<glyph unicode="&#xee;" horiz-adv-x="267" d="M-224 1027q0 -32 12.5 -75t49.5 -88l7 -7q20 -20 42 -32t44 -18.5t43.5 -9.5l41.5 -6h7q25 10 33.5 26t10.5 18q4 5 12.5 13.5l8.5 8.5h4v-66h128v13t-0.5 20.5t-1.5 23.5t-3 23v120l4 4h2l13 -11q0 -2 8.5 -13.5t19 -24l19.5 -23.5t11 -12q18 -25 36.5 -48t34 -40.5 t26 -28t12.5 -10.5h3q4 0 18.5 12t30 26.5t27.5 27l12 12.5q0 3 -11 17.5l-25 32l-27 33.5t-18 21l-7 7l-16.5 21l-16.5 20.5t-14 16t-7 7.5l-11 11q-3 3 -7 9.5t-4 8.5v4l4 4q12 12 24.5 21l25 18t24.5 20t24 28q0 1 2 5.5l4.5 10.5l5 11.5t2.5 8.5v33q-3 16 -8 26 t-12.5 18.5t-17 16.5t-20.5 19q-14 0 -27.5 9t-30.5 9h-7l-31 -31t-30 -28.5t-24 -20.5t-13 -8q-2 0 -5 1t-3 3v320h-127v-113q0 -7 0.5 -27.5t1 -48t1 -58.5t1 -59t0.5 -49v-27v-32q0 -2 0.5 -7.5t1 -12.5t1.5 -13t1 -7v-7q-1 -3 -2 -13t-2 -13q0 -8 0.5 -28.5t1 -44 t1.5 -44t1 -28.5v-7q-4 -4 -5.5 -8.5t-9.5 -6.5q-2 -1 -7.5 -2t-6.5 -2h-51q-12 2 -20 3.5t-17 6t-21.5 15t-32.5 30.5q-14 14 -19.5 37t-9.5 43v141q0 5 0.5 12.5t1.5 15t2 13t3 7.5h11q7 -8 20 -15t25.5 -12.5l20.5 -9t7 -3.5l1 -0.5t2 -0.5q7 0 18 12t22 27.5l21 30.5 t16 21v4l-11 11q-5 5 -17.5 13t-25.5 15.5l-23 13t-11 5.5h-14q-37 -28 -50.5 -39.5t-16.5 -15.5t-3 -5l-10 -5q-23 -23 -40 -34t-29 -17l-20 -10t-12.5 -12t-6 -23.5t-1.5 -45.5v-109zM215 1038v167q0 7 7.5 11t11.5 4h21h22q7 0 18.5 -6t22 -15.5t18 -22t7.5 -25.5 q0 -19 -8.5 -32.5t-23 -26t-34.5 -26t-43 -31.5q-1 -1 -3 -1h-4q-5 0 -8.5 1t-3.5 3zM14 448l6.5 -2.5l15 -5.5t16 -6.5t9.5 -7.5q6 -9 7 -19.5t4 -23.5v-11q0 -7 -0.5 -33t-1.5 -56t-1.5 -56t-0.5 -32v-51v-51q0 -19 11 -34t25.5 -26.5t29 -19t21.5 -10.5h11q24 27 41 43.5 t28.5 25.5l16.5 13t5 8q0 2 -1 8.5t-3 6.5h-11q-2 0 -7.5 -1.5t-7.5 -2.5h-3q-3 3 -8.5 5t-9.5 6l-4 4q-6 6 -8.5 15t-2.5 17v319q-4 12 -8 21t-17 26l-11 11q-8 8 -18.5 16.5t-21.5 12.5h-7l-87 -84q-1 -1 -4 -5t-3 -6v-14zM50 629l18 -29h18q7 0 21.5 14t29 31l25.5 30 t11 12v7q-9 9 -15.5 19.5t-15.5 10.5q-1 0 -3 -0.5l-2 -0.5l-11 -11q-2 -1 -9 -7t-9 -7l-29 -29q-3 -4 -8 -9.5l-9.5 -10.5l-8 -9l-3.5 -4v-7z" />
<glyph unicode="&#xf4;" horiz-adv-x="526" d="M-109 852q0 -32 12.5 -75t49.5 -88l7 -7q20 -20 42 -32t44 -18.5t43.5 -9.5l41.5 -6h7q25 10 33.5 26t10.5 18q4 5 12.5 13.5l8.5 8.5h4v-66h128v13t-0.5 20.5t-1.5 23.5t-3 23v120l4 4h2l13 -11q0 -2 8.5 -13.5t19 -24l19.5 -23.5t11 -12q18 -25 36.5 -48t34 -40.5 t26 -28t12.5 -10.5h3q4 0 18.5 12t30 26.5t27.5 27l12 12.5q0 3 -11 17.5l-25 32l-27 33.5t-18 21l-7 7l-16.5 21l-16.5 20.5t-14 16t-7 7.5l-11 11q-3 3 -7 9.5t-4 8.5v4l4 4q12 12 24.5 21l25 18t24.5 20t24 28q0 1 2 5.5l4.5 10.5l5 11.5t2.5 8.5v33q-3 16 -8 26 t-12.5 18.5t-17 16.5t-20.5 19q-14 0 -27.5 9t-30.5 9h-7l-31 -31t-30 -28.5t-24 -20.5t-13 -8q-2 0 -5 1t-3 3v320h-127v-113q0 -7 0.5 -27.5t1 -48t1 -58.5t1 -59t0.5 -49v-27v-32q0 -2 0.5 -7.5t1 -12.5t1.5 -13t1 -7v-7q-1 -3 -2 -13t-2 -13q0 -8 0.5 -28.5t1 -44 t1.5 -44t1 -28.5v-7q-4 -4 -5.5 -8.5t-9.5 -6.5q-2 -1 -7.5 -2t-6.5 -2h-51q-12 2 -20 3.5t-17 6t-21.5 15t-32.5 30.5q-14 14 -19.5 37t-9.5 43v141q0 5 0.5 12.5t1.5 15t2 13t3 7.5h11q7 -8 20 -15t25.5 -12.5l20.5 -9t7 -3.5l1 -0.5t2 -0.5q7 0 18 12t22 27.5l21 30.5 t16 21v4l-11 11q-5 5 -17.5 13t-25.5 15.5l-23 13t-11 5.5h-14q-37 -28 -50.5 -39.5t-16.5 -15.5t-3 -5l-10 -5q-23 -23 -40 -34t-29 -17l-20 -10t-12.5 -12t-6 -23.5t-1.5 -45.5v-109zM330 863v167q0 7 7.5 11t11.5 4h21h22q7 0 18.5 -6t22 -15.5t18 -22t7.5 -25.5 q0 -19 -8.5 -32.5t-23 -26t-34.5 -26t-43 -31.5q-1 -1 -3 -1h-4q-5 0 -8.5 1t-3.5 3zM28 214q0 -16 4 -35.5t10.5 -38.5t15 -35t17.5 -25l18 -18q1 -1 5.5 -3.5t5.5 -3.5l11 -11q23 -23 61.5 -37t72.5 -14h33q5 0 18 6.5t28.5 15.5l30.5 18t25 14q13 9 27.5 16l27 13 t20.5 11.5t8 10.5q9 31 19.5 76t10.5 101q0 19 -0.5 35t-5 34t-13.5 40.5t-25 55.5q0 -2 -7 6.5l-16 19t-18 19.5t-14 9q-17 16 -39.5 26.5t-43.5 16t-35 7.5t-12 1q-1 0 -4 1.5t-4 2.5h-7q-10 -8 -25 -18l-32.5 -21.5l-36.5 -24l-37 -24.5q-41 -29 -64 -47.5t-23 -21.5 q0 -19 -3.5 -35.5t-3.5 -33.5v-57v-52zM141 302v1v2q0 18 2 40t5 41.5t7.5 33t10.5 16.5h51q18 0 39.5 -8.5t40 -19.5t31 -23t12.5 -18q9 -9 15 -22.5t9 -25.5t4 -21.5t1 -10.5q0 -2 1 -8t1.5 -13t1 -13t0.5 -9v-62q0 -9 -3 -25t-6.5 -31.5t-7.5 -27.5t-5 -14 q0 -1 -1.5 -2.5l-1.5 -1.5h-22q-50 7 -71.5 20.5t-19.5 12.5q-32 19 -40 29.5t-11 13.5q-8 15 -16 27t-14 27t-9.5 36t-3.5 56z" />
<glyph unicode="&#xfb;" horiz-adv-x="538" d="M-169 860q0 -32 12.5 -75t49.5 -88l7 -7q20 -20 42 -32t44 -18.5t43.5 -9.5l41.5 -6h7q25 10 33.5 26t10.5 18q4 5 12.5 13.5l8.5 8.5h4v-66h128v13t-0.5 20.5t-1.5 23.5t-3 23v120l4 4h2l13 -11q0 -2 8.5 -13.5t19 -24l19.5 -23.5t11 -12q18 -25 36.5 -48t34 -40.5 t26 -28t12.5 -10.5h3q4 0 18.5 12t30 26.5t27.5 27l12 12.5q0 3 -11 17.5l-25 32l-27 33.5t-18 21l-7 7l-16.5 21l-16.5 20.5t-14 16t-7 7.5l-11 11q-3 3 -7 9.5t-4 8.5v4l4 4q12 12 24.5 21l25 18t24.5 20t24 28q0 1 2 5.5l4.5 10.5l5 11.5t2.5 8.5v33q-3 16 -8 26 t-12.5 18.5t-17 16.5t-20.5 19q-14 0 -27.5 9t-30.5 9h-7l-31 -31t-30 -28.5t-24 -20.5t-13 -8q-2 0 -5 1t-3 3v320h-127v-113q0 -7 0.5 -27.5t1 -48t1 -58.5t1 -59t0.5 -49v-27v-32q0 -2 0.5 -7.5t1 -12.5t1.5 -13t1 -7v-7q-1 -3 -2 -13t-2 -13q0 -8 0.5 -28.5t1 -44 t1.5 -44t1 -28.5v-7q-4 -4 -5.5 -8.5t-9.5 -6.5q-2 -1 -7.5 -2t-6.5 -2h-51q-12 2 -20 3.5t-17 6t-21.5 15t-32.5 30.5q-14 14 -19.5 37t-9.5 43v141q0 5 0.5 12.5t1.5 15t2 13t3 7.5h11q7 -8 20 -15t25.5 -12.5l20.5 -9t7 -3.5l1 -0.5t2 -0.5q7 0 18 12t22 27.5l21 30.5 t16 21v4l-11 11q-5 5 -17.5 13t-25.5 15.5l-23 13t-11 5.5h-14q-37 -28 -50.5 -39.5t-16.5 -15.5t-3 -5l-10 -5q-23 -23 -40 -34t-29 -17l-20 -10t-12.5 -12t-6 -23.5t-1.5 -45.5v-109zM270 871v167q0 7 7.5 11t11.5 4h21h22q7 0 18.5 -6t22 -15.5t18 -22t7.5 -25.5 q0 -19 -8.5 -32.5t-23 -26t-34.5 -26t-43 -31.5q-1 -1 -3 -1h-4q-5 0 -8.5 1t-3.5 3zM25 439q0 -5 6 -8t12.5 -5.5t12.5 -4t6 -4.5q3 -3 5.5 -11.5t3.5 -10.5v-254q0 -33 19 -58t42 -42t44 -25.5t24 -8.5q1 -1 5 -1h6q8 0 12 1t10 7l11 11q18 18 35 31l37 27h4h4l4.5 -6.5 l10.5 -15t11.5 -15.5l5.5 -7q11 -5 25.5 -17.5t29.5 -18.5h3q8 4 15.5 15t17.5 21l4 4q8 8 18.5 17l20.5 18t16.5 17t6.5 14t-6 7t-14 1q-7 0 -15.5 0.5t-12.5 5.5q-14 7 -16 26t-2 35v186q0 39 2.5 80t2.5 87h-9q-9 0 -29.5 -0.5l-41.5 -1t-36.5 -3t-15.5 -6.5v-4l1 -22.5 l2.5 -56.5t2.5 -72.5t1 -69.5v-175q0 -3 -4.5 -8.5t-6.5 -5.5h-54q-20 0 -33 9t-20 19.5t-9.5 18.5t-2.5 7q0 5 -1 18.5t-1.5 29t-1 29t-0.5 18.5v26t0.5 46.5t1 56t1 56t1 46.5t0.5 26v39q-7 0 -15 -5t-17 -11.5l-18.5 -14t-18.5 -11.5q-23 -17 -41.5 -28.5t-20.5 -11.5 q-26 -15 -33.5 -23t-7.5 -13z" />
<glyph unicode="&#x152;" horiz-adv-x="1353" d="M738 367q0 -44 3 -70.5t6 -42t6 -22t3 -10.5q8 -25 17.5 -50.5t24 -49t36 -44.5t53.5 -37q15 -10 38 -18t48.5 -14t50.5 -9t44 -3h120q25 0 37 7.5t20 20.5t17 30t28 36q14 18 23.5 32t9.5 16q0 4 -8 7h-4q-29 -14 -71 -25.5t-86 -11.5q-19 0 -35.5 0.5t-34 2.5t-37 6 t-44.5 10q-7 2 -22.5 8t-31.5 14t-28 16.5t-12 15.5q-17 17 -28.5 46t-15.5 52v4q2 1 5 4t6 3h123h25q20 0 46.5 -0.5l55.5 -1l55.5 -1t46 -1t25.5 -0.5h26l3 4v105l-3 8h-26q-7 0 -34 -1t-58 -1.5t-58.5 -1t-34.5 -0.5h-185q-7 0 -17 2.5t-12 4.5v4q3 26 5 40.5t2 28.5v11 q5 17 10.5 38t15.5 31l14 7q11 0 24.5 3l27 6t25.5 6t18 3h112q32 0 67 -7.5t64 -17.5q8 -4 17.5 -8t18.5 -4v15q0 9 -0.5 28.5l-1 39t-2 34t-3.5 14.5q-22 10 -56 18t-75 8h-80q-21 -5 -43 -8.5t-41.5 -7.5l-33 -7t-16.5 -6q-7 -14 -19 -28t-25.5 -27.5t-27 -25.5 t-22.5 -21q-4 -3 -14.5 -11.5l-22 -18l-22 -17.5l-14.5 -11q-4 -17 -7.5 -29t-5.5 -25.5t-3.5 -31t-1.5 -45.5v-9v-9zM27 345q0 -51 4.5 -82t12.5 -52.5t19.5 -38l25.5 -37.5q14 -25 46 -51.5t77 -53.5q6 -4 17 -7.5t23 -6.5t22.5 -6t13.5 -6q5 0 17 -3.5t20 -3.5h98 l91.5 61t45 31t14.5 11.5t1.5 2t4.5 3l24 14.5q15 10 22.5 21t12 23.5t9 28.5t14.5 36q4 7 7.5 21.5t6 34t4 42.5t1.5 47q0 25 -0.5 40t-3.5 30t-10 35.5l-19 58.5q-6 6 -9.5 13.5t-9 17.5t-13.5 22t-23 27q-1 1 -8.5 7t-9.5 7l-11 11q-22 22 -45.5 34.5t-44 19t-36.5 8.5 t-23 3q-4 1 -13.5 2.5t-11.5 1.5h-80q-24 0 -48 -14t-45.5 -33.5t-39.5 -40t-30 -32.5q-30 -20 -48 -35t-29.5 -32.5t-19 -40.5t-16.5 -59q0 -12 -3.5 -34.5t-3.5 -37.5v-4v-4zM150 353v15q0 33 4 67.5t15 66.5q0 13 6 26t13 23.5t12.5 17t4.5 5.5q19 5 40 10t32 5h51 q35 0 66 -11t56.5 -28.5t46 -38.5t35.5 -42q0 -1 3.5 -8.5t7 -16t7 -15.5l3.5 -7q4 -11 7.5 -31t3.5 -38v-22q0 -42 -5.5 -71.5t-8.5 -37.5q-6 -18 -10 -27.5t-8 -17l-8.5 -16.5l-13.5 -26q-11 -20 -30 -24.5t-54 -4.5h-11q-35 0 -76 10t-76 33q-5 5 -15.5 12t-17.5 14l-3 3 q-21 21 -33 38t-19.5 32t-10.5 30l-6 31q-1 4 -2 11.5t-2.5 14.5l-2.5 12t-1 6z" />
<glyph unicode="&#x153;" horiz-adv-x="951" d="M561 282q0 -38 4.5 -60.5t10 -37.5t10 -25t4.5 -22q2 -2 8 -10t12 -17l11 -16t5 -8q9 -6 18.5 -13t17.5 -14t14.5 -11.5t11.5 -4.5q6 -3 19 -8t28.5 -10t33.5 -9t35 -6h4q1 0 11.5 9.5t24 23l27 26.5l21.5 21q7 7 14.5 18t7.5 13l-1 2q0 1 -1.5 3.5t-1.5 3.5l-9 4h-6 q-8 -8 -24 -10t-30 -2q-28 0 -56 7t-50.5 23t-36.5 41.5t-14 61.5q0 14 19 24l7 7q28 28 56.5 46t48.5 38q22 15 34.5 25l21.5 17.5t16.5 15l18.5 18.5v4l-36 36l-17.5 17.5l-24 23t-23.5 20t-15 8.5h-15q-3 0 -10.5 -4.5t-15 -9.5t-13 -9t-4.5 -3q-4 0 -11 -4t-13.5 -9 l-11 -8.5l-4.5 -3.5q-18 -12 -39 -23l-39 -21t-30 -20t-12 -20q-1 -3 -3 -15.5t-3.5 -28l-3 -30t-1.5 -20.5v-21v-23zM677 341v11v10q0 6 2 21.5t5 32.5l5.5 30.5l2.5 13.5q0 1 1.5 2.5l1.5 1.5h8q36 -36 55.5 -52t20.5 -17v-7q-40 -40 -62 -58.5t-31 -18.5q-5 -2 -6 9.5 t-3 20.5zM28 214q0 -16 4 -35.5t10.5 -38.5t15 -35t17.5 -25l18 -18q1 -1 5.5 -3.5t5.5 -3.5l11 -11q23 -23 61.5 -37t72.5 -14h33q5 0 18 6.5t28.5 15.5l30.5 18t25 14q13 9 27.5 16l27 13t20.5 11.5t8 10.5q9 31 19.5 76t10.5 101q0 19 -0.5 35t-5 34t-13.5 40.5t-25 55.5 q0 -2 -7 6.5l-16 19t-18 19.5t-14 9q-17 16 -39.5 26.5t-43.5 16t-35 7.5t-12 1q-1 0 -4 1.5t-4 2.5h-7q-10 -8 -25 -18l-32.5 -21.5l-36.5 -24l-37 -24.5q-41 -29 -64 -47.5t-23 -21.5q0 -19 -3.5 -35.5t-3.5 -33.5v-57v-52zM141 302v1v2q0 18 2 40t5 41.5t7.5 33 t10.5 16.5h51q18 0 39.5 -8.5t40 -19.5t31 -23t12.5 -18q9 -9 15 -22.5t9 -25.5t4 -21.5t1 -10.5q0 -2 1 -8t1.5 -13t1 -13t0.5 -9v-62q0 -9 -3 -25t-6.5 -31.5t-7.5 -27.5t-5 -14q0 -1 -1.5 -2.5l-1.5 -1.5h-22q-50 7 -71.5 20.5t-19.5 12.5q-32 19 -40 29.5t-11 13.5 q-8 15 -16 27t-14 27t-9.5 36t-3.5 56z" />
<glyph unicode="&#x2c6;" horiz-adv-x="757" d="M21 240q0 -32 12.5 -75t49.5 -88l7 -7q20 -20 42 -32t44 -18.5t43.5 -9.5l41.5 -6h7q25 10 33.5 26t10.5 18q4 5 12.5 13.5l8.5 8.5h4v-66h128v13t-0.5 20.5t-1.5 23.5t-3 23v120l4 4h2l13 -11q0 -2 8.5 -13.5t19 -24l19.5 -23.5t11 -12q18 -25 36.5 -48t34 -40.5t26 -28 t12.5 -10.5h3q4 0 18.5 12t30 26.5t27.5 27l12 12.5q0 3 -11 17.5l-25 32l-27 33.5t-18 21l-7 7l-16.5 21l-16.5 20.5t-14 16t-7 7.5l-11 11q-3 3 -7 9.5t-4 8.5v4l4 4q12 12 24.5 21l25 18t24.5 20t24 28q0 1 2 5.5l4.5 10.5l5 11.5t2.5 8.5v33q-3 16 -8 26t-12.5 18.5 t-17 16.5t-20.5 19q-14 0 -27.5 9t-30.5 9h-7l-31 -31t-30 -28.5t-24 -20.5t-13 -8q-2 0 -5 1t-3 3v320h-127v-113q0 -7 0.5 -27.5t1 -48t1 -58.5t1 -59t0.5 -49v-27v-32q0 -2 0.5 -7.5t1 -12.5t1.5 -13t1 -7v-7q-1 -3 -2 -13t-2 -13q0 -8 0.5 -28.5t1 -44t1.5 -44t1 -28.5 v-7q-4 -4 -5.5 -8.5t-9.5 -6.5q-2 -1 -7.5 -2t-6.5 -2h-51q-12 2 -20 3.5t-17 6t-21.5 15t-32.5 30.5q-14 14 -19.5 37t-9.5 43v141q0 5 0.5 12.5t1.5 15t2 13t3 7.5h11q7 -8 20 -15t25.5 -12.5l20.5 -9t7 -3.5l1 -0.5t2 -0.5q7 0 18 12t22 27.5l21 30.5t16 21v4l-11 11 q-5 5 -17.5 13t-25.5 15.5l-23 13t-11 5.5h-14q-37 -28 -50.5 -39.5t-16.5 -15.5t-3 -5l-10 -5q-23 -23 -40 -34t-29 -17l-20 -10t-12.5 -12t-6 -23.5t-1.5 -45.5v-109zM460 251v167q0 7 7.5 11t11.5 4h21h22q7 0 18.5 -6t22 -15.5t18 -22t7.5 -25.5q0 -19 -8.5 -32.5 t-23 -26t-34.5 -26t-43 -31.5q-1 -1 -3 -1h-4q-5 0 -8.5 1t-3.5 3z" />
<glyph unicode="&#x2000;" horiz-adv-x="783" />
<glyph unicode="&#x2001;" horiz-adv-x="1567" />
<glyph unicode="&#x2002;" horiz-adv-x="783" />
<glyph unicode="&#x2003;" horiz-adv-x="1567" />
<glyph unicode="&#x2004;" horiz-adv-x="522" />
<glyph unicode="&#x2005;" horiz-adv-x="391" />
<glyph unicode="&#x2006;" horiz-adv-x="261" />
<glyph unicode="&#x2007;" horiz-adv-x="261" />
<glyph unicode="&#x2008;" horiz-adv-x="195" />
<glyph unicode="&#x2009;" horiz-adv-x="313" />
<glyph unicode="&#x200a;" horiz-adv-x="87" />
<glyph unicode="&#x2010;" d="M39 294q73 0 145.5 -2t145.5 -2h10l3 4v105l-3 7h-26q-7 0 -34 -0.5t-58 -1t-58 -1.5t-34 -1h-87q-1 0 -2.5 -1.5l-1.5 -1.5v-4q0 -2 2 -9t2 -9v-44q0 -1 -1 -6t-1.5 -10l-1 -10t-0.5 -6v-7z" />
<glyph unicode="&#x2011;" d="M39 294q73 0 145.5 -2t145.5 -2h10l3 4v105l-3 7h-26q-7 0 -34 -0.5t-58 -1t-58 -1.5t-34 -1h-87q-1 0 -2.5 -1.5l-1.5 -1.5v-4q0 -2 2 -9t2 -9v-44q0 -1 -1 -6t-1.5 -10l-1 -10t-0.5 -6v-7z" />
<glyph unicode="&#x2012;" d="M39 294q73 0 145.5 -2t145.5 -2h10l3 4v105l-3 7h-26q-7 0 -34 -0.5t-58 -1t-58 -1.5t-34 -1h-87q-1 0 -2.5 -1.5l-1.5 -1.5v-4q0 -2 2 -9t2 -9v-44q0 -1 -1 -6t-1.5 -10l-1 -10t-0.5 -6v-7z" />
<glyph unicode="&#x2013;" d="M39 294q73 0 145.5 -2t145.5 -2h10l3 4v105l-3 7h-26q-7 0 -34 -0.5t-58 -1t-58 -1.5t-34 -1h-87q-1 0 -2.5 -1.5l-1.5 -1.5v-4q0 -2 2 -9t2 -9v-44q0 -1 -1 -6t-1.5 -10l-1 -10t-0.5 -6v-7z" />
<glyph unicode="&#x2014;" horiz-adv-x="601" d="M39 402q0 -3 2.5 -10t2.5 -15v-43q0 -2 -1 -6.5t-1.5 -10l-1 -10.5t-0.5 -6v-7q125 0 248 -2t248 -2h20l3 4v105l-3 7h-51q-66 0 -133.5 -0.5t-129.5 -1.5t-114.5 -1.5t-88.5 -0.5z" />
<glyph unicode="&#x2018;" horiz-adv-x="178" d="M26 684q0 19 0.5 32.5t4 25t11 23t21.5 25.5q7 12 16 12q3 0 7.5 -3t9.5 -7.5l9.5 -8.5t7.5 -7l29 -29q3 -3 8 -8.5t9.5 -11l8 -9.5l3.5 -4v-7l-29 -29q-1 1 -9 1q-11 0 -20 -10t-21 -38q-1 -2 -2.5 -5.5t-1.5 -4.5v-13v-13q0 -12 3 -21t7 -16t7 -13.5t3 -13.5 q-8 0 -12 1t-8 4t-8.5 8.5t-13.5 14.5q-5 15 -12 28t-13 27t-10.5 30.5t-4.5 39.5z" />
<glyph unicode="&#x2019;" horiz-adv-x="180" d="M6 707l29 -29q1 1 9 1q11 0 20 -10t21 -38q1 -2 2.5 -5.5t1.5 -4.5v-13v-13q0 -12 -3 -21t-7 -16t-7 -13.5t-3 -13.5q8 0 12 1t8 4t8.5 8.5t13.5 14.5q5 15 12 28t13 27t10.5 30.5t4.5 39.5q0 19 -0.5 32.5t-4 25t-11 23t-21.5 25.5q-8 12 -16 12q-3 0 -7.5 -3t-9.5 -7.5 l-9.5 -8.5t-7.5 -7l-29 -29q-3 -3 -8 -8.5t-9.5 -11l-8 -9.5l-3.5 -4v-7z" />
<glyph unicode="&#x201c;" horiz-adv-x="366" d="M33 678q0 19 0.5 32.5t4 25t11 23t21.5 25.5q7 12 16 12q3 0 7.5 -3t9.5 -7.5l9.5 -8.5t7.5 -7l29 -29q3 -3 8 -8.5t9.5 -11l8 -9.5l3.5 -4v-7l-29 -29q-1 1 -9 1q-11 0 -20 -10t-21 -38q-1 -2 -2.5 -5.5t-1.5 -4.5v-13v-13q0 -12 3 -21t7 -16t7 -13.5t3 -13.5 q-8 0 -12 1t-8 4t-8.5 8.5t-13.5 14.5q-5 15 -12 28t-13 27t-10.5 30.5t-4.5 39.5zM201 684q0 19 0.5 32.5t4 25t11 23t21.5 25.5q7 12 16 12q3 0 7.5 -3t9.5 -7.5l9.5 -8.5t7.5 -7l29 -29q3 -3 8 -8.5t9.5 -11l8 -9.5l3.5 -4v-7l-29 -29q-1 1 -9 1q-11 0 -20 -10t-21 -38 q-1 -2 -2.5 -5.5t-1.5 -4.5v-13v-13q0 -12 3 -21t7 -16t7 -13.5t3 -13.5q-8 0 -12 1t-8 4t-8.5 8.5t-13.5 14.5q-5 15 -12 28t-13 27t-10.5 30.5t-4.5 39.5z" />
<glyph unicode="&#x201d;" horiz-adv-x="367" d="M19 707l29 -29q1 1 9 1q11 0 20 -10t21 -38q1 -2 2.5 -5.5t1.5 -4.5v-13v-13q0 -12 -3 -21t-7 -16t-7 -13.5t-3 -13.5q8 0 12 1t8 4t8.5 8.5t13.5 14.5q5 15 12 28t13 27t10.5 30.5t4.5 39.5q0 19 -0.5 32.5t-4 25t-11 23t-21.5 25.5q-8 12 -16 12q-3 0 -7.5 -3 t-9.5 -7.5l-9.5 -8.5t-7.5 -7l-29 -29q-3 -3 -8 -8.5t-9.5 -11l-8 -9.5l-3.5 -4v-7zM187 701l29 -29q1 1 9 1q11 0 20 -10t21 -38q1 -2 2.5 -5.5t1.5 -4.5v-13v-13q0 -12 -3 -21t-7 -16t-7 -13.5t-3 -13.5q8 0 12 1t8 4t8.5 8.5t13.5 14.5q5 15 12 28t13 27t10.5 30.5 t4.5 39.5q0 19 -0.5 32.5t-4 25t-11 23t-21.5 25.5q-8 12 -16 12q-3 0 -7.5 -3t-9.5 -7.5l-9.5 -8.5t-7.5 -7l-29 -29q-3 -3 -8 -8.5t-9.5 -11l-8 -9.5l-3.5 -4v-7z" />
<glyph unicode="&#x2026;" horiz-adv-x="660" d="M32 62q0 -4 9.5 -12.5l21 -18.5l22 -18.5t12.5 -12.5h8q1 1 9.5 9l21 19.5t19.5 18.5l33 33q1 1 2 3.5t2 3.5v7q-5 9 -17 21t-16 12q-5 4 -11 10t-11 11.5t-8.5 8.5t-3.5 0q-2 0 -4 -0.5l-2 -0.5l-11 -11q-1 -1 -8.5 -7t-9.5 -7l-29 -29q-3 -4 -8 -9.5l-9.5 -10.5l-8 -9 l-3.5 -4v-7zM246 62q0 -2 9.5 -11.5l21.5 -21t22.5 -20.5t12.5 -9h7q5 4 19.5 17t29.5 28l26.5 27.5t11.5 14.5v7q-1 2 -6.5 8.5t-8.5 10.5l-10 10q-1 1 -4 2.5t-4 1.5l-29 29q-1 0 -2.5 0.5t-2.5 0.5q-9 0 -15.5 -9.5t-19.5 -16.5l-29 -29q-3 -4 -8 -9.5l-9.5 -10.5l-8 -9 l-3.5 -4v-7zM468 62q0 -1 9.5 -11t21 -21l22 -20.5t12.5 -9.5h7l6 5.5l14 13l16.5 15.5t14.5 13l33 33q0 3 2 5.5t2 5.5q0 4 -5.5 10.5t-12 13t-11.5 10.5t-4 2q-8 7 -19 18.5t-16 11.5q-11 0 -27 -14.5t-30.5 -31.5t-24.5 -30.5t-10 -11.5v-7z" />
<glyph unicode="&#x202f;" horiz-adv-x="313" />
<glyph unicode="&#x205f;" horiz-adv-x="391" />
<glyph unicode="&#x2122;" horiz-adv-x="1651" d="M784 530q0 -8 1.5 -28t3.5 -43t3.5 -43t2.5 -28v-392h131v54q0 4 -1 20t-1.5 34.5t-1 34.5t-0.5 20v37v22t-0.5 40t-1 48.5t-1 48.5t-1 40t-0.5 22v164q6 6 11 7h66q45 0 68 -20.5t32.5 -44.5t10.5 -43.5t1 -18.5v-55q5 -113 5 -213v-193h126v21q0 5 -0.5 23t-1.5 39 t-1.5 39t-0.5 23v349q0 14 -3.5 29.5t-3.5 28.5v25l4 4q1 0 9.5 0.5t13.5 0.5q32 0 64 -6t69 -6h14q8 -2 15 -4t7 -7v-15q0 -79 -2 -153t-2 -140q0 -57 -2.5 -90t0.5 -55t15.5 -40.5t41.5 -47.5q7 -7 17 -14.5t12 -7.5h11l33 33q17 17 34.5 29t34.5 29l3 3q0 1 0.5 2.5 t0.5 3.5q0 5 -6 7.5t-14 4t-16 2t-12 2.5q-13 7 -19 24.5t-7.5 40t-0.5 46.5t1 45q0 45 1 83.5t2.5 75.5t4 74.5t4.5 79.5v36q0 1 0.5 6.5l1 11.5l1 11.5t0.5 6.5v33q-1 0 -14 2t-32 4t-42 4l-44.5 4t-39 3t-24.5 1h-11q-15 5 -33.5 10t-31.5 5h-7q-8 -8 -18.5 -26 l-20.5 -36.5l-18 -32.5t-9 -14h-3q-2 0 -7.5 6.5l-12 14.5l-13.5 16t-11 10q-21 21 -56 30.5t-89 20.5q-5 1 -16 2t-13 2h-73l-4 -4l-18 -28t-14 -19l-8 -8q-7 -7 -16 -17l-17.5 -19.5t-14.5 -17.5t-6 -11l-12 -12l-13 -13t-10.5 -11.5t-4.5 -7.5v-14zM14 516l105 -106h11 l4 4l44.5 48t17.5 21v7l-25 27l-27 28t-21 22.5t-7 10.5l7 7h58q27 0 53.5 1t49.5 2.5l39.5 2.5t24.5 1t18.5 -0.5t10.5 -5.5v-1q0 -3 -12 -13l-25.5 -20.5t-24 -17.5t-7.5 -4q-18 -14 -28.5 -28.5t-18.5 -27.5t-14 -24.5t-15 -20.5q-11 -26 -17 -41.5t-8.5 -26.5t-3 -21 t-0.5 -24v-29v-29q0 -47 19 -86.5t48.5 -69.5t65 -50t67.5 -30q21 -6 35 -9.5t29 -5.5t35 -3.5t53 -3.5h4q19 2 30.5 3.5t18.5 4t11.5 7t10.5 11.5l14.5 17.5t23.5 25.5q20 24 32 36t12 20q0 3 -1 6t-3 3h-4q-21 -11 -38 -16t-24 -5h-123q-11 0 -20.5 3.5l-19 7t-20 7 t-24.5 3.5q-16 8 -28.5 16.5t-29.5 16.5l-18 18q-17 23 -27 48t-10 64q0 47 7.5 73l7.5 26q10 17 14.5 28t7 18l4.5 12.5t7.5 13.5t16 20t30.5 31q23 23 40.5 34t35.5 17q13 6 30 9.5t34.5 6l33.5 5t26 5.5h40q5 0 20 1t20 2q-1 2 -1 9v15q0 16 2 22.5t2 15.5v15q1 1 4 3.5 t4 3.5v7q0 1 -2 4l-2 3v11q0 1 -1.5 2t-2.5 2h-3q-6 0 -21 -1.5t-33 -3t-37.5 -3.5t-35.5 -3h-15q-2 0 -14.5 -1.5t-14.5 -2.5h-4q-6 0 -25 0.5t-44 1.5t-54 2t-54 2t-44 1.5t-25 0.5h-117l-7 -4q-11 -26 -43 -72t-95 -102v-11z" />
<glyph unicode="&#xe000;" horiz-adv-x="540" d="M0 540h540v-540h-540v540z" />
<glyph unicode="&#xfb01;" horiz-adv-x="613" d="M360 448l6.5 -2.5l15 -5.5t16 -6.5t9.5 -7.5q6 -9 7 -19.5t4 -23.5v-11q0 -7 -0.5 -33t-1.5 -56t-1.5 -56t-0.5 -32v-51v-51q0 -19 11 -34t25.5 -26.5t29 -19t21.5 -10.5h11q24 27 41 43.5t28.5 25.5l16.5 13t5 8q0 2 -1 8.5t-3 6.5h-11q-2 0 -7.5 -1.5t-7.5 -2.5h-3 q-3 3 -8.5 5t-9.5 6l-4 4q-6 6 -8.5 15t-2.5 17v319q-4 12 -8 21t-17 26l-11 11q-8 8 -18.5 16.5t-21.5 12.5h-7l-87 -84q-1 -1 -4 -5t-3 -6v-14zM396 629l18 -29h18q7 0 21.5 14t29 31l25.5 30t11 12v7q-9 9 -15.5 19.5t-15.5 10.5q-1 0 -3 -0.5l-2 -0.5l-11 -11 q-2 -1 -9 -7t-9 -7l-29 -29q-3 -4 -8 -9.5l-9.5 -10.5l-8 -9l-3.5 -4v-7zM18 438q3 -3 7 -3h22q7 -2 16 -2.5t9 -5.5v-413h113l3 4q0 1 0.5 8t0.5 16v18v16q0 31 -0.5 56.5t-1.5 49.5t-1.5 48.5t-0.5 51.5v4q0 8 0.5 28.5t1 44t1 44t0.5 28.5q4 1 15 2.5t24.5 2.5t28.5 1.5 t27 0.5v76q0 4 -6.5 5t-11.5 3h-8q-1 0 -3.5 3t-3.5 4h-4q-7 -7 -15.5 -8t-23.5 -3h-11q-5 0 -8 7.5t-3 14.5v152l1 1.5t2 2.5h4q2 -1 5.5 -3.5t5.5 -4.5l14 -14q1 -1 5.5 -4t5.5 -3l26 -26h11l61 62q4 2 6 7.5t2 6.5t-0.5 2.5l-0.5 1.5l-7 7l-37.5 35l-38.5 34h-11 l-13.5 -11.5t-31 -25t-33.5 -24.5t-20 -11q-28 -28 -50 -40t-22 -18v-40q0 -3 0.5 -12.5t1 -20.5t1 -20.5t0.5 -12.5v-7q0 -6 -1.5 -17.5l-1.5 -11.5l-7 -9h-40q-1 0 -2.5 -7.5t-1.5 -12.5v-58z" />
<glyph unicode="&#xfb02;" horiz-adv-x="603" d="M385 625q0 -41 0.5 -97t1 -119t1 -119t1 -97.5t0.5 -54.5v-44q0 -18 12 -34.5t25.5 -28.5t23.5 -17.5t7 -2.5q3 -2 11.5 -6t10.5 -5h11l39.5 32.5l32.5 26t22.5 21t8.5 18.5h-45q-12 0 -19.5 7.5t-12 17t-6.5 18.5t-2 11v272q0 8 0.5 34t1.5 60.5t2 73.5t1.5 73.5t1 60.5 t0.5 34v15h-130v-94v-56zM18 438q3 -3 7 -3h22q7 -2 16 -2.5t9 -5.5v-413h113l3 4q0 1 0.5 8t0.5 16v18v16q0 31 -0.5 56.5t-1.5 49.5t-1.5 48.5t-0.5 51.5v4q0 8 0.5 28.5t1 44t1 44t0.5 28.5q4 1 15 2.5t24.5 2.5t28.5 1.5t27 0.5v76q0 4 -6.5 5t-11.5 3h-8q-1 0 -3.5 3 t-3.5 4h-4q-7 -7 -15.5 -8t-23.5 -3h-11q-5 0 -8 7.5t-3 14.5v152l1 1.5t2 2.5h4q2 -1 5.5 -3.5t5.5 -4.5l14 -14q1 -1 5.5 -4t5.5 -3l26 -26h11l61 62q4 2 6 7.5t2 6.5t-0.5 2.5l-0.5 1.5l-7 7l-37.5 35l-38.5 34h-11l-13.5 -11.5t-31 -25t-33.5 -24.5t-20 -11 q-28 -28 -50 -40t-22 -18v-40q0 -3 0.5 -12.5t1 -20.5t1 -20.5t0.5 -12.5v-7q0 -6 -1.5 -17.5l-1.5 -11.5l-7 -9h-40q-1 0 -2.5 -7.5t-1.5 -12.5v-58z" />
<glyph unicode="&#xfb03;" horiz-adv-x="959" d="M706 448l6.5 -2.5l15 -5.5t16 -6.5t9.5 -7.5q6 -9 7 -19.5t4 -23.5v-11q0 -7 -0.5 -33t-1.5 -56t-1.5 -56t-0.5 -32v-51v-51q0 -19 11 -34t25.5 -26.5t29 -19t21.5 -10.5h11q24 27 41 43.5t28.5 25.5l16.5 13t5 8q0 2 -1 8.5t-3 6.5h-11q-2 0 -7.5 -1.5t-7.5 -2.5h-3 q-3 3 -8.5 5t-9.5 6l-4 4q-6 6 -8.5 15t-2.5 17v319q-4 12 -8 21t-17 26l-11 11q-8 8 -18.5 16.5t-21.5 12.5h-7l-87 -84q-1 -1 -4 -5t-3 -6v-14zM742 629l18 -29h18q7 0 21.5 14t29 31l25.5 30t11 12v7q-9 9 -15.5 19.5t-15.5 10.5q-1 0 -3 -0.5l-2 -0.5l-11 -11 q-2 -1 -9 -7t-9 -7l-29 -29q-3 -4 -8 -9.5l-9.5 -10.5l-8 -9l-3.5 -4v-7zM364 438q3 -3 7 -3h22q7 -2 16 -2.5t9 -5.5v-413h113l3 4q0 1 0.5 8t0.5 16v18v16q0 31 -0.5 56.5t-1.5 49.5t-1.5 48.5t-0.5 51.5v4q0 8 0.5 28.5t1 44t1 44t0.5 28.5q4 1 15 2.5t24.5 2.5t28.5 1.5 t27 0.5v76q0 4 -6.5 5t-11.5 3h-8q-1 0 -3.5 3t-3.5 4h-4q-7 -7 -15.5 -8t-23.5 -3h-11q-5 0 -8 7.5t-3 14.5v152l1 1.5t2 2.5h4q2 -1 5.5 -3.5t5.5 -4.5l14 -14q1 -1 5.5 -4t5.5 -3l26 -26h11l61 62q4 2 6 7.5t2 6.5t-0.5 2.5l-0.5 1.5l-7 7l-37.5 35l-38.5 34h-11 l-13.5 -11.5t-31 -25t-33.5 -24.5t-20 -11q-28 -28 -50 -40t-22 -18v-40q0 -3 0.5 -12.5t1 -20.5t1 -20.5t0.5 -12.5v-7q0 -6 -1.5 -17.5l-1.5 -11.5l-7 -9h-40q-1 0 -2.5 -7.5t-1.5 -12.5v-58zM18 438q3 -3 7 -3h22q7 -2 16 -2.5t9 -5.5v-413h113l3 4q0 1 0.5 8t0.5 16v18 v16q0 31 -0.5 56.5t-1.5 49.5t-1.5 48.5t-0.5 51.5v4q0 8 0.5 28.5t1 44t1 44t0.5 28.5q4 1 15 2.5t24.5 2.5t28.5 1.5t27 0.5v76q0 4 -6.5 5t-11.5 3h-8q-1 0 -3.5 3t-3.5 4h-4q-7 -7 -15.5 -8t-23.5 -3h-11q-5 0 -8 7.5t-3 14.5v152l1 1.5t2 2.5h4q2 -1 5.5 -3.5t5.5 -4.5 l14 -14q1 -1 5.5 -4t5.5 -3l26 -26h11l61 62q4 2 6 7.5t2 6.5t-0.5 2.5l-0.5 1.5l-7 7l-37.5 35l-38.5 34h-11l-13.5 -11.5t-31 -25t-33.5 -24.5t-20 -11q-28 -28 -50 -40t-22 -18v-40q0 -3 0.5 -12.5t1 -20.5t1 -20.5t0.5 -12.5v-7q0 -6 -1.5 -17.5l-1.5 -11.5l-7 -9h-40 q-1 0 -2.5 -7.5t-1.5 -12.5v-58z" />
<glyph unicode="&#xfb04;" horiz-adv-x="949" d="M731 625q0 -41 0.5 -97t1 -119t1 -119t1 -97.5t0.5 -54.5v-44q0 -18 12 -34.5t25.5 -28.5t23.5 -17.5t7 -2.5q3 -2 11.5 -6t10.5 -5h11l39.5 32.5l32.5 26t22.5 21t8.5 18.5h-45q-12 0 -19.5 7.5t-12 17t-6.5 18.5t-2 11v272q0 8 0.5 34t1.5 60.5t2 73.5t1.5 73.5t1 60.5 t0.5 34v15h-130v-94v-56zM364 438q3 -3 7 -3h22q7 -2 16 -2.5t9 -5.5v-413h113l3 4q0 1 0.5 8t0.5 16v18v16q0 31 -0.5 56.5t-1.5 49.5t-1.5 48.5t-0.5 51.5v4q0 8 0.5 28.5t1 44t1 44t0.5 28.5q4 1 15 2.5t24.5 2.5t28.5 1.5t27 0.5v76q0 4 -6.5 5t-11.5 3h-8q-1 0 -3.5 3 t-3.5 4h-4q-7 -7 -15.5 -8t-23.5 -3h-11q-5 0 -8 7.5t-3 14.5v152l1 1.5t2 2.5h4q2 -1 5.5 -3.5t5.5 -4.5l14 -14q1 -1 5.5 -4t5.5 -3l26 -26h11l61 62q4 2 6 7.5t2 6.5t-0.5 2.5l-0.5 1.5l-7 7l-37.5 35l-38.5 34h-11l-13.5 -11.5t-31 -25t-33.5 -24.5t-20 -11 q-28 -28 -50 -40t-22 -18v-40q0 -3 0.5 -12.5t1 -20.5t1 -20.5t0.5 -12.5v-7q0 -6 -1.5 -17.5l-1.5 -11.5l-7 -9h-40q-1 0 -2.5 -7.5t-1.5 -12.5v-58zM18 438q3 -3 7 -3h22q7 -2 16 -2.5t9 -5.5v-413h113l3 4q0 1 0.5 8t0.5 16v18v16q0 31 -0.5 56.5t-1.5 49.5t-1.5 48.5 t-0.5 51.5v4q0 8 0.5 28.5t1 44t1 44t0.5 28.5q4 1 15 2.5t24.5 2.5t28.5 1.5t27 0.5v76q0 4 -6.5 5t-11.5 3h-8q-1 0 -3.5 3t-3.5 4h-4q-7 -7 -15.5 -8t-23.5 -3h-11q-5 0 -8 7.5t-3 14.5v152l1 1.5t2 2.5h4q2 -1 5.5 -3.5t5.5 -4.5l14 -14q1 -1 5.5 -4t5.5 -3l26 -26h11 l61 62q4 2 6 7.5t2 6.5t-0.5 2.5l-0.5 1.5l-7 7l-37.5 35l-38.5 34h-11l-13.5 -11.5t-31 -25t-33.5 -24.5t-20 -11q-28 -28 -50 -40t-22 -18v-40q0 -3 0.5 -12.5t1 -20.5t1 -20.5t0.5 -12.5v-7q0 -6 -1.5 -17.5l-1.5 -11.5l-7 -9h-40q-1 0 -2.5 -7.5t-1.5 -12.5v-58z" />
</font>
</defs>
</svg>
